M48
;DRILL file {Pcbnew (2013-may-18)-stable} date dim 05 jun 2016 17:23:10 CEST
;FORMAT={-:-/ absolute / inch / decimal}
FMAT,2
INCH,TZ
T1C0.024
T2C0.040
T3C0.045
T4C0.060
T5C0.120
%
G90
G05
M72
T1
X1.725Y-1.565
X1.725Y-1.665
X1.725Y-1.765
X1.725Y-1.865
X1.725Y-1.965
X1.725Y-2.065
X1.725Y-2.165
X1.725Y-2.265
X1.985Y-1.565
X1.985Y-1.665
X1.985Y-1.765
X1.985Y-1.865
X1.985Y-1.965
X1.985Y-2.065
X1.985Y-2.165
X1.985Y-2.265
X2.09Y-1.635
X2.09Y-1.735
X2.09Y-1.835
X2.09Y-1.935
X2.09Y-2.135
X2.09Y-2.235
X2.39Y-1.635
X2.39Y-1.735
X2.39Y-2.035
X2.39Y-2.135
X2.39Y-2.235
X2.5053Y-1.7849
X2.5053Y-2.4149
X2.5958Y-1.5309
X2.5958Y-2.0349
X2.5958Y-2.1609
X2.5958Y-2.6649
X3.0761Y-1.5309
X3.0761Y-2.0349
X3.0761Y-2.1609
X3.0761Y-2.6649
T2
X1.52Y-1.665
X1.52Y-1.765
X1.52Y-1.865
X1.52Y-1.965
X1.52Y-2.065
X1.62Y-1.665
X1.62Y-1.765
X1.62Y-1.865
X1.62Y-1.965
X1.62Y-2.065
X2.165Y-2.425
X2.265Y-2.425
T3
X2.07Y-1.2
X2.17Y-1.2
X2.27Y-1.2
T4
X2.48Y-1.21
X2.68Y-1.21
X2.92Y-1.21
X3.12Y-1.21
T5
X1.58Y-2.6
T2
X1.61Y-1.19G85X1.61Y-1.25
G05
X1.67Y-1.42G85X1.73Y-1.42
G05
X1.85Y-1.19G85X1.85Y-1.25
G05
T0
M30
