G04 (created by PCBNEW (2013-may-18)-stable) date dim 05 jun 2016 14:26:50 CEST*
%MOIN*%
G04 Gerber Fmt 3.4, Leading zero omitted, Abs format*
%FSLAX34Y34*%
G01*
G70*
G90*
G04 APERTURE LIST*
%ADD10C,0.00590551*%
%ADD11R,0.06X0.06*%
%ADD12C,0.06*%
%ADD13C,0.0590551*%
%ADD14R,0.1X0.1*%
%ADD15C,0.1*%
%ADD16C,0.07*%
%ADD17R,0.07X0.07*%
%ADD18C,0.189*%
%ADD19R,0.189X0.189*%
%ADD20R,0.06X0.08*%
%ADD21R,0.0629X0.0709*%
%ADD22R,0.08X0.06*%
%ADD23R,0.025X0.045*%
%ADD24C,0.023622*%
%ADD25C,0.01*%
G04 APERTURE END LIST*
G54D10*
G54D11*
X16200Y-20650D03*
G54D12*
X15200Y-20650D03*
X16200Y-19650D03*
X15200Y-19650D03*
X16200Y-18650D03*
X15200Y-18650D03*
X16200Y-17650D03*
X15200Y-17650D03*
X16200Y-16650D03*
X15200Y-16650D03*
G54D13*
X25052Y-17848D03*
X30761Y-20348D03*
X25958Y-20348D03*
X25958Y-15309D03*
X30761Y-15309D03*
G54D14*
X24800Y-12100D03*
G54D15*
X26800Y-12100D03*
G54D13*
X23900Y-17350D03*
X23900Y-16350D03*
X23900Y-20350D03*
X23900Y-21350D03*
X23900Y-22350D03*
X20900Y-22350D03*
X20900Y-21350D03*
X20900Y-19350D03*
X20900Y-18350D03*
X20900Y-17350D03*
X20900Y-16350D03*
X25052Y-24148D03*
X30761Y-26648D03*
X25958Y-26648D03*
X25958Y-21609D03*
X30761Y-21609D03*
G54D11*
X21650Y-24250D03*
G54D12*
X22650Y-24250D03*
G54D16*
X20700Y-12000D03*
G54D17*
X21700Y-12000D03*
G54D16*
X22700Y-12000D03*
G54D18*
X16100Y-12200D03*
G54D19*
X18500Y-12200D03*
G54D18*
X17000Y-14200D03*
G54D14*
X31200Y-12100D03*
G54D15*
X29200Y-12100D03*
G54D13*
X17250Y-15650D03*
X17250Y-16650D03*
X17250Y-17650D03*
X17250Y-18650D03*
X17250Y-19650D03*
X17250Y-21650D03*
X17250Y-22650D03*
X19850Y-22650D03*
X19850Y-21650D03*
X19850Y-20650D03*
X19850Y-19650D03*
X19850Y-18650D03*
X19850Y-17650D03*
X19850Y-16650D03*
X19850Y-15650D03*
X17250Y-20650D03*
G54D20*
X25250Y-14200D03*
X23950Y-14200D03*
X29650Y-14200D03*
X28350Y-14200D03*
X21650Y-14200D03*
X22950Y-14200D03*
G54D21*
X27359Y-14200D03*
X26241Y-14200D03*
X31759Y-14200D03*
X30641Y-14200D03*
X19641Y-14200D03*
X20759Y-14200D03*
G54D22*
X23850Y-24850D03*
X23850Y-23550D03*
G54D23*
X20700Y-13200D03*
X21300Y-13200D03*
X22700Y-13200D03*
X22100Y-13200D03*
G54D24*
X20700Y-12000D02*
X20700Y-13200D01*
G54D25*
X23850Y-24850D02*
X23850Y-24650D01*
X21450Y-22950D02*
X20900Y-22350D01*
X24400Y-22950D02*
X21450Y-22950D01*
X24450Y-22987D02*
X24400Y-22950D01*
X24450Y-24050D02*
X24450Y-22987D01*
X23850Y-24650D02*
X24450Y-24050D01*
X19850Y-15650D02*
X19850Y-14409D01*
X19850Y-14409D02*
X19641Y-14200D01*
X22700Y-13200D02*
X22700Y-12000D01*
X25958Y-20348D02*
X25958Y-19991D01*
X27359Y-18591D02*
X27359Y-14200D01*
X25958Y-19991D02*
X27359Y-18591D01*
X31759Y-14200D02*
X31759Y-24991D01*
X30101Y-26648D02*
X25958Y-26648D01*
X31759Y-24991D02*
X30101Y-26648D01*
X30641Y-14200D02*
X29650Y-14200D01*
X21650Y-14200D02*
X20759Y-14200D01*
X26241Y-14200D02*
X25250Y-14200D01*
X22650Y-24250D02*
X23150Y-24250D01*
X23150Y-24250D02*
X23850Y-23550D01*
X15200Y-19650D02*
X15200Y-19750D01*
X16150Y-23550D02*
X23850Y-23550D01*
X15700Y-23100D02*
X16150Y-23550D01*
X15700Y-20250D02*
X15700Y-23100D01*
X15200Y-19750D02*
X15700Y-20250D01*
G54D10*
G36*
X32130Y-13598D02*
X32123Y-13595D01*
X32023Y-13595D01*
X31950Y-13595D01*
X31950Y-12550D01*
X31950Y-11550D01*
X31912Y-11458D01*
X31841Y-11388D01*
X31749Y-11350D01*
X31650Y-11349D01*
X30650Y-11349D01*
X30558Y-11387D01*
X30488Y-11458D01*
X30450Y-11550D01*
X30449Y-11649D01*
X30449Y-12649D01*
X30487Y-12741D01*
X30558Y-12811D01*
X30650Y-12849D01*
X30749Y-12850D01*
X31749Y-12850D01*
X31841Y-12812D01*
X31911Y-12741D01*
X31949Y-12649D01*
X31950Y-12550D01*
X31950Y-13595D01*
X31394Y-13595D01*
X31303Y-13633D01*
X31232Y-13703D01*
X31199Y-13782D01*
X31167Y-13704D01*
X31097Y-13633D01*
X31005Y-13595D01*
X30905Y-13595D01*
X30276Y-13595D01*
X30185Y-13633D01*
X30160Y-13657D01*
X30091Y-13588D01*
X29999Y-13550D01*
X29950Y-13550D01*
X29950Y-11951D01*
X29836Y-11675D01*
X29625Y-11464D01*
X29349Y-11350D01*
X29051Y-11349D01*
X28775Y-11463D01*
X28564Y-11674D01*
X28450Y-11950D01*
X28449Y-12248D01*
X28563Y-12524D01*
X28774Y-12735D01*
X29050Y-12849D01*
X29348Y-12850D01*
X29624Y-12736D01*
X29835Y-12525D01*
X29949Y-12249D01*
X29950Y-11951D01*
X29950Y-13550D01*
X29900Y-13549D01*
X29300Y-13549D01*
X29208Y-13587D01*
X29138Y-13658D01*
X29100Y-13750D01*
X29099Y-13849D01*
X29099Y-14649D01*
X29137Y-14741D01*
X29208Y-14811D01*
X29300Y-14849D01*
X29399Y-14850D01*
X29999Y-14850D01*
X30091Y-14812D01*
X30161Y-14742D01*
X30184Y-14766D01*
X30276Y-14804D01*
X30376Y-14804D01*
X30542Y-14804D01*
X30476Y-14832D01*
X30449Y-14926D01*
X30761Y-15238D01*
X31073Y-14926D01*
X31046Y-14832D01*
X30968Y-14804D01*
X31005Y-14804D01*
X31096Y-14766D01*
X31167Y-14696D01*
X31200Y-14617D01*
X31232Y-14695D01*
X31302Y-14766D01*
X31394Y-14804D01*
X31459Y-14804D01*
X31459Y-24866D01*
X31311Y-25014D01*
X31311Y-21690D01*
X31311Y-15390D01*
X31300Y-15173D01*
X31238Y-15024D01*
X31143Y-14997D01*
X30832Y-15309D01*
X31143Y-15621D01*
X31238Y-15594D01*
X31311Y-15390D01*
X31311Y-21690D01*
X31306Y-21597D01*
X31306Y-20240D01*
X31223Y-20040D01*
X31073Y-19889D01*
X31073Y-15691D01*
X30761Y-15380D01*
X30690Y-15450D01*
X30690Y-15309D01*
X30378Y-14997D01*
X30284Y-15024D01*
X30211Y-15228D01*
X30222Y-15445D01*
X30284Y-15594D01*
X30378Y-15621D01*
X30690Y-15309D01*
X30690Y-15450D01*
X30449Y-15691D01*
X30476Y-15786D01*
X30680Y-15859D01*
X30897Y-15848D01*
X31046Y-15786D01*
X31073Y-15691D01*
X31073Y-19889D01*
X31070Y-19886D01*
X30870Y-19803D01*
X30653Y-19803D01*
X30452Y-19886D01*
X30299Y-20039D01*
X30216Y-20239D01*
X30216Y-20456D01*
X30298Y-20657D01*
X30452Y-20810D01*
X30652Y-20893D01*
X30869Y-20894D01*
X31069Y-20811D01*
X31223Y-20658D01*
X31306Y-20457D01*
X31306Y-20240D01*
X31306Y-21597D01*
X31300Y-21473D01*
X31238Y-21324D01*
X31143Y-21297D01*
X31073Y-21368D01*
X31073Y-21226D01*
X31046Y-21132D01*
X30842Y-21059D01*
X30625Y-21070D01*
X30476Y-21132D01*
X30449Y-21226D01*
X30761Y-21538D01*
X31073Y-21226D01*
X31073Y-21368D01*
X30832Y-21609D01*
X31143Y-21921D01*
X31238Y-21894D01*
X31311Y-21690D01*
X31311Y-25014D01*
X31073Y-25252D01*
X31073Y-21991D01*
X30761Y-21680D01*
X30690Y-21750D01*
X30690Y-21609D01*
X30378Y-21297D01*
X30284Y-21324D01*
X30211Y-21528D01*
X30222Y-21745D01*
X30284Y-21894D01*
X30378Y-21921D01*
X30690Y-21609D01*
X30690Y-21750D01*
X30449Y-21991D01*
X30476Y-22086D01*
X30680Y-22159D01*
X30897Y-22148D01*
X31046Y-22086D01*
X31073Y-21991D01*
X31073Y-25252D01*
X29976Y-26348D01*
X28900Y-26348D01*
X28900Y-14550D01*
X28900Y-13849D01*
X28899Y-13750D01*
X28861Y-13658D01*
X28791Y-13587D01*
X28699Y-13549D01*
X28462Y-13550D01*
X28400Y-13612D01*
X28400Y-14150D01*
X28837Y-14150D01*
X28900Y-14087D01*
X28900Y-13849D01*
X28900Y-14550D01*
X28900Y-14312D01*
X28837Y-14250D01*
X28400Y-14250D01*
X28400Y-14787D01*
X28462Y-14850D01*
X28699Y-14850D01*
X28791Y-14812D01*
X28861Y-14741D01*
X28899Y-14649D01*
X28900Y-14550D01*
X28900Y-26348D01*
X28300Y-26348D01*
X28300Y-14787D01*
X28300Y-14250D01*
X28292Y-14250D01*
X28292Y-14150D01*
X28300Y-14150D01*
X28300Y-13612D01*
X28237Y-13550D01*
X28000Y-13549D01*
X27908Y-13587D01*
X27838Y-13657D01*
X27815Y-13633D01*
X27723Y-13595D01*
X27623Y-13595D01*
X27550Y-13595D01*
X27550Y-11951D01*
X27436Y-11675D01*
X27225Y-11464D01*
X26949Y-11350D01*
X26651Y-11349D01*
X26375Y-11463D01*
X26164Y-11674D01*
X26050Y-11950D01*
X26049Y-12248D01*
X26163Y-12524D01*
X26374Y-12735D01*
X26650Y-12849D01*
X26948Y-12850D01*
X27224Y-12736D01*
X27435Y-12525D01*
X27549Y-12249D01*
X27550Y-11951D01*
X27550Y-13595D01*
X26994Y-13595D01*
X26903Y-13633D01*
X26832Y-13703D01*
X26799Y-13782D01*
X26767Y-13704D01*
X26697Y-13633D01*
X26605Y-13595D01*
X26505Y-13595D01*
X25876Y-13595D01*
X25785Y-13633D01*
X25760Y-13657D01*
X25691Y-13588D01*
X25599Y-13550D01*
X25550Y-13550D01*
X25550Y-12550D01*
X25550Y-11550D01*
X25512Y-11458D01*
X25441Y-11388D01*
X25349Y-11350D01*
X25250Y-11349D01*
X24250Y-11349D01*
X24158Y-11387D01*
X24088Y-11458D01*
X24050Y-11550D01*
X24049Y-11649D01*
X24049Y-12649D01*
X24087Y-12741D01*
X24158Y-12811D01*
X24250Y-12849D01*
X24349Y-12850D01*
X25349Y-12850D01*
X25441Y-12812D01*
X25511Y-12741D01*
X25549Y-12649D01*
X25550Y-12550D01*
X25550Y-13550D01*
X25500Y-13549D01*
X24900Y-13549D01*
X24808Y-13587D01*
X24738Y-13658D01*
X24700Y-13750D01*
X24699Y-13849D01*
X24699Y-14649D01*
X24737Y-14741D01*
X24808Y-14811D01*
X24900Y-14849D01*
X24999Y-14850D01*
X25599Y-14850D01*
X25691Y-14812D01*
X25761Y-14742D01*
X25784Y-14766D01*
X25808Y-14776D01*
X25673Y-14832D01*
X25646Y-14926D01*
X25958Y-15238D01*
X26270Y-14926D01*
X26243Y-14832D01*
X26165Y-14804D01*
X26605Y-14804D01*
X26696Y-14766D01*
X26767Y-14696D01*
X26800Y-14617D01*
X26832Y-14695D01*
X26902Y-14766D01*
X26994Y-14804D01*
X27059Y-14804D01*
X27059Y-18466D01*
X26508Y-19017D01*
X26508Y-15390D01*
X26497Y-15173D01*
X26435Y-15024D01*
X26340Y-14997D01*
X26028Y-15309D01*
X26340Y-15621D01*
X26435Y-15594D01*
X26508Y-15390D01*
X26508Y-19017D01*
X26270Y-19255D01*
X26270Y-15691D01*
X25958Y-15380D01*
X25887Y-15450D01*
X25887Y-15309D01*
X25575Y-14997D01*
X25480Y-15024D01*
X25408Y-15228D01*
X25419Y-15445D01*
X25480Y-15594D01*
X25575Y-15621D01*
X25887Y-15309D01*
X25887Y-15450D01*
X25646Y-15691D01*
X25673Y-15786D01*
X25877Y-15859D01*
X26094Y-15848D01*
X26243Y-15786D01*
X26270Y-15691D01*
X26270Y-19255D01*
X25746Y-19779D01*
X25684Y-19871D01*
X25649Y-19886D01*
X25602Y-19933D01*
X25602Y-17929D01*
X25591Y-17712D01*
X25530Y-17563D01*
X25435Y-17537D01*
X25364Y-17607D01*
X25364Y-17466D01*
X25337Y-17371D01*
X25133Y-17298D01*
X24916Y-17309D01*
X24767Y-17371D01*
X24740Y-17466D01*
X25052Y-17778D01*
X25364Y-17466D01*
X25364Y-17607D01*
X25123Y-17848D01*
X25435Y-18160D01*
X25530Y-18133D01*
X25602Y-17929D01*
X25602Y-19933D01*
X25496Y-20039D01*
X25413Y-20239D01*
X25412Y-20456D01*
X25495Y-20657D01*
X25648Y-20810D01*
X25849Y-20893D01*
X26066Y-20894D01*
X26266Y-20811D01*
X26420Y-20658D01*
X26503Y-20457D01*
X26503Y-20240D01*
X26420Y-20040D01*
X26377Y-19996D01*
X27571Y-18803D01*
X27571Y-18803D01*
X27636Y-18705D01*
X27658Y-18591D01*
X27659Y-18591D01*
X27659Y-14804D01*
X27723Y-14804D01*
X27814Y-14766D01*
X27838Y-14742D01*
X27908Y-14812D01*
X28000Y-14850D01*
X28237Y-14850D01*
X28300Y-14787D01*
X28300Y-26348D01*
X26508Y-26348D01*
X26508Y-21690D01*
X26497Y-21473D01*
X26435Y-21324D01*
X26340Y-21297D01*
X26270Y-21368D01*
X26270Y-21226D01*
X26243Y-21132D01*
X26038Y-21059D01*
X25822Y-21070D01*
X25673Y-21132D01*
X25646Y-21226D01*
X25958Y-21538D01*
X26270Y-21226D01*
X26270Y-21368D01*
X26028Y-21609D01*
X26340Y-21921D01*
X26435Y-21894D01*
X26508Y-21690D01*
X26508Y-26348D01*
X26424Y-26348D01*
X26420Y-26340D01*
X26270Y-26189D01*
X26270Y-21991D01*
X25958Y-21680D01*
X25887Y-21750D01*
X25887Y-21609D01*
X25575Y-21297D01*
X25480Y-21324D01*
X25408Y-21528D01*
X25419Y-21745D01*
X25480Y-21894D01*
X25575Y-21921D01*
X25887Y-21609D01*
X25887Y-21750D01*
X25646Y-21991D01*
X25673Y-22086D01*
X25877Y-22159D01*
X26094Y-22148D01*
X26243Y-22086D01*
X26270Y-21991D01*
X26270Y-26189D01*
X26267Y-26186D01*
X26067Y-26103D01*
X25850Y-26103D01*
X25649Y-26186D01*
X25602Y-26233D01*
X25602Y-24229D01*
X25591Y-24012D01*
X25530Y-23863D01*
X25435Y-23837D01*
X25364Y-23907D01*
X25364Y-23766D01*
X25364Y-18231D01*
X25052Y-17919D01*
X24982Y-17990D01*
X24982Y-17848D01*
X24670Y-17537D01*
X24575Y-17563D01*
X24502Y-17768D01*
X24513Y-17984D01*
X24575Y-18133D01*
X24670Y-18160D01*
X24982Y-17848D01*
X24982Y-17990D01*
X24740Y-18231D01*
X24767Y-18326D01*
X24972Y-18398D01*
X25188Y-18387D01*
X25337Y-18326D01*
X25364Y-18231D01*
X25364Y-23766D01*
X25337Y-23671D01*
X25133Y-23598D01*
X24916Y-23609D01*
X24767Y-23671D01*
X24750Y-23734D01*
X24750Y-22987D01*
X24745Y-22966D01*
X24746Y-22945D01*
X24734Y-22909D01*
X24727Y-22872D01*
X24715Y-22854D01*
X24708Y-22834D01*
X24683Y-22806D01*
X24662Y-22775D01*
X24644Y-22763D01*
X24630Y-22747D01*
X24580Y-22710D01*
X24546Y-22693D01*
X24514Y-22672D01*
X24500Y-22669D01*
X24500Y-14550D01*
X24500Y-13849D01*
X24499Y-13750D01*
X24461Y-13658D01*
X24391Y-13587D01*
X24299Y-13549D01*
X24062Y-13550D01*
X24000Y-13612D01*
X24000Y-14150D01*
X24437Y-14150D01*
X24500Y-14087D01*
X24500Y-13849D01*
X24500Y-14550D01*
X24500Y-14312D01*
X24437Y-14250D01*
X24000Y-14250D01*
X24000Y-14787D01*
X24062Y-14850D01*
X24299Y-14850D01*
X24391Y-14812D01*
X24461Y-14741D01*
X24499Y-14649D01*
X24500Y-14550D01*
X24500Y-22669D01*
X24493Y-22668D01*
X24474Y-22659D01*
X24436Y-22657D01*
X24400Y-22650D01*
X24365Y-22650D01*
X24445Y-22458D01*
X24445Y-22242D01*
X24362Y-22041D01*
X24209Y-21888D01*
X24117Y-21850D01*
X24208Y-21812D01*
X24361Y-21659D01*
X24445Y-21458D01*
X24445Y-21242D01*
X24362Y-21041D01*
X24209Y-20888D01*
X24117Y-20850D01*
X24208Y-20812D01*
X24361Y-20659D01*
X24445Y-20458D01*
X24445Y-20242D01*
X24445Y-17242D01*
X24362Y-17041D01*
X24209Y-16888D01*
X24117Y-16850D01*
X24208Y-16812D01*
X24361Y-16659D01*
X24445Y-16458D01*
X24445Y-16242D01*
X24362Y-16041D01*
X24209Y-15888D01*
X24008Y-15804D01*
X23900Y-15804D01*
X23900Y-14787D01*
X23900Y-14250D01*
X23462Y-14250D01*
X23450Y-14262D01*
X23437Y-14250D01*
X23000Y-14250D01*
X23000Y-14787D01*
X23062Y-14850D01*
X23299Y-14850D01*
X23391Y-14812D01*
X23450Y-14753D01*
X23508Y-14812D01*
X23600Y-14850D01*
X23837Y-14850D01*
X23900Y-14787D01*
X23900Y-15804D01*
X23792Y-15804D01*
X23591Y-15887D01*
X23438Y-16040D01*
X23354Y-16241D01*
X23354Y-16457D01*
X23437Y-16658D01*
X23590Y-16811D01*
X23682Y-16849D01*
X23591Y-16887D01*
X23438Y-17040D01*
X23354Y-17241D01*
X23354Y-17457D01*
X23437Y-17658D01*
X23590Y-17811D01*
X23791Y-17895D01*
X24007Y-17895D01*
X24208Y-17812D01*
X24361Y-17659D01*
X24445Y-17458D01*
X24445Y-17242D01*
X24445Y-20242D01*
X24362Y-20041D01*
X24209Y-19888D01*
X24008Y-19804D01*
X23792Y-19804D01*
X23591Y-19887D01*
X23438Y-20040D01*
X23354Y-20241D01*
X23354Y-20457D01*
X23437Y-20658D01*
X23590Y-20811D01*
X23682Y-20849D01*
X23591Y-20887D01*
X23438Y-21040D01*
X23354Y-21241D01*
X23354Y-21457D01*
X23437Y-21658D01*
X23590Y-21811D01*
X23682Y-21849D01*
X23591Y-21887D01*
X23438Y-22040D01*
X23354Y-22241D01*
X23354Y-22457D01*
X23433Y-22650D01*
X22900Y-22650D01*
X22900Y-14787D01*
X22900Y-14250D01*
X22462Y-14250D01*
X22400Y-14312D01*
X22399Y-14550D01*
X22400Y-14649D01*
X22438Y-14741D01*
X22508Y-14812D01*
X22600Y-14850D01*
X22837Y-14850D01*
X22900Y-14787D01*
X22900Y-22650D01*
X21581Y-22650D01*
X21433Y-22487D01*
X21445Y-22458D01*
X21445Y-22242D01*
X21362Y-22041D01*
X21209Y-21888D01*
X21117Y-21850D01*
X21208Y-21812D01*
X21361Y-21659D01*
X21445Y-21458D01*
X21445Y-21242D01*
X21362Y-21041D01*
X21209Y-20888D01*
X21008Y-20804D01*
X20792Y-20804D01*
X20591Y-20887D01*
X20438Y-21040D01*
X20354Y-21241D01*
X20354Y-21443D01*
X20312Y-21341D01*
X20159Y-21188D01*
X20067Y-21150D01*
X20158Y-21112D01*
X20311Y-20959D01*
X20395Y-20758D01*
X20395Y-20542D01*
X20312Y-20341D01*
X20159Y-20188D01*
X20067Y-20150D01*
X20158Y-20112D01*
X20311Y-19959D01*
X20395Y-19758D01*
X20395Y-19556D01*
X20437Y-19658D01*
X20590Y-19811D01*
X20791Y-19895D01*
X21007Y-19895D01*
X21208Y-19812D01*
X21361Y-19659D01*
X21445Y-19458D01*
X21445Y-19242D01*
X21362Y-19041D01*
X21209Y-18888D01*
X21117Y-18850D01*
X21208Y-18812D01*
X21361Y-18659D01*
X21445Y-18458D01*
X21445Y-18242D01*
X21362Y-18041D01*
X21209Y-17888D01*
X21117Y-17850D01*
X21208Y-17812D01*
X21361Y-17659D01*
X21445Y-17458D01*
X21445Y-17242D01*
X21362Y-17041D01*
X21209Y-16888D01*
X21117Y-16850D01*
X21208Y-16812D01*
X21361Y-16659D01*
X21445Y-16458D01*
X21445Y-16242D01*
X21362Y-16041D01*
X21209Y-15888D01*
X21008Y-15804D01*
X20792Y-15804D01*
X20591Y-15887D01*
X20438Y-16040D01*
X20354Y-16241D01*
X20354Y-16443D01*
X20312Y-16341D01*
X20159Y-16188D01*
X20067Y-16150D01*
X20158Y-16112D01*
X20311Y-15959D01*
X20395Y-15758D01*
X20395Y-15542D01*
X20312Y-15341D01*
X20159Y-15188D01*
X20150Y-15184D01*
X20150Y-14713D01*
X20167Y-14696D01*
X20200Y-14617D01*
X20232Y-14695D01*
X20302Y-14766D01*
X20394Y-14804D01*
X20494Y-14804D01*
X21123Y-14804D01*
X21178Y-14781D01*
X21208Y-14811D01*
X21300Y-14849D01*
X21399Y-14850D01*
X21999Y-14850D01*
X22091Y-14812D01*
X22161Y-14741D01*
X22199Y-14649D01*
X22200Y-14550D01*
X22200Y-13750D01*
X22162Y-13658D01*
X22150Y-13646D01*
X22150Y-13612D01*
X22212Y-13675D01*
X22274Y-13675D01*
X22366Y-13637D01*
X22399Y-13603D01*
X22433Y-13636D01*
X22451Y-13644D01*
X22438Y-13658D01*
X22400Y-13750D01*
X22399Y-13849D01*
X22400Y-14087D01*
X22462Y-14150D01*
X22900Y-14150D01*
X22900Y-14142D01*
X23000Y-14142D01*
X23000Y-14150D01*
X23437Y-14150D01*
X23450Y-14137D01*
X23462Y-14150D01*
X23900Y-14150D01*
X23900Y-13612D01*
X23837Y-13550D01*
X23600Y-13549D01*
X23508Y-13587D01*
X23450Y-13646D01*
X23391Y-13587D01*
X23300Y-13550D01*
X23299Y-13549D01*
X23062Y-13550D01*
X23000Y-13612D01*
X23000Y-13603D01*
X23036Y-13566D01*
X23074Y-13474D01*
X23075Y-13375D01*
X23075Y-12925D01*
X23037Y-12833D01*
X23000Y-12796D01*
X23000Y-12525D01*
X23039Y-12508D01*
X23208Y-12340D01*
X23299Y-12119D01*
X23300Y-11881D01*
X23208Y-11660D01*
X23040Y-11491D01*
X22819Y-11400D01*
X22581Y-11399D01*
X22360Y-11491D01*
X22285Y-11565D01*
X22262Y-11508D01*
X22191Y-11438D01*
X22099Y-11400D01*
X22000Y-11399D01*
X21812Y-11400D01*
X21750Y-11462D01*
X21750Y-11950D01*
X21757Y-11950D01*
X21757Y-12050D01*
X21750Y-12050D01*
X21750Y-12537D01*
X21812Y-12600D01*
X22000Y-12600D01*
X22099Y-12599D01*
X22191Y-12561D01*
X22262Y-12491D01*
X22285Y-12434D01*
X22359Y-12508D01*
X22400Y-12525D01*
X22400Y-12796D01*
X22366Y-12762D01*
X22274Y-12724D01*
X22212Y-12725D01*
X22150Y-12787D01*
X22150Y-13150D01*
X22157Y-13150D01*
X22157Y-13250D01*
X22150Y-13250D01*
X22150Y-13257D01*
X22050Y-13257D01*
X22050Y-13250D01*
X22050Y-13150D01*
X22050Y-12787D01*
X21987Y-12725D01*
X21925Y-12724D01*
X21833Y-12762D01*
X21763Y-12833D01*
X21725Y-12925D01*
X21724Y-13024D01*
X21725Y-13087D01*
X21787Y-13150D01*
X22050Y-13150D01*
X22050Y-13250D01*
X21787Y-13250D01*
X21725Y-13312D01*
X21724Y-13375D01*
X21725Y-13474D01*
X21756Y-13549D01*
X21643Y-13549D01*
X21674Y-13474D01*
X21675Y-13375D01*
X21675Y-13024D01*
X21674Y-12925D01*
X21636Y-12833D01*
X21566Y-12762D01*
X21474Y-12724D01*
X21412Y-12725D01*
X21350Y-12787D01*
X21350Y-13150D01*
X21612Y-13150D01*
X21675Y-13087D01*
X21675Y-13024D01*
X21675Y-13375D01*
X21675Y-13312D01*
X21612Y-13250D01*
X21350Y-13250D01*
X21350Y-13257D01*
X21250Y-13257D01*
X21250Y-13250D01*
X21242Y-13250D01*
X21242Y-13150D01*
X21250Y-13150D01*
X21250Y-12787D01*
X21187Y-12725D01*
X21125Y-12724D01*
X21068Y-12748D01*
X21068Y-12480D01*
X21114Y-12434D01*
X21137Y-12491D01*
X21208Y-12561D01*
X21300Y-12599D01*
X21399Y-12600D01*
X21587Y-12600D01*
X21650Y-12537D01*
X21650Y-12050D01*
X21642Y-12050D01*
X21642Y-11950D01*
X21650Y-11950D01*
X21650Y-11462D01*
X21587Y-11400D01*
X21399Y-11399D01*
X21300Y-11400D01*
X21208Y-11438D01*
X21137Y-11508D01*
X21114Y-11565D01*
X21040Y-11491D01*
X20819Y-11400D01*
X20581Y-11399D01*
X20360Y-11491D01*
X20191Y-11659D01*
X20100Y-11880D01*
X20099Y-12118D01*
X20191Y-12339D01*
X20331Y-12480D01*
X20331Y-12908D01*
X20325Y-12925D01*
X20324Y-13024D01*
X20324Y-13474D01*
X20362Y-13566D01*
X20392Y-13596D01*
X20303Y-13633D01*
X20232Y-13703D01*
X20199Y-13782D01*
X20167Y-13704D01*
X20097Y-13633D01*
X20005Y-13595D01*
X19905Y-13595D01*
X19695Y-13595D01*
X19695Y-13095D01*
X19695Y-11205D01*
X19657Y-11113D01*
X19586Y-11043D01*
X19494Y-11005D01*
X19395Y-11004D01*
X17505Y-11004D01*
X17413Y-11042D01*
X17343Y-11113D01*
X17305Y-11205D01*
X17304Y-11304D01*
X17304Y-13033D01*
X17295Y-13029D01*
X17235Y-13004D01*
X16975Y-13005D01*
X16951Y-12981D01*
X17114Y-12875D01*
X17295Y-12435D01*
X17294Y-11960D01*
X17114Y-11524D01*
X16951Y-11418D01*
X16881Y-11489D01*
X16881Y-11348D01*
X16775Y-11185D01*
X16335Y-11004D01*
X15860Y-11005D01*
X15424Y-11185D01*
X15318Y-11348D01*
X16100Y-12129D01*
X16881Y-11348D01*
X16881Y-11489D01*
X16170Y-12200D01*
X16176Y-12205D01*
X16105Y-12276D01*
X16100Y-12270D01*
X16029Y-12341D01*
X16029Y-12200D01*
X15248Y-11418D01*
X15085Y-11524D01*
X14904Y-11964D01*
X14905Y-12439D01*
X15085Y-12875D01*
X15248Y-12981D01*
X16029Y-12200D01*
X16029Y-12341D01*
X15318Y-13051D01*
X15424Y-13214D01*
X15864Y-13395D01*
X16124Y-13394D01*
X16148Y-13418D01*
X15985Y-13524D01*
X15804Y-13964D01*
X15805Y-14439D01*
X15985Y-14875D01*
X16148Y-14981D01*
X16929Y-14200D01*
X16923Y-14194D01*
X16994Y-14123D01*
X17000Y-14129D01*
X17005Y-14123D01*
X17076Y-14194D01*
X17070Y-14200D01*
X17851Y-14981D01*
X18014Y-14875D01*
X18195Y-14435D01*
X18194Y-13960D01*
X18014Y-13524D01*
X17851Y-13418D01*
X17875Y-13395D01*
X19494Y-13395D01*
X19586Y-13357D01*
X19656Y-13286D01*
X19694Y-13194D01*
X19695Y-13095D01*
X19695Y-13595D01*
X19276Y-13595D01*
X19185Y-13633D01*
X19114Y-13703D01*
X19076Y-13795D01*
X19076Y-13895D01*
X19076Y-14604D01*
X19114Y-14695D01*
X19184Y-14766D01*
X19276Y-14804D01*
X19376Y-14804D01*
X19550Y-14804D01*
X19550Y-15183D01*
X19541Y-15187D01*
X19388Y-15340D01*
X19304Y-15541D01*
X19304Y-15757D01*
X19387Y-15958D01*
X19540Y-16111D01*
X19632Y-16149D01*
X19541Y-16187D01*
X19388Y-16340D01*
X19304Y-16541D01*
X19304Y-16757D01*
X19387Y-16958D01*
X19540Y-17111D01*
X19632Y-17149D01*
X19541Y-17187D01*
X19388Y-17340D01*
X19304Y-17541D01*
X19304Y-17757D01*
X19387Y-17958D01*
X19540Y-18111D01*
X19632Y-18149D01*
X19541Y-18187D01*
X19388Y-18340D01*
X19304Y-18541D01*
X19304Y-18757D01*
X19387Y-18958D01*
X19540Y-19111D01*
X19632Y-19149D01*
X19541Y-19187D01*
X19388Y-19340D01*
X19304Y-19541D01*
X19304Y-19757D01*
X19387Y-19958D01*
X19540Y-20111D01*
X19632Y-20149D01*
X19541Y-20187D01*
X19388Y-20340D01*
X19304Y-20541D01*
X19304Y-20757D01*
X19387Y-20958D01*
X19540Y-21111D01*
X19632Y-21149D01*
X19541Y-21187D01*
X19388Y-21340D01*
X19304Y-21541D01*
X19304Y-21757D01*
X19387Y-21958D01*
X19540Y-22111D01*
X19632Y-22149D01*
X19541Y-22187D01*
X19388Y-22340D01*
X19304Y-22541D01*
X19304Y-22757D01*
X19387Y-22958D01*
X19540Y-23111D01*
X19741Y-23195D01*
X19957Y-23195D01*
X20158Y-23112D01*
X20311Y-22959D01*
X20395Y-22758D01*
X20395Y-22556D01*
X20437Y-22658D01*
X20590Y-22811D01*
X20791Y-22895D01*
X20992Y-22895D01*
X21228Y-23152D01*
X21234Y-23156D01*
X21237Y-23162D01*
X21278Y-23189D01*
X21323Y-23221D01*
X21329Y-23223D01*
X21335Y-23227D01*
X21383Y-23236D01*
X21436Y-23249D01*
X21443Y-23248D01*
X21450Y-23250D01*
X18195Y-23250D01*
X17800Y-23250D01*
X17800Y-22730D01*
X17800Y-21730D01*
X17789Y-21513D01*
X17727Y-21364D01*
X17632Y-21338D01*
X17320Y-21650D01*
X17632Y-21961D01*
X17727Y-21935D01*
X17800Y-21730D01*
X17800Y-22730D01*
X17789Y-22513D01*
X17727Y-22364D01*
X17632Y-22338D01*
X17561Y-22408D01*
X17561Y-22267D01*
X17535Y-22172D01*
X17476Y-22151D01*
X17535Y-22127D01*
X17561Y-22032D01*
X17250Y-21720D01*
X17179Y-21791D01*
X17179Y-21650D01*
X16867Y-21338D01*
X16772Y-21364D01*
X16699Y-21569D01*
X16710Y-21786D01*
X16772Y-21935D01*
X16867Y-21961D01*
X17179Y-21650D01*
X17179Y-21791D01*
X16938Y-22032D01*
X16964Y-22127D01*
X17023Y-22148D01*
X16964Y-22172D01*
X16938Y-22267D01*
X17250Y-22579D01*
X17561Y-22267D01*
X17561Y-22408D01*
X17320Y-22650D01*
X17632Y-22961D01*
X17727Y-22935D01*
X17800Y-22730D01*
X17800Y-23250D01*
X17561Y-23250D01*
X17561Y-23032D01*
X17250Y-22720D01*
X17179Y-22791D01*
X17179Y-22650D01*
X16867Y-22338D01*
X16772Y-22364D01*
X16699Y-22569D01*
X16710Y-22786D01*
X16772Y-22935D01*
X16867Y-22961D01*
X17179Y-22650D01*
X17179Y-22791D01*
X16938Y-23032D01*
X16964Y-23127D01*
X17169Y-23200D01*
X17386Y-23189D01*
X17535Y-23127D01*
X17561Y-23032D01*
X17561Y-23250D01*
X16274Y-23250D01*
X16000Y-22975D01*
X16000Y-21200D01*
X16549Y-21200D01*
X16641Y-21162D01*
X16711Y-21091D01*
X16749Y-20999D01*
X16750Y-20900D01*
X16750Y-20867D01*
X16787Y-20958D01*
X16940Y-21111D01*
X17025Y-21147D01*
X16964Y-21172D01*
X16938Y-21267D01*
X17250Y-21579D01*
X17561Y-21267D01*
X17535Y-21172D01*
X17469Y-21149D01*
X17558Y-21112D01*
X17711Y-20959D01*
X17795Y-20758D01*
X17795Y-20542D01*
X17712Y-20341D01*
X17559Y-20188D01*
X17467Y-20150D01*
X17558Y-20112D01*
X17711Y-19959D01*
X17795Y-19758D01*
X17795Y-19542D01*
X17712Y-19341D01*
X17559Y-19188D01*
X17467Y-19150D01*
X17558Y-19112D01*
X17711Y-18959D01*
X17795Y-18758D01*
X17795Y-18542D01*
X17712Y-18341D01*
X17559Y-18188D01*
X17467Y-18150D01*
X17558Y-18112D01*
X17711Y-17959D01*
X17795Y-17758D01*
X17795Y-17542D01*
X17712Y-17341D01*
X17559Y-17188D01*
X17467Y-17150D01*
X17558Y-17112D01*
X17711Y-16959D01*
X17795Y-16758D01*
X17795Y-16542D01*
X17712Y-16341D01*
X17559Y-16188D01*
X17467Y-16150D01*
X17558Y-16112D01*
X17711Y-15959D01*
X17795Y-15758D01*
X17795Y-15542D01*
X17712Y-15341D01*
X17611Y-15240D01*
X17675Y-15214D01*
X17781Y-15051D01*
X17000Y-14270D01*
X16929Y-14341D01*
X16218Y-15051D01*
X16324Y-15214D01*
X16764Y-15395D01*
X16765Y-15395D01*
X16704Y-15541D01*
X16704Y-15757D01*
X16787Y-15958D01*
X16940Y-16111D01*
X17032Y-16149D01*
X16941Y-16187D01*
X16788Y-16340D01*
X16727Y-16486D01*
X16666Y-16338D01*
X16511Y-16184D01*
X16309Y-16100D01*
X16091Y-16099D01*
X15888Y-16183D01*
X15734Y-16338D01*
X15700Y-16419D01*
X15666Y-16338D01*
X15511Y-16184D01*
X15309Y-16100D01*
X15091Y-16099D01*
X14888Y-16183D01*
X14734Y-16338D01*
X14650Y-16540D01*
X14649Y-16758D01*
X14733Y-16961D01*
X14888Y-17115D01*
X14963Y-17147D01*
X14912Y-17168D01*
X14884Y-17264D01*
X15200Y-17579D01*
X15515Y-17264D01*
X15487Y-17168D01*
X15432Y-17149D01*
X15511Y-17116D01*
X15665Y-16961D01*
X15699Y-16880D01*
X15733Y-16961D01*
X15888Y-17115D01*
X15969Y-17149D01*
X15888Y-17183D01*
X15734Y-17338D01*
X15702Y-17413D01*
X15681Y-17362D01*
X15585Y-17334D01*
X15270Y-17650D01*
X15585Y-17965D01*
X15681Y-17937D01*
X15700Y-17882D01*
X15733Y-17961D01*
X15888Y-18115D01*
X15969Y-18149D01*
X15888Y-18183D01*
X15734Y-18338D01*
X15700Y-18419D01*
X15666Y-18338D01*
X15511Y-18184D01*
X15436Y-18152D01*
X15487Y-18131D01*
X15515Y-18035D01*
X15200Y-17720D01*
X15129Y-17791D01*
X15129Y-17650D01*
X14814Y-17334D01*
X14718Y-17362D01*
X14645Y-17568D01*
X14656Y-17786D01*
X14718Y-17937D01*
X14814Y-17965D01*
X15129Y-17650D01*
X15129Y-17791D01*
X14884Y-18035D01*
X14912Y-18131D01*
X14967Y-18150D01*
X14888Y-18183D01*
X14734Y-18338D01*
X14650Y-18540D01*
X14649Y-18758D01*
X14733Y-18961D01*
X14888Y-19115D01*
X14969Y-19149D01*
X14888Y-19183D01*
X14734Y-19338D01*
X14650Y-19540D01*
X14649Y-19758D01*
X14733Y-19961D01*
X14888Y-20115D01*
X14969Y-20149D01*
X14888Y-20183D01*
X14734Y-20338D01*
X14650Y-20540D01*
X14649Y-20758D01*
X14733Y-20961D01*
X14888Y-21115D01*
X15090Y-21199D01*
X15308Y-21200D01*
X15400Y-21162D01*
X15400Y-23100D01*
X15422Y-23214D01*
X15487Y-23312D01*
X15937Y-23762D01*
X16035Y-23827D01*
X16150Y-23850D01*
X21120Y-23850D01*
X21100Y-23900D01*
X21099Y-23999D01*
X21100Y-24137D01*
X21162Y-24200D01*
X21600Y-24200D01*
X21600Y-24192D01*
X21700Y-24192D01*
X21700Y-24200D01*
X21707Y-24200D01*
X21707Y-24300D01*
X21700Y-24300D01*
X21700Y-24737D01*
X21762Y-24800D01*
X21999Y-24800D01*
X22091Y-24762D01*
X22161Y-24691D01*
X22199Y-24599D01*
X22199Y-24577D01*
X22338Y-24715D01*
X22540Y-24799D01*
X22758Y-24800D01*
X22961Y-24716D01*
X23115Y-24561D01*
X23120Y-24550D01*
X23150Y-24550D01*
X23150Y-24549D01*
X23200Y-24540D01*
X23199Y-24599D01*
X23199Y-25199D01*
X23237Y-25291D01*
X23308Y-25361D01*
X23400Y-25399D01*
X23499Y-25400D01*
X24299Y-25400D01*
X24391Y-25362D01*
X24461Y-25291D01*
X24499Y-25199D01*
X24500Y-25100D01*
X24500Y-24500D01*
X24477Y-24446D01*
X24550Y-24373D01*
X24575Y-24433D01*
X24670Y-24460D01*
X24982Y-24148D01*
X24976Y-24143D01*
X25047Y-24072D01*
X25052Y-24078D01*
X25364Y-23766D01*
X25364Y-23907D01*
X25123Y-24148D01*
X25435Y-24460D01*
X25530Y-24433D01*
X25602Y-24229D01*
X25602Y-26233D01*
X25496Y-26339D01*
X25413Y-26539D01*
X25412Y-26756D01*
X25495Y-26957D01*
X25648Y-27110D01*
X25695Y-27130D01*
X25364Y-27130D01*
X25364Y-24531D01*
X25052Y-24219D01*
X24740Y-24531D01*
X24767Y-24626D01*
X24972Y-24698D01*
X25188Y-24687D01*
X25337Y-24626D01*
X25364Y-24531D01*
X25364Y-27130D01*
X21600Y-27130D01*
X21600Y-24737D01*
X21600Y-24300D01*
X21162Y-24300D01*
X21100Y-24362D01*
X21099Y-24500D01*
X21100Y-24599D01*
X21138Y-24691D01*
X21208Y-24762D01*
X21300Y-24800D01*
X21537Y-24800D01*
X21600Y-24737D01*
X21600Y-27130D01*
X14569Y-27130D01*
X14569Y-10719D01*
X27800Y-10719D01*
X32130Y-10719D01*
X32130Y-13598D01*
X32130Y-13598D01*
G37*
G54D25*
X32130Y-13598D02*
X32123Y-13595D01*
X32023Y-13595D01*
X31950Y-13595D01*
X31950Y-12550D01*
X31950Y-11550D01*
X31912Y-11458D01*
X31841Y-11388D01*
X31749Y-11350D01*
X31650Y-11349D01*
X30650Y-11349D01*
X30558Y-11387D01*
X30488Y-11458D01*
X30450Y-11550D01*
X30449Y-11649D01*
X30449Y-12649D01*
X30487Y-12741D01*
X30558Y-12811D01*
X30650Y-12849D01*
X30749Y-12850D01*
X31749Y-12850D01*
X31841Y-12812D01*
X31911Y-12741D01*
X31949Y-12649D01*
X31950Y-12550D01*
X31950Y-13595D01*
X31394Y-13595D01*
X31303Y-13633D01*
X31232Y-13703D01*
X31199Y-13782D01*
X31167Y-13704D01*
X31097Y-13633D01*
X31005Y-13595D01*
X30905Y-13595D01*
X30276Y-13595D01*
X30185Y-13633D01*
X30160Y-13657D01*
X30091Y-13588D01*
X29999Y-13550D01*
X29950Y-13550D01*
X29950Y-11951D01*
X29836Y-11675D01*
X29625Y-11464D01*
X29349Y-11350D01*
X29051Y-11349D01*
X28775Y-11463D01*
X28564Y-11674D01*
X28450Y-11950D01*
X28449Y-12248D01*
X28563Y-12524D01*
X28774Y-12735D01*
X29050Y-12849D01*
X29348Y-12850D01*
X29624Y-12736D01*
X29835Y-12525D01*
X29949Y-12249D01*
X29950Y-11951D01*
X29950Y-13550D01*
X29900Y-13549D01*
X29300Y-13549D01*
X29208Y-13587D01*
X29138Y-13658D01*
X29100Y-13750D01*
X29099Y-13849D01*
X29099Y-14649D01*
X29137Y-14741D01*
X29208Y-14811D01*
X29300Y-14849D01*
X29399Y-14850D01*
X29999Y-14850D01*
X30091Y-14812D01*
X30161Y-14742D01*
X30184Y-14766D01*
X30276Y-14804D01*
X30376Y-14804D01*
X30542Y-14804D01*
X30476Y-14832D01*
X30449Y-14926D01*
X30761Y-15238D01*
X31073Y-14926D01*
X31046Y-14832D01*
X30968Y-14804D01*
X31005Y-14804D01*
X31096Y-14766D01*
X31167Y-14696D01*
X31200Y-14617D01*
X31232Y-14695D01*
X31302Y-14766D01*
X31394Y-14804D01*
X31459Y-14804D01*
X31459Y-24866D01*
X31311Y-25014D01*
X31311Y-21690D01*
X31311Y-15390D01*
X31300Y-15173D01*
X31238Y-15024D01*
X31143Y-14997D01*
X30832Y-15309D01*
X31143Y-15621D01*
X31238Y-15594D01*
X31311Y-15390D01*
X31311Y-21690D01*
X31306Y-21597D01*
X31306Y-20240D01*
X31223Y-20040D01*
X31073Y-19889D01*
X31073Y-15691D01*
X30761Y-15380D01*
X30690Y-15450D01*
X30690Y-15309D01*
X30378Y-14997D01*
X30284Y-15024D01*
X30211Y-15228D01*
X30222Y-15445D01*
X30284Y-15594D01*
X30378Y-15621D01*
X30690Y-15309D01*
X30690Y-15450D01*
X30449Y-15691D01*
X30476Y-15786D01*
X30680Y-15859D01*
X30897Y-15848D01*
X31046Y-15786D01*
X31073Y-15691D01*
X31073Y-19889D01*
X31070Y-19886D01*
X30870Y-19803D01*
X30653Y-19803D01*
X30452Y-19886D01*
X30299Y-20039D01*
X30216Y-20239D01*
X30216Y-20456D01*
X30298Y-20657D01*
X30452Y-20810D01*
X30652Y-20893D01*
X30869Y-20894D01*
X31069Y-20811D01*
X31223Y-20658D01*
X31306Y-20457D01*
X31306Y-20240D01*
X31306Y-21597D01*
X31300Y-21473D01*
X31238Y-21324D01*
X31143Y-21297D01*
X31073Y-21368D01*
X31073Y-21226D01*
X31046Y-21132D01*
X30842Y-21059D01*
X30625Y-21070D01*
X30476Y-21132D01*
X30449Y-21226D01*
X30761Y-21538D01*
X31073Y-21226D01*
X31073Y-21368D01*
X30832Y-21609D01*
X31143Y-21921D01*
X31238Y-21894D01*
X31311Y-21690D01*
X31311Y-25014D01*
X31073Y-25252D01*
X31073Y-21991D01*
X30761Y-21680D01*
X30690Y-21750D01*
X30690Y-21609D01*
X30378Y-21297D01*
X30284Y-21324D01*
X30211Y-21528D01*
X30222Y-21745D01*
X30284Y-21894D01*
X30378Y-21921D01*
X30690Y-21609D01*
X30690Y-21750D01*
X30449Y-21991D01*
X30476Y-22086D01*
X30680Y-22159D01*
X30897Y-22148D01*
X31046Y-22086D01*
X31073Y-21991D01*
X31073Y-25252D01*
X29976Y-26348D01*
X28900Y-26348D01*
X28900Y-14550D01*
X28900Y-13849D01*
X28899Y-13750D01*
X28861Y-13658D01*
X28791Y-13587D01*
X28699Y-13549D01*
X28462Y-13550D01*
X28400Y-13612D01*
X28400Y-14150D01*
X28837Y-14150D01*
X28900Y-14087D01*
X28900Y-13849D01*
X28900Y-14550D01*
X28900Y-14312D01*
X28837Y-14250D01*
X28400Y-14250D01*
X28400Y-14787D01*
X28462Y-14850D01*
X28699Y-14850D01*
X28791Y-14812D01*
X28861Y-14741D01*
X28899Y-14649D01*
X28900Y-14550D01*
X28900Y-26348D01*
X28300Y-26348D01*
X28300Y-14787D01*
X28300Y-14250D01*
X28292Y-14250D01*
X28292Y-14150D01*
X28300Y-14150D01*
X28300Y-13612D01*
X28237Y-13550D01*
X28000Y-13549D01*
X27908Y-13587D01*
X27838Y-13657D01*
X27815Y-13633D01*
X27723Y-13595D01*
X27623Y-13595D01*
X27550Y-13595D01*
X27550Y-11951D01*
X27436Y-11675D01*
X27225Y-11464D01*
X26949Y-11350D01*
X26651Y-11349D01*
X26375Y-11463D01*
X26164Y-11674D01*
X26050Y-11950D01*
X26049Y-12248D01*
X26163Y-12524D01*
X26374Y-12735D01*
X26650Y-12849D01*
X26948Y-12850D01*
X27224Y-12736D01*
X27435Y-12525D01*
X27549Y-12249D01*
X27550Y-11951D01*
X27550Y-13595D01*
X26994Y-13595D01*
X26903Y-13633D01*
X26832Y-13703D01*
X26799Y-13782D01*
X26767Y-13704D01*
X26697Y-13633D01*
X26605Y-13595D01*
X26505Y-13595D01*
X25876Y-13595D01*
X25785Y-13633D01*
X25760Y-13657D01*
X25691Y-13588D01*
X25599Y-13550D01*
X25550Y-13550D01*
X25550Y-12550D01*
X25550Y-11550D01*
X25512Y-11458D01*
X25441Y-11388D01*
X25349Y-11350D01*
X25250Y-11349D01*
X24250Y-11349D01*
X24158Y-11387D01*
X24088Y-11458D01*
X24050Y-11550D01*
X24049Y-11649D01*
X24049Y-12649D01*
X24087Y-12741D01*
X24158Y-12811D01*
X24250Y-12849D01*
X24349Y-12850D01*
X25349Y-12850D01*
X25441Y-12812D01*
X25511Y-12741D01*
X25549Y-12649D01*
X25550Y-12550D01*
X25550Y-13550D01*
X25500Y-13549D01*
X24900Y-13549D01*
X24808Y-13587D01*
X24738Y-13658D01*
X24700Y-13750D01*
X24699Y-13849D01*
X24699Y-14649D01*
X24737Y-14741D01*
X24808Y-14811D01*
X24900Y-14849D01*
X24999Y-14850D01*
X25599Y-14850D01*
X25691Y-14812D01*
X25761Y-14742D01*
X25784Y-14766D01*
X25808Y-14776D01*
X25673Y-14832D01*
X25646Y-14926D01*
X25958Y-15238D01*
X26270Y-14926D01*
X26243Y-14832D01*
X26165Y-14804D01*
X26605Y-14804D01*
X26696Y-14766D01*
X26767Y-14696D01*
X26800Y-14617D01*
X26832Y-14695D01*
X26902Y-14766D01*
X26994Y-14804D01*
X27059Y-14804D01*
X27059Y-18466D01*
X26508Y-19017D01*
X26508Y-15390D01*
X26497Y-15173D01*
X26435Y-15024D01*
X26340Y-14997D01*
X26028Y-15309D01*
X26340Y-15621D01*
X26435Y-15594D01*
X26508Y-15390D01*
X26508Y-19017D01*
X26270Y-19255D01*
X26270Y-15691D01*
X25958Y-15380D01*
X25887Y-15450D01*
X25887Y-15309D01*
X25575Y-14997D01*
X25480Y-15024D01*
X25408Y-15228D01*
X25419Y-15445D01*
X25480Y-15594D01*
X25575Y-15621D01*
X25887Y-15309D01*
X25887Y-15450D01*
X25646Y-15691D01*
X25673Y-15786D01*
X25877Y-15859D01*
X26094Y-15848D01*
X26243Y-15786D01*
X26270Y-15691D01*
X26270Y-19255D01*
X25746Y-19779D01*
X25684Y-19871D01*
X25649Y-19886D01*
X25602Y-19933D01*
X25602Y-17929D01*
X25591Y-17712D01*
X25530Y-17563D01*
X25435Y-17537D01*
X25364Y-17607D01*
X25364Y-17466D01*
X25337Y-17371D01*
X25133Y-17298D01*
X24916Y-17309D01*
X24767Y-17371D01*
X24740Y-17466D01*
X25052Y-17778D01*
X25364Y-17466D01*
X25364Y-17607D01*
X25123Y-17848D01*
X25435Y-18160D01*
X25530Y-18133D01*
X25602Y-17929D01*
X25602Y-19933D01*
X25496Y-20039D01*
X25413Y-20239D01*
X25412Y-20456D01*
X25495Y-20657D01*
X25648Y-20810D01*
X25849Y-20893D01*
X26066Y-20894D01*
X26266Y-20811D01*
X26420Y-20658D01*
X26503Y-20457D01*
X26503Y-20240D01*
X26420Y-20040D01*
X26377Y-19996D01*
X27571Y-18803D01*
X27571Y-18803D01*
X27636Y-18705D01*
X27658Y-18591D01*
X27659Y-18591D01*
X27659Y-14804D01*
X27723Y-14804D01*
X27814Y-14766D01*
X27838Y-14742D01*
X27908Y-14812D01*
X28000Y-14850D01*
X28237Y-14850D01*
X28300Y-14787D01*
X28300Y-26348D01*
X26508Y-26348D01*
X26508Y-21690D01*
X26497Y-21473D01*
X26435Y-21324D01*
X26340Y-21297D01*
X26270Y-21368D01*
X26270Y-21226D01*
X26243Y-21132D01*
X26038Y-21059D01*
X25822Y-21070D01*
X25673Y-21132D01*
X25646Y-21226D01*
X25958Y-21538D01*
X26270Y-21226D01*
X26270Y-21368D01*
X26028Y-21609D01*
X26340Y-21921D01*
X26435Y-21894D01*
X26508Y-21690D01*
X26508Y-26348D01*
X26424Y-26348D01*
X26420Y-26340D01*
X26270Y-26189D01*
X26270Y-21991D01*
X25958Y-21680D01*
X25887Y-21750D01*
X25887Y-21609D01*
X25575Y-21297D01*
X25480Y-21324D01*
X25408Y-21528D01*
X25419Y-21745D01*
X25480Y-21894D01*
X25575Y-21921D01*
X25887Y-21609D01*
X25887Y-21750D01*
X25646Y-21991D01*
X25673Y-22086D01*
X25877Y-22159D01*
X26094Y-22148D01*
X26243Y-22086D01*
X26270Y-21991D01*
X26270Y-26189D01*
X26267Y-26186D01*
X26067Y-26103D01*
X25850Y-26103D01*
X25649Y-26186D01*
X25602Y-26233D01*
X25602Y-24229D01*
X25591Y-24012D01*
X25530Y-23863D01*
X25435Y-23837D01*
X25364Y-23907D01*
X25364Y-23766D01*
X25364Y-18231D01*
X25052Y-17919D01*
X24982Y-17990D01*
X24982Y-17848D01*
X24670Y-17537D01*
X24575Y-17563D01*
X24502Y-17768D01*
X24513Y-17984D01*
X24575Y-18133D01*
X24670Y-18160D01*
X24982Y-17848D01*
X24982Y-17990D01*
X24740Y-18231D01*
X24767Y-18326D01*
X24972Y-18398D01*
X25188Y-18387D01*
X25337Y-18326D01*
X25364Y-18231D01*
X25364Y-23766D01*
X25337Y-23671D01*
X25133Y-23598D01*
X24916Y-23609D01*
X24767Y-23671D01*
X24750Y-23734D01*
X24750Y-22987D01*
X24745Y-22966D01*
X24746Y-22945D01*
X24734Y-22909D01*
X24727Y-22872D01*
X24715Y-22854D01*
X24708Y-22834D01*
X24683Y-22806D01*
X24662Y-22775D01*
X24644Y-22763D01*
X24630Y-22747D01*
X24580Y-22710D01*
X24546Y-22693D01*
X24514Y-22672D01*
X24500Y-22669D01*
X24500Y-14550D01*
X24500Y-13849D01*
X24499Y-13750D01*
X24461Y-13658D01*
X24391Y-13587D01*
X24299Y-13549D01*
X24062Y-13550D01*
X24000Y-13612D01*
X24000Y-14150D01*
X24437Y-14150D01*
X24500Y-14087D01*
X24500Y-13849D01*
X24500Y-14550D01*
X24500Y-14312D01*
X24437Y-14250D01*
X24000Y-14250D01*
X24000Y-14787D01*
X24062Y-14850D01*
X24299Y-14850D01*
X24391Y-14812D01*
X24461Y-14741D01*
X24499Y-14649D01*
X24500Y-14550D01*
X24500Y-22669D01*
X24493Y-22668D01*
X24474Y-22659D01*
X24436Y-22657D01*
X24400Y-22650D01*
X24365Y-22650D01*
X24445Y-22458D01*
X24445Y-22242D01*
X24362Y-22041D01*
X24209Y-21888D01*
X24117Y-21850D01*
X24208Y-21812D01*
X24361Y-21659D01*
X24445Y-21458D01*
X24445Y-21242D01*
X24362Y-21041D01*
X24209Y-20888D01*
X24117Y-20850D01*
X24208Y-20812D01*
X24361Y-20659D01*
X24445Y-20458D01*
X24445Y-20242D01*
X24445Y-17242D01*
X24362Y-17041D01*
X24209Y-16888D01*
X24117Y-16850D01*
X24208Y-16812D01*
X24361Y-16659D01*
X24445Y-16458D01*
X24445Y-16242D01*
X24362Y-16041D01*
X24209Y-15888D01*
X24008Y-15804D01*
X23900Y-15804D01*
X23900Y-14787D01*
X23900Y-14250D01*
X23462Y-14250D01*
X23450Y-14262D01*
X23437Y-14250D01*
X23000Y-14250D01*
X23000Y-14787D01*
X23062Y-14850D01*
X23299Y-14850D01*
X23391Y-14812D01*
X23450Y-14753D01*
X23508Y-14812D01*
X23600Y-14850D01*
X23837Y-14850D01*
X23900Y-14787D01*
X23900Y-15804D01*
X23792Y-15804D01*
X23591Y-15887D01*
X23438Y-16040D01*
X23354Y-16241D01*
X23354Y-16457D01*
X23437Y-16658D01*
X23590Y-16811D01*
X23682Y-16849D01*
X23591Y-16887D01*
X23438Y-17040D01*
X23354Y-17241D01*
X23354Y-17457D01*
X23437Y-17658D01*
X23590Y-17811D01*
X23791Y-17895D01*
X24007Y-17895D01*
X24208Y-17812D01*
X24361Y-17659D01*
X24445Y-17458D01*
X24445Y-17242D01*
X24445Y-20242D01*
X24362Y-20041D01*
X24209Y-19888D01*
X24008Y-19804D01*
X23792Y-19804D01*
X23591Y-19887D01*
X23438Y-20040D01*
X23354Y-20241D01*
X23354Y-20457D01*
X23437Y-20658D01*
X23590Y-20811D01*
X23682Y-20849D01*
X23591Y-20887D01*
X23438Y-21040D01*
X23354Y-21241D01*
X23354Y-21457D01*
X23437Y-21658D01*
X23590Y-21811D01*
X23682Y-21849D01*
X23591Y-21887D01*
X23438Y-22040D01*
X23354Y-22241D01*
X23354Y-22457D01*
X23433Y-22650D01*
X22900Y-22650D01*
X22900Y-14787D01*
X22900Y-14250D01*
X22462Y-14250D01*
X22400Y-14312D01*
X22399Y-14550D01*
X22400Y-14649D01*
X22438Y-14741D01*
X22508Y-14812D01*
X22600Y-14850D01*
X22837Y-14850D01*
X22900Y-14787D01*
X22900Y-22650D01*
X21581Y-22650D01*
X21433Y-22487D01*
X21445Y-22458D01*
X21445Y-22242D01*
X21362Y-22041D01*
X21209Y-21888D01*
X21117Y-21850D01*
X21208Y-21812D01*
X21361Y-21659D01*
X21445Y-21458D01*
X21445Y-21242D01*
X21362Y-21041D01*
X21209Y-20888D01*
X21008Y-20804D01*
X20792Y-20804D01*
X20591Y-20887D01*
X20438Y-21040D01*
X20354Y-21241D01*
X20354Y-21443D01*
X20312Y-21341D01*
X20159Y-21188D01*
X20067Y-21150D01*
X20158Y-21112D01*
X20311Y-20959D01*
X20395Y-20758D01*
X20395Y-20542D01*
X20312Y-20341D01*
X20159Y-20188D01*
X20067Y-20150D01*
X20158Y-20112D01*
X20311Y-19959D01*
X20395Y-19758D01*
X20395Y-19556D01*
X20437Y-19658D01*
X20590Y-19811D01*
X20791Y-19895D01*
X21007Y-19895D01*
X21208Y-19812D01*
X21361Y-19659D01*
X21445Y-19458D01*
X21445Y-19242D01*
X21362Y-19041D01*
X21209Y-18888D01*
X21117Y-18850D01*
X21208Y-18812D01*
X21361Y-18659D01*
X21445Y-18458D01*
X21445Y-18242D01*
X21362Y-18041D01*
X21209Y-17888D01*
X21117Y-17850D01*
X21208Y-17812D01*
X21361Y-17659D01*
X21445Y-17458D01*
X21445Y-17242D01*
X21362Y-17041D01*
X21209Y-16888D01*
X21117Y-16850D01*
X21208Y-16812D01*
X21361Y-16659D01*
X21445Y-16458D01*
X21445Y-16242D01*
X21362Y-16041D01*
X21209Y-15888D01*
X21008Y-15804D01*
X20792Y-15804D01*
X20591Y-15887D01*
X20438Y-16040D01*
X20354Y-16241D01*
X20354Y-16443D01*
X20312Y-16341D01*
X20159Y-16188D01*
X20067Y-16150D01*
X20158Y-16112D01*
X20311Y-15959D01*
X20395Y-15758D01*
X20395Y-15542D01*
X20312Y-15341D01*
X20159Y-15188D01*
X20150Y-15184D01*
X20150Y-14713D01*
X20167Y-14696D01*
X20200Y-14617D01*
X20232Y-14695D01*
X20302Y-14766D01*
X20394Y-14804D01*
X20494Y-14804D01*
X21123Y-14804D01*
X21178Y-14781D01*
X21208Y-14811D01*
X21300Y-14849D01*
X21399Y-14850D01*
X21999Y-14850D01*
X22091Y-14812D01*
X22161Y-14741D01*
X22199Y-14649D01*
X22200Y-14550D01*
X22200Y-13750D01*
X22162Y-13658D01*
X22150Y-13646D01*
X22150Y-13612D01*
X22212Y-13675D01*
X22274Y-13675D01*
X22366Y-13637D01*
X22399Y-13603D01*
X22433Y-13636D01*
X22451Y-13644D01*
X22438Y-13658D01*
X22400Y-13750D01*
X22399Y-13849D01*
X22400Y-14087D01*
X22462Y-14150D01*
X22900Y-14150D01*
X22900Y-14142D01*
X23000Y-14142D01*
X23000Y-14150D01*
X23437Y-14150D01*
X23450Y-14137D01*
X23462Y-14150D01*
X23900Y-14150D01*
X23900Y-13612D01*
X23837Y-13550D01*
X23600Y-13549D01*
X23508Y-13587D01*
X23450Y-13646D01*
X23391Y-13587D01*
X23300Y-13550D01*
X23299Y-13549D01*
X23062Y-13550D01*
X23000Y-13612D01*
X23000Y-13603D01*
X23036Y-13566D01*
X23074Y-13474D01*
X23075Y-13375D01*
X23075Y-12925D01*
X23037Y-12833D01*
X23000Y-12796D01*
X23000Y-12525D01*
X23039Y-12508D01*
X23208Y-12340D01*
X23299Y-12119D01*
X23300Y-11881D01*
X23208Y-11660D01*
X23040Y-11491D01*
X22819Y-11400D01*
X22581Y-11399D01*
X22360Y-11491D01*
X22285Y-11565D01*
X22262Y-11508D01*
X22191Y-11438D01*
X22099Y-11400D01*
X22000Y-11399D01*
X21812Y-11400D01*
X21750Y-11462D01*
X21750Y-11950D01*
X21757Y-11950D01*
X21757Y-12050D01*
X21750Y-12050D01*
X21750Y-12537D01*
X21812Y-12600D01*
X22000Y-12600D01*
X22099Y-12599D01*
X22191Y-12561D01*
X22262Y-12491D01*
X22285Y-12434D01*
X22359Y-12508D01*
X22400Y-12525D01*
X22400Y-12796D01*
X22366Y-12762D01*
X22274Y-12724D01*
X22212Y-12725D01*
X22150Y-12787D01*
X22150Y-13150D01*
X22157Y-13150D01*
X22157Y-13250D01*
X22150Y-13250D01*
X22150Y-13257D01*
X22050Y-13257D01*
X22050Y-13250D01*
X22050Y-13150D01*
X22050Y-12787D01*
X21987Y-12725D01*
X21925Y-12724D01*
X21833Y-12762D01*
X21763Y-12833D01*
X21725Y-12925D01*
X21724Y-13024D01*
X21725Y-13087D01*
X21787Y-13150D01*
X22050Y-13150D01*
X22050Y-13250D01*
X21787Y-13250D01*
X21725Y-13312D01*
X21724Y-13375D01*
X21725Y-13474D01*
X21756Y-13549D01*
X21643Y-13549D01*
X21674Y-13474D01*
X21675Y-13375D01*
X21675Y-13024D01*
X21674Y-12925D01*
X21636Y-12833D01*
X21566Y-12762D01*
X21474Y-12724D01*
X21412Y-12725D01*
X21350Y-12787D01*
X21350Y-13150D01*
X21612Y-13150D01*
X21675Y-13087D01*
X21675Y-13024D01*
X21675Y-13375D01*
X21675Y-13312D01*
X21612Y-13250D01*
X21350Y-13250D01*
X21350Y-13257D01*
X21250Y-13257D01*
X21250Y-13250D01*
X21242Y-13250D01*
X21242Y-13150D01*
X21250Y-13150D01*
X21250Y-12787D01*
X21187Y-12725D01*
X21125Y-12724D01*
X21068Y-12748D01*
X21068Y-12480D01*
X21114Y-12434D01*
X21137Y-12491D01*
X21208Y-12561D01*
X21300Y-12599D01*
X21399Y-12600D01*
X21587Y-12600D01*
X21650Y-12537D01*
X21650Y-12050D01*
X21642Y-12050D01*
X21642Y-11950D01*
X21650Y-11950D01*
X21650Y-11462D01*
X21587Y-11400D01*
X21399Y-11399D01*
X21300Y-11400D01*
X21208Y-11438D01*
X21137Y-11508D01*
X21114Y-11565D01*
X21040Y-11491D01*
X20819Y-11400D01*
X20581Y-11399D01*
X20360Y-11491D01*
X20191Y-11659D01*
X20100Y-11880D01*
X20099Y-12118D01*
X20191Y-12339D01*
X20331Y-12480D01*
X20331Y-12908D01*
X20325Y-12925D01*
X20324Y-13024D01*
X20324Y-13474D01*
X20362Y-13566D01*
X20392Y-13596D01*
X20303Y-13633D01*
X20232Y-13703D01*
X20199Y-13782D01*
X20167Y-13704D01*
X20097Y-13633D01*
X20005Y-13595D01*
X19905Y-13595D01*
X19695Y-13595D01*
X19695Y-13095D01*
X19695Y-11205D01*
X19657Y-11113D01*
X19586Y-11043D01*
X19494Y-11005D01*
X19395Y-11004D01*
X17505Y-11004D01*
X17413Y-11042D01*
X17343Y-11113D01*
X17305Y-11205D01*
X17304Y-11304D01*
X17304Y-13033D01*
X17295Y-13029D01*
X17235Y-13004D01*
X16975Y-13005D01*
X16951Y-12981D01*
X17114Y-12875D01*
X17295Y-12435D01*
X17294Y-11960D01*
X17114Y-11524D01*
X16951Y-11418D01*
X16881Y-11489D01*
X16881Y-11348D01*
X16775Y-11185D01*
X16335Y-11004D01*
X15860Y-11005D01*
X15424Y-11185D01*
X15318Y-11348D01*
X16100Y-12129D01*
X16881Y-11348D01*
X16881Y-11489D01*
X16170Y-12200D01*
X16176Y-12205D01*
X16105Y-12276D01*
X16100Y-12270D01*
X16029Y-12341D01*
X16029Y-12200D01*
X15248Y-11418D01*
X15085Y-11524D01*
X14904Y-11964D01*
X14905Y-12439D01*
X15085Y-12875D01*
X15248Y-12981D01*
X16029Y-12200D01*
X16029Y-12341D01*
X15318Y-13051D01*
X15424Y-13214D01*
X15864Y-13395D01*
X16124Y-13394D01*
X16148Y-13418D01*
X15985Y-13524D01*
X15804Y-13964D01*
X15805Y-14439D01*
X15985Y-14875D01*
X16148Y-14981D01*
X16929Y-14200D01*
X16923Y-14194D01*
X16994Y-14123D01*
X17000Y-14129D01*
X17005Y-14123D01*
X17076Y-14194D01*
X17070Y-14200D01*
X17851Y-14981D01*
X18014Y-14875D01*
X18195Y-14435D01*
X18194Y-13960D01*
X18014Y-13524D01*
X17851Y-13418D01*
X17875Y-13395D01*
X19494Y-13395D01*
X19586Y-13357D01*
X19656Y-13286D01*
X19694Y-13194D01*
X19695Y-13095D01*
X19695Y-13595D01*
X19276Y-13595D01*
X19185Y-13633D01*
X19114Y-13703D01*
X19076Y-13795D01*
X19076Y-13895D01*
X19076Y-14604D01*
X19114Y-14695D01*
X19184Y-14766D01*
X19276Y-14804D01*
X19376Y-14804D01*
X19550Y-14804D01*
X19550Y-15183D01*
X19541Y-15187D01*
X19388Y-15340D01*
X19304Y-15541D01*
X19304Y-15757D01*
X19387Y-15958D01*
X19540Y-16111D01*
X19632Y-16149D01*
X19541Y-16187D01*
X19388Y-16340D01*
X19304Y-16541D01*
X19304Y-16757D01*
X19387Y-16958D01*
X19540Y-17111D01*
X19632Y-17149D01*
X19541Y-17187D01*
X19388Y-17340D01*
X19304Y-17541D01*
X19304Y-17757D01*
X19387Y-17958D01*
X19540Y-18111D01*
X19632Y-18149D01*
X19541Y-18187D01*
X19388Y-18340D01*
X19304Y-18541D01*
X19304Y-18757D01*
X19387Y-18958D01*
X19540Y-19111D01*
X19632Y-19149D01*
X19541Y-19187D01*
X19388Y-19340D01*
X19304Y-19541D01*
X19304Y-19757D01*
X19387Y-19958D01*
X19540Y-20111D01*
X19632Y-20149D01*
X19541Y-20187D01*
X19388Y-20340D01*
X19304Y-20541D01*
X19304Y-20757D01*
X19387Y-20958D01*
X19540Y-21111D01*
X19632Y-21149D01*
X19541Y-21187D01*
X19388Y-21340D01*
X19304Y-21541D01*
X19304Y-21757D01*
X19387Y-21958D01*
X19540Y-22111D01*
X19632Y-22149D01*
X19541Y-22187D01*
X19388Y-22340D01*
X19304Y-22541D01*
X19304Y-22757D01*
X19387Y-22958D01*
X19540Y-23111D01*
X19741Y-23195D01*
X19957Y-23195D01*
X20158Y-23112D01*
X20311Y-22959D01*
X20395Y-22758D01*
X20395Y-22556D01*
X20437Y-22658D01*
X20590Y-22811D01*
X20791Y-22895D01*
X20992Y-22895D01*
X21228Y-23152D01*
X21234Y-23156D01*
X21237Y-23162D01*
X21278Y-23189D01*
X21323Y-23221D01*
X21329Y-23223D01*
X21335Y-23227D01*
X21383Y-23236D01*
X21436Y-23249D01*
X21443Y-23248D01*
X21450Y-23250D01*
X18195Y-23250D01*
X17800Y-23250D01*
X17800Y-22730D01*
X17800Y-21730D01*
X17789Y-21513D01*
X17727Y-21364D01*
X17632Y-21338D01*
X17320Y-21650D01*
X17632Y-21961D01*
X17727Y-21935D01*
X17800Y-21730D01*
X17800Y-22730D01*
X17789Y-22513D01*
X17727Y-22364D01*
X17632Y-22338D01*
X17561Y-22408D01*
X17561Y-22267D01*
X17535Y-22172D01*
X17476Y-22151D01*
X17535Y-22127D01*
X17561Y-22032D01*
X17250Y-21720D01*
X17179Y-21791D01*
X17179Y-21650D01*
X16867Y-21338D01*
X16772Y-21364D01*
X16699Y-21569D01*
X16710Y-21786D01*
X16772Y-21935D01*
X16867Y-21961D01*
X17179Y-21650D01*
X17179Y-21791D01*
X16938Y-22032D01*
X16964Y-22127D01*
X17023Y-22148D01*
X16964Y-22172D01*
X16938Y-22267D01*
X17250Y-22579D01*
X17561Y-22267D01*
X17561Y-22408D01*
X17320Y-22650D01*
X17632Y-22961D01*
X17727Y-22935D01*
X17800Y-22730D01*
X17800Y-23250D01*
X17561Y-23250D01*
X17561Y-23032D01*
X17250Y-22720D01*
X17179Y-22791D01*
X17179Y-22650D01*
X16867Y-22338D01*
X16772Y-22364D01*
X16699Y-22569D01*
X16710Y-22786D01*
X16772Y-22935D01*
X16867Y-22961D01*
X17179Y-22650D01*
X17179Y-22791D01*
X16938Y-23032D01*
X16964Y-23127D01*
X17169Y-23200D01*
X17386Y-23189D01*
X17535Y-23127D01*
X17561Y-23032D01*
X17561Y-23250D01*
X16274Y-23250D01*
X16000Y-22975D01*
X16000Y-21200D01*
X16549Y-21200D01*
X16641Y-21162D01*
X16711Y-21091D01*
X16749Y-20999D01*
X16750Y-20900D01*
X16750Y-20867D01*
X16787Y-20958D01*
X16940Y-21111D01*
X17025Y-21147D01*
X16964Y-21172D01*
X16938Y-21267D01*
X17250Y-21579D01*
X17561Y-21267D01*
X17535Y-21172D01*
X17469Y-21149D01*
X17558Y-21112D01*
X17711Y-20959D01*
X17795Y-20758D01*
X17795Y-20542D01*
X17712Y-20341D01*
X17559Y-20188D01*
X17467Y-20150D01*
X17558Y-20112D01*
X17711Y-19959D01*
X17795Y-19758D01*
X17795Y-19542D01*
X17712Y-19341D01*
X17559Y-19188D01*
X17467Y-19150D01*
X17558Y-19112D01*
X17711Y-18959D01*
X17795Y-18758D01*
X17795Y-18542D01*
X17712Y-18341D01*
X17559Y-18188D01*
X17467Y-18150D01*
X17558Y-18112D01*
X17711Y-17959D01*
X17795Y-17758D01*
X17795Y-17542D01*
X17712Y-17341D01*
X17559Y-17188D01*
X17467Y-17150D01*
X17558Y-17112D01*
X17711Y-16959D01*
X17795Y-16758D01*
X17795Y-16542D01*
X17712Y-16341D01*
X17559Y-16188D01*
X17467Y-16150D01*
X17558Y-16112D01*
X17711Y-15959D01*
X17795Y-15758D01*
X17795Y-15542D01*
X17712Y-15341D01*
X17611Y-15240D01*
X17675Y-15214D01*
X17781Y-15051D01*
X17000Y-14270D01*
X16929Y-14341D01*
X16218Y-15051D01*
X16324Y-15214D01*
X16764Y-15395D01*
X16765Y-15395D01*
X16704Y-15541D01*
X16704Y-15757D01*
X16787Y-15958D01*
X16940Y-16111D01*
X17032Y-16149D01*
X16941Y-16187D01*
X16788Y-16340D01*
X16727Y-16486D01*
X16666Y-16338D01*
X16511Y-16184D01*
X16309Y-16100D01*
X16091Y-16099D01*
X15888Y-16183D01*
X15734Y-16338D01*
X15700Y-16419D01*
X15666Y-16338D01*
X15511Y-16184D01*
X15309Y-16100D01*
X15091Y-16099D01*
X14888Y-16183D01*
X14734Y-16338D01*
X14650Y-16540D01*
X14649Y-16758D01*
X14733Y-16961D01*
X14888Y-17115D01*
X14963Y-17147D01*
X14912Y-17168D01*
X14884Y-17264D01*
X15200Y-17579D01*
X15515Y-17264D01*
X15487Y-17168D01*
X15432Y-17149D01*
X15511Y-17116D01*
X15665Y-16961D01*
X15699Y-16880D01*
X15733Y-16961D01*
X15888Y-17115D01*
X15969Y-17149D01*
X15888Y-17183D01*
X15734Y-17338D01*
X15702Y-17413D01*
X15681Y-17362D01*
X15585Y-17334D01*
X15270Y-17650D01*
X15585Y-17965D01*
X15681Y-17937D01*
X15700Y-17882D01*
X15733Y-17961D01*
X15888Y-18115D01*
X15969Y-18149D01*
X15888Y-18183D01*
X15734Y-18338D01*
X15700Y-18419D01*
X15666Y-18338D01*
X15511Y-18184D01*
X15436Y-18152D01*
X15487Y-18131D01*
X15515Y-18035D01*
X15200Y-17720D01*
X15129Y-17791D01*
X15129Y-17650D01*
X14814Y-17334D01*
X14718Y-17362D01*
X14645Y-17568D01*
X14656Y-17786D01*
X14718Y-17937D01*
X14814Y-17965D01*
X15129Y-17650D01*
X15129Y-17791D01*
X14884Y-18035D01*
X14912Y-18131D01*
X14967Y-18150D01*
X14888Y-18183D01*
X14734Y-18338D01*
X14650Y-18540D01*
X14649Y-18758D01*
X14733Y-18961D01*
X14888Y-19115D01*
X14969Y-19149D01*
X14888Y-19183D01*
X14734Y-19338D01*
X14650Y-19540D01*
X14649Y-19758D01*
X14733Y-19961D01*
X14888Y-20115D01*
X14969Y-20149D01*
X14888Y-20183D01*
X14734Y-20338D01*
X14650Y-20540D01*
X14649Y-20758D01*
X14733Y-20961D01*
X14888Y-21115D01*
X15090Y-21199D01*
X15308Y-21200D01*
X15400Y-21162D01*
X15400Y-23100D01*
X15422Y-23214D01*
X15487Y-23312D01*
X15937Y-23762D01*
X16035Y-23827D01*
X16150Y-23850D01*
X21120Y-23850D01*
X21100Y-23900D01*
X21099Y-23999D01*
X21100Y-24137D01*
X21162Y-24200D01*
X21600Y-24200D01*
X21600Y-24192D01*
X21700Y-24192D01*
X21700Y-24200D01*
X21707Y-24200D01*
X21707Y-24300D01*
X21700Y-24300D01*
X21700Y-24737D01*
X21762Y-24800D01*
X21999Y-24800D01*
X22091Y-24762D01*
X22161Y-24691D01*
X22199Y-24599D01*
X22199Y-24577D01*
X22338Y-24715D01*
X22540Y-24799D01*
X22758Y-24800D01*
X22961Y-24716D01*
X23115Y-24561D01*
X23120Y-24550D01*
X23150Y-24550D01*
X23150Y-24549D01*
X23200Y-24540D01*
X23199Y-24599D01*
X23199Y-25199D01*
X23237Y-25291D01*
X23308Y-25361D01*
X23400Y-25399D01*
X23499Y-25400D01*
X24299Y-25400D01*
X24391Y-25362D01*
X24461Y-25291D01*
X24499Y-25199D01*
X24500Y-25100D01*
X24500Y-24500D01*
X24477Y-24446D01*
X24550Y-24373D01*
X24575Y-24433D01*
X24670Y-24460D01*
X24982Y-24148D01*
X24976Y-24143D01*
X25047Y-24072D01*
X25052Y-24078D01*
X25364Y-23766D01*
X25364Y-23907D01*
X25123Y-24148D01*
X25435Y-24460D01*
X25530Y-24433D01*
X25602Y-24229D01*
X25602Y-26233D01*
X25496Y-26339D01*
X25413Y-26539D01*
X25412Y-26756D01*
X25495Y-26957D01*
X25648Y-27110D01*
X25695Y-27130D01*
X25364Y-27130D01*
X25364Y-24531D01*
X25052Y-24219D01*
X24740Y-24531D01*
X24767Y-24626D01*
X24972Y-24698D01*
X25188Y-24687D01*
X25337Y-24626D01*
X25364Y-24531D01*
X25364Y-27130D01*
X21600Y-27130D01*
X21600Y-24737D01*
X21600Y-24300D01*
X21162Y-24300D01*
X21100Y-24362D01*
X21099Y-24500D01*
X21100Y-24599D01*
X21138Y-24691D01*
X21208Y-24762D01*
X21300Y-24800D01*
X21537Y-24800D01*
X21600Y-24737D01*
X21600Y-27130D01*
X14569Y-27130D01*
X14569Y-10719D01*
X27800Y-10719D01*
X32130Y-10719D01*
X32130Y-13598D01*
M02*
