G04 (created by PCBNEW (2013-may-18)-stable) date dim 05 jun 2016 14:26:50 CEST*
%MOIN*%
G04 Gerber Fmt 3.4, Leading zero omitted, Abs format*
%FSLAX34Y34*%
G01*
G70*
G90*
G04 APERTURE LIST*
%ADD10C,0.00590551*%
%ADD11R,0.06X0.06*%
%ADD12C,0.06*%
%ADD13C,0.0590551*%
%ADD14R,0.1X0.1*%
%ADD15C,0.1*%
%ADD16C,0.07*%
%ADD17R,0.07X0.07*%
%ADD18C,0.189*%
%ADD19R,0.189X0.189*%
G04 APERTURE END LIST*
G54D10*
G54D11*
X16200Y-20650D03*
G54D12*
X15200Y-20650D03*
X16200Y-19650D03*
X15200Y-19650D03*
X16200Y-18650D03*
X15200Y-18650D03*
X16200Y-17650D03*
X15200Y-17650D03*
X16200Y-16650D03*
X15200Y-16650D03*
G54D13*
X25052Y-17848D03*
X30761Y-20348D03*
X25958Y-20348D03*
X25958Y-15309D03*
X30761Y-15309D03*
G54D14*
X24800Y-12100D03*
G54D15*
X26800Y-12100D03*
G54D13*
X23900Y-17350D03*
X23900Y-16350D03*
X23900Y-20350D03*
X23900Y-21350D03*
X23900Y-22350D03*
X20900Y-22350D03*
X20900Y-21350D03*
X20900Y-19350D03*
X20900Y-18350D03*
X20900Y-17350D03*
X20900Y-16350D03*
X25052Y-24148D03*
X30761Y-26648D03*
X25958Y-26648D03*
X25958Y-21609D03*
X30761Y-21609D03*
G54D11*
X21650Y-24250D03*
G54D12*
X22650Y-24250D03*
G54D16*
X20700Y-12000D03*
G54D17*
X21700Y-12000D03*
G54D16*
X22700Y-12000D03*
G54D18*
X16100Y-12200D03*
G54D19*
X18500Y-12200D03*
G54D18*
X17000Y-14200D03*
G54D14*
X31200Y-12100D03*
G54D15*
X29200Y-12100D03*
G54D13*
X17250Y-15650D03*
X17250Y-16650D03*
X17250Y-17650D03*
X17250Y-18650D03*
X17250Y-19650D03*
X17250Y-21650D03*
X17250Y-22650D03*
X19850Y-22650D03*
X19850Y-21650D03*
X19850Y-20650D03*
X19850Y-19650D03*
X19850Y-18650D03*
X19850Y-17650D03*
X19850Y-16650D03*
X19850Y-15650D03*
X17250Y-20650D03*
M02*
