G04 (created by PCBNEW (2013-may-18)-stable) date dim 05 jun 2016 14:26:50 CEST*
%MOIN*%
G04 Gerber Fmt 3.4, Leading zero omitted, Abs format*
%FSLAX34Y34*%
G01*
G70*
G90*
G04 APERTURE LIST*
%ADD10C,0.00590551*%
%ADD11C,0.011811*%
%ADD12C,0.012*%
%ADD13C,0.006*%
%ADD14C,0.01*%
%ADD15C,0.015*%
%ADD16C,0.005*%
%ADD17C,0.0026*%
%ADD18C,0.004*%
%ADD19C,0.0047*%
%ADD20C,0.008*%
%ADD21C,0.0035*%
%ADD22C,0.0045*%
%ADD23R,0.06X0.06*%
%ADD24C,0.06*%
%ADD25C,0.0590551*%
%ADD26R,0.1X0.1*%
%ADD27C,0.1*%
%ADD28C,0.07*%
%ADD29R,0.07X0.07*%
%ADD30C,0.189*%
%ADD31R,0.189X0.189*%
%ADD32R,0.06X0.08*%
%ADD33R,0.0629X0.0709*%
%ADD34R,0.08X0.06*%
%ADD35R,0.025X0.045*%
G04 APERTURE END LIST*
G54D10*
G54D11*
X17456Y-24789D02*
X17456Y-24395D01*
X17456Y-24507D02*
X17484Y-24451D01*
X17512Y-24423D01*
X17568Y-24395D01*
X17625Y-24395D01*
X18046Y-24760D02*
X17990Y-24789D01*
X17878Y-24789D01*
X17821Y-24760D01*
X17793Y-24704D01*
X17793Y-24479D01*
X17821Y-24423D01*
X17878Y-24395D01*
X17990Y-24395D01*
X18046Y-24423D01*
X18075Y-24479D01*
X18075Y-24535D01*
X17793Y-24592D01*
X18524Y-24479D02*
X18328Y-24479D01*
X18328Y-24789D02*
X18328Y-24198D01*
X18609Y-24198D01*
X18834Y-24789D02*
X18834Y-24395D01*
X18834Y-24198D02*
X18806Y-24226D01*
X18834Y-24254D01*
X18862Y-24226D01*
X18834Y-24198D01*
X18834Y-24254D01*
X19199Y-24789D02*
X19143Y-24760D01*
X19115Y-24704D01*
X19115Y-24198D01*
X15656Y-25733D02*
X15656Y-25143D01*
X15656Y-25368D02*
X15712Y-25340D01*
X15825Y-25340D01*
X15881Y-25368D01*
X15909Y-25396D01*
X15937Y-25452D01*
X15937Y-25621D01*
X15909Y-25677D01*
X15881Y-25705D01*
X15825Y-25733D01*
X15712Y-25733D01*
X15656Y-25705D01*
X16134Y-25340D02*
X16275Y-25733D01*
X16415Y-25340D02*
X16275Y-25733D01*
X16219Y-25874D01*
X16190Y-25902D01*
X16134Y-25930D01*
X17456Y-25452D02*
X17428Y-25424D01*
X17371Y-25396D01*
X17315Y-25396D01*
X17259Y-25424D01*
X17231Y-25452D01*
X17203Y-25508D01*
X17203Y-25565D01*
X17231Y-25621D01*
X17259Y-25649D01*
X17315Y-25677D01*
X17371Y-25677D01*
X17428Y-25649D01*
X17456Y-25621D01*
X17456Y-25396D02*
X17456Y-25621D01*
X17484Y-25649D01*
X17512Y-25649D01*
X17568Y-25621D01*
X17596Y-25565D01*
X17596Y-25424D01*
X17540Y-25340D01*
X17456Y-25283D01*
X17343Y-25255D01*
X17231Y-25283D01*
X17147Y-25340D01*
X17090Y-25424D01*
X17062Y-25537D01*
X17090Y-25649D01*
X17147Y-25733D01*
X17231Y-25790D01*
X17343Y-25818D01*
X17456Y-25790D01*
X17540Y-25733D01*
X17709Y-25790D02*
X18159Y-25790D01*
X18300Y-25340D02*
X18300Y-25733D01*
X18300Y-25396D02*
X18328Y-25368D01*
X18384Y-25340D01*
X18468Y-25340D01*
X18524Y-25368D01*
X18553Y-25424D01*
X18553Y-25733D01*
X18918Y-25733D02*
X18862Y-25705D01*
X18834Y-25677D01*
X18806Y-25621D01*
X18806Y-25452D01*
X18834Y-25396D01*
X18862Y-25368D01*
X18918Y-25340D01*
X19003Y-25340D01*
X19059Y-25368D01*
X19087Y-25396D01*
X19115Y-25452D01*
X19115Y-25621D01*
X19087Y-25677D01*
X19059Y-25705D01*
X19003Y-25733D01*
X18918Y-25733D01*
X19340Y-25705D02*
X19396Y-25733D01*
X19509Y-25733D01*
X19565Y-25705D01*
X19593Y-25649D01*
X19593Y-25621D01*
X19565Y-25565D01*
X19509Y-25537D01*
X19424Y-25537D01*
X19368Y-25508D01*
X19340Y-25452D01*
X19340Y-25424D01*
X19368Y-25368D01*
X19424Y-25340D01*
X19509Y-25340D01*
X19565Y-25368D01*
X19846Y-25733D02*
X19846Y-25143D01*
X19902Y-25508D02*
X20071Y-25733D01*
X20071Y-25340D02*
X19846Y-25565D01*
X20324Y-25733D02*
X20324Y-25340D01*
X20324Y-25143D02*
X20296Y-25171D01*
X20324Y-25199D01*
X20352Y-25171D01*
X20324Y-25143D01*
X20324Y-25199D01*
X20690Y-25733D02*
X20634Y-25705D01*
X20605Y-25649D01*
X20605Y-25143D01*
X20999Y-25733D02*
X20943Y-25705D01*
X20915Y-25649D01*
X20915Y-25143D01*
X16233Y-26678D02*
X16233Y-26369D01*
X16204Y-26313D01*
X16148Y-26285D01*
X16036Y-26285D01*
X15979Y-26313D01*
X16233Y-26650D02*
X16176Y-26678D01*
X16036Y-26678D01*
X15979Y-26650D01*
X15951Y-26594D01*
X15951Y-26538D01*
X15979Y-26481D01*
X16036Y-26453D01*
X16176Y-26453D01*
X16233Y-26425D01*
X16429Y-26285D02*
X16654Y-26285D01*
X16514Y-26088D02*
X16514Y-26594D01*
X16542Y-26650D01*
X16598Y-26678D01*
X16654Y-26678D01*
X17667Y-26397D02*
X17639Y-26369D01*
X17582Y-26341D01*
X17526Y-26341D01*
X17470Y-26369D01*
X17442Y-26397D01*
X17414Y-26453D01*
X17414Y-26510D01*
X17442Y-26566D01*
X17470Y-26594D01*
X17526Y-26622D01*
X17582Y-26622D01*
X17639Y-26594D01*
X17667Y-26566D01*
X17667Y-26341D02*
X17667Y-26566D01*
X17695Y-26594D01*
X17723Y-26594D01*
X17779Y-26566D01*
X17807Y-26510D01*
X17807Y-26369D01*
X17751Y-26285D01*
X17667Y-26228D01*
X17554Y-26200D01*
X17442Y-26228D01*
X17357Y-26285D01*
X17301Y-26369D01*
X17273Y-26481D01*
X17301Y-26594D01*
X17357Y-26678D01*
X17442Y-26735D01*
X17554Y-26763D01*
X17667Y-26735D01*
X17751Y-26678D01*
X17920Y-26735D02*
X18370Y-26735D01*
X18426Y-26285D02*
X18651Y-26285D01*
X18510Y-26678D02*
X18510Y-26172D01*
X18539Y-26116D01*
X18595Y-26088D01*
X18651Y-26088D01*
X18848Y-26678D02*
X18848Y-26285D01*
X18848Y-26088D02*
X18820Y-26116D01*
X18848Y-26144D01*
X18876Y-26116D01*
X18848Y-26088D01*
X18848Y-26144D01*
X19073Y-26678D02*
X19382Y-26285D01*
X19073Y-26285D02*
X19382Y-26678D01*
X19607Y-26678D02*
X19607Y-26285D01*
X19607Y-26341D02*
X19635Y-26313D01*
X19692Y-26285D01*
X19776Y-26285D01*
X19832Y-26313D01*
X19860Y-26369D01*
X19860Y-26678D01*
X19860Y-26369D02*
X19888Y-26313D01*
X19945Y-26285D01*
X20029Y-26285D01*
X20085Y-26313D01*
X20113Y-26369D01*
X20113Y-26678D01*
X20620Y-26650D02*
X20563Y-26678D01*
X20451Y-26678D01*
X20395Y-26650D01*
X20366Y-26594D01*
X20366Y-26369D01*
X20395Y-26313D01*
X20451Y-26285D01*
X20563Y-26285D01*
X20620Y-26313D01*
X20648Y-26369D01*
X20648Y-26425D01*
X20366Y-26481D01*
G54D12*
X14700Y-21150D02*
X14700Y-16150D01*
X14700Y-16150D02*
X16700Y-16150D01*
X16700Y-16150D02*
X16700Y-21150D01*
X16700Y-21150D02*
X14700Y-21150D01*
G54D10*
X31824Y-19955D02*
X30603Y-19955D01*
X30603Y-19955D02*
X30525Y-20230D01*
X30525Y-20230D02*
X31706Y-20230D01*
X30643Y-20309D02*
X30800Y-20309D01*
X30367Y-20663D02*
X30525Y-20309D01*
X30525Y-20309D02*
X30682Y-20309D01*
X31745Y-20230D02*
X31824Y-19955D01*
X31155Y-20663D02*
X31312Y-20663D01*
X31233Y-20663D02*
X30485Y-20663D01*
X30485Y-20663D02*
X30367Y-20663D01*
X31706Y-20309D02*
X30722Y-20309D01*
X31273Y-20663D02*
G75*
G03X31706Y-20309I39J393D01*
G74*
G01*
X25847Y-20112D02*
G75*
G03X25847Y-20112I-440J0D01*
G74*
G01*
X32100Y-20900D02*
X24580Y-20900D01*
X24580Y-20900D02*
X24580Y-14797D01*
X24580Y-14797D02*
X32100Y-14797D01*
X32100Y-14797D02*
X32100Y-20900D01*
G54D12*
X27800Y-13100D02*
X23800Y-13100D01*
X27800Y-13600D02*
X27800Y-10600D01*
X27800Y-10600D02*
X23800Y-10600D01*
X23800Y-10600D02*
X23800Y-13600D01*
X23800Y-13600D02*
X27800Y-13600D01*
G54D10*
X23400Y-19850D02*
X23300Y-19950D01*
X23300Y-19950D02*
X23300Y-21250D01*
X23300Y-21250D02*
X23400Y-21350D01*
X23400Y-21350D02*
X23500Y-21250D01*
X23500Y-21250D02*
X23500Y-19950D01*
X23500Y-19950D02*
X23400Y-19850D01*
X21450Y-21400D02*
X21550Y-21300D01*
X21550Y-21300D02*
X23200Y-21300D01*
X23200Y-21300D02*
X23300Y-21400D01*
X23300Y-21400D02*
X23200Y-21500D01*
X23200Y-21500D02*
X21550Y-21500D01*
X21550Y-21500D02*
X21450Y-21400D01*
X21400Y-19850D02*
X21500Y-19950D01*
X21500Y-19950D02*
X21500Y-21250D01*
X21500Y-21250D02*
X21400Y-21350D01*
X21400Y-21350D02*
X21300Y-21250D01*
X21300Y-21250D02*
X21300Y-19950D01*
X21300Y-19950D02*
X21400Y-19850D01*
X21400Y-19850D02*
X21400Y-19900D01*
X21450Y-19800D02*
X21550Y-19700D01*
X21550Y-19700D02*
X23200Y-19700D01*
X23200Y-19700D02*
X23300Y-19800D01*
X23300Y-19800D02*
X23200Y-19900D01*
X23200Y-19900D02*
X21550Y-19900D01*
X21550Y-19900D02*
X21450Y-19800D01*
X21400Y-18350D02*
X21500Y-18450D01*
X21500Y-18450D02*
X21500Y-19650D01*
X21500Y-19650D02*
X21400Y-19750D01*
X21400Y-19750D02*
X21300Y-19650D01*
X21300Y-19650D02*
X21300Y-18450D01*
X21300Y-18450D02*
X21400Y-18350D01*
X23300Y-18450D02*
X23300Y-19650D01*
X23300Y-19650D02*
X23400Y-19750D01*
X23400Y-19750D02*
X23500Y-19650D01*
X23500Y-19650D02*
X23500Y-18450D01*
X23500Y-18450D02*
X23400Y-18350D01*
X23400Y-18350D02*
X23300Y-18450D01*
X23300Y-18150D02*
X23400Y-18250D01*
X23400Y-18250D02*
X23300Y-18350D01*
X23300Y-18350D02*
X21550Y-18350D01*
X21550Y-18350D02*
X21450Y-18250D01*
X21450Y-18250D02*
X21550Y-18150D01*
X21550Y-18150D02*
X23300Y-18150D01*
X23300Y-18150D02*
X23300Y-18200D01*
X24400Y-15600D02*
X20400Y-15600D01*
X20400Y-15600D02*
X20400Y-23100D01*
X20400Y-23100D02*
X24400Y-23100D01*
X24400Y-15600D02*
X24400Y-23100D01*
X20195Y-16948D02*
X20116Y-16948D01*
X31824Y-26255D02*
X30603Y-26255D01*
X30603Y-26255D02*
X30525Y-26530D01*
X30525Y-26530D02*
X31706Y-26530D01*
X30643Y-26609D02*
X30800Y-26609D01*
X30367Y-26963D02*
X30525Y-26609D01*
X30525Y-26609D02*
X30682Y-26609D01*
X31745Y-26530D02*
X31824Y-26255D01*
X31155Y-26963D02*
X31312Y-26963D01*
X31233Y-26963D02*
X30485Y-26963D01*
X30485Y-26963D02*
X30367Y-26963D01*
X31706Y-26609D02*
X30722Y-26609D01*
X31273Y-26963D02*
G75*
G03X31706Y-26609I39J393D01*
G74*
G01*
X25847Y-26412D02*
G75*
G03X25847Y-26412I-440J0D01*
G74*
G01*
X32100Y-27200D02*
X24580Y-27200D01*
X24580Y-27200D02*
X24580Y-21097D01*
X24580Y-21097D02*
X32100Y-21097D01*
X32100Y-21097D02*
X32100Y-27200D01*
G54D13*
X21150Y-24750D02*
X21150Y-23750D01*
X21150Y-23750D02*
X23150Y-23750D01*
X23150Y-23750D02*
X23150Y-24750D01*
X23150Y-24750D02*
X21150Y-24750D01*
G54D14*
X19950Y-11250D02*
X19950Y-11000D01*
X19950Y-11000D02*
X23450Y-11000D01*
X23450Y-11000D02*
X23450Y-11250D01*
X19950Y-12750D02*
X19950Y-11250D01*
X19950Y-11250D02*
X23450Y-11250D01*
X23450Y-11250D02*
X23450Y-12750D01*
X23450Y-12750D02*
X19950Y-12750D01*
G54D15*
X13300Y-10500D02*
X13000Y-10500D01*
X13000Y-10500D02*
X13000Y-13900D01*
X13000Y-13900D02*
X13300Y-13900D01*
X14500Y-10500D02*
X14500Y-13900D01*
X18300Y-10500D02*
X18300Y-13900D01*
X13300Y-13900D02*
X18300Y-13900D01*
X13300Y-10500D02*
X18300Y-10500D01*
G54D12*
X28200Y-11100D02*
X32200Y-11100D01*
X28200Y-10600D02*
X28200Y-13600D01*
X28200Y-13600D02*
X32200Y-13600D01*
X32200Y-13600D02*
X32200Y-10600D01*
X32200Y-10600D02*
X28200Y-10600D01*
G54D10*
X19850Y-15275D02*
X17250Y-15275D01*
X17250Y-15275D02*
X17250Y-23025D01*
X17250Y-23025D02*
X19850Y-23025D01*
X19850Y-23025D02*
X19850Y-15300D01*
G54D16*
X25600Y-14650D02*
X25600Y-13750D01*
X25600Y-13750D02*
X24950Y-13750D01*
X24250Y-14650D02*
X23600Y-14650D01*
X23600Y-14650D02*
X23600Y-13750D01*
X23600Y-13750D02*
X24250Y-13750D01*
X24950Y-14650D02*
X25600Y-14650D01*
X30000Y-14650D02*
X30000Y-13750D01*
X30000Y-13750D02*
X29350Y-13750D01*
X28650Y-14650D02*
X28000Y-14650D01*
X28000Y-14650D02*
X28000Y-13750D01*
X28000Y-13750D02*
X28650Y-13750D01*
X29350Y-14650D02*
X30000Y-14650D01*
X21300Y-13750D02*
X21300Y-14650D01*
X21300Y-14650D02*
X21950Y-14650D01*
X22650Y-13750D02*
X23300Y-13750D01*
X23300Y-13750D02*
X23300Y-14650D01*
X23300Y-14650D02*
X22650Y-14650D01*
X21950Y-13750D02*
X21300Y-13750D01*
G54D17*
X26839Y-14161D02*
X26761Y-14161D01*
X26761Y-14161D02*
X26761Y-14239D01*
X26839Y-14239D02*
X26761Y-14239D01*
X26839Y-14161D02*
X26839Y-14239D01*
X26623Y-13925D02*
X26486Y-13925D01*
X26486Y-13925D02*
X26486Y-14023D01*
X26623Y-14023D02*
X26486Y-14023D01*
X26623Y-13925D02*
X26623Y-14023D01*
X26486Y-13925D02*
X26446Y-13925D01*
X26446Y-13925D02*
X26446Y-14396D01*
X26486Y-14396D02*
X26446Y-14396D01*
X26486Y-13925D02*
X26486Y-14396D01*
X26486Y-14416D02*
X26446Y-14416D01*
X26446Y-14416D02*
X26446Y-14475D01*
X26486Y-14475D02*
X26446Y-14475D01*
X26486Y-14416D02*
X26486Y-14475D01*
X27154Y-13925D02*
X27114Y-13925D01*
X27114Y-13925D02*
X27114Y-14396D01*
X27154Y-14396D02*
X27114Y-14396D01*
X27154Y-13925D02*
X27154Y-14396D01*
X27154Y-14416D02*
X27114Y-14416D01*
X27114Y-14416D02*
X27114Y-14475D01*
X27154Y-14475D02*
X27114Y-14475D01*
X27154Y-14416D02*
X27154Y-14475D01*
X26623Y-13925D02*
X26564Y-13925D01*
X26564Y-13925D02*
X26564Y-14023D01*
X26623Y-14023D02*
X26564Y-14023D01*
X26623Y-13925D02*
X26623Y-14023D01*
G54D18*
X26190Y-13905D02*
X27410Y-13905D01*
X27410Y-13905D02*
X27410Y-14495D01*
X27410Y-14495D02*
X26190Y-14495D01*
X26190Y-14495D02*
X26190Y-13905D01*
X27015Y-14003D02*
G75*
G03X26583Y-14004I-215J-196D01*
G74*
G01*
X27015Y-14396D02*
G75*
G03X27016Y-14004I-215J196D01*
G74*
G01*
X26584Y-14396D02*
G75*
G03X27016Y-14395I215J196D01*
G74*
G01*
X26584Y-14003D02*
G75*
G03X26583Y-14395I215J-196D01*
G74*
G01*
G54D17*
X31239Y-14161D02*
X31161Y-14161D01*
X31161Y-14161D02*
X31161Y-14239D01*
X31239Y-14239D02*
X31161Y-14239D01*
X31239Y-14161D02*
X31239Y-14239D01*
X31023Y-13925D02*
X30886Y-13925D01*
X30886Y-13925D02*
X30886Y-14023D01*
X31023Y-14023D02*
X30886Y-14023D01*
X31023Y-13925D02*
X31023Y-14023D01*
X30886Y-13925D02*
X30846Y-13925D01*
X30846Y-13925D02*
X30846Y-14396D01*
X30886Y-14396D02*
X30846Y-14396D01*
X30886Y-13925D02*
X30886Y-14396D01*
X30886Y-14416D02*
X30846Y-14416D01*
X30846Y-14416D02*
X30846Y-14475D01*
X30886Y-14475D02*
X30846Y-14475D01*
X30886Y-14416D02*
X30886Y-14475D01*
X31554Y-13925D02*
X31514Y-13925D01*
X31514Y-13925D02*
X31514Y-14396D01*
X31554Y-14396D02*
X31514Y-14396D01*
X31554Y-13925D02*
X31554Y-14396D01*
X31554Y-14416D02*
X31514Y-14416D01*
X31514Y-14416D02*
X31514Y-14475D01*
X31554Y-14475D02*
X31514Y-14475D01*
X31554Y-14416D02*
X31554Y-14475D01*
X31023Y-13925D02*
X30964Y-13925D01*
X30964Y-13925D02*
X30964Y-14023D01*
X31023Y-14023D02*
X30964Y-14023D01*
X31023Y-13925D02*
X31023Y-14023D01*
G54D18*
X30590Y-13905D02*
X31810Y-13905D01*
X31810Y-13905D02*
X31810Y-14495D01*
X31810Y-14495D02*
X30590Y-14495D01*
X30590Y-14495D02*
X30590Y-13905D01*
X31415Y-14003D02*
G75*
G03X30983Y-14004I-215J-196D01*
G74*
G01*
X31415Y-14396D02*
G75*
G03X31416Y-14004I-215J196D01*
G74*
G01*
X30984Y-14396D02*
G75*
G03X31416Y-14395I215J196D01*
G74*
G01*
X30984Y-14003D02*
G75*
G03X30983Y-14395I215J-196D01*
G74*
G01*
G54D17*
X20161Y-14239D02*
X20239Y-14239D01*
X20239Y-14239D02*
X20239Y-14161D01*
X20161Y-14161D02*
X20239Y-14161D01*
X20161Y-14239D02*
X20161Y-14161D01*
X20377Y-14475D02*
X20514Y-14475D01*
X20514Y-14475D02*
X20514Y-14377D01*
X20377Y-14377D02*
X20514Y-14377D01*
X20377Y-14475D02*
X20377Y-14377D01*
X20514Y-14475D02*
X20554Y-14475D01*
X20554Y-14475D02*
X20554Y-14004D01*
X20514Y-14004D02*
X20554Y-14004D01*
X20514Y-14475D02*
X20514Y-14004D01*
X20514Y-13984D02*
X20554Y-13984D01*
X20554Y-13984D02*
X20554Y-13925D01*
X20514Y-13925D02*
X20554Y-13925D01*
X20514Y-13984D02*
X20514Y-13925D01*
X19846Y-14475D02*
X19886Y-14475D01*
X19886Y-14475D02*
X19886Y-14004D01*
X19846Y-14004D02*
X19886Y-14004D01*
X19846Y-14475D02*
X19846Y-14004D01*
X19846Y-13984D02*
X19886Y-13984D01*
X19886Y-13984D02*
X19886Y-13925D01*
X19846Y-13925D02*
X19886Y-13925D01*
X19846Y-13984D02*
X19846Y-13925D01*
X20377Y-14475D02*
X20436Y-14475D01*
X20436Y-14475D02*
X20436Y-14377D01*
X20377Y-14377D02*
X20436Y-14377D01*
X20377Y-14475D02*
X20377Y-14377D01*
G54D18*
X20810Y-14495D02*
X19590Y-14495D01*
X19590Y-14495D02*
X19590Y-13905D01*
X19590Y-13905D02*
X20810Y-13905D01*
X20810Y-13905D02*
X20810Y-14495D01*
X19984Y-14396D02*
G75*
G03X20416Y-14395I215J196D01*
G74*
G01*
X19984Y-14003D02*
G75*
G03X19983Y-14395I215J-196D01*
G74*
G01*
X20415Y-14003D02*
G75*
G03X19983Y-14004I-215J-196D01*
G74*
G01*
X20415Y-14396D02*
G75*
G03X20416Y-14004I-215J196D01*
G74*
G01*
G54D16*
X23400Y-25200D02*
X24300Y-25200D01*
X24300Y-25200D02*
X24300Y-24550D01*
X23400Y-23850D02*
X23400Y-23200D01*
X23400Y-23200D02*
X24300Y-23200D01*
X24300Y-23200D02*
X24300Y-23850D01*
X23400Y-24550D02*
X23400Y-25200D01*
G54D19*
X21197Y-13456D02*
X21472Y-13456D01*
X20803Y-13456D02*
X20528Y-13456D01*
X21197Y-12944D02*
X21472Y-12944D01*
X20528Y-12944D02*
X20803Y-12944D01*
X21472Y-12950D02*
X21472Y-13450D01*
X20528Y-13450D02*
X20528Y-12950D01*
X22203Y-12944D02*
X21928Y-12944D01*
X22597Y-12944D02*
X22872Y-12944D01*
X22203Y-13456D02*
X21928Y-13456D01*
X22872Y-13456D02*
X22597Y-13456D01*
X21928Y-13450D02*
X21928Y-12950D01*
X22872Y-12950D02*
X22872Y-13450D01*
G54D20*
X14361Y-18695D02*
X13961Y-18695D01*
X13961Y-18542D01*
X13980Y-18504D01*
X14000Y-18485D01*
X14038Y-18466D01*
X14095Y-18466D01*
X14133Y-18485D01*
X14152Y-18504D01*
X14171Y-18542D01*
X14171Y-18695D01*
X14361Y-18085D02*
X14361Y-18314D01*
X14361Y-18199D02*
X13961Y-18199D01*
X14019Y-18238D01*
X14057Y-18276D01*
X14076Y-18314D01*
G54D10*
X27896Y-16859D02*
X27765Y-16671D01*
X27671Y-16859D02*
X27671Y-16465D01*
X27821Y-16465D01*
X27859Y-16484D01*
X27878Y-16503D01*
X27896Y-16540D01*
X27896Y-16596D01*
X27878Y-16634D01*
X27859Y-16653D01*
X27821Y-16671D01*
X27671Y-16671D01*
X28065Y-16653D02*
X28196Y-16653D01*
X28253Y-16859D02*
X28065Y-16859D01*
X28065Y-16465D01*
X28253Y-16465D01*
X28609Y-16859D02*
X28421Y-16859D01*
X28421Y-16465D01*
X28946Y-16859D02*
X28721Y-16859D01*
X28834Y-16859D02*
X28834Y-16465D01*
X28796Y-16521D01*
X28759Y-16559D01*
X28721Y-16578D01*
X25981Y-18240D02*
X26037Y-18259D01*
X26131Y-18259D01*
X26169Y-18240D01*
X26187Y-18221D01*
X26206Y-18184D01*
X26206Y-18146D01*
X26187Y-18109D01*
X26169Y-18090D01*
X26131Y-18071D01*
X26056Y-18053D01*
X26019Y-18034D01*
X26000Y-18015D01*
X25981Y-17978D01*
X25981Y-17940D01*
X26000Y-17903D01*
X26019Y-17884D01*
X26056Y-17865D01*
X26150Y-17865D01*
X26206Y-17884D01*
X26600Y-18259D02*
X26469Y-18071D01*
X26375Y-18259D02*
X26375Y-17865D01*
X26525Y-17865D01*
X26562Y-17884D01*
X26581Y-17903D01*
X26600Y-17940D01*
X26600Y-17996D01*
X26581Y-18034D01*
X26562Y-18053D01*
X26525Y-18071D01*
X26375Y-18071D01*
X26768Y-18259D02*
X26768Y-17865D01*
X26862Y-17865D01*
X26918Y-17884D01*
X26956Y-17921D01*
X26975Y-17959D01*
X26993Y-18034D01*
X26993Y-18090D01*
X26975Y-18165D01*
X26956Y-18203D01*
X26918Y-18240D01*
X26862Y-18259D01*
X26768Y-18259D01*
X27162Y-18109D02*
X27462Y-18109D01*
X27725Y-17865D02*
X27762Y-17865D01*
X27800Y-17884D01*
X27818Y-17903D01*
X27837Y-17940D01*
X27856Y-18015D01*
X27856Y-18109D01*
X27837Y-18184D01*
X27818Y-18221D01*
X27800Y-18240D01*
X27762Y-18259D01*
X27725Y-18259D01*
X27687Y-18240D01*
X27668Y-18221D01*
X27650Y-18184D01*
X27631Y-18109D01*
X27631Y-18015D01*
X27650Y-17940D01*
X27668Y-17903D01*
X27687Y-17884D01*
X27725Y-17865D01*
X28212Y-17865D02*
X28025Y-17865D01*
X28006Y-18053D01*
X28025Y-18034D01*
X28062Y-18015D01*
X28156Y-18015D01*
X28193Y-18034D01*
X28212Y-18053D01*
X28231Y-18090D01*
X28231Y-18184D01*
X28212Y-18221D01*
X28193Y-18240D01*
X28156Y-18259D01*
X28062Y-18259D01*
X28025Y-18240D01*
X28006Y-18221D01*
X28343Y-17865D02*
X28475Y-18259D01*
X28606Y-17865D01*
X28737Y-18259D02*
X28737Y-17865D01*
X28831Y-17865D01*
X28887Y-17884D01*
X28924Y-17921D01*
X28943Y-17959D01*
X28962Y-18034D01*
X28962Y-18090D01*
X28943Y-18165D01*
X28924Y-18203D01*
X28887Y-18240D01*
X28831Y-18259D01*
X28737Y-18259D01*
X29356Y-18221D02*
X29337Y-18240D01*
X29281Y-18259D01*
X29243Y-18259D01*
X29187Y-18240D01*
X29149Y-18203D01*
X29131Y-18165D01*
X29112Y-18090D01*
X29112Y-18034D01*
X29131Y-17959D01*
X29149Y-17921D01*
X29187Y-17884D01*
X29243Y-17865D01*
X29281Y-17865D01*
X29337Y-17884D01*
X29356Y-17903D01*
X29524Y-18109D02*
X29824Y-18109D01*
X29993Y-18240D02*
X30049Y-18259D01*
X30143Y-18259D01*
X30181Y-18240D01*
X30199Y-18221D01*
X30218Y-18184D01*
X30218Y-18146D01*
X30199Y-18109D01*
X30181Y-18090D01*
X30143Y-18071D01*
X30068Y-18053D01*
X30031Y-18034D01*
X30012Y-18015D01*
X29993Y-17978D01*
X29993Y-17940D01*
X30012Y-17903D01*
X30031Y-17884D01*
X30068Y-17865D01*
X30162Y-17865D01*
X30218Y-17884D01*
X30574Y-18259D02*
X30387Y-18259D01*
X30387Y-17865D01*
X30705Y-18109D02*
X31005Y-18109D01*
X31418Y-18221D02*
X31399Y-18240D01*
X31343Y-18259D01*
X31305Y-18259D01*
X31249Y-18240D01*
X31212Y-18203D01*
X31193Y-18165D01*
X31174Y-18090D01*
X31174Y-18034D01*
X31193Y-17959D01*
X31212Y-17921D01*
X31249Y-17884D01*
X31305Y-17865D01*
X31343Y-17865D01*
X31399Y-17884D01*
X31418Y-17903D01*
G54D12*
X25357Y-11242D02*
X25357Y-10642D01*
X25585Y-10642D01*
X25642Y-10671D01*
X25671Y-10700D01*
X25700Y-10757D01*
X25700Y-10842D01*
X25671Y-10900D01*
X25642Y-10928D01*
X25585Y-10957D01*
X25357Y-10957D01*
X25900Y-10642D02*
X26271Y-10642D01*
X26071Y-10871D01*
X26157Y-10871D01*
X26214Y-10900D01*
X26242Y-10928D01*
X26271Y-10985D01*
X26271Y-11128D01*
X26242Y-11185D01*
X26214Y-11214D01*
X26157Y-11242D01*
X25985Y-11242D01*
X25928Y-11214D01*
X25900Y-11185D01*
X24578Y-13385D02*
X24550Y-13414D01*
X24464Y-13442D01*
X24407Y-13442D01*
X24321Y-13414D01*
X24264Y-13357D01*
X24235Y-13300D01*
X24207Y-13185D01*
X24207Y-13100D01*
X24235Y-12985D01*
X24264Y-12928D01*
X24321Y-12871D01*
X24407Y-12842D01*
X24464Y-12842D01*
X24550Y-12871D01*
X24578Y-12900D01*
X24950Y-12842D02*
X25064Y-12842D01*
X25121Y-12871D01*
X25178Y-12928D01*
X25207Y-13042D01*
X25207Y-13242D01*
X25178Y-13357D01*
X25121Y-13414D01*
X25064Y-13442D01*
X24950Y-13442D01*
X24892Y-13414D01*
X24835Y-13357D01*
X24807Y-13242D01*
X24807Y-13042D01*
X24835Y-12928D01*
X24892Y-12871D01*
X24950Y-12842D01*
X25464Y-13442D02*
X25464Y-12842D01*
X25807Y-13442D01*
X25807Y-12842D01*
X26092Y-13442D02*
X26092Y-12842D01*
X26435Y-13442D01*
X26435Y-12842D01*
X26578Y-13500D02*
X27035Y-13500D01*
X27150Y-12900D02*
X27178Y-12871D01*
X27235Y-12842D01*
X27378Y-12842D01*
X27435Y-12871D01*
X27464Y-12900D01*
X27492Y-12957D01*
X27492Y-13014D01*
X27464Y-13100D01*
X27121Y-13442D01*
X27492Y-13442D01*
G54D10*
X18671Y-15359D02*
X18671Y-14965D01*
X18765Y-14965D01*
X18821Y-14984D01*
X18859Y-15021D01*
X18878Y-15059D01*
X18896Y-15134D01*
X18896Y-15190D01*
X18878Y-15265D01*
X18859Y-15303D01*
X18821Y-15340D01*
X18765Y-15359D01*
X18671Y-15359D01*
X19046Y-15340D02*
X19103Y-15359D01*
X19196Y-15359D01*
X19234Y-15340D01*
X19253Y-15321D01*
X19271Y-15284D01*
X19271Y-15246D01*
X19253Y-15209D01*
X19234Y-15190D01*
X19196Y-15171D01*
X19121Y-15153D01*
X19084Y-15134D01*
X19065Y-15115D01*
X19046Y-15078D01*
X19046Y-15040D01*
X19065Y-15003D01*
X19084Y-14984D01*
X19121Y-14965D01*
X19215Y-14965D01*
X19271Y-14984D01*
X19646Y-15359D02*
X19421Y-15359D01*
X19534Y-15359D02*
X19534Y-14965D01*
X19496Y-15021D01*
X19459Y-15059D01*
X19421Y-15078D01*
X21175Y-15390D02*
X21231Y-15409D01*
X21325Y-15409D01*
X21362Y-15390D01*
X21381Y-15371D01*
X21400Y-15334D01*
X21400Y-15296D01*
X21381Y-15259D01*
X21362Y-15240D01*
X21325Y-15221D01*
X21250Y-15203D01*
X21212Y-15184D01*
X21193Y-15165D01*
X21175Y-15128D01*
X21175Y-15090D01*
X21193Y-15053D01*
X21212Y-15034D01*
X21250Y-15015D01*
X21343Y-15015D01*
X21400Y-15034D01*
X21550Y-15296D02*
X21737Y-15296D01*
X21512Y-15409D02*
X21643Y-15015D01*
X21775Y-15409D01*
X21981Y-15015D02*
X22018Y-15015D01*
X22056Y-15034D01*
X22075Y-15053D01*
X22093Y-15090D01*
X22112Y-15165D01*
X22112Y-15259D01*
X22093Y-15334D01*
X22075Y-15371D01*
X22056Y-15390D01*
X22018Y-15409D01*
X21981Y-15409D01*
X21943Y-15390D01*
X21925Y-15371D01*
X21906Y-15334D01*
X21887Y-15259D01*
X21887Y-15165D01*
X21906Y-15090D01*
X21925Y-15053D01*
X21943Y-15034D01*
X21981Y-15015D01*
X22450Y-15146D02*
X22450Y-15409D01*
X22356Y-14996D02*
X22262Y-15278D01*
X22506Y-15278D01*
X22656Y-15259D02*
X22956Y-15259D01*
X23349Y-15409D02*
X23124Y-15409D01*
X23237Y-15409D02*
X23237Y-15015D01*
X23199Y-15071D01*
X23162Y-15109D01*
X23124Y-15128D01*
X23724Y-15409D02*
X23499Y-15409D01*
X23612Y-15409D02*
X23612Y-15015D01*
X23574Y-15071D01*
X23537Y-15109D01*
X23499Y-15128D01*
X21731Y-22015D02*
X21862Y-22409D01*
X21993Y-22015D01*
X22293Y-22390D02*
X22256Y-22409D01*
X22181Y-22409D01*
X22143Y-22390D01*
X22125Y-22371D01*
X22106Y-22334D01*
X22106Y-22221D01*
X22125Y-22184D01*
X22143Y-22165D01*
X22181Y-22146D01*
X22256Y-22146D01*
X22293Y-22165D01*
X22631Y-22390D02*
X22593Y-22409D01*
X22518Y-22409D01*
X22481Y-22390D01*
X22462Y-22371D01*
X22443Y-22334D01*
X22443Y-22221D01*
X22462Y-22184D01*
X22481Y-22165D01*
X22518Y-22146D01*
X22593Y-22146D01*
X22631Y-22165D01*
X21628Y-21303D02*
X21684Y-21321D01*
X21703Y-21340D01*
X21721Y-21378D01*
X21721Y-21434D01*
X21703Y-21471D01*
X21684Y-21490D01*
X21646Y-21509D01*
X21496Y-21509D01*
X21496Y-21115D01*
X21628Y-21115D01*
X21665Y-21134D01*
X21684Y-21153D01*
X21703Y-21190D01*
X21703Y-21228D01*
X21684Y-21265D01*
X21665Y-21284D01*
X21628Y-21303D01*
X21496Y-21303D01*
X22053Y-19134D02*
X22015Y-19115D01*
X21959Y-19115D01*
X21903Y-19134D01*
X21865Y-19171D01*
X21846Y-19209D01*
X21828Y-19284D01*
X21828Y-19340D01*
X21846Y-19415D01*
X21865Y-19453D01*
X21903Y-19490D01*
X21959Y-19509D01*
X21996Y-19509D01*
X22053Y-19490D01*
X22071Y-19471D01*
X22071Y-19340D01*
X21996Y-19340D01*
X22171Y-18371D02*
X22153Y-18390D01*
X22096Y-18409D01*
X22059Y-18409D01*
X22003Y-18390D01*
X21965Y-18353D01*
X21946Y-18315D01*
X21928Y-18240D01*
X21928Y-18184D01*
X21946Y-18109D01*
X21965Y-18071D01*
X22003Y-18034D01*
X22059Y-18015D01*
X22096Y-18015D01*
X22153Y-18034D01*
X22171Y-18053D01*
X21600Y-17559D02*
X21600Y-17165D01*
X21693Y-17165D01*
X21750Y-17184D01*
X21787Y-17221D01*
X21806Y-17259D01*
X21825Y-17334D01*
X21825Y-17390D01*
X21806Y-17465D01*
X21787Y-17503D01*
X21750Y-17540D01*
X21693Y-17559D01*
X21600Y-17559D01*
X21993Y-17559D02*
X21993Y-17165D01*
X22143Y-17165D01*
X22181Y-17184D01*
X22199Y-17203D01*
X22218Y-17240D01*
X22218Y-17296D01*
X22199Y-17334D01*
X22181Y-17353D01*
X22143Y-17371D01*
X21993Y-17371D01*
X21746Y-16459D02*
X21746Y-16065D01*
X21840Y-16065D01*
X21896Y-16084D01*
X21934Y-16121D01*
X21953Y-16159D01*
X21971Y-16234D01*
X21971Y-16290D01*
X21953Y-16365D01*
X21934Y-16403D01*
X21896Y-16440D01*
X21840Y-16459D01*
X21746Y-16459D01*
X23215Y-16303D02*
X23346Y-16303D01*
X23403Y-16509D02*
X23215Y-16509D01*
X23215Y-16115D01*
X23403Y-16115D01*
X22840Y-17509D02*
X22840Y-17115D01*
X23065Y-17509D01*
X23065Y-17115D01*
X23478Y-17471D02*
X23459Y-17490D01*
X23403Y-17509D01*
X23365Y-17509D01*
X23309Y-17490D01*
X23271Y-17453D01*
X23253Y-17415D01*
X23234Y-17340D01*
X23234Y-17284D01*
X23253Y-17209D01*
X23271Y-17171D01*
X23309Y-17134D01*
X23365Y-17115D01*
X23403Y-17115D01*
X23459Y-17134D01*
X23478Y-17153D01*
X22834Y-19246D02*
X22984Y-19246D01*
X22890Y-19115D02*
X22890Y-19453D01*
X22909Y-19490D01*
X22946Y-19509D01*
X22984Y-19509D01*
X23265Y-19490D02*
X23228Y-19509D01*
X23153Y-19509D01*
X23115Y-19490D01*
X23096Y-19453D01*
X23096Y-19303D01*
X23115Y-19265D01*
X23153Y-19246D01*
X23228Y-19246D01*
X23265Y-19265D01*
X23284Y-19303D01*
X23284Y-19340D01*
X23096Y-19378D01*
X23415Y-19509D02*
X23621Y-19246D01*
X23415Y-19246D02*
X23621Y-19509D01*
X23715Y-19246D02*
X23865Y-19246D01*
X23771Y-19115D02*
X23771Y-19453D01*
X23790Y-19490D01*
X23828Y-19509D01*
X23865Y-19509D01*
X22531Y-20115D02*
X22662Y-20509D01*
X22793Y-20115D01*
X23093Y-20490D02*
X23056Y-20509D01*
X22981Y-20509D01*
X22943Y-20490D01*
X22925Y-20471D01*
X22906Y-20434D01*
X22906Y-20321D01*
X22925Y-20284D01*
X22943Y-20265D01*
X22981Y-20246D01*
X23056Y-20246D01*
X23093Y-20265D01*
X23431Y-20490D02*
X23393Y-20509D01*
X23318Y-20509D01*
X23281Y-20490D01*
X23262Y-20471D01*
X23243Y-20434D01*
X23243Y-20321D01*
X23262Y-20284D01*
X23281Y-20265D01*
X23318Y-20246D01*
X23393Y-20246D01*
X23431Y-20265D01*
X23406Y-21303D02*
X23275Y-21303D01*
X23275Y-21509D02*
X23275Y-21115D01*
X23462Y-21115D01*
X23256Y-22396D02*
X23443Y-22396D01*
X23218Y-22509D02*
X23350Y-22115D01*
X23481Y-22509D01*
X27681Y-23186D02*
X27549Y-22998D01*
X27456Y-23186D02*
X27456Y-22792D01*
X27606Y-22792D01*
X27643Y-22811D01*
X27662Y-22829D01*
X27681Y-22867D01*
X27681Y-22923D01*
X27662Y-22961D01*
X27643Y-22979D01*
X27606Y-22998D01*
X27456Y-22998D01*
X27849Y-22979D02*
X27981Y-22979D01*
X28037Y-23186D02*
X27849Y-23186D01*
X27849Y-22792D01*
X28037Y-22792D01*
X28393Y-23186D02*
X28206Y-23186D01*
X28206Y-22792D01*
X28506Y-22829D02*
X28524Y-22811D01*
X28562Y-22792D01*
X28656Y-22792D01*
X28693Y-22811D01*
X28712Y-22829D01*
X28731Y-22867D01*
X28731Y-22904D01*
X28712Y-22961D01*
X28487Y-23186D01*
X28731Y-23186D01*
X25881Y-24740D02*
X25937Y-24759D01*
X26031Y-24759D01*
X26069Y-24740D01*
X26087Y-24721D01*
X26106Y-24684D01*
X26106Y-24646D01*
X26087Y-24609D01*
X26069Y-24590D01*
X26031Y-24571D01*
X25956Y-24553D01*
X25919Y-24534D01*
X25900Y-24515D01*
X25881Y-24478D01*
X25881Y-24440D01*
X25900Y-24403D01*
X25919Y-24384D01*
X25956Y-24365D01*
X26050Y-24365D01*
X26106Y-24384D01*
X26500Y-24759D02*
X26369Y-24571D01*
X26275Y-24759D02*
X26275Y-24365D01*
X26425Y-24365D01*
X26462Y-24384D01*
X26481Y-24403D01*
X26500Y-24440D01*
X26500Y-24496D01*
X26481Y-24534D01*
X26462Y-24553D01*
X26425Y-24571D01*
X26275Y-24571D01*
X26668Y-24759D02*
X26668Y-24365D01*
X26762Y-24365D01*
X26818Y-24384D01*
X26856Y-24421D01*
X26875Y-24459D01*
X26893Y-24534D01*
X26893Y-24590D01*
X26875Y-24665D01*
X26856Y-24703D01*
X26818Y-24740D01*
X26762Y-24759D01*
X26668Y-24759D01*
X27062Y-24609D02*
X27362Y-24609D01*
X27625Y-24365D02*
X27662Y-24365D01*
X27700Y-24384D01*
X27718Y-24403D01*
X27737Y-24440D01*
X27756Y-24515D01*
X27756Y-24609D01*
X27737Y-24684D01*
X27718Y-24721D01*
X27700Y-24740D01*
X27662Y-24759D01*
X27625Y-24759D01*
X27587Y-24740D01*
X27568Y-24721D01*
X27550Y-24684D01*
X27531Y-24609D01*
X27531Y-24515D01*
X27550Y-24440D01*
X27568Y-24403D01*
X27587Y-24384D01*
X27625Y-24365D01*
X28112Y-24365D02*
X27925Y-24365D01*
X27906Y-24553D01*
X27925Y-24534D01*
X27962Y-24515D01*
X28056Y-24515D01*
X28093Y-24534D01*
X28112Y-24553D01*
X28131Y-24590D01*
X28131Y-24684D01*
X28112Y-24721D01*
X28093Y-24740D01*
X28056Y-24759D01*
X27962Y-24759D01*
X27925Y-24740D01*
X27906Y-24721D01*
X28243Y-24365D02*
X28375Y-24759D01*
X28506Y-24365D01*
X28637Y-24759D02*
X28637Y-24365D01*
X28731Y-24365D01*
X28787Y-24384D01*
X28824Y-24421D01*
X28843Y-24459D01*
X28862Y-24534D01*
X28862Y-24590D01*
X28843Y-24665D01*
X28824Y-24703D01*
X28787Y-24740D01*
X28731Y-24759D01*
X28637Y-24759D01*
X29256Y-24721D02*
X29237Y-24740D01*
X29181Y-24759D01*
X29143Y-24759D01*
X29087Y-24740D01*
X29049Y-24703D01*
X29031Y-24665D01*
X29012Y-24590D01*
X29012Y-24534D01*
X29031Y-24459D01*
X29049Y-24421D01*
X29087Y-24384D01*
X29143Y-24365D01*
X29181Y-24365D01*
X29237Y-24384D01*
X29256Y-24403D01*
X29424Y-24609D02*
X29724Y-24609D01*
X29893Y-24740D02*
X29949Y-24759D01*
X30043Y-24759D01*
X30081Y-24740D01*
X30099Y-24721D01*
X30118Y-24684D01*
X30118Y-24646D01*
X30099Y-24609D01*
X30081Y-24590D01*
X30043Y-24571D01*
X29968Y-24553D01*
X29931Y-24534D01*
X29912Y-24515D01*
X29893Y-24478D01*
X29893Y-24440D01*
X29912Y-24403D01*
X29931Y-24384D01*
X29968Y-24365D01*
X30062Y-24365D01*
X30118Y-24384D01*
X30474Y-24759D02*
X30287Y-24759D01*
X30287Y-24365D01*
X30605Y-24609D02*
X30905Y-24609D01*
X31318Y-24721D02*
X31299Y-24740D01*
X31243Y-24759D01*
X31205Y-24759D01*
X31149Y-24740D01*
X31112Y-24703D01*
X31093Y-24665D01*
X31074Y-24590D01*
X31074Y-24534D01*
X31093Y-24459D01*
X31112Y-24421D01*
X31149Y-24384D01*
X31205Y-24365D01*
X31243Y-24365D01*
X31299Y-24384D01*
X31318Y-24403D01*
G54D13*
X21928Y-23621D02*
X21928Y-23321D01*
X22042Y-23321D01*
X22071Y-23335D01*
X22085Y-23350D01*
X22100Y-23378D01*
X22100Y-23421D01*
X22085Y-23450D01*
X22071Y-23464D01*
X22042Y-23478D01*
X21928Y-23478D01*
X22214Y-23350D02*
X22228Y-23335D01*
X22257Y-23321D01*
X22328Y-23321D01*
X22357Y-23335D01*
X22371Y-23350D01*
X22385Y-23378D01*
X22385Y-23407D01*
X22371Y-23450D01*
X22200Y-23621D01*
X22385Y-23621D01*
G54D20*
X19895Y-10542D02*
X19895Y-11028D01*
X19914Y-11085D01*
X19933Y-11114D01*
X19971Y-11142D01*
X20047Y-11142D01*
X20085Y-11114D01*
X20104Y-11085D01*
X20123Y-11028D01*
X20123Y-10542D01*
X20523Y-11142D02*
X20295Y-11142D01*
X20409Y-11142D02*
X20409Y-10542D01*
X20371Y-10628D01*
X20333Y-10685D01*
X20295Y-10714D01*
X20995Y-10842D02*
X21261Y-10842D01*
X21090Y-11442D01*
X21471Y-11100D02*
X21433Y-11071D01*
X21414Y-11042D01*
X21395Y-10985D01*
X21395Y-10957D01*
X21414Y-10900D01*
X21433Y-10871D01*
X21471Y-10842D01*
X21547Y-10842D01*
X21585Y-10871D01*
X21604Y-10900D01*
X21623Y-10957D01*
X21623Y-10985D01*
X21604Y-11042D01*
X21585Y-11071D01*
X21547Y-11100D01*
X21471Y-11100D01*
X21433Y-11128D01*
X21414Y-11157D01*
X21395Y-11214D01*
X21395Y-11328D01*
X21414Y-11385D01*
X21433Y-11414D01*
X21471Y-11442D01*
X21547Y-11442D01*
X21585Y-11414D01*
X21604Y-11385D01*
X21623Y-11328D01*
X21623Y-11214D01*
X21604Y-11157D01*
X21585Y-11128D01*
X21547Y-11100D01*
X21871Y-10842D02*
X21909Y-10842D01*
X21947Y-10871D01*
X21966Y-10900D01*
X21985Y-10957D01*
X22004Y-11071D01*
X22004Y-11214D01*
X21985Y-11328D01*
X21966Y-11385D01*
X21947Y-11414D01*
X21909Y-11442D01*
X21871Y-11442D01*
X21833Y-11414D01*
X21814Y-11385D01*
X21795Y-11328D01*
X21776Y-11214D01*
X21776Y-11071D01*
X21795Y-10957D01*
X21814Y-10900D01*
X21833Y-10871D01*
X21871Y-10842D01*
X22366Y-10842D02*
X22176Y-10842D01*
X22157Y-11128D01*
X22176Y-11100D01*
X22214Y-11071D01*
X22309Y-11071D01*
X22347Y-11100D01*
X22366Y-11128D01*
X22385Y-11185D01*
X22385Y-11328D01*
X22366Y-11385D01*
X22347Y-11414D01*
X22309Y-11442D01*
X22214Y-11442D01*
X22176Y-11414D01*
X22157Y-11385D01*
G54D14*
X15714Y-10123D02*
X15695Y-10142D01*
X15638Y-10161D01*
X15600Y-10161D01*
X15542Y-10142D01*
X15504Y-10104D01*
X15485Y-10066D01*
X15466Y-9990D01*
X15466Y-9933D01*
X15485Y-9857D01*
X15504Y-9819D01*
X15542Y-9780D01*
X15600Y-9761D01*
X15638Y-9761D01*
X15695Y-9780D01*
X15714Y-9800D01*
X15961Y-9761D02*
X16038Y-9761D01*
X16076Y-9780D01*
X16114Y-9819D01*
X16133Y-9895D01*
X16133Y-10028D01*
X16114Y-10104D01*
X16076Y-10142D01*
X16038Y-10161D01*
X15961Y-10161D01*
X15923Y-10142D01*
X15885Y-10104D01*
X15866Y-10028D01*
X15866Y-9895D01*
X15885Y-9819D01*
X15923Y-9780D01*
X15961Y-9761D01*
X16304Y-10161D02*
X16304Y-9761D01*
X16533Y-10161D01*
X16533Y-9761D01*
X16933Y-10161D02*
X16704Y-10161D01*
X16819Y-10161D02*
X16819Y-9761D01*
X16780Y-9819D01*
X16742Y-9857D01*
X16704Y-9876D01*
X12338Y-14352D02*
X12395Y-14371D01*
X12414Y-14390D01*
X12433Y-14428D01*
X12433Y-14485D01*
X12414Y-14523D01*
X12395Y-14542D01*
X12357Y-14561D01*
X12204Y-14561D01*
X12204Y-14161D01*
X12338Y-14161D01*
X12376Y-14180D01*
X12395Y-14200D01*
X12414Y-14238D01*
X12414Y-14276D01*
X12395Y-14314D01*
X12376Y-14333D01*
X12338Y-14352D01*
X12204Y-14352D01*
X12585Y-14447D02*
X12776Y-14447D01*
X12547Y-14561D02*
X12680Y-14161D01*
X12814Y-14561D01*
X13176Y-14561D02*
X13042Y-14371D01*
X12947Y-14561D02*
X12947Y-14161D01*
X13100Y-14161D01*
X13138Y-14180D01*
X13157Y-14200D01*
X13176Y-14238D01*
X13176Y-14295D01*
X13157Y-14333D01*
X13138Y-14352D01*
X13100Y-14371D01*
X12947Y-14371D01*
X13576Y-14561D02*
X13442Y-14371D01*
X13347Y-14561D02*
X13347Y-14161D01*
X13500Y-14161D01*
X13538Y-14180D01*
X13557Y-14200D01*
X13576Y-14238D01*
X13576Y-14295D01*
X13557Y-14333D01*
X13538Y-14352D01*
X13500Y-14371D01*
X13347Y-14371D01*
X13747Y-14352D02*
X13880Y-14352D01*
X13938Y-14561D02*
X13747Y-14561D01*
X13747Y-14161D01*
X13938Y-14161D01*
X14300Y-14561D02*
X14109Y-14561D01*
X14109Y-14161D01*
X14338Y-14600D02*
X14642Y-14600D01*
X14852Y-14161D02*
X14852Y-14447D01*
X14833Y-14504D01*
X14795Y-14542D01*
X14738Y-14561D01*
X14700Y-14561D01*
X15023Y-14447D02*
X15214Y-14447D01*
X14985Y-14561D02*
X15119Y-14161D01*
X15252Y-14561D01*
X15614Y-14523D02*
X15595Y-14542D01*
X15538Y-14561D01*
X15499Y-14561D01*
X15442Y-14542D01*
X15404Y-14504D01*
X15385Y-14466D01*
X15366Y-14390D01*
X15366Y-14333D01*
X15385Y-14257D01*
X15404Y-14219D01*
X15442Y-14180D01*
X15499Y-14161D01*
X15538Y-14161D01*
X15595Y-14180D01*
X15614Y-14200D01*
X15785Y-14561D02*
X15785Y-14161D01*
X16014Y-14561D02*
X15842Y-14333D01*
X16014Y-14161D02*
X15785Y-14390D01*
G54D12*
X29757Y-11242D02*
X29757Y-10642D01*
X29985Y-10642D01*
X30042Y-10671D01*
X30071Y-10700D01*
X30100Y-10757D01*
X30100Y-10842D01*
X30071Y-10900D01*
X30042Y-10928D01*
X29985Y-10957D01*
X29757Y-10957D01*
X30614Y-10842D02*
X30614Y-11242D01*
X30471Y-10614D02*
X30328Y-11042D01*
X30700Y-11042D01*
X28928Y-10285D02*
X28900Y-10314D01*
X28814Y-10342D01*
X28757Y-10342D01*
X28671Y-10314D01*
X28614Y-10257D01*
X28585Y-10200D01*
X28557Y-10085D01*
X28557Y-10000D01*
X28585Y-9885D01*
X28614Y-9828D01*
X28671Y-9771D01*
X28757Y-9742D01*
X28814Y-9742D01*
X28900Y-9771D01*
X28928Y-9800D01*
X29300Y-9742D02*
X29414Y-9742D01*
X29471Y-9771D01*
X29528Y-9828D01*
X29557Y-9942D01*
X29557Y-10142D01*
X29528Y-10257D01*
X29471Y-10314D01*
X29414Y-10342D01*
X29300Y-10342D01*
X29242Y-10314D01*
X29185Y-10257D01*
X29157Y-10142D01*
X29157Y-9942D01*
X29185Y-9828D01*
X29242Y-9771D01*
X29300Y-9742D01*
X29814Y-10342D02*
X29814Y-9742D01*
X30157Y-10342D01*
X30157Y-9742D01*
X30442Y-10342D02*
X30442Y-9742D01*
X30785Y-10342D01*
X30785Y-9742D01*
X30928Y-10400D02*
X31385Y-10400D01*
X31500Y-9800D02*
X31528Y-9771D01*
X31585Y-9742D01*
X31728Y-9742D01*
X31785Y-9771D01*
X31814Y-9800D01*
X31842Y-9857D01*
X31842Y-9914D01*
X31814Y-10000D01*
X31471Y-10342D01*
X31842Y-10342D01*
G54D10*
X19003Y-19703D02*
X19021Y-19646D01*
X19040Y-19628D01*
X19078Y-19609D01*
X19134Y-19609D01*
X19171Y-19628D01*
X19190Y-19646D01*
X19209Y-19684D01*
X19209Y-19834D01*
X18815Y-19834D01*
X18815Y-19703D01*
X18834Y-19665D01*
X18853Y-19646D01*
X18890Y-19628D01*
X18928Y-19628D01*
X18965Y-19646D01*
X18984Y-19665D01*
X19003Y-19703D01*
X19003Y-19834D01*
X19171Y-19215D02*
X19190Y-19234D01*
X19209Y-19290D01*
X19209Y-19328D01*
X19190Y-19384D01*
X19153Y-19421D01*
X19115Y-19440D01*
X19040Y-19459D01*
X18984Y-19459D01*
X18909Y-19440D01*
X18871Y-19421D01*
X18834Y-19384D01*
X18815Y-19328D01*
X18815Y-19290D01*
X18834Y-19234D01*
X18853Y-19215D01*
X19209Y-19046D02*
X18815Y-19046D01*
X18815Y-18953D01*
X18834Y-18896D01*
X18871Y-18859D01*
X18909Y-18840D01*
X18984Y-18821D01*
X19040Y-18821D01*
X19115Y-18840D01*
X19153Y-18859D01*
X19190Y-18896D01*
X19209Y-18953D01*
X19209Y-19046D01*
X19209Y-18446D02*
X19209Y-18671D01*
X19209Y-18559D02*
X18815Y-18559D01*
X18871Y-18596D01*
X18909Y-18634D01*
X18928Y-18671D01*
X18271Y-20249D02*
X18290Y-20268D01*
X18309Y-20324D01*
X18309Y-20362D01*
X18290Y-20418D01*
X18253Y-20456D01*
X18215Y-20474D01*
X18140Y-20493D01*
X18084Y-20493D01*
X18009Y-20474D01*
X17971Y-20456D01*
X17934Y-20418D01*
X17915Y-20362D01*
X17915Y-20324D01*
X17934Y-20268D01*
X17953Y-20249D01*
X18309Y-20081D02*
X17915Y-20081D01*
X17915Y-19987D01*
X17934Y-19931D01*
X17971Y-19893D01*
X18009Y-19874D01*
X18084Y-19856D01*
X18140Y-19856D01*
X18215Y-19874D01*
X18253Y-19893D01*
X18290Y-19931D01*
X18309Y-19987D01*
X18309Y-20081D01*
X18046Y-19518D02*
X18309Y-19518D01*
X17896Y-19612D02*
X18178Y-19706D01*
X18178Y-19462D01*
X17915Y-19124D02*
X17915Y-19312D01*
X18103Y-19331D01*
X18084Y-19312D01*
X18065Y-19274D01*
X18065Y-19181D01*
X18084Y-19143D01*
X18103Y-19124D01*
X18140Y-19106D01*
X18234Y-19106D01*
X18271Y-19124D01*
X18290Y-19143D01*
X18309Y-19181D01*
X18309Y-19274D01*
X18290Y-19312D01*
X18271Y-19331D01*
X18046Y-18768D02*
X18309Y-18768D01*
X17896Y-18862D02*
X18178Y-18956D01*
X18178Y-18712D01*
X17915Y-18600D02*
X17915Y-18356D01*
X18065Y-18487D01*
X18065Y-18431D01*
X18084Y-18393D01*
X18103Y-18375D01*
X18140Y-18356D01*
X18234Y-18356D01*
X18271Y-18375D01*
X18290Y-18393D01*
X18309Y-18431D01*
X18309Y-18543D01*
X18290Y-18581D01*
X18271Y-18600D01*
X18103Y-18056D02*
X18121Y-18000D01*
X18140Y-17981D01*
X18178Y-17962D01*
X18234Y-17962D01*
X18271Y-17981D01*
X18290Y-18000D01*
X18309Y-18037D01*
X18309Y-18187D01*
X17915Y-18187D01*
X17915Y-18056D01*
X17934Y-18018D01*
X17953Y-18000D01*
X17990Y-17981D01*
X18028Y-17981D01*
X18065Y-18000D01*
X18084Y-18018D01*
X18103Y-18056D01*
X18103Y-18187D01*
X18103Y-17793D02*
X18103Y-17662D01*
X18309Y-17606D02*
X18309Y-17793D01*
X17915Y-17793D01*
X17915Y-17606D01*
G54D16*
X24750Y-14321D02*
X24650Y-14178D01*
X24578Y-14321D02*
X24578Y-14021D01*
X24692Y-14021D01*
X24721Y-14035D01*
X24735Y-14050D01*
X24750Y-14078D01*
X24750Y-14121D01*
X24735Y-14150D01*
X24721Y-14164D01*
X24692Y-14178D01*
X24578Y-14178D01*
X24864Y-14050D02*
X24878Y-14035D01*
X24907Y-14021D01*
X24978Y-14021D01*
X25007Y-14035D01*
X25021Y-14050D01*
X25035Y-14078D01*
X25035Y-14107D01*
X25021Y-14150D01*
X24850Y-14321D01*
X25035Y-14321D01*
X28950Y-14321D02*
X28850Y-14178D01*
X28778Y-14321D02*
X28778Y-14021D01*
X28892Y-14021D01*
X28921Y-14035D01*
X28935Y-14050D01*
X28950Y-14078D01*
X28950Y-14121D01*
X28935Y-14150D01*
X28921Y-14164D01*
X28892Y-14178D01*
X28778Y-14178D01*
X29050Y-14021D02*
X29235Y-14021D01*
X29135Y-14135D01*
X29178Y-14135D01*
X29207Y-14150D01*
X29221Y-14164D01*
X29235Y-14192D01*
X29235Y-14264D01*
X29221Y-14292D01*
X29207Y-14307D01*
X29178Y-14321D01*
X29092Y-14321D01*
X29064Y-14307D01*
X29050Y-14292D01*
X22150Y-14321D02*
X22050Y-14178D01*
X21978Y-14321D02*
X21978Y-14021D01*
X22092Y-14021D01*
X22121Y-14035D01*
X22135Y-14050D01*
X22150Y-14078D01*
X22150Y-14121D01*
X22135Y-14150D01*
X22121Y-14164D01*
X22092Y-14178D01*
X21978Y-14178D01*
X22407Y-14121D02*
X22407Y-14321D01*
X22335Y-14007D02*
X22264Y-14221D01*
X22450Y-14221D01*
G54D21*
X27178Y-14921D02*
X27178Y-14621D01*
X27250Y-14621D01*
X27292Y-14635D01*
X27321Y-14664D01*
X27335Y-14692D01*
X27350Y-14750D01*
X27350Y-14792D01*
X27335Y-14850D01*
X27321Y-14878D01*
X27292Y-14907D01*
X27250Y-14921D01*
X27178Y-14921D01*
X27635Y-14921D02*
X27464Y-14921D01*
X27550Y-14921D02*
X27550Y-14621D01*
X27521Y-14664D01*
X27492Y-14692D01*
X27464Y-14707D01*
X26921Y-14392D02*
X26921Y-14535D01*
X26621Y-14535D01*
X26764Y-14292D02*
X26764Y-14192D01*
X26921Y-14150D02*
X26921Y-14292D01*
X26621Y-14292D01*
X26621Y-14150D01*
X26921Y-14021D02*
X26621Y-14021D01*
X26621Y-13950D01*
X26635Y-13907D01*
X26664Y-13878D01*
X26692Y-13864D01*
X26750Y-13850D01*
X26792Y-13850D01*
X26850Y-13864D01*
X26878Y-13878D01*
X26907Y-13907D01*
X26921Y-13950D01*
X26921Y-14021D01*
X30878Y-14921D02*
X30878Y-14621D01*
X30950Y-14621D01*
X30992Y-14635D01*
X31021Y-14664D01*
X31035Y-14692D01*
X31050Y-14750D01*
X31050Y-14792D01*
X31035Y-14850D01*
X31021Y-14878D01*
X30992Y-14907D01*
X30950Y-14921D01*
X30878Y-14921D01*
X31164Y-14650D02*
X31178Y-14635D01*
X31207Y-14621D01*
X31278Y-14621D01*
X31307Y-14635D01*
X31321Y-14650D01*
X31335Y-14678D01*
X31335Y-14707D01*
X31321Y-14750D01*
X31150Y-14921D01*
X31335Y-14921D01*
X31321Y-14392D02*
X31321Y-14535D01*
X31021Y-14535D01*
X31164Y-14292D02*
X31164Y-14192D01*
X31321Y-14150D02*
X31321Y-14292D01*
X31021Y-14292D01*
X31021Y-14150D01*
X31321Y-14021D02*
X31021Y-14021D01*
X31021Y-13950D01*
X31035Y-13907D01*
X31064Y-13878D01*
X31092Y-13864D01*
X31150Y-13850D01*
X31192Y-13850D01*
X31250Y-13864D01*
X31278Y-13878D01*
X31307Y-13907D01*
X31321Y-13950D01*
X31321Y-14021D01*
X20078Y-13721D02*
X20078Y-13421D01*
X20150Y-13421D01*
X20192Y-13435D01*
X20221Y-13464D01*
X20235Y-13492D01*
X20250Y-13550D01*
X20250Y-13592D01*
X20235Y-13650D01*
X20221Y-13678D01*
X20192Y-13707D01*
X20150Y-13721D01*
X20078Y-13721D01*
X20350Y-13421D02*
X20535Y-13421D01*
X20435Y-13535D01*
X20478Y-13535D01*
X20507Y-13550D01*
X20521Y-13564D01*
X20535Y-13592D01*
X20535Y-13664D01*
X20521Y-13692D01*
X20507Y-13707D01*
X20478Y-13721D01*
X20392Y-13721D01*
X20364Y-13707D01*
X20350Y-13692D01*
X20007Y-14921D02*
X19864Y-14921D01*
X19864Y-14621D01*
X20107Y-14764D02*
X20207Y-14764D01*
X20250Y-14921D02*
X20107Y-14921D01*
X20107Y-14621D01*
X20250Y-14621D01*
X20378Y-14921D02*
X20378Y-14621D01*
X20450Y-14621D01*
X20492Y-14635D01*
X20521Y-14664D01*
X20535Y-14692D01*
X20550Y-14750D01*
X20550Y-14792D01*
X20535Y-14850D01*
X20521Y-14878D01*
X20492Y-14907D01*
X20450Y-14921D01*
X20378Y-14921D01*
G54D16*
X23921Y-24200D02*
X23778Y-24300D01*
X23921Y-24371D02*
X23621Y-24371D01*
X23621Y-24257D01*
X23635Y-24228D01*
X23650Y-24214D01*
X23678Y-24200D01*
X23721Y-24200D01*
X23750Y-24214D01*
X23764Y-24228D01*
X23778Y-24257D01*
X23778Y-24371D01*
X23921Y-23914D02*
X23921Y-24085D01*
X23921Y-24000D02*
X23621Y-24000D01*
X23664Y-24028D01*
X23692Y-24057D01*
X23707Y-24085D01*
G54D22*
X21061Y-13230D02*
X21071Y-13238D01*
X21080Y-13264D01*
X21080Y-13281D01*
X21071Y-13307D01*
X21052Y-13324D01*
X21033Y-13332D01*
X20995Y-13341D01*
X20966Y-13341D01*
X20928Y-13332D01*
X20909Y-13324D01*
X20890Y-13307D01*
X20880Y-13281D01*
X20880Y-13264D01*
X20890Y-13238D01*
X20900Y-13230D01*
X21080Y-13058D02*
X21080Y-13161D01*
X21080Y-13110D02*
X20880Y-13110D01*
X20909Y-13127D01*
X20928Y-13144D01*
X20938Y-13161D01*
X20230Y-13495D02*
X20230Y-13478D01*
X20240Y-13461D01*
X20250Y-13452D01*
X20269Y-13444D01*
X20307Y-13435D01*
X20354Y-13435D01*
X20392Y-13444D01*
X20411Y-13452D01*
X20421Y-13461D01*
X20430Y-13478D01*
X20430Y-13495D01*
X20421Y-13512D01*
X20411Y-13521D01*
X20392Y-13530D01*
X20354Y-13538D01*
X20307Y-13538D01*
X20269Y-13530D01*
X20250Y-13521D01*
X20240Y-13512D01*
X20230Y-13495D01*
X20411Y-13358D02*
X20421Y-13349D01*
X20430Y-13358D01*
X20421Y-13367D01*
X20411Y-13358D01*
X20430Y-13358D01*
X20430Y-13178D02*
X20430Y-13281D01*
X20430Y-13230D02*
X20230Y-13230D01*
X20259Y-13247D01*
X20278Y-13264D01*
X20288Y-13281D01*
X20297Y-13024D02*
X20430Y-13024D01*
X20297Y-13101D02*
X20402Y-13101D01*
X20421Y-13092D01*
X20430Y-13075D01*
X20430Y-13049D01*
X20421Y-13032D01*
X20411Y-13024D01*
X20326Y-12878D02*
X20326Y-12938D01*
X20430Y-12938D02*
X20230Y-12938D01*
X20230Y-12852D01*
X22511Y-13180D02*
X22521Y-13188D01*
X22530Y-13214D01*
X22530Y-13231D01*
X22521Y-13257D01*
X22502Y-13274D01*
X22483Y-13282D01*
X22445Y-13291D01*
X22416Y-13291D01*
X22378Y-13282D01*
X22359Y-13274D01*
X22340Y-13257D01*
X22330Y-13231D01*
X22330Y-13214D01*
X22340Y-13188D01*
X22350Y-13180D01*
X22350Y-13111D02*
X22340Y-13102D01*
X22330Y-13085D01*
X22330Y-13042D01*
X22340Y-13025D01*
X22350Y-13017D01*
X22369Y-13008D01*
X22388Y-13008D01*
X22416Y-13017D01*
X22530Y-13120D01*
X22530Y-13008D01*
X23130Y-13307D02*
X23130Y-13410D01*
X23130Y-13358D02*
X22930Y-13358D01*
X22959Y-13375D01*
X22978Y-13392D01*
X22988Y-13410D01*
X22997Y-13152D02*
X23130Y-13152D01*
X22997Y-13230D02*
X23102Y-13230D01*
X23121Y-13221D01*
X23130Y-13204D01*
X23130Y-13178D01*
X23121Y-13161D01*
X23111Y-13152D01*
X23026Y-13007D02*
X23026Y-13067D01*
X23130Y-13067D02*
X22930Y-13067D01*
X22930Y-12981D01*
%LPC*%
G54D23*
X16200Y-20650D03*
G54D24*
X15200Y-20650D03*
X16200Y-19650D03*
X15200Y-19650D03*
X16200Y-18650D03*
X15200Y-18650D03*
X16200Y-17650D03*
X15200Y-17650D03*
X16200Y-16650D03*
X15200Y-16650D03*
G54D25*
X25052Y-17848D03*
X30761Y-20348D03*
X25958Y-20348D03*
X25958Y-15309D03*
X30761Y-15309D03*
G54D26*
X24800Y-12100D03*
G54D27*
X26800Y-12100D03*
G54D25*
X23900Y-17350D03*
X23900Y-16350D03*
X23900Y-20350D03*
X23900Y-21350D03*
X23900Y-22350D03*
X20900Y-22350D03*
X20900Y-21350D03*
X20900Y-19350D03*
X20900Y-18350D03*
X20900Y-17350D03*
X20900Y-16350D03*
X25052Y-24148D03*
X30761Y-26648D03*
X25958Y-26648D03*
X25958Y-21609D03*
X30761Y-21609D03*
G54D23*
X21650Y-24250D03*
G54D24*
X22650Y-24250D03*
G54D28*
X20700Y-12000D03*
G54D29*
X21700Y-12000D03*
G54D28*
X22700Y-12000D03*
G54D30*
X16100Y-12200D03*
G54D31*
X18500Y-12200D03*
G54D30*
X17000Y-14200D03*
G54D26*
X31200Y-12100D03*
G54D27*
X29200Y-12100D03*
G54D25*
X17250Y-15650D03*
X17250Y-16650D03*
X17250Y-17650D03*
X17250Y-18650D03*
X17250Y-19650D03*
X17250Y-21650D03*
X17250Y-22650D03*
X19850Y-22650D03*
X19850Y-21650D03*
X19850Y-20650D03*
X19850Y-19650D03*
X19850Y-18650D03*
X19850Y-17650D03*
X19850Y-16650D03*
X19850Y-15650D03*
X17250Y-20650D03*
G54D32*
X25250Y-14200D03*
X23950Y-14200D03*
X29650Y-14200D03*
X28350Y-14200D03*
X21650Y-14200D03*
X22950Y-14200D03*
G54D33*
X27359Y-14200D03*
X26241Y-14200D03*
X31759Y-14200D03*
X30641Y-14200D03*
X19641Y-14200D03*
X20759Y-14200D03*
G54D34*
X23850Y-24850D03*
X23850Y-23550D03*
G54D35*
X20700Y-13200D03*
X21300Y-13200D03*
X22700Y-13200D03*
X22100Y-13200D03*
M02*
