G04 (created by PCBNEW (2013-may-18)-stable) date jeu 02 jun 2016 15:56:37 CEST*
%MOIN*%
G04 Gerber Fmt 3.4, Leading zero omitted, Abs format*
%FSLAX34Y34*%
G01*
G70*
G90*
G04 APERTURE LIST*
%ADD10C,0.00590551*%
%ADD11C,0.015*%
%ADD12C,0.012*%
%ADD13C,0.006*%
%ADD14C,0.01*%
%ADD15C,0.005*%
%ADD16C,0.0026*%
%ADD17C,0.004*%
%ADD18C,0.008*%
%ADD19C,0.0075*%
%ADD20C,0.0035*%
G04 APERTURE END LIST*
G54D10*
X32724Y-19555D02*
X31503Y-19555D01*
X31503Y-19555D02*
X31425Y-19830D01*
X31425Y-19830D02*
X32606Y-19830D01*
X31543Y-19909D02*
X31700Y-19909D01*
X31267Y-20263D02*
X31425Y-19909D01*
X31425Y-19909D02*
X31582Y-19909D01*
X32645Y-19830D02*
X32724Y-19555D01*
X32055Y-20263D02*
X32212Y-20263D01*
X32133Y-20263D02*
X31385Y-20263D01*
X31385Y-20263D02*
X31267Y-20263D01*
X32606Y-19909D02*
X31622Y-19909D01*
X32173Y-20263D02*
G75*
G03X32606Y-19909I39J393D01*
G74*
G01*
X26747Y-19712D02*
G75*
G03X26747Y-19712I-440J0D01*
G74*
G01*
X33000Y-20500D02*
X25480Y-20500D01*
X25480Y-20500D02*
X25480Y-14397D01*
X25480Y-14397D02*
X33000Y-14397D01*
X33000Y-14397D02*
X33000Y-20500D01*
X32724Y-26055D02*
X31503Y-26055D01*
X31503Y-26055D02*
X31425Y-26330D01*
X31425Y-26330D02*
X32606Y-26330D01*
X31543Y-26409D02*
X31700Y-26409D01*
X31267Y-26763D02*
X31425Y-26409D01*
X31425Y-26409D02*
X31582Y-26409D01*
X32645Y-26330D02*
X32724Y-26055D01*
X32055Y-26763D02*
X32212Y-26763D01*
X32133Y-26763D02*
X31385Y-26763D01*
X31385Y-26763D02*
X31267Y-26763D01*
X32606Y-26409D02*
X31622Y-26409D01*
X32173Y-26763D02*
G75*
G03X32606Y-26409I39J393D01*
G74*
G01*
X26747Y-26212D02*
G75*
G03X26747Y-26212I-440J0D01*
G74*
G01*
X33000Y-27000D02*
X25480Y-27000D01*
X25480Y-27000D02*
X25480Y-20897D01*
X25480Y-20897D02*
X33000Y-20897D01*
X33000Y-20897D02*
X33000Y-27000D01*
X20400Y-26100D02*
X20300Y-26000D01*
X20300Y-26000D02*
X19000Y-26000D01*
X19000Y-26000D02*
X18900Y-26100D01*
X18900Y-26100D02*
X19000Y-26200D01*
X19000Y-26200D02*
X20300Y-26200D01*
X20300Y-26200D02*
X20400Y-26100D01*
X18850Y-24150D02*
X18950Y-24250D01*
X18950Y-24250D02*
X18950Y-25900D01*
X18950Y-25900D02*
X18850Y-26000D01*
X18850Y-26000D02*
X18750Y-25900D01*
X18750Y-25900D02*
X18750Y-24250D01*
X18750Y-24250D02*
X18850Y-24150D01*
X20400Y-24100D02*
X20300Y-24200D01*
X20300Y-24200D02*
X19000Y-24200D01*
X19000Y-24200D02*
X18900Y-24100D01*
X18900Y-24100D02*
X19000Y-24000D01*
X19000Y-24000D02*
X20300Y-24000D01*
X20300Y-24000D02*
X20400Y-24100D01*
X20400Y-24100D02*
X20350Y-24100D01*
X20450Y-24150D02*
X20550Y-24250D01*
X20550Y-24250D02*
X20550Y-25900D01*
X20550Y-25900D02*
X20450Y-26000D01*
X20450Y-26000D02*
X20350Y-25900D01*
X20350Y-25900D02*
X20350Y-24250D01*
X20350Y-24250D02*
X20450Y-24150D01*
X21900Y-24100D02*
X21800Y-24200D01*
X21800Y-24200D02*
X20600Y-24200D01*
X20600Y-24200D02*
X20500Y-24100D01*
X20500Y-24100D02*
X20600Y-24000D01*
X20600Y-24000D02*
X21800Y-24000D01*
X21800Y-24000D02*
X21900Y-24100D01*
X21800Y-26000D02*
X20600Y-26000D01*
X20600Y-26000D02*
X20500Y-26100D01*
X20500Y-26100D02*
X20600Y-26200D01*
X20600Y-26200D02*
X21800Y-26200D01*
X21800Y-26200D02*
X21900Y-26100D01*
X21900Y-26100D02*
X21800Y-26000D01*
X22100Y-26000D02*
X22000Y-26100D01*
X22000Y-26100D02*
X21900Y-26000D01*
X21900Y-26000D02*
X21900Y-24250D01*
X21900Y-24250D02*
X22000Y-24150D01*
X22000Y-24150D02*
X22100Y-24250D01*
X22100Y-24250D02*
X22100Y-26000D01*
X22100Y-26000D02*
X22050Y-26000D01*
X24650Y-27100D02*
X24650Y-23100D01*
X24650Y-23100D02*
X17150Y-23100D01*
X17150Y-23100D02*
X17150Y-27100D01*
X24650Y-27100D02*
X17150Y-27100D01*
X23301Y-22895D02*
X23301Y-22816D01*
G54D11*
X29000Y-28000D02*
X30000Y-28000D01*
X29559Y-28000D02*
G75*
G03X29559Y-28000I-559J0D01*
G74*
G01*
G54D12*
X19000Y-17000D02*
X24000Y-17000D01*
X24000Y-17000D02*
X24000Y-19000D01*
X24000Y-19000D02*
X19000Y-19000D01*
X19000Y-19000D02*
X19000Y-17000D01*
G54D13*
X32500Y-27500D02*
X32500Y-28500D01*
X32500Y-28500D02*
X30500Y-28500D01*
X30500Y-28500D02*
X30500Y-27500D01*
X30500Y-27500D02*
X32500Y-27500D01*
G54D14*
X23750Y-12150D02*
X23750Y-11900D01*
X23750Y-11900D02*
X27250Y-11900D01*
X27250Y-11900D02*
X27250Y-12150D01*
X23750Y-13650D02*
X23750Y-12150D01*
X23750Y-12150D02*
X27250Y-12150D01*
X27250Y-12150D02*
X27250Y-13650D01*
X27250Y-13650D02*
X23750Y-13650D01*
G54D11*
X14300Y-10900D02*
X14000Y-10900D01*
X14000Y-10900D02*
X14000Y-14300D01*
X14000Y-14300D02*
X14300Y-14300D01*
X15500Y-10900D02*
X15500Y-14300D01*
X19300Y-10900D02*
X19300Y-14300D01*
X14300Y-14300D02*
X19300Y-14300D01*
X14300Y-10900D02*
X19300Y-10900D01*
G54D15*
X23301Y-12900D02*
G75*
G03X23301Y-12900I-1001J0D01*
G74*
G01*
X29601Y-12900D02*
G75*
G03X29601Y-12900I-1001J0D01*
G74*
G01*
G54D10*
X24875Y-22400D02*
X24875Y-19800D01*
X24875Y-19800D02*
X17125Y-19800D01*
X17125Y-19800D02*
X17125Y-22400D01*
X17125Y-22400D02*
X24850Y-22400D01*
G54D15*
X20750Y-16200D02*
X21650Y-16200D01*
X21650Y-16200D02*
X21650Y-15550D01*
X20750Y-14850D02*
X20750Y-14200D01*
X20750Y-14200D02*
X21650Y-14200D01*
X21650Y-14200D02*
X21650Y-14850D01*
X20750Y-15550D02*
X20750Y-16200D01*
X21950Y-16200D02*
X22850Y-16200D01*
X22850Y-16200D02*
X22850Y-15550D01*
X21950Y-14850D02*
X21950Y-14200D01*
X21950Y-14200D02*
X22850Y-14200D01*
X22850Y-14200D02*
X22850Y-14850D01*
X21950Y-15550D02*
X21950Y-16200D01*
X19550Y-16200D02*
X20450Y-16200D01*
X20450Y-16200D02*
X20450Y-15550D01*
X19550Y-14850D02*
X19550Y-14200D01*
X19550Y-14200D02*
X20450Y-14200D01*
X20450Y-14200D02*
X20450Y-14850D01*
X19550Y-15550D02*
X19550Y-16200D01*
G54D16*
X16761Y-17339D02*
X16839Y-17339D01*
X16839Y-17339D02*
X16839Y-17261D01*
X16761Y-17261D02*
X16839Y-17261D01*
X16761Y-17339D02*
X16761Y-17261D01*
X16977Y-17575D02*
X17114Y-17575D01*
X17114Y-17575D02*
X17114Y-17477D01*
X16977Y-17477D02*
X17114Y-17477D01*
X16977Y-17575D02*
X16977Y-17477D01*
X17114Y-17575D02*
X17154Y-17575D01*
X17154Y-17575D02*
X17154Y-17104D01*
X17114Y-17104D02*
X17154Y-17104D01*
X17114Y-17575D02*
X17114Y-17104D01*
X17114Y-17084D02*
X17154Y-17084D01*
X17154Y-17084D02*
X17154Y-17025D01*
X17114Y-17025D02*
X17154Y-17025D01*
X17114Y-17084D02*
X17114Y-17025D01*
X16446Y-17575D02*
X16486Y-17575D01*
X16486Y-17575D02*
X16486Y-17104D01*
X16446Y-17104D02*
X16486Y-17104D01*
X16446Y-17575D02*
X16446Y-17104D01*
X16446Y-17084D02*
X16486Y-17084D01*
X16486Y-17084D02*
X16486Y-17025D01*
X16446Y-17025D02*
X16486Y-17025D01*
X16446Y-17084D02*
X16446Y-17025D01*
X16977Y-17575D02*
X17036Y-17575D01*
X17036Y-17575D02*
X17036Y-17477D01*
X16977Y-17477D02*
X17036Y-17477D01*
X16977Y-17575D02*
X16977Y-17477D01*
G54D17*
X17410Y-17595D02*
X16190Y-17595D01*
X16190Y-17595D02*
X16190Y-17005D01*
X16190Y-17005D02*
X17410Y-17005D01*
X17410Y-17005D02*
X17410Y-17595D01*
X16584Y-17496D02*
G75*
G03X17016Y-17495I215J196D01*
G74*
G01*
X16584Y-17103D02*
G75*
G03X16583Y-17495I215J-196D01*
G74*
G01*
X17015Y-17103D02*
G75*
G03X16583Y-17104I-215J-196D01*
G74*
G01*
X17015Y-17496D02*
G75*
G03X17016Y-17104I-215J196D01*
G74*
G01*
G54D16*
X16761Y-18439D02*
X16839Y-18439D01*
X16839Y-18439D02*
X16839Y-18361D01*
X16761Y-18361D02*
X16839Y-18361D01*
X16761Y-18439D02*
X16761Y-18361D01*
X16977Y-18675D02*
X17114Y-18675D01*
X17114Y-18675D02*
X17114Y-18577D01*
X16977Y-18577D02*
X17114Y-18577D01*
X16977Y-18675D02*
X16977Y-18577D01*
X17114Y-18675D02*
X17154Y-18675D01*
X17154Y-18675D02*
X17154Y-18204D01*
X17114Y-18204D02*
X17154Y-18204D01*
X17114Y-18675D02*
X17114Y-18204D01*
X17114Y-18184D02*
X17154Y-18184D01*
X17154Y-18184D02*
X17154Y-18125D01*
X17114Y-18125D02*
X17154Y-18125D01*
X17114Y-18184D02*
X17114Y-18125D01*
X16446Y-18675D02*
X16486Y-18675D01*
X16486Y-18675D02*
X16486Y-18204D01*
X16446Y-18204D02*
X16486Y-18204D01*
X16446Y-18675D02*
X16446Y-18204D01*
X16446Y-18184D02*
X16486Y-18184D01*
X16486Y-18184D02*
X16486Y-18125D01*
X16446Y-18125D02*
X16486Y-18125D01*
X16446Y-18184D02*
X16446Y-18125D01*
X16977Y-18675D02*
X17036Y-18675D01*
X17036Y-18675D02*
X17036Y-18577D01*
X16977Y-18577D02*
X17036Y-18577D01*
X16977Y-18675D02*
X16977Y-18577D01*
G54D17*
X17410Y-18695D02*
X16190Y-18695D01*
X16190Y-18695D02*
X16190Y-18105D01*
X16190Y-18105D02*
X17410Y-18105D01*
X17410Y-18105D02*
X17410Y-18695D01*
X16584Y-18596D02*
G75*
G03X17016Y-18595I215J196D01*
G74*
G01*
X16584Y-18203D02*
G75*
G03X16583Y-18595I215J-196D01*
G74*
G01*
X17015Y-18203D02*
G75*
G03X16583Y-18204I-215J-196D01*
G74*
G01*
X17015Y-18596D02*
G75*
G03X17016Y-18204I-215J196D01*
G74*
G01*
G54D16*
X16761Y-16239D02*
X16839Y-16239D01*
X16839Y-16239D02*
X16839Y-16161D01*
X16761Y-16161D02*
X16839Y-16161D01*
X16761Y-16239D02*
X16761Y-16161D01*
X16977Y-16475D02*
X17114Y-16475D01*
X17114Y-16475D02*
X17114Y-16377D01*
X16977Y-16377D02*
X17114Y-16377D01*
X16977Y-16475D02*
X16977Y-16377D01*
X17114Y-16475D02*
X17154Y-16475D01*
X17154Y-16475D02*
X17154Y-16004D01*
X17114Y-16004D02*
X17154Y-16004D01*
X17114Y-16475D02*
X17114Y-16004D01*
X17114Y-15984D02*
X17154Y-15984D01*
X17154Y-15984D02*
X17154Y-15925D01*
X17114Y-15925D02*
X17154Y-15925D01*
X17114Y-15984D02*
X17114Y-15925D01*
X16446Y-16475D02*
X16486Y-16475D01*
X16486Y-16475D02*
X16486Y-16004D01*
X16446Y-16004D02*
X16486Y-16004D01*
X16446Y-16475D02*
X16446Y-16004D01*
X16446Y-15984D02*
X16486Y-15984D01*
X16486Y-15984D02*
X16486Y-15925D01*
X16446Y-15925D02*
X16486Y-15925D01*
X16446Y-15984D02*
X16446Y-15925D01*
X16977Y-16475D02*
X17036Y-16475D01*
X17036Y-16475D02*
X17036Y-16377D01*
X16977Y-16377D02*
X17036Y-16377D01*
X16977Y-16475D02*
X16977Y-16377D01*
G54D17*
X17410Y-16495D02*
X16190Y-16495D01*
X16190Y-16495D02*
X16190Y-15905D01*
X16190Y-15905D02*
X17410Y-15905D01*
X17410Y-15905D02*
X17410Y-16495D01*
X16584Y-16396D02*
G75*
G03X17016Y-16395I215J196D01*
G74*
G01*
X16584Y-16003D02*
G75*
G03X16583Y-16395I215J-196D01*
G74*
G01*
X17015Y-16003D02*
G75*
G03X16583Y-16004I-215J-196D01*
G74*
G01*
X17015Y-16396D02*
G75*
G03X17016Y-16004I-215J196D01*
G74*
G01*
G54D10*
X28796Y-16459D02*
X28665Y-16271D01*
X28571Y-16459D02*
X28571Y-16065D01*
X28721Y-16065D01*
X28759Y-16084D01*
X28778Y-16103D01*
X28796Y-16140D01*
X28796Y-16196D01*
X28778Y-16234D01*
X28759Y-16253D01*
X28721Y-16271D01*
X28571Y-16271D01*
X28965Y-16253D02*
X29096Y-16253D01*
X29153Y-16459D02*
X28965Y-16459D01*
X28965Y-16065D01*
X29153Y-16065D01*
X29509Y-16459D02*
X29321Y-16459D01*
X29321Y-16065D01*
X29846Y-16459D02*
X29621Y-16459D01*
X29734Y-16459D02*
X29734Y-16065D01*
X29696Y-16121D01*
X29659Y-16159D01*
X29621Y-16178D01*
X26881Y-17740D02*
X26937Y-17759D01*
X27031Y-17759D01*
X27069Y-17740D01*
X27087Y-17721D01*
X27106Y-17684D01*
X27106Y-17646D01*
X27087Y-17609D01*
X27069Y-17590D01*
X27031Y-17571D01*
X26956Y-17553D01*
X26919Y-17534D01*
X26900Y-17515D01*
X26881Y-17478D01*
X26881Y-17440D01*
X26900Y-17403D01*
X26919Y-17384D01*
X26956Y-17365D01*
X27050Y-17365D01*
X27106Y-17384D01*
X27500Y-17759D02*
X27369Y-17571D01*
X27275Y-17759D02*
X27275Y-17365D01*
X27425Y-17365D01*
X27462Y-17384D01*
X27481Y-17403D01*
X27500Y-17440D01*
X27500Y-17496D01*
X27481Y-17534D01*
X27462Y-17553D01*
X27425Y-17571D01*
X27275Y-17571D01*
X27668Y-17759D02*
X27668Y-17365D01*
X27762Y-17365D01*
X27818Y-17384D01*
X27856Y-17421D01*
X27875Y-17459D01*
X27893Y-17534D01*
X27893Y-17590D01*
X27875Y-17665D01*
X27856Y-17703D01*
X27818Y-17740D01*
X27762Y-17759D01*
X27668Y-17759D01*
X28062Y-17609D02*
X28362Y-17609D01*
X28625Y-17365D02*
X28662Y-17365D01*
X28700Y-17384D01*
X28718Y-17403D01*
X28737Y-17440D01*
X28756Y-17515D01*
X28756Y-17609D01*
X28737Y-17684D01*
X28718Y-17721D01*
X28700Y-17740D01*
X28662Y-17759D01*
X28625Y-17759D01*
X28587Y-17740D01*
X28568Y-17721D01*
X28550Y-17684D01*
X28531Y-17609D01*
X28531Y-17515D01*
X28550Y-17440D01*
X28568Y-17403D01*
X28587Y-17384D01*
X28625Y-17365D01*
X29112Y-17365D02*
X28925Y-17365D01*
X28906Y-17553D01*
X28925Y-17534D01*
X28962Y-17515D01*
X29056Y-17515D01*
X29093Y-17534D01*
X29112Y-17553D01*
X29131Y-17590D01*
X29131Y-17684D01*
X29112Y-17721D01*
X29093Y-17740D01*
X29056Y-17759D01*
X28962Y-17759D01*
X28925Y-17740D01*
X28906Y-17721D01*
X29243Y-17365D02*
X29375Y-17759D01*
X29506Y-17365D01*
X29637Y-17759D02*
X29637Y-17365D01*
X29731Y-17365D01*
X29787Y-17384D01*
X29824Y-17421D01*
X29843Y-17459D01*
X29862Y-17534D01*
X29862Y-17590D01*
X29843Y-17665D01*
X29824Y-17703D01*
X29787Y-17740D01*
X29731Y-17759D01*
X29637Y-17759D01*
X30256Y-17721D02*
X30237Y-17740D01*
X30181Y-17759D01*
X30143Y-17759D01*
X30087Y-17740D01*
X30049Y-17703D01*
X30031Y-17665D01*
X30012Y-17590D01*
X30012Y-17534D01*
X30031Y-17459D01*
X30049Y-17421D01*
X30087Y-17384D01*
X30143Y-17365D01*
X30181Y-17365D01*
X30237Y-17384D01*
X30256Y-17403D01*
X30424Y-17609D02*
X30724Y-17609D01*
X30893Y-17740D02*
X30949Y-17759D01*
X31043Y-17759D01*
X31081Y-17740D01*
X31099Y-17721D01*
X31118Y-17684D01*
X31118Y-17646D01*
X31099Y-17609D01*
X31081Y-17590D01*
X31043Y-17571D01*
X30968Y-17553D01*
X30931Y-17534D01*
X30912Y-17515D01*
X30893Y-17478D01*
X30893Y-17440D01*
X30912Y-17403D01*
X30931Y-17384D01*
X30968Y-17365D01*
X31062Y-17365D01*
X31118Y-17384D01*
X31474Y-17759D02*
X31287Y-17759D01*
X31287Y-17365D01*
X31605Y-17609D02*
X31905Y-17609D01*
X32318Y-17721D02*
X32299Y-17740D01*
X32243Y-17759D01*
X32205Y-17759D01*
X32149Y-17740D01*
X32112Y-17703D01*
X32093Y-17665D01*
X32074Y-17590D01*
X32074Y-17534D01*
X32093Y-17459D01*
X32112Y-17421D01*
X32149Y-17384D01*
X32205Y-17365D01*
X32243Y-17365D01*
X32299Y-17384D01*
X32318Y-17403D01*
X28581Y-22986D02*
X28449Y-22798D01*
X28356Y-22986D02*
X28356Y-22592D01*
X28506Y-22592D01*
X28543Y-22611D01*
X28562Y-22629D01*
X28581Y-22667D01*
X28581Y-22723D01*
X28562Y-22761D01*
X28543Y-22779D01*
X28506Y-22798D01*
X28356Y-22798D01*
X28749Y-22779D02*
X28881Y-22779D01*
X28937Y-22986D02*
X28749Y-22986D01*
X28749Y-22592D01*
X28937Y-22592D01*
X29293Y-22986D02*
X29106Y-22986D01*
X29106Y-22592D01*
X29406Y-22629D02*
X29424Y-22611D01*
X29462Y-22592D01*
X29556Y-22592D01*
X29593Y-22611D01*
X29612Y-22629D01*
X29631Y-22667D01*
X29631Y-22704D01*
X29612Y-22761D01*
X29387Y-22986D01*
X29631Y-22986D01*
X26781Y-24540D02*
X26837Y-24559D01*
X26931Y-24559D01*
X26969Y-24540D01*
X26987Y-24521D01*
X27006Y-24484D01*
X27006Y-24446D01*
X26987Y-24409D01*
X26969Y-24390D01*
X26931Y-24371D01*
X26856Y-24353D01*
X26819Y-24334D01*
X26800Y-24315D01*
X26781Y-24278D01*
X26781Y-24240D01*
X26800Y-24203D01*
X26819Y-24184D01*
X26856Y-24165D01*
X26950Y-24165D01*
X27006Y-24184D01*
X27400Y-24559D02*
X27269Y-24371D01*
X27175Y-24559D02*
X27175Y-24165D01*
X27325Y-24165D01*
X27362Y-24184D01*
X27381Y-24203D01*
X27400Y-24240D01*
X27400Y-24296D01*
X27381Y-24334D01*
X27362Y-24353D01*
X27325Y-24371D01*
X27175Y-24371D01*
X27568Y-24559D02*
X27568Y-24165D01*
X27662Y-24165D01*
X27718Y-24184D01*
X27756Y-24221D01*
X27775Y-24259D01*
X27793Y-24334D01*
X27793Y-24390D01*
X27775Y-24465D01*
X27756Y-24503D01*
X27718Y-24540D01*
X27662Y-24559D01*
X27568Y-24559D01*
X27962Y-24409D02*
X28262Y-24409D01*
X28525Y-24165D02*
X28562Y-24165D01*
X28600Y-24184D01*
X28618Y-24203D01*
X28637Y-24240D01*
X28656Y-24315D01*
X28656Y-24409D01*
X28637Y-24484D01*
X28618Y-24521D01*
X28600Y-24540D01*
X28562Y-24559D01*
X28525Y-24559D01*
X28487Y-24540D01*
X28468Y-24521D01*
X28450Y-24484D01*
X28431Y-24409D01*
X28431Y-24315D01*
X28450Y-24240D01*
X28468Y-24203D01*
X28487Y-24184D01*
X28525Y-24165D01*
X29012Y-24165D02*
X28825Y-24165D01*
X28806Y-24353D01*
X28825Y-24334D01*
X28862Y-24315D01*
X28956Y-24315D01*
X28993Y-24334D01*
X29012Y-24353D01*
X29031Y-24390D01*
X29031Y-24484D01*
X29012Y-24521D01*
X28993Y-24540D01*
X28956Y-24559D01*
X28862Y-24559D01*
X28825Y-24540D01*
X28806Y-24521D01*
X29143Y-24165D02*
X29275Y-24559D01*
X29406Y-24165D01*
X29537Y-24559D02*
X29537Y-24165D01*
X29631Y-24165D01*
X29687Y-24184D01*
X29724Y-24221D01*
X29743Y-24259D01*
X29762Y-24334D01*
X29762Y-24390D01*
X29743Y-24465D01*
X29724Y-24503D01*
X29687Y-24540D01*
X29631Y-24559D01*
X29537Y-24559D01*
X30156Y-24521D02*
X30137Y-24540D01*
X30081Y-24559D01*
X30043Y-24559D01*
X29987Y-24540D01*
X29949Y-24503D01*
X29931Y-24465D01*
X29912Y-24390D01*
X29912Y-24334D01*
X29931Y-24259D01*
X29949Y-24221D01*
X29987Y-24184D01*
X30043Y-24165D01*
X30081Y-24165D01*
X30137Y-24184D01*
X30156Y-24203D01*
X30324Y-24409D02*
X30624Y-24409D01*
X30793Y-24540D02*
X30849Y-24559D01*
X30943Y-24559D01*
X30981Y-24540D01*
X30999Y-24521D01*
X31018Y-24484D01*
X31018Y-24446D01*
X30999Y-24409D01*
X30981Y-24390D01*
X30943Y-24371D01*
X30868Y-24353D01*
X30831Y-24334D01*
X30812Y-24315D01*
X30793Y-24278D01*
X30793Y-24240D01*
X30812Y-24203D01*
X30831Y-24184D01*
X30868Y-24165D01*
X30962Y-24165D01*
X31018Y-24184D01*
X31374Y-24559D02*
X31187Y-24559D01*
X31187Y-24165D01*
X31505Y-24409D02*
X31805Y-24409D01*
X32218Y-24521D02*
X32199Y-24540D01*
X32143Y-24559D01*
X32105Y-24559D01*
X32049Y-24540D01*
X32012Y-24503D01*
X31993Y-24465D01*
X31974Y-24390D01*
X31974Y-24334D01*
X31993Y-24259D01*
X32012Y-24221D01*
X32049Y-24184D01*
X32105Y-24165D01*
X32143Y-24165D01*
X32199Y-24184D01*
X32218Y-24203D01*
X25209Y-22328D02*
X24815Y-22328D01*
X24815Y-22234D01*
X24834Y-22178D01*
X24871Y-22140D01*
X24909Y-22121D01*
X24984Y-22103D01*
X25040Y-22103D01*
X25115Y-22121D01*
X25153Y-22140D01*
X25190Y-22178D01*
X25209Y-22234D01*
X25209Y-22328D01*
X25190Y-21953D02*
X25209Y-21896D01*
X25209Y-21803D01*
X25190Y-21765D01*
X25171Y-21746D01*
X25134Y-21728D01*
X25096Y-21728D01*
X25059Y-21746D01*
X25040Y-21765D01*
X25021Y-21803D01*
X25003Y-21878D01*
X24984Y-21915D01*
X24965Y-21934D01*
X24928Y-21953D01*
X24890Y-21953D01*
X24853Y-21934D01*
X24834Y-21915D01*
X24815Y-21878D01*
X24815Y-21784D01*
X24834Y-21728D01*
X25209Y-21353D02*
X25209Y-21578D01*
X25209Y-21465D02*
X24815Y-21465D01*
X24871Y-21503D01*
X24909Y-21540D01*
X24928Y-21578D01*
X25140Y-26424D02*
X25159Y-26368D01*
X25159Y-26274D01*
X25140Y-26237D01*
X25121Y-26218D01*
X25084Y-26199D01*
X25046Y-26199D01*
X25009Y-26218D01*
X24990Y-26237D01*
X24971Y-26274D01*
X24953Y-26349D01*
X24934Y-26387D01*
X24915Y-26406D01*
X24878Y-26424D01*
X24840Y-26424D01*
X24803Y-26406D01*
X24784Y-26387D01*
X24765Y-26349D01*
X24765Y-26256D01*
X24784Y-26199D01*
X25046Y-26049D02*
X25046Y-25862D01*
X25159Y-26087D02*
X24765Y-25956D01*
X25159Y-25824D01*
X24765Y-25618D02*
X24765Y-25581D01*
X24784Y-25543D01*
X24803Y-25524D01*
X24840Y-25506D01*
X24915Y-25487D01*
X25009Y-25487D01*
X25084Y-25506D01*
X25121Y-25524D01*
X25140Y-25543D01*
X25159Y-25581D01*
X25159Y-25618D01*
X25140Y-25656D01*
X25121Y-25674D01*
X25084Y-25693D01*
X25009Y-25712D01*
X24915Y-25712D01*
X24840Y-25693D01*
X24803Y-25674D01*
X24784Y-25656D01*
X24765Y-25618D01*
X24896Y-25149D02*
X25159Y-25149D01*
X24746Y-25243D02*
X25028Y-25337D01*
X25028Y-25093D01*
X25009Y-24943D02*
X25009Y-24643D01*
X25159Y-24250D02*
X25159Y-24475D01*
X25159Y-24362D02*
X24765Y-24362D01*
X24821Y-24400D01*
X24859Y-24437D01*
X24878Y-24475D01*
X25159Y-23875D02*
X25159Y-24100D01*
X25159Y-23987D02*
X24765Y-23987D01*
X24821Y-24025D01*
X24859Y-24062D01*
X24878Y-24100D01*
X17665Y-25168D02*
X18059Y-25037D01*
X17665Y-24906D01*
X18040Y-24606D02*
X18059Y-24643D01*
X18059Y-24718D01*
X18040Y-24756D01*
X18021Y-24774D01*
X17984Y-24793D01*
X17871Y-24793D01*
X17834Y-24774D01*
X17815Y-24756D01*
X17796Y-24718D01*
X17796Y-24643D01*
X17815Y-24606D01*
X18040Y-24268D02*
X18059Y-24306D01*
X18059Y-24381D01*
X18040Y-24418D01*
X18021Y-24437D01*
X17984Y-24456D01*
X17871Y-24456D01*
X17834Y-24437D01*
X17815Y-24418D01*
X17796Y-24381D01*
X17796Y-24306D01*
X17815Y-24268D01*
X18853Y-24271D02*
X18871Y-24215D01*
X18890Y-24196D01*
X18928Y-24178D01*
X18984Y-24178D01*
X19021Y-24196D01*
X19040Y-24215D01*
X19059Y-24253D01*
X19059Y-24403D01*
X18665Y-24403D01*
X18665Y-24271D01*
X18684Y-24234D01*
X18703Y-24215D01*
X18740Y-24196D01*
X18778Y-24196D01*
X18815Y-24215D01*
X18834Y-24234D01*
X18853Y-24271D01*
X18853Y-24403D01*
X20684Y-24546D02*
X20665Y-24584D01*
X20665Y-24640D01*
X20684Y-24696D01*
X20721Y-24734D01*
X20759Y-24753D01*
X20834Y-24771D01*
X20890Y-24771D01*
X20965Y-24753D01*
X21003Y-24734D01*
X21040Y-24696D01*
X21059Y-24640D01*
X21059Y-24603D01*
X21040Y-24546D01*
X21021Y-24528D01*
X20890Y-24528D01*
X20890Y-24603D01*
X22121Y-24528D02*
X22140Y-24546D01*
X22159Y-24603D01*
X22159Y-24640D01*
X22140Y-24696D01*
X22103Y-24734D01*
X22065Y-24753D01*
X21990Y-24771D01*
X21934Y-24771D01*
X21859Y-24753D01*
X21821Y-24734D01*
X21784Y-24696D01*
X21765Y-24640D01*
X21765Y-24603D01*
X21784Y-24546D01*
X21803Y-24528D01*
X23009Y-24899D02*
X22615Y-24899D01*
X22615Y-24806D01*
X22634Y-24749D01*
X22671Y-24712D01*
X22709Y-24693D01*
X22784Y-24674D01*
X22840Y-24674D01*
X22915Y-24693D01*
X22953Y-24712D01*
X22990Y-24749D01*
X23009Y-24806D01*
X23009Y-24899D01*
X23009Y-24506D02*
X22615Y-24506D01*
X22615Y-24356D01*
X22634Y-24318D01*
X22653Y-24300D01*
X22690Y-24281D01*
X22746Y-24281D01*
X22784Y-24300D01*
X22803Y-24318D01*
X22821Y-24356D01*
X22821Y-24506D01*
X24109Y-24653D02*
X23715Y-24653D01*
X23715Y-24559D01*
X23734Y-24503D01*
X23771Y-24465D01*
X23809Y-24446D01*
X23884Y-24428D01*
X23940Y-24428D01*
X24015Y-24446D01*
X24053Y-24465D01*
X24090Y-24503D01*
X24109Y-24559D01*
X24109Y-24653D01*
X23853Y-26084D02*
X23853Y-25953D01*
X24059Y-25896D02*
X24059Y-26084D01*
X23665Y-26084D01*
X23665Y-25896D01*
X23059Y-26159D02*
X22665Y-26159D01*
X23059Y-25934D01*
X22665Y-25934D01*
X23021Y-25521D02*
X23040Y-25540D01*
X23059Y-25596D01*
X23059Y-25634D01*
X23040Y-25690D01*
X23003Y-25728D01*
X22965Y-25746D01*
X22890Y-25765D01*
X22834Y-25765D01*
X22759Y-25746D01*
X22721Y-25728D01*
X22684Y-25690D01*
X22665Y-25634D01*
X22665Y-25596D01*
X22684Y-25540D01*
X22703Y-25521D01*
X20796Y-26565D02*
X20796Y-26415D01*
X20665Y-26509D02*
X21003Y-26509D01*
X21040Y-26490D01*
X21059Y-26453D01*
X21059Y-26415D01*
X21040Y-26134D02*
X21059Y-26171D01*
X21059Y-26246D01*
X21040Y-26284D01*
X21003Y-26303D01*
X20853Y-26303D01*
X20815Y-26284D01*
X20796Y-26246D01*
X20796Y-26171D01*
X20815Y-26134D01*
X20853Y-26115D01*
X20890Y-26115D01*
X20928Y-26303D01*
X21059Y-25984D02*
X20796Y-25778D01*
X20796Y-25984D02*
X21059Y-25778D01*
X20796Y-25684D02*
X20796Y-25534D01*
X20665Y-25628D02*
X21003Y-25628D01*
X21040Y-25609D01*
X21059Y-25571D01*
X21059Y-25534D01*
X19665Y-26168D02*
X20059Y-26037D01*
X19665Y-25906D01*
X20040Y-25606D02*
X20059Y-25643D01*
X20059Y-25718D01*
X20040Y-25756D01*
X20021Y-25774D01*
X19984Y-25793D01*
X19871Y-25793D01*
X19834Y-25774D01*
X19815Y-25756D01*
X19796Y-25718D01*
X19796Y-25643D01*
X19815Y-25606D01*
X20040Y-25268D02*
X20059Y-25306D01*
X20059Y-25381D01*
X20040Y-25418D01*
X20021Y-25437D01*
X19984Y-25456D01*
X19871Y-25456D01*
X19834Y-25437D01*
X19815Y-25418D01*
X19796Y-25381D01*
X19796Y-25306D01*
X19815Y-25268D01*
X18853Y-25993D02*
X18853Y-26124D01*
X19059Y-26124D02*
X18665Y-26124D01*
X18665Y-25937D01*
X17946Y-26143D02*
X17946Y-25956D01*
X18059Y-26181D02*
X17665Y-26050D01*
X18059Y-25918D01*
G54D18*
X29016Y-29222D02*
X28850Y-28960D01*
X28730Y-29222D02*
X28730Y-28672D01*
X28921Y-28672D01*
X28969Y-28698D01*
X28992Y-28725D01*
X29016Y-28777D01*
X29016Y-28855D01*
X28992Y-28908D01*
X28969Y-28934D01*
X28921Y-28960D01*
X28730Y-28960D01*
X29492Y-29222D02*
X29207Y-29222D01*
X29350Y-29222D02*
X29350Y-28672D01*
X29302Y-28751D01*
X29254Y-28803D01*
X29207Y-28829D01*
X21454Y-16661D02*
X21454Y-16261D01*
X21607Y-16261D01*
X21645Y-16280D01*
X21664Y-16300D01*
X21683Y-16338D01*
X21683Y-16395D01*
X21664Y-16433D01*
X21645Y-16452D01*
X21607Y-16471D01*
X21454Y-16471D01*
X22064Y-16661D02*
X21835Y-16661D01*
X21950Y-16661D02*
X21950Y-16261D01*
X21911Y-16319D01*
X21873Y-16357D01*
X21835Y-16376D01*
G54D13*
X31278Y-28871D02*
X31278Y-28571D01*
X31392Y-28571D01*
X31421Y-28585D01*
X31435Y-28600D01*
X31450Y-28628D01*
X31450Y-28671D01*
X31435Y-28700D01*
X31421Y-28714D01*
X31392Y-28728D01*
X31278Y-28728D01*
X31564Y-28600D02*
X31578Y-28585D01*
X31607Y-28571D01*
X31678Y-28571D01*
X31707Y-28585D01*
X31721Y-28600D01*
X31735Y-28628D01*
X31735Y-28657D01*
X31721Y-28700D01*
X31550Y-28871D01*
X31735Y-28871D01*
G54D18*
X25195Y-11042D02*
X25195Y-11528D01*
X25214Y-11585D01*
X25233Y-11614D01*
X25271Y-11642D01*
X25347Y-11642D01*
X25385Y-11614D01*
X25404Y-11585D01*
X25423Y-11528D01*
X25423Y-11042D01*
X25823Y-11642D02*
X25595Y-11642D01*
X25709Y-11642D02*
X25709Y-11042D01*
X25671Y-11128D01*
X25633Y-11185D01*
X25595Y-11214D01*
X24545Y-13792D02*
X24811Y-13792D01*
X24640Y-14392D01*
X25021Y-14050D02*
X24983Y-14021D01*
X24964Y-13992D01*
X24945Y-13935D01*
X24945Y-13907D01*
X24964Y-13850D01*
X24983Y-13821D01*
X25021Y-13792D01*
X25097Y-13792D01*
X25135Y-13821D01*
X25154Y-13850D01*
X25173Y-13907D01*
X25173Y-13935D01*
X25154Y-13992D01*
X25135Y-14021D01*
X25097Y-14050D01*
X25021Y-14050D01*
X24983Y-14078D01*
X24964Y-14107D01*
X24945Y-14164D01*
X24945Y-14278D01*
X24964Y-14335D01*
X24983Y-14364D01*
X25021Y-14392D01*
X25097Y-14392D01*
X25135Y-14364D01*
X25154Y-14335D01*
X25173Y-14278D01*
X25173Y-14164D01*
X25154Y-14107D01*
X25135Y-14078D01*
X25097Y-14050D01*
X25421Y-13792D02*
X25459Y-13792D01*
X25497Y-13821D01*
X25516Y-13850D01*
X25535Y-13907D01*
X25554Y-14021D01*
X25554Y-14164D01*
X25535Y-14278D01*
X25516Y-14335D01*
X25497Y-14364D01*
X25459Y-14392D01*
X25421Y-14392D01*
X25383Y-14364D01*
X25364Y-14335D01*
X25345Y-14278D01*
X25326Y-14164D01*
X25326Y-14021D01*
X25345Y-13907D01*
X25364Y-13850D01*
X25383Y-13821D01*
X25421Y-13792D01*
X25916Y-13792D02*
X25726Y-13792D01*
X25707Y-14078D01*
X25726Y-14050D01*
X25764Y-14021D01*
X25859Y-14021D01*
X25897Y-14050D01*
X25916Y-14078D01*
X25935Y-14135D01*
X25935Y-14278D01*
X25916Y-14335D01*
X25897Y-14364D01*
X25859Y-14392D01*
X25764Y-14392D01*
X25726Y-14364D01*
X25707Y-14335D01*
G54D14*
X16714Y-10523D02*
X16695Y-10542D01*
X16638Y-10561D01*
X16600Y-10561D01*
X16542Y-10542D01*
X16504Y-10504D01*
X16485Y-10466D01*
X16466Y-10390D01*
X16466Y-10333D01*
X16485Y-10257D01*
X16504Y-10219D01*
X16542Y-10180D01*
X16600Y-10161D01*
X16638Y-10161D01*
X16695Y-10180D01*
X16714Y-10200D01*
X16961Y-10161D02*
X17038Y-10161D01*
X17076Y-10180D01*
X17114Y-10219D01*
X17133Y-10295D01*
X17133Y-10428D01*
X17114Y-10504D01*
X17076Y-10542D01*
X17038Y-10561D01*
X16961Y-10561D01*
X16923Y-10542D01*
X16885Y-10504D01*
X16866Y-10428D01*
X16866Y-10295D01*
X16885Y-10219D01*
X16923Y-10180D01*
X16961Y-10161D01*
X17304Y-10561D02*
X17304Y-10161D01*
X17533Y-10561D01*
X17533Y-10161D01*
X17933Y-10561D02*
X17704Y-10561D01*
X17819Y-10561D02*
X17819Y-10161D01*
X17780Y-10219D01*
X17742Y-10257D01*
X17704Y-10276D01*
X13338Y-14752D02*
X13395Y-14771D01*
X13414Y-14790D01*
X13433Y-14828D01*
X13433Y-14885D01*
X13414Y-14923D01*
X13395Y-14942D01*
X13357Y-14961D01*
X13204Y-14961D01*
X13204Y-14561D01*
X13338Y-14561D01*
X13376Y-14580D01*
X13395Y-14600D01*
X13414Y-14638D01*
X13414Y-14676D01*
X13395Y-14714D01*
X13376Y-14733D01*
X13338Y-14752D01*
X13204Y-14752D01*
X13585Y-14847D02*
X13776Y-14847D01*
X13547Y-14961D02*
X13680Y-14561D01*
X13814Y-14961D01*
X14176Y-14961D02*
X14042Y-14771D01*
X13947Y-14961D02*
X13947Y-14561D01*
X14100Y-14561D01*
X14138Y-14580D01*
X14157Y-14600D01*
X14176Y-14638D01*
X14176Y-14695D01*
X14157Y-14733D01*
X14138Y-14752D01*
X14100Y-14771D01*
X13947Y-14771D01*
X14576Y-14961D02*
X14442Y-14771D01*
X14347Y-14961D02*
X14347Y-14561D01*
X14500Y-14561D01*
X14538Y-14580D01*
X14557Y-14600D01*
X14576Y-14638D01*
X14576Y-14695D01*
X14557Y-14733D01*
X14538Y-14752D01*
X14500Y-14771D01*
X14347Y-14771D01*
X14747Y-14752D02*
X14880Y-14752D01*
X14938Y-14961D02*
X14747Y-14961D01*
X14747Y-14561D01*
X14938Y-14561D01*
X15300Y-14961D02*
X15109Y-14961D01*
X15109Y-14561D01*
X15338Y-15000D02*
X15642Y-15000D01*
X15852Y-14561D02*
X15852Y-14847D01*
X15833Y-14904D01*
X15795Y-14942D01*
X15738Y-14961D01*
X15700Y-14961D01*
X16023Y-14847D02*
X16214Y-14847D01*
X15985Y-14961D02*
X16119Y-14561D01*
X16252Y-14961D01*
X16614Y-14923D02*
X16595Y-14942D01*
X16538Y-14961D01*
X16499Y-14961D01*
X16442Y-14942D01*
X16404Y-14904D01*
X16385Y-14866D01*
X16366Y-14790D01*
X16366Y-14733D01*
X16385Y-14657D01*
X16404Y-14619D01*
X16442Y-14580D01*
X16499Y-14561D01*
X16538Y-14561D01*
X16595Y-14580D01*
X16614Y-14600D01*
X16785Y-14961D02*
X16785Y-14561D01*
X17014Y-14961D02*
X16842Y-14733D01*
X17014Y-14561D02*
X16785Y-14790D01*
G54D15*
X22992Y-12950D02*
X23007Y-12964D01*
X23021Y-13007D01*
X23021Y-13035D01*
X23007Y-13078D01*
X22978Y-13107D01*
X22950Y-13121D01*
X22892Y-13135D01*
X22850Y-13135D01*
X22792Y-13121D01*
X22764Y-13107D01*
X22735Y-13078D01*
X22721Y-13035D01*
X22721Y-13007D01*
X22735Y-12964D01*
X22750Y-12950D01*
X23021Y-12664D02*
X23021Y-12835D01*
X23021Y-12750D02*
X22721Y-12750D01*
X22764Y-12778D01*
X22792Y-12807D01*
X22807Y-12835D01*
X21621Y-13310D02*
X21621Y-13286D01*
X21635Y-13263D01*
X21650Y-13251D01*
X21678Y-13239D01*
X21735Y-13227D01*
X21807Y-13227D01*
X21864Y-13239D01*
X21892Y-13251D01*
X21907Y-13263D01*
X21921Y-13286D01*
X21921Y-13310D01*
X21907Y-13334D01*
X21892Y-13346D01*
X21864Y-13358D01*
X21807Y-13370D01*
X21735Y-13370D01*
X21678Y-13358D01*
X21650Y-13346D01*
X21635Y-13334D01*
X21621Y-13310D01*
X21892Y-13120D02*
X21907Y-13108D01*
X21921Y-13120D01*
X21907Y-13132D01*
X21892Y-13120D01*
X21921Y-13120D01*
X21921Y-12870D02*
X21921Y-13013D01*
X21921Y-12941D02*
X21621Y-12941D01*
X21664Y-12965D01*
X21692Y-12989D01*
X21707Y-13013D01*
X21721Y-12655D02*
X21921Y-12655D01*
X21721Y-12763D02*
X21878Y-12763D01*
X21907Y-12751D01*
X21921Y-12727D01*
X21921Y-12691D01*
X21907Y-12667D01*
X21892Y-12655D01*
X21764Y-12453D02*
X21764Y-12536D01*
X21921Y-12536D02*
X21621Y-12536D01*
X21621Y-12417D01*
G54D19*
X22307Y-12114D02*
X22307Y-11885D01*
X22421Y-12000D02*
X22192Y-12000D01*
G54D18*
G54D15*
X28550Y-12392D02*
X28535Y-12407D01*
X28492Y-12421D01*
X28464Y-12421D01*
X28421Y-12407D01*
X28392Y-12378D01*
X28378Y-12350D01*
X28364Y-12292D01*
X28364Y-12250D01*
X28378Y-12192D01*
X28392Y-12164D01*
X28421Y-12135D01*
X28464Y-12121D01*
X28492Y-12121D01*
X28535Y-12135D01*
X28550Y-12150D01*
X28664Y-12150D02*
X28678Y-12135D01*
X28707Y-12121D01*
X28778Y-12121D01*
X28807Y-12135D01*
X28821Y-12150D01*
X28835Y-12178D01*
X28835Y-12207D01*
X28821Y-12250D01*
X28650Y-12421D01*
X28835Y-12421D01*
X28451Y-13521D02*
X28308Y-13521D01*
X28379Y-13521D02*
X28379Y-13221D01*
X28355Y-13264D01*
X28332Y-13292D01*
X28308Y-13307D01*
X28665Y-13321D02*
X28665Y-13521D01*
X28558Y-13321D02*
X28558Y-13478D01*
X28570Y-13507D01*
X28594Y-13521D01*
X28629Y-13521D01*
X28653Y-13507D01*
X28665Y-13492D01*
X28867Y-13364D02*
X28784Y-13364D01*
X28784Y-13521D02*
X28784Y-13221D01*
X28903Y-13221D01*
G54D19*
X27585Y-12907D02*
X27814Y-12907D01*
X27700Y-13021D02*
X27700Y-12792D01*
G54D18*
G54D10*
X20446Y-21553D02*
X20503Y-21571D01*
X20521Y-21590D01*
X20540Y-21628D01*
X20540Y-21684D01*
X20521Y-21721D01*
X20503Y-21740D01*
X20465Y-21759D01*
X20315Y-21759D01*
X20315Y-21365D01*
X20446Y-21365D01*
X20484Y-21384D01*
X20503Y-21403D01*
X20521Y-21440D01*
X20521Y-21478D01*
X20503Y-21515D01*
X20484Y-21534D01*
X20446Y-21553D01*
X20315Y-21553D01*
X20934Y-21721D02*
X20915Y-21740D01*
X20859Y-21759D01*
X20821Y-21759D01*
X20765Y-21740D01*
X20728Y-21703D01*
X20709Y-21665D01*
X20690Y-21590D01*
X20690Y-21534D01*
X20709Y-21459D01*
X20728Y-21421D01*
X20765Y-21384D01*
X20821Y-21365D01*
X20859Y-21365D01*
X20915Y-21384D01*
X20934Y-21403D01*
X21103Y-21759D02*
X21103Y-21365D01*
X21196Y-21365D01*
X21253Y-21384D01*
X21290Y-21421D01*
X21309Y-21459D01*
X21328Y-21534D01*
X21328Y-21590D01*
X21309Y-21665D01*
X21290Y-21703D01*
X21253Y-21740D01*
X21196Y-21759D01*
X21103Y-21759D01*
X21703Y-21759D02*
X21478Y-21759D01*
X21590Y-21759D02*
X21590Y-21365D01*
X21553Y-21421D01*
X21515Y-21459D01*
X21478Y-21478D01*
X19800Y-21121D02*
X19781Y-21140D01*
X19725Y-21159D01*
X19687Y-21159D01*
X19631Y-21140D01*
X19593Y-21103D01*
X19575Y-21065D01*
X19556Y-20990D01*
X19556Y-20934D01*
X19575Y-20859D01*
X19593Y-20821D01*
X19631Y-20784D01*
X19687Y-20765D01*
X19725Y-20765D01*
X19781Y-20784D01*
X19800Y-20803D01*
X19968Y-21159D02*
X19968Y-20765D01*
X20062Y-20765D01*
X20118Y-20784D01*
X20156Y-20821D01*
X20175Y-20859D01*
X20193Y-20934D01*
X20193Y-20990D01*
X20175Y-21065D01*
X20156Y-21103D01*
X20118Y-21140D01*
X20062Y-21159D01*
X19968Y-21159D01*
X20531Y-20896D02*
X20531Y-21159D01*
X20437Y-20746D02*
X20343Y-21028D01*
X20587Y-21028D01*
X20925Y-20765D02*
X20737Y-20765D01*
X20718Y-20953D01*
X20737Y-20934D01*
X20775Y-20915D01*
X20868Y-20915D01*
X20906Y-20934D01*
X20925Y-20953D01*
X20943Y-20990D01*
X20943Y-21084D01*
X20925Y-21121D01*
X20906Y-21140D01*
X20868Y-21159D01*
X20775Y-21159D01*
X20737Y-21140D01*
X20718Y-21121D01*
X21281Y-20896D02*
X21281Y-21159D01*
X21187Y-20746D02*
X21093Y-21028D01*
X21337Y-21028D01*
X21449Y-20765D02*
X21693Y-20765D01*
X21562Y-20915D01*
X21618Y-20915D01*
X21656Y-20934D01*
X21674Y-20953D01*
X21693Y-20990D01*
X21693Y-21084D01*
X21674Y-21121D01*
X21656Y-21140D01*
X21618Y-21159D01*
X21506Y-21159D01*
X21468Y-21140D01*
X21449Y-21121D01*
X21993Y-20953D02*
X22049Y-20971D01*
X22068Y-20990D01*
X22087Y-21028D01*
X22087Y-21084D01*
X22068Y-21121D01*
X22049Y-21140D01*
X22012Y-21159D01*
X21862Y-21159D01*
X21862Y-20765D01*
X21993Y-20765D01*
X22031Y-20784D01*
X22049Y-20803D01*
X22068Y-20840D01*
X22068Y-20878D01*
X22049Y-20915D01*
X22031Y-20934D01*
X21993Y-20953D01*
X21862Y-20953D01*
X22256Y-20953D02*
X22387Y-20953D01*
X22443Y-21159D02*
X22256Y-21159D01*
X22256Y-20765D01*
X22443Y-20765D01*
G54D15*
X21321Y-15250D02*
X21178Y-15350D01*
X21321Y-15421D02*
X21021Y-15421D01*
X21021Y-15307D01*
X21035Y-15278D01*
X21050Y-15264D01*
X21078Y-15250D01*
X21121Y-15250D01*
X21150Y-15264D01*
X21164Y-15278D01*
X21178Y-15307D01*
X21178Y-15421D01*
X21050Y-15135D02*
X21035Y-15121D01*
X21021Y-15092D01*
X21021Y-15021D01*
X21035Y-14992D01*
X21050Y-14978D01*
X21078Y-14964D01*
X21107Y-14964D01*
X21150Y-14978D01*
X21321Y-15150D01*
X21321Y-14964D01*
X22721Y-15250D02*
X22578Y-15350D01*
X22721Y-15421D02*
X22421Y-15421D01*
X22421Y-15307D01*
X22435Y-15278D01*
X22450Y-15264D01*
X22478Y-15250D01*
X22521Y-15250D01*
X22550Y-15264D01*
X22564Y-15278D01*
X22578Y-15307D01*
X22578Y-15421D01*
X22421Y-15150D02*
X22421Y-14964D01*
X22535Y-15064D01*
X22535Y-15021D01*
X22550Y-14992D01*
X22564Y-14978D01*
X22592Y-14964D01*
X22664Y-14964D01*
X22692Y-14978D01*
X22707Y-14992D01*
X22721Y-15021D01*
X22721Y-15107D01*
X22707Y-15135D01*
X22692Y-15150D01*
X20121Y-15250D02*
X19978Y-15350D01*
X20121Y-15421D02*
X19821Y-15421D01*
X19821Y-15307D01*
X19835Y-15278D01*
X19850Y-15264D01*
X19878Y-15250D01*
X19921Y-15250D01*
X19950Y-15264D01*
X19964Y-15278D01*
X19978Y-15307D01*
X19978Y-15421D01*
X19921Y-14992D02*
X20121Y-14992D01*
X19807Y-15064D02*
X20021Y-15135D01*
X20021Y-14950D01*
G54D20*
X16678Y-16821D02*
X16678Y-16521D01*
X16750Y-16521D01*
X16792Y-16535D01*
X16821Y-16564D01*
X16835Y-16592D01*
X16850Y-16650D01*
X16850Y-16692D01*
X16835Y-16750D01*
X16821Y-16778D01*
X16792Y-16807D01*
X16750Y-16821D01*
X16678Y-16821D01*
X17135Y-16821D02*
X16964Y-16821D01*
X17050Y-16821D02*
X17050Y-16521D01*
X17021Y-16564D01*
X16992Y-16592D01*
X16964Y-16607D01*
X16607Y-18021D02*
X16464Y-18021D01*
X16464Y-17721D01*
X16707Y-17864D02*
X16807Y-17864D01*
X16850Y-18021D02*
X16707Y-18021D01*
X16707Y-17721D01*
X16850Y-17721D01*
X16978Y-18021D02*
X16978Y-17721D01*
X17050Y-17721D01*
X17092Y-17735D01*
X17121Y-17764D01*
X17135Y-17792D01*
X17150Y-17850D01*
X17150Y-17892D01*
X17135Y-17950D01*
X17121Y-17978D01*
X17092Y-18007D01*
X17050Y-18021D01*
X16978Y-18021D01*
X16678Y-17921D02*
X16678Y-17621D01*
X16750Y-17621D01*
X16792Y-17635D01*
X16821Y-17664D01*
X16835Y-17692D01*
X16850Y-17750D01*
X16850Y-17792D01*
X16835Y-17850D01*
X16821Y-17878D01*
X16792Y-17907D01*
X16750Y-17921D01*
X16678Y-17921D01*
X16964Y-17650D02*
X16978Y-17635D01*
X17007Y-17621D01*
X17078Y-17621D01*
X17107Y-17635D01*
X17121Y-17650D01*
X17135Y-17678D01*
X17135Y-17707D01*
X17121Y-17750D01*
X16950Y-17921D01*
X17135Y-17921D01*
X16607Y-19121D02*
X16464Y-19121D01*
X16464Y-18821D01*
X16707Y-18964D02*
X16807Y-18964D01*
X16850Y-19121D02*
X16707Y-19121D01*
X16707Y-18821D01*
X16850Y-18821D01*
X16978Y-19121D02*
X16978Y-18821D01*
X17050Y-18821D01*
X17092Y-18835D01*
X17121Y-18864D01*
X17135Y-18892D01*
X17150Y-18950D01*
X17150Y-18992D01*
X17135Y-19050D01*
X17121Y-19078D01*
X17092Y-19107D01*
X17050Y-19121D01*
X16978Y-19121D01*
X16678Y-15721D02*
X16678Y-15421D01*
X16750Y-15421D01*
X16792Y-15435D01*
X16821Y-15464D01*
X16835Y-15492D01*
X16850Y-15550D01*
X16850Y-15592D01*
X16835Y-15650D01*
X16821Y-15678D01*
X16792Y-15707D01*
X16750Y-15721D01*
X16678Y-15721D01*
X16950Y-15421D02*
X17135Y-15421D01*
X17035Y-15535D01*
X17078Y-15535D01*
X17107Y-15550D01*
X17121Y-15564D01*
X17135Y-15592D01*
X17135Y-15664D01*
X17121Y-15692D01*
X17107Y-15707D01*
X17078Y-15721D01*
X16992Y-15721D01*
X16964Y-15707D01*
X16950Y-15692D01*
X16607Y-16921D02*
X16464Y-16921D01*
X16464Y-16621D01*
X16707Y-16764D02*
X16807Y-16764D01*
X16850Y-16921D02*
X16707Y-16921D01*
X16707Y-16621D01*
X16850Y-16621D01*
X16978Y-16921D02*
X16978Y-16621D01*
X17050Y-16621D01*
X17092Y-16635D01*
X17121Y-16664D01*
X17135Y-16692D01*
X17150Y-16750D01*
X17150Y-16792D01*
X17135Y-16850D01*
X17121Y-16878D01*
X17092Y-16907D01*
X17050Y-16921D01*
X16978Y-16921D01*
M02*
