G04 (created by PCBNEW (2013-may-18)-stable) date jeu 02 jun 2016 15:56:37 CEST*
%MOIN*%
G04 Gerber Fmt 3.4, Leading zero omitted, Abs format*
%FSLAX34Y34*%
G01*
G70*
G90*
G04 APERTURE LIST*
%ADD10C,0.00590551*%
%ADD11C,0.0590551*%
%ADD12C,0.055*%
%ADD13R,0.06X0.06*%
%ADD14C,0.06*%
%ADD15C,0.07*%
%ADD16R,0.07X0.07*%
%ADD17C,0.189*%
%ADD18R,0.189X0.189*%
%ADD19R,0.055X0.055*%
%ADD20R,0.1X0.1*%
%ADD21C,0.1*%
%ADD22R,0.08X0.06*%
%ADD23R,0.0629X0.0709*%
%ADD24C,0.01*%
G04 APERTURE END LIST*
G54D10*
G54D11*
X25952Y-17448D03*
X31661Y-19948D03*
X26858Y-19948D03*
X26858Y-14909D03*
X31661Y-14909D03*
X25952Y-23948D03*
X31661Y-26448D03*
X26858Y-26448D03*
X26858Y-21409D03*
X31661Y-21409D03*
X22900Y-26600D03*
X23900Y-26600D03*
X19900Y-26600D03*
X18900Y-26600D03*
X17900Y-26600D03*
X17900Y-23600D03*
X18900Y-23600D03*
X20900Y-23600D03*
X21900Y-23600D03*
X22900Y-23600D03*
X23900Y-23600D03*
G54D12*
X29000Y-28000D03*
X30000Y-28000D03*
G54D13*
X19500Y-18500D03*
G54D14*
X19500Y-17500D03*
X20500Y-18500D03*
X20500Y-17500D03*
X21500Y-18500D03*
X21500Y-17500D03*
X22500Y-18500D03*
X22500Y-17500D03*
X23500Y-18500D03*
X23500Y-17500D03*
G54D13*
X32000Y-28000D03*
G54D14*
X31000Y-28000D03*
G54D15*
X24500Y-12900D03*
G54D16*
X25500Y-12900D03*
G54D15*
X26500Y-12900D03*
G54D17*
X17100Y-12600D03*
G54D18*
X19500Y-12600D03*
G54D17*
X18000Y-14600D03*
G54D19*
X22300Y-12400D03*
G54D12*
X22300Y-13400D03*
G54D19*
X28100Y-12900D03*
G54D12*
X29100Y-12900D03*
G54D20*
X31500Y-18250D03*
G54D21*
X31500Y-16250D03*
G54D20*
X31500Y-25000D03*
G54D21*
X31500Y-23000D03*
G54D11*
X24500Y-19800D03*
X23500Y-19800D03*
X22500Y-19800D03*
X21500Y-19800D03*
X20500Y-19800D03*
X18500Y-19800D03*
X17500Y-19800D03*
X17500Y-22400D03*
X18500Y-22400D03*
X19500Y-22400D03*
X20500Y-22400D03*
X21500Y-22400D03*
X22500Y-22400D03*
X23500Y-22400D03*
X24500Y-22400D03*
X19500Y-19800D03*
G54D22*
X21200Y-15850D03*
X21200Y-14550D03*
X22400Y-15850D03*
X22400Y-14550D03*
X20000Y-15850D03*
X20000Y-14550D03*
G54D23*
X16241Y-17300D03*
X17359Y-17300D03*
X16241Y-18400D03*
X17359Y-18400D03*
X16241Y-16200D03*
X17359Y-16200D03*
G54D24*
X16241Y-16200D02*
X16241Y-13991D01*
X26500Y-12000D02*
X26500Y-12900D01*
X25750Y-11250D02*
X26500Y-12000D01*
X24000Y-11250D02*
X25750Y-11250D01*
X21500Y-11250D02*
X24000Y-11250D01*
X16250Y-11250D02*
X21500Y-11250D01*
X15750Y-11750D02*
X16250Y-11250D01*
X15750Y-13500D02*
X15750Y-11750D01*
X16241Y-13991D02*
X15750Y-13500D01*
X24500Y-19800D02*
X23800Y-20500D01*
X23800Y-20500D02*
X17800Y-20500D01*
X17800Y-20500D02*
X17300Y-20500D01*
X17300Y-20500D02*
X15600Y-18800D01*
X15600Y-18800D02*
X15600Y-16841D01*
X15600Y-16841D02*
X16241Y-16200D01*
X16241Y-17300D02*
X16600Y-17300D01*
X19000Y-19000D02*
X19500Y-18500D01*
X17000Y-19000D02*
X19000Y-19000D01*
X16800Y-18800D02*
X17000Y-19000D01*
X16800Y-17500D02*
X16800Y-18800D01*
X16600Y-17300D02*
X16800Y-17500D01*
X16241Y-18400D02*
X16241Y-18941D01*
X20000Y-18000D02*
X19500Y-17500D01*
X20000Y-19000D02*
X20000Y-18000D01*
X19700Y-19300D02*
X20000Y-19000D01*
X16600Y-19300D02*
X19700Y-19300D01*
X16241Y-18941D02*
X16600Y-19300D01*
X31661Y-19948D02*
X31661Y-18411D01*
X31661Y-18411D02*
X31500Y-18250D01*
X17359Y-18400D02*
X17600Y-18400D01*
X22400Y-16500D02*
X22400Y-15850D01*
X22000Y-16900D02*
X22400Y-16500D01*
X20700Y-16900D02*
X22000Y-16900D01*
X19100Y-16900D02*
X20700Y-16900D01*
X17600Y-18400D02*
X19100Y-16900D01*
X17359Y-16200D02*
X18400Y-16200D01*
X18750Y-15850D02*
X20000Y-15850D01*
X18400Y-16200D02*
X18750Y-15850D01*
X21200Y-15850D02*
X21050Y-15850D01*
X17800Y-17300D02*
X17359Y-17300D01*
X18600Y-16500D02*
X17800Y-17300D01*
X20400Y-16500D02*
X18600Y-16500D01*
X21050Y-15850D02*
X20400Y-16500D01*
X31500Y-25000D02*
X31500Y-26287D01*
X31500Y-26287D02*
X31661Y-26448D01*
G54D10*
G36*
X19128Y-20200D02*
X18806Y-20200D01*
X18811Y-20182D01*
X18500Y-19870D01*
X18188Y-20182D01*
X18193Y-20200D01*
X17806Y-20200D01*
X17811Y-20182D01*
X17500Y-19870D01*
X17494Y-19876D01*
X17423Y-19805D01*
X17429Y-19800D01*
X17423Y-19794D01*
X17494Y-19723D01*
X17500Y-19729D01*
X17505Y-19723D01*
X17576Y-19794D01*
X17570Y-19800D01*
X17882Y-20111D01*
X17977Y-20085D01*
X17998Y-20026D01*
X18022Y-20085D01*
X18117Y-20111D01*
X18429Y-19800D01*
X18423Y-19794D01*
X18494Y-19723D01*
X18500Y-19729D01*
X18505Y-19723D01*
X18576Y-19794D01*
X18570Y-19800D01*
X18882Y-20111D01*
X18977Y-20085D01*
X19000Y-20019D01*
X19037Y-20108D01*
X19128Y-20200D01*
X19128Y-20200D01*
G37*
G54D24*
X19128Y-20200D02*
X18806Y-20200D01*
X18811Y-20182D01*
X18500Y-19870D01*
X18188Y-20182D01*
X18193Y-20200D01*
X17806Y-20200D01*
X17811Y-20182D01*
X17500Y-19870D01*
X17494Y-19876D01*
X17423Y-19805D01*
X17429Y-19800D01*
X17423Y-19794D01*
X17494Y-19723D01*
X17500Y-19729D01*
X17505Y-19723D01*
X17576Y-19794D01*
X17570Y-19800D01*
X17882Y-20111D01*
X17977Y-20085D01*
X17998Y-20026D01*
X18022Y-20085D01*
X18117Y-20111D01*
X18429Y-19800D01*
X18423Y-19794D01*
X18494Y-19723D01*
X18500Y-19729D01*
X18505Y-19723D01*
X18576Y-19794D01*
X18570Y-19800D01*
X18882Y-20111D01*
X18977Y-20085D01*
X19000Y-20019D01*
X19037Y-20108D01*
X19128Y-20200D01*
G54D10*
G36*
X33200Y-28700D02*
X32550Y-28700D01*
X32550Y-28250D01*
X32550Y-27749D01*
X32549Y-27650D01*
X32511Y-27558D01*
X32441Y-27487D01*
X32349Y-27449D01*
X32250Y-27449D01*
X32250Y-22851D01*
X32250Y-16101D01*
X32211Y-16007D01*
X32211Y-14990D01*
X32200Y-14773D01*
X32138Y-14624D01*
X32043Y-14597D01*
X31973Y-14668D01*
X31973Y-14526D01*
X31946Y-14432D01*
X31742Y-14359D01*
X31525Y-14370D01*
X31376Y-14432D01*
X31349Y-14526D01*
X31661Y-14838D01*
X31973Y-14526D01*
X31973Y-14668D01*
X31732Y-14909D01*
X32043Y-15221D01*
X32138Y-15194D01*
X32211Y-14990D01*
X32211Y-16007D01*
X32136Y-15825D01*
X31973Y-15662D01*
X31973Y-15291D01*
X31661Y-14980D01*
X31590Y-15050D01*
X31590Y-14909D01*
X31278Y-14597D01*
X31184Y-14624D01*
X31111Y-14828D01*
X31122Y-15045D01*
X31184Y-15194D01*
X31278Y-15221D01*
X31590Y-14909D01*
X31590Y-15050D01*
X31349Y-15291D01*
X31376Y-15386D01*
X31580Y-15459D01*
X31797Y-15448D01*
X31946Y-15386D01*
X31973Y-15291D01*
X31973Y-15662D01*
X31925Y-15614D01*
X31649Y-15500D01*
X31351Y-15499D01*
X31075Y-15613D01*
X30864Y-15824D01*
X30750Y-16100D01*
X30749Y-16398D01*
X30863Y-16674D01*
X31074Y-16885D01*
X31350Y-16999D01*
X31648Y-17000D01*
X31924Y-16886D01*
X32135Y-16675D01*
X32249Y-16399D01*
X32250Y-16101D01*
X32250Y-22851D01*
X32250Y-22851D01*
X32250Y-18700D01*
X32250Y-17700D01*
X32212Y-17608D01*
X32141Y-17538D01*
X32049Y-17500D01*
X31950Y-17499D01*
X30950Y-17499D01*
X30858Y-17537D01*
X30788Y-17608D01*
X30750Y-17700D01*
X30749Y-17799D01*
X30749Y-18799D01*
X30787Y-18891D01*
X30858Y-18961D01*
X30950Y-18999D01*
X31049Y-19000D01*
X31361Y-19000D01*
X31361Y-19482D01*
X31352Y-19486D01*
X31199Y-19639D01*
X31116Y-19839D01*
X31116Y-20056D01*
X31198Y-20257D01*
X31352Y-20410D01*
X31552Y-20493D01*
X31769Y-20494D01*
X31969Y-20411D01*
X32123Y-20258D01*
X32206Y-20057D01*
X32206Y-19840D01*
X32123Y-19640D01*
X31970Y-19486D01*
X31961Y-19482D01*
X31961Y-19000D01*
X32049Y-19000D01*
X32141Y-18962D01*
X32211Y-18891D01*
X32249Y-18799D01*
X32250Y-18700D01*
X32250Y-22851D01*
X32211Y-22757D01*
X32211Y-21490D01*
X32200Y-21273D01*
X32138Y-21124D01*
X32043Y-21097D01*
X31973Y-21168D01*
X31973Y-21026D01*
X31946Y-20932D01*
X31742Y-20859D01*
X31525Y-20870D01*
X31376Y-20932D01*
X31349Y-21026D01*
X31661Y-21338D01*
X31973Y-21026D01*
X31973Y-21168D01*
X31732Y-21409D01*
X32043Y-21721D01*
X32138Y-21694D01*
X32211Y-21490D01*
X32211Y-22757D01*
X32136Y-22575D01*
X31973Y-22412D01*
X31973Y-21791D01*
X31661Y-21480D01*
X31590Y-21550D01*
X31590Y-21409D01*
X31278Y-21097D01*
X31184Y-21124D01*
X31111Y-21328D01*
X31122Y-21545D01*
X31184Y-21694D01*
X31278Y-21721D01*
X31590Y-21409D01*
X31590Y-21550D01*
X31349Y-21791D01*
X31376Y-21886D01*
X31580Y-21959D01*
X31797Y-21948D01*
X31946Y-21886D01*
X31973Y-21791D01*
X31973Y-22412D01*
X31925Y-22364D01*
X31649Y-22250D01*
X31351Y-22249D01*
X31075Y-22363D01*
X30864Y-22574D01*
X30750Y-22850D01*
X30749Y-23148D01*
X30863Y-23424D01*
X31074Y-23635D01*
X31350Y-23749D01*
X31648Y-23750D01*
X31924Y-23636D01*
X32135Y-23425D01*
X32249Y-23149D01*
X32250Y-22851D01*
X32250Y-27449D01*
X32250Y-27449D01*
X32250Y-25450D01*
X32250Y-24450D01*
X32212Y-24358D01*
X32141Y-24288D01*
X32049Y-24250D01*
X31950Y-24249D01*
X30950Y-24249D01*
X30858Y-24287D01*
X30788Y-24358D01*
X30750Y-24450D01*
X30749Y-24549D01*
X30749Y-25549D01*
X30787Y-25641D01*
X30858Y-25711D01*
X30950Y-25749D01*
X31049Y-25750D01*
X31200Y-25750D01*
X31200Y-26138D01*
X31199Y-26139D01*
X31116Y-26339D01*
X31116Y-26556D01*
X31198Y-26757D01*
X31352Y-26910D01*
X31552Y-26993D01*
X31769Y-26994D01*
X31969Y-26911D01*
X32123Y-26758D01*
X32206Y-26557D01*
X32206Y-26340D01*
X32123Y-26140D01*
X31970Y-25986D01*
X31800Y-25915D01*
X31800Y-25750D01*
X32049Y-25750D01*
X32141Y-25712D01*
X32211Y-25641D01*
X32249Y-25549D01*
X32250Y-25450D01*
X32250Y-27449D01*
X32112Y-27450D01*
X32050Y-27512D01*
X32050Y-27950D01*
X32487Y-27950D01*
X32550Y-27887D01*
X32550Y-27749D01*
X32550Y-28250D01*
X32550Y-28112D01*
X32487Y-28050D01*
X32050Y-28050D01*
X32050Y-28487D01*
X32112Y-28550D01*
X32349Y-28550D01*
X32441Y-28512D01*
X32511Y-28441D01*
X32549Y-28349D01*
X32550Y-28250D01*
X32550Y-28700D01*
X31950Y-28700D01*
X31950Y-28487D01*
X31950Y-28050D01*
X31942Y-28050D01*
X31942Y-27950D01*
X31950Y-27950D01*
X31950Y-27512D01*
X31887Y-27450D01*
X31650Y-27449D01*
X31558Y-27487D01*
X31488Y-27558D01*
X31450Y-27650D01*
X31450Y-27672D01*
X31311Y-27534D01*
X31109Y-27450D01*
X30891Y-27449D01*
X30688Y-27533D01*
X30534Y-27688D01*
X30486Y-27802D01*
X30445Y-27703D01*
X30297Y-27555D01*
X30104Y-27475D01*
X29896Y-27474D01*
X29703Y-27554D01*
X29629Y-27627D01*
X29629Y-12975D01*
X29618Y-12767D01*
X29560Y-12627D01*
X29467Y-12602D01*
X29397Y-12673D01*
X29397Y-12532D01*
X29372Y-12439D01*
X29175Y-12370D01*
X28967Y-12381D01*
X28827Y-12439D01*
X28802Y-12532D01*
X29100Y-12829D01*
X29397Y-12532D01*
X29397Y-12673D01*
X29170Y-12900D01*
X29467Y-13197D01*
X29560Y-13172D01*
X29629Y-12975D01*
X29629Y-27627D01*
X29555Y-27702D01*
X29499Y-27835D01*
X29445Y-27703D01*
X29397Y-27654D01*
X29397Y-13267D01*
X29100Y-12970D01*
X29029Y-13041D01*
X29029Y-12900D01*
X28732Y-12602D01*
X28639Y-12627D01*
X28625Y-12668D01*
X28625Y-12575D01*
X28587Y-12483D01*
X28516Y-12413D01*
X28424Y-12375D01*
X28325Y-12374D01*
X27775Y-12374D01*
X27683Y-12412D01*
X27613Y-12483D01*
X27575Y-12575D01*
X27574Y-12674D01*
X27574Y-13224D01*
X27612Y-13316D01*
X27683Y-13386D01*
X27775Y-13424D01*
X27874Y-13425D01*
X28424Y-13425D01*
X28516Y-13387D01*
X28586Y-13316D01*
X28624Y-13224D01*
X28625Y-13137D01*
X28639Y-13172D01*
X28732Y-13197D01*
X29029Y-12900D01*
X29029Y-13041D01*
X28802Y-13267D01*
X28827Y-13360D01*
X29024Y-13429D01*
X29232Y-13418D01*
X29372Y-13360D01*
X29397Y-13267D01*
X29397Y-27654D01*
X29297Y-27555D01*
X29104Y-27475D01*
X28896Y-27474D01*
X28703Y-27554D01*
X28555Y-27702D01*
X28475Y-27895D01*
X28474Y-28103D01*
X28554Y-28297D01*
X28702Y-28444D01*
X28895Y-28524D01*
X29103Y-28525D01*
X29297Y-28445D01*
X29444Y-28297D01*
X29500Y-28164D01*
X29554Y-28297D01*
X29702Y-28444D01*
X29895Y-28524D01*
X30103Y-28525D01*
X30297Y-28445D01*
X30444Y-28297D01*
X30486Y-28197D01*
X30533Y-28311D01*
X30688Y-28465D01*
X30890Y-28549D01*
X31108Y-28550D01*
X31311Y-28466D01*
X31450Y-28327D01*
X31450Y-28349D01*
X31488Y-28441D01*
X31558Y-28512D01*
X31650Y-28550D01*
X31887Y-28550D01*
X31950Y-28487D01*
X31950Y-28700D01*
X27408Y-28700D01*
X27408Y-21490D01*
X27408Y-14990D01*
X27397Y-14773D01*
X27335Y-14624D01*
X27240Y-14597D01*
X27170Y-14668D01*
X27170Y-14526D01*
X27143Y-14432D01*
X26938Y-14359D01*
X26722Y-14370D01*
X26573Y-14432D01*
X26546Y-14526D01*
X26858Y-14838D01*
X27170Y-14526D01*
X27170Y-14668D01*
X26928Y-14909D01*
X27240Y-15221D01*
X27335Y-15194D01*
X27408Y-14990D01*
X27408Y-21490D01*
X27403Y-21397D01*
X27403Y-19840D01*
X27320Y-19640D01*
X27170Y-19489D01*
X27170Y-15291D01*
X26858Y-14980D01*
X26787Y-15050D01*
X26787Y-14909D01*
X26475Y-14597D01*
X26380Y-14624D01*
X26308Y-14828D01*
X26319Y-15045D01*
X26380Y-15194D01*
X26475Y-15221D01*
X26787Y-14909D01*
X26787Y-15050D01*
X26546Y-15291D01*
X26573Y-15386D01*
X26777Y-15459D01*
X26994Y-15448D01*
X27143Y-15386D01*
X27170Y-15291D01*
X27170Y-19489D01*
X27167Y-19486D01*
X26967Y-19403D01*
X26750Y-19403D01*
X26549Y-19486D01*
X26502Y-19533D01*
X26502Y-17529D01*
X26491Y-17312D01*
X26430Y-17163D01*
X26335Y-17137D01*
X26264Y-17207D01*
X26264Y-17066D01*
X26237Y-16971D01*
X26033Y-16898D01*
X25816Y-16909D01*
X25667Y-16971D01*
X25640Y-17066D01*
X25952Y-17378D01*
X26264Y-17066D01*
X26264Y-17207D01*
X26023Y-17448D01*
X26335Y-17760D01*
X26430Y-17733D01*
X26502Y-17529D01*
X26502Y-19533D01*
X26396Y-19639D01*
X26313Y-19839D01*
X26312Y-20056D01*
X26395Y-20257D01*
X26548Y-20410D01*
X26749Y-20493D01*
X26966Y-20494D01*
X27166Y-20411D01*
X27320Y-20258D01*
X27403Y-20057D01*
X27403Y-19840D01*
X27403Y-21397D01*
X27397Y-21273D01*
X27335Y-21124D01*
X27240Y-21097D01*
X27170Y-21168D01*
X27170Y-21026D01*
X27143Y-20932D01*
X26938Y-20859D01*
X26722Y-20870D01*
X26573Y-20932D01*
X26546Y-21026D01*
X26858Y-21338D01*
X27170Y-21026D01*
X27170Y-21168D01*
X26928Y-21409D01*
X27240Y-21721D01*
X27335Y-21694D01*
X27408Y-21490D01*
X27408Y-28700D01*
X27403Y-28700D01*
X27403Y-26340D01*
X27320Y-26140D01*
X27170Y-25989D01*
X27170Y-21791D01*
X26858Y-21480D01*
X26787Y-21550D01*
X26787Y-21409D01*
X26475Y-21097D01*
X26380Y-21124D01*
X26308Y-21328D01*
X26319Y-21545D01*
X26380Y-21694D01*
X26475Y-21721D01*
X26787Y-21409D01*
X26787Y-21550D01*
X26546Y-21791D01*
X26573Y-21886D01*
X26777Y-21959D01*
X26994Y-21948D01*
X27143Y-21886D01*
X27170Y-21791D01*
X27170Y-25989D01*
X27167Y-25986D01*
X26967Y-25903D01*
X26750Y-25903D01*
X26549Y-25986D01*
X26502Y-26033D01*
X26502Y-24029D01*
X26491Y-23812D01*
X26430Y-23663D01*
X26335Y-23637D01*
X26264Y-23707D01*
X26264Y-23566D01*
X26264Y-17831D01*
X25952Y-17519D01*
X25882Y-17590D01*
X25882Y-17448D01*
X25570Y-17137D01*
X25475Y-17163D01*
X25450Y-17235D01*
X25450Y-13437D01*
X25450Y-12950D01*
X25442Y-12950D01*
X25442Y-12850D01*
X25450Y-12850D01*
X25450Y-12362D01*
X25387Y-12300D01*
X25199Y-12299D01*
X25100Y-12300D01*
X25008Y-12338D01*
X24937Y-12408D01*
X24914Y-12465D01*
X24840Y-12391D01*
X24619Y-12300D01*
X24381Y-12299D01*
X24160Y-12391D01*
X23991Y-12559D01*
X23900Y-12780D01*
X23899Y-13018D01*
X23991Y-13239D01*
X24159Y-13408D01*
X24380Y-13499D01*
X24618Y-13500D01*
X24839Y-13408D01*
X24914Y-13334D01*
X24937Y-13391D01*
X25008Y-13461D01*
X25100Y-13499D01*
X25199Y-13500D01*
X25387Y-13500D01*
X25450Y-13437D01*
X25450Y-17235D01*
X25402Y-17368D01*
X25413Y-17584D01*
X25475Y-17733D01*
X25570Y-17760D01*
X25882Y-17448D01*
X25882Y-17590D01*
X25640Y-17831D01*
X25667Y-17926D01*
X25872Y-17998D01*
X26088Y-17987D01*
X26237Y-17926D01*
X26264Y-17831D01*
X26264Y-23566D01*
X26237Y-23471D01*
X26033Y-23398D01*
X25816Y-23409D01*
X25667Y-23471D01*
X25640Y-23566D01*
X25952Y-23878D01*
X26264Y-23566D01*
X26264Y-23707D01*
X26023Y-23948D01*
X26335Y-24260D01*
X26430Y-24233D01*
X26502Y-24029D01*
X26502Y-26033D01*
X26396Y-26139D01*
X26313Y-26339D01*
X26312Y-26556D01*
X26395Y-26757D01*
X26548Y-26910D01*
X26749Y-26993D01*
X26966Y-26994D01*
X27166Y-26911D01*
X27320Y-26758D01*
X27403Y-26557D01*
X27403Y-26340D01*
X27403Y-28700D01*
X26264Y-28700D01*
X26264Y-24331D01*
X25952Y-24019D01*
X25882Y-24090D01*
X25882Y-23948D01*
X25570Y-23637D01*
X25475Y-23663D01*
X25402Y-23868D01*
X25413Y-24084D01*
X25475Y-24233D01*
X25570Y-24260D01*
X25882Y-23948D01*
X25882Y-24090D01*
X25640Y-24331D01*
X25667Y-24426D01*
X25872Y-24498D01*
X26088Y-24487D01*
X26237Y-24426D01*
X26264Y-24331D01*
X26264Y-28700D01*
X25045Y-28700D01*
X25045Y-22292D01*
X24962Y-22091D01*
X24809Y-21938D01*
X24608Y-21854D01*
X24392Y-21854D01*
X24191Y-21937D01*
X24038Y-22090D01*
X24000Y-22182D01*
X23962Y-22091D01*
X23809Y-21938D01*
X23608Y-21854D01*
X23392Y-21854D01*
X23191Y-21937D01*
X23038Y-22090D01*
X23000Y-22182D01*
X22962Y-22091D01*
X22809Y-21938D01*
X22608Y-21854D01*
X22392Y-21854D01*
X22191Y-21937D01*
X22038Y-22090D01*
X22000Y-22182D01*
X21962Y-22091D01*
X21809Y-21938D01*
X21608Y-21854D01*
X21392Y-21854D01*
X21191Y-21937D01*
X21038Y-22090D01*
X21000Y-22182D01*
X20962Y-22091D01*
X20809Y-21938D01*
X20608Y-21854D01*
X20392Y-21854D01*
X20191Y-21937D01*
X20038Y-22090D01*
X20000Y-22182D01*
X19962Y-22091D01*
X19809Y-21938D01*
X19608Y-21854D01*
X19392Y-21854D01*
X19191Y-21937D01*
X19038Y-22090D01*
X19000Y-22182D01*
X18962Y-22091D01*
X18809Y-21938D01*
X18608Y-21854D01*
X18392Y-21854D01*
X18191Y-21937D01*
X18038Y-22090D01*
X18000Y-22182D01*
X17962Y-22091D01*
X17809Y-21938D01*
X17608Y-21854D01*
X17392Y-21854D01*
X17191Y-21937D01*
X17038Y-22090D01*
X16954Y-22291D01*
X16954Y-22507D01*
X17037Y-22708D01*
X17190Y-22861D01*
X17391Y-22945D01*
X17607Y-22945D01*
X17808Y-22862D01*
X17961Y-22709D01*
X17999Y-22617D01*
X18037Y-22708D01*
X18190Y-22861D01*
X18391Y-22945D01*
X18607Y-22945D01*
X18808Y-22862D01*
X18961Y-22709D01*
X18999Y-22617D01*
X19037Y-22708D01*
X19190Y-22861D01*
X19391Y-22945D01*
X19607Y-22945D01*
X19808Y-22862D01*
X19961Y-22709D01*
X19999Y-22617D01*
X20037Y-22708D01*
X20190Y-22861D01*
X20391Y-22945D01*
X20607Y-22945D01*
X20808Y-22862D01*
X20961Y-22709D01*
X20999Y-22617D01*
X21037Y-22708D01*
X21190Y-22861D01*
X21391Y-22945D01*
X21607Y-22945D01*
X21808Y-22862D01*
X21961Y-22709D01*
X21999Y-22617D01*
X22037Y-22708D01*
X22190Y-22861D01*
X22391Y-22945D01*
X22607Y-22945D01*
X22808Y-22862D01*
X22961Y-22709D01*
X22999Y-22617D01*
X23037Y-22708D01*
X23190Y-22861D01*
X23391Y-22945D01*
X23607Y-22945D01*
X23808Y-22862D01*
X23961Y-22709D01*
X23999Y-22617D01*
X24037Y-22708D01*
X24190Y-22861D01*
X24391Y-22945D01*
X24607Y-22945D01*
X24808Y-22862D01*
X24961Y-22709D01*
X25045Y-22508D01*
X25045Y-22292D01*
X25045Y-28700D01*
X24445Y-28700D01*
X24445Y-26492D01*
X24445Y-23492D01*
X24362Y-23291D01*
X24209Y-23138D01*
X24008Y-23054D01*
X23792Y-23054D01*
X23591Y-23137D01*
X23438Y-23290D01*
X23400Y-23382D01*
X23362Y-23291D01*
X23209Y-23138D01*
X23008Y-23054D01*
X22792Y-23054D01*
X22591Y-23137D01*
X22438Y-23290D01*
X22400Y-23382D01*
X22362Y-23291D01*
X22209Y-23138D01*
X22008Y-23054D01*
X21792Y-23054D01*
X21591Y-23137D01*
X21438Y-23290D01*
X21400Y-23382D01*
X21362Y-23291D01*
X21209Y-23138D01*
X21008Y-23054D01*
X20792Y-23054D01*
X20591Y-23137D01*
X20438Y-23290D01*
X20354Y-23491D01*
X20354Y-23707D01*
X20437Y-23908D01*
X20590Y-24061D01*
X20791Y-24145D01*
X21007Y-24145D01*
X21208Y-24062D01*
X21361Y-23909D01*
X21399Y-23817D01*
X21437Y-23908D01*
X21590Y-24061D01*
X21791Y-24145D01*
X22007Y-24145D01*
X22208Y-24062D01*
X22361Y-23909D01*
X22399Y-23817D01*
X22437Y-23908D01*
X22590Y-24061D01*
X22791Y-24145D01*
X23007Y-24145D01*
X23208Y-24062D01*
X23361Y-23909D01*
X23399Y-23817D01*
X23437Y-23908D01*
X23590Y-24061D01*
X23791Y-24145D01*
X24007Y-24145D01*
X24208Y-24062D01*
X24361Y-23909D01*
X24445Y-23708D01*
X24445Y-23492D01*
X24445Y-26492D01*
X24362Y-26291D01*
X24209Y-26138D01*
X24008Y-26054D01*
X23792Y-26054D01*
X23591Y-26137D01*
X23438Y-26290D01*
X23400Y-26382D01*
X23362Y-26291D01*
X23209Y-26138D01*
X23008Y-26054D01*
X22792Y-26054D01*
X22591Y-26137D01*
X22438Y-26290D01*
X22354Y-26491D01*
X22354Y-26707D01*
X22437Y-26908D01*
X22590Y-27061D01*
X22791Y-27145D01*
X23007Y-27145D01*
X23208Y-27062D01*
X23361Y-26909D01*
X23399Y-26817D01*
X23437Y-26908D01*
X23590Y-27061D01*
X23791Y-27145D01*
X24007Y-27145D01*
X24208Y-27062D01*
X24361Y-26909D01*
X24445Y-26708D01*
X24445Y-26492D01*
X24445Y-28700D01*
X20445Y-28700D01*
X20445Y-26492D01*
X20362Y-26291D01*
X20209Y-26138D01*
X20008Y-26054D01*
X19792Y-26054D01*
X19591Y-26137D01*
X19445Y-26283D01*
X19445Y-23492D01*
X19362Y-23291D01*
X19209Y-23138D01*
X19008Y-23054D01*
X18792Y-23054D01*
X18591Y-23137D01*
X18438Y-23290D01*
X18400Y-23382D01*
X18362Y-23291D01*
X18209Y-23138D01*
X18008Y-23054D01*
X17792Y-23054D01*
X17591Y-23137D01*
X17438Y-23290D01*
X17354Y-23491D01*
X17354Y-23707D01*
X17437Y-23908D01*
X17590Y-24061D01*
X17791Y-24145D01*
X18007Y-24145D01*
X18208Y-24062D01*
X18361Y-23909D01*
X18399Y-23817D01*
X18437Y-23908D01*
X18590Y-24061D01*
X18791Y-24145D01*
X19007Y-24145D01*
X19208Y-24062D01*
X19361Y-23909D01*
X19445Y-23708D01*
X19445Y-23492D01*
X19445Y-26283D01*
X19438Y-26290D01*
X19400Y-26382D01*
X19362Y-26291D01*
X19209Y-26138D01*
X19008Y-26054D01*
X18792Y-26054D01*
X18591Y-26137D01*
X18438Y-26290D01*
X18400Y-26382D01*
X18362Y-26291D01*
X18209Y-26138D01*
X18008Y-26054D01*
X17792Y-26054D01*
X17591Y-26137D01*
X17438Y-26290D01*
X17354Y-26491D01*
X17354Y-26707D01*
X17437Y-26908D01*
X17590Y-27061D01*
X17791Y-27145D01*
X18007Y-27145D01*
X18208Y-27062D01*
X18361Y-26909D01*
X18399Y-26817D01*
X18437Y-26908D01*
X18590Y-27061D01*
X18791Y-27145D01*
X19007Y-27145D01*
X19208Y-27062D01*
X19361Y-26909D01*
X19399Y-26817D01*
X19437Y-26908D01*
X19590Y-27061D01*
X19791Y-27145D01*
X20007Y-27145D01*
X20208Y-27062D01*
X20361Y-26909D01*
X20445Y-26708D01*
X20445Y-26492D01*
X20445Y-28700D01*
X15050Y-28700D01*
X15050Y-11050D01*
X16025Y-11050D01*
X15537Y-11537D01*
X15472Y-11635D01*
X15450Y-11750D01*
X15450Y-13500D01*
X15472Y-13614D01*
X15537Y-13712D01*
X15941Y-14115D01*
X15941Y-15595D01*
X15876Y-15595D01*
X15785Y-15633D01*
X15714Y-15703D01*
X15676Y-15795D01*
X15676Y-15895D01*
X15676Y-16340D01*
X15387Y-16628D01*
X15322Y-16726D01*
X15300Y-16841D01*
X15300Y-18800D01*
X15322Y-18914D01*
X15387Y-19012D01*
X17087Y-20712D01*
X17185Y-20777D01*
X17300Y-20800D01*
X17800Y-20800D01*
X23800Y-20800D01*
X23800Y-20799D01*
X23914Y-20777D01*
X23914Y-20777D01*
X24012Y-20712D01*
X24382Y-20341D01*
X24391Y-20345D01*
X24607Y-20345D01*
X24808Y-20262D01*
X24961Y-20109D01*
X25045Y-19908D01*
X25045Y-19692D01*
X24962Y-19491D01*
X24809Y-19338D01*
X24608Y-19254D01*
X24392Y-19254D01*
X24191Y-19337D01*
X24038Y-19490D01*
X24000Y-19582D01*
X23962Y-19491D01*
X23809Y-19338D01*
X23608Y-19254D01*
X23392Y-19254D01*
X23191Y-19337D01*
X23038Y-19490D01*
X23000Y-19582D01*
X22962Y-19491D01*
X22809Y-19338D01*
X22608Y-19254D01*
X22392Y-19254D01*
X22191Y-19337D01*
X22038Y-19490D01*
X22000Y-19582D01*
X21962Y-19491D01*
X21809Y-19338D01*
X21608Y-19254D01*
X21392Y-19254D01*
X21191Y-19337D01*
X21038Y-19490D01*
X21000Y-19582D01*
X20962Y-19491D01*
X20809Y-19338D01*
X20608Y-19254D01*
X20392Y-19254D01*
X20191Y-19337D01*
X20038Y-19490D01*
X20000Y-19582D01*
X19962Y-19491D01*
X19947Y-19476D01*
X20212Y-19212D01*
X20212Y-19212D01*
X20277Y-19114D01*
X20297Y-19011D01*
X20390Y-19049D01*
X20608Y-19050D01*
X20811Y-18966D01*
X20965Y-18811D01*
X20999Y-18730D01*
X21033Y-18811D01*
X21188Y-18965D01*
X21390Y-19049D01*
X21608Y-19050D01*
X21811Y-18966D01*
X21965Y-18811D01*
X21999Y-18730D01*
X22033Y-18811D01*
X22188Y-18965D01*
X22390Y-19049D01*
X22608Y-19050D01*
X22811Y-18966D01*
X22965Y-18811D01*
X22999Y-18730D01*
X23033Y-18811D01*
X23188Y-18965D01*
X23390Y-19049D01*
X23608Y-19050D01*
X23811Y-18966D01*
X23965Y-18811D01*
X24049Y-18609D01*
X24050Y-18391D01*
X23966Y-18188D01*
X23811Y-18034D01*
X23730Y-18000D01*
X23811Y-17966D01*
X23965Y-17811D01*
X24049Y-17609D01*
X24050Y-17391D01*
X23966Y-17188D01*
X23811Y-17034D01*
X23609Y-16950D01*
X23391Y-16949D01*
X23188Y-17033D01*
X23034Y-17188D01*
X23002Y-17263D01*
X22981Y-17212D01*
X22885Y-17184D01*
X22570Y-17500D01*
X22885Y-17815D01*
X22981Y-17787D01*
X23000Y-17732D01*
X23033Y-17811D01*
X23188Y-17965D01*
X23269Y-17999D01*
X23188Y-18033D01*
X23034Y-18188D01*
X23000Y-18269D01*
X22966Y-18188D01*
X22811Y-18034D01*
X22736Y-18002D01*
X22787Y-17981D01*
X22815Y-17885D01*
X22500Y-17570D01*
X22184Y-17885D01*
X22212Y-17981D01*
X22267Y-18000D01*
X22188Y-18033D01*
X22034Y-18188D01*
X22000Y-18269D01*
X21966Y-18188D01*
X21811Y-18034D01*
X21730Y-18000D01*
X21811Y-17966D01*
X21965Y-17811D01*
X21997Y-17736D01*
X22018Y-17787D01*
X22114Y-17815D01*
X22429Y-17500D01*
X22423Y-17494D01*
X22494Y-17423D01*
X22500Y-17429D01*
X22815Y-17114D01*
X22787Y-17018D01*
X22581Y-16945D01*
X22368Y-16955D01*
X22612Y-16712D01*
X22612Y-16712D01*
X22677Y-16614D01*
X22699Y-16500D01*
X22700Y-16500D01*
X22700Y-16400D01*
X22849Y-16400D01*
X22941Y-16362D01*
X23011Y-16291D01*
X23049Y-16199D01*
X23050Y-16100D01*
X23050Y-15500D01*
X23050Y-14899D01*
X23050Y-14200D01*
X23012Y-14108D01*
X22941Y-14038D01*
X22849Y-14000D01*
X22829Y-14000D01*
X22829Y-13475D01*
X22825Y-13386D01*
X22825Y-12625D01*
X22825Y-12075D01*
X22787Y-11983D01*
X22716Y-11913D01*
X22624Y-11875D01*
X22525Y-11874D01*
X21975Y-11874D01*
X21883Y-11912D01*
X21813Y-11983D01*
X21775Y-12075D01*
X21774Y-12174D01*
X21774Y-12724D01*
X21812Y-12816D01*
X21883Y-12886D01*
X21975Y-12924D01*
X22062Y-12925D01*
X22027Y-12939D01*
X22002Y-13032D01*
X22300Y-13329D01*
X22597Y-13032D01*
X22572Y-12939D01*
X22531Y-12925D01*
X22624Y-12925D01*
X22716Y-12887D01*
X22786Y-12816D01*
X22824Y-12724D01*
X22825Y-12625D01*
X22825Y-13386D01*
X22818Y-13267D01*
X22760Y-13127D01*
X22667Y-13102D01*
X22370Y-13400D01*
X22667Y-13697D01*
X22760Y-13672D01*
X22829Y-13475D01*
X22829Y-14000D01*
X22750Y-13999D01*
X22597Y-13999D01*
X22597Y-13767D01*
X22300Y-13470D01*
X22229Y-13541D01*
X22229Y-13400D01*
X21932Y-13102D01*
X21839Y-13127D01*
X21770Y-13324D01*
X21781Y-13532D01*
X21839Y-13672D01*
X21932Y-13697D01*
X22229Y-13400D01*
X22229Y-13541D01*
X22002Y-13767D01*
X22027Y-13860D01*
X22224Y-13929D01*
X22432Y-13918D01*
X22572Y-13860D01*
X22597Y-13767D01*
X22597Y-13999D01*
X22512Y-14000D01*
X22450Y-14062D01*
X22450Y-14500D01*
X22987Y-14500D01*
X23050Y-14437D01*
X23050Y-14200D01*
X23050Y-14899D01*
X23050Y-14662D01*
X22987Y-14600D01*
X22450Y-14600D01*
X22450Y-15037D01*
X22512Y-15100D01*
X22750Y-15100D01*
X22849Y-15099D01*
X22941Y-15061D01*
X23012Y-14991D01*
X23050Y-14899D01*
X23050Y-15500D01*
X23012Y-15408D01*
X22941Y-15338D01*
X22849Y-15300D01*
X22750Y-15299D01*
X22350Y-15299D01*
X22350Y-15037D01*
X22350Y-14600D01*
X22350Y-14500D01*
X22350Y-14062D01*
X22287Y-14000D01*
X22049Y-13999D01*
X21950Y-14000D01*
X21858Y-14038D01*
X21800Y-14096D01*
X21741Y-14038D01*
X21649Y-14000D01*
X21550Y-13999D01*
X21312Y-14000D01*
X21250Y-14062D01*
X21250Y-14500D01*
X21787Y-14500D01*
X21800Y-14487D01*
X21812Y-14500D01*
X22350Y-14500D01*
X22350Y-14600D01*
X21812Y-14600D01*
X21800Y-14612D01*
X21787Y-14600D01*
X21250Y-14600D01*
X21250Y-15037D01*
X21312Y-15100D01*
X21550Y-15100D01*
X21649Y-15099D01*
X21741Y-15061D01*
X21800Y-15003D01*
X21858Y-15061D01*
X21950Y-15099D01*
X22049Y-15100D01*
X22287Y-15100D01*
X22350Y-15037D01*
X22350Y-15299D01*
X21950Y-15299D01*
X21858Y-15337D01*
X21799Y-15396D01*
X21741Y-15338D01*
X21649Y-15300D01*
X21550Y-15299D01*
X21150Y-15299D01*
X21150Y-15037D01*
X21150Y-14600D01*
X21150Y-14500D01*
X21150Y-14062D01*
X21087Y-14000D01*
X20849Y-13999D01*
X20750Y-14000D01*
X20658Y-14038D01*
X20600Y-14096D01*
X20541Y-14038D01*
X20449Y-14000D01*
X20350Y-13999D01*
X20112Y-14000D01*
X20050Y-14062D01*
X20050Y-14500D01*
X20587Y-14500D01*
X20600Y-14487D01*
X20612Y-14500D01*
X21150Y-14500D01*
X21150Y-14600D01*
X20612Y-14600D01*
X20600Y-14612D01*
X20587Y-14600D01*
X20050Y-14600D01*
X20050Y-15037D01*
X20112Y-15100D01*
X20350Y-15100D01*
X20449Y-15099D01*
X20541Y-15061D01*
X20600Y-15003D01*
X20658Y-15061D01*
X20750Y-15099D01*
X20849Y-15100D01*
X21087Y-15100D01*
X21150Y-15037D01*
X21150Y-15299D01*
X20750Y-15299D01*
X20658Y-15337D01*
X20599Y-15396D01*
X20541Y-15338D01*
X20449Y-15300D01*
X20350Y-15299D01*
X19950Y-15299D01*
X19950Y-15037D01*
X19950Y-14600D01*
X19950Y-14500D01*
X19950Y-14062D01*
X19887Y-14000D01*
X19649Y-13999D01*
X19550Y-14000D01*
X19458Y-14038D01*
X19387Y-14108D01*
X19349Y-14200D01*
X19350Y-14437D01*
X19412Y-14500D01*
X19950Y-14500D01*
X19950Y-14600D01*
X19412Y-14600D01*
X19350Y-14662D01*
X19349Y-14899D01*
X19387Y-14991D01*
X19458Y-15061D01*
X19550Y-15099D01*
X19649Y-15100D01*
X19887Y-15100D01*
X19950Y-15037D01*
X19950Y-15299D01*
X19550Y-15299D01*
X19458Y-15337D01*
X19388Y-15408D01*
X19350Y-15500D01*
X19350Y-15550D01*
X19195Y-15550D01*
X18750Y-15550D01*
X18712Y-15557D01*
X18781Y-15451D01*
X18000Y-14670D01*
X17929Y-14741D01*
X17218Y-15451D01*
X17312Y-15595D01*
X16994Y-15595D01*
X16903Y-15633D01*
X16832Y-15703D01*
X16799Y-15782D01*
X16767Y-15704D01*
X16697Y-15633D01*
X16605Y-15595D01*
X16541Y-15595D01*
X16541Y-13991D01*
X16518Y-13876D01*
X16453Y-13778D01*
X16453Y-13778D01*
X16050Y-13375D01*
X16050Y-13188D01*
X16085Y-13275D01*
X16248Y-13381D01*
X17029Y-12600D01*
X16248Y-11818D01*
X16085Y-11924D01*
X16050Y-12011D01*
X16050Y-11874D01*
X16374Y-11550D01*
X16511Y-11550D01*
X16424Y-11585D01*
X16318Y-11748D01*
X17100Y-12529D01*
X17881Y-11748D01*
X17775Y-11585D01*
X17688Y-11550D01*
X18327Y-11550D01*
X18305Y-11605D01*
X18304Y-11704D01*
X18304Y-13433D01*
X18295Y-13429D01*
X18235Y-13404D01*
X17975Y-13405D01*
X17951Y-13381D01*
X18114Y-13275D01*
X18295Y-12835D01*
X18294Y-12360D01*
X18114Y-11924D01*
X17951Y-11818D01*
X17170Y-12600D01*
X17176Y-12605D01*
X17105Y-12676D01*
X17100Y-12670D01*
X16318Y-13451D01*
X16424Y-13614D01*
X16864Y-13795D01*
X17124Y-13794D01*
X17148Y-13818D01*
X16985Y-13924D01*
X16804Y-14364D01*
X16805Y-14839D01*
X16985Y-15275D01*
X17148Y-15381D01*
X17929Y-14600D01*
X17923Y-14594D01*
X17994Y-14523D01*
X18000Y-14529D01*
X18005Y-14523D01*
X18076Y-14594D01*
X18070Y-14600D01*
X18851Y-15381D01*
X19014Y-15275D01*
X19195Y-14835D01*
X19194Y-14360D01*
X19014Y-13924D01*
X18851Y-13818D01*
X18875Y-13795D01*
X20494Y-13795D01*
X20586Y-13757D01*
X20656Y-13686D01*
X20694Y-13594D01*
X20695Y-13495D01*
X20695Y-11605D01*
X20672Y-11550D01*
X21500Y-11550D01*
X24000Y-11550D01*
X25625Y-11550D01*
X26200Y-12124D01*
X26200Y-12374D01*
X26160Y-12391D01*
X26085Y-12465D01*
X26062Y-12408D01*
X25991Y-12338D01*
X25899Y-12300D01*
X25800Y-12299D01*
X25612Y-12300D01*
X25550Y-12362D01*
X25550Y-12850D01*
X25557Y-12850D01*
X25557Y-12950D01*
X25550Y-12950D01*
X25550Y-13437D01*
X25612Y-13500D01*
X25800Y-13500D01*
X25899Y-13499D01*
X25991Y-13461D01*
X26062Y-13391D01*
X26085Y-13334D01*
X26159Y-13408D01*
X26380Y-13499D01*
X26618Y-13500D01*
X26839Y-13408D01*
X27008Y-13240D01*
X27099Y-13019D01*
X27100Y-12781D01*
X27008Y-12560D01*
X26840Y-12391D01*
X26800Y-12374D01*
X26800Y-12000D01*
X26799Y-11999D01*
X26777Y-11885D01*
X26712Y-11787D01*
X26712Y-11787D01*
X25974Y-11050D01*
X33200Y-11050D01*
X33200Y-11250D01*
X33200Y-28700D01*
X33200Y-28700D01*
G37*
G54D24*
X33200Y-28700D02*
X32550Y-28700D01*
X32550Y-28250D01*
X32550Y-27749D01*
X32549Y-27650D01*
X32511Y-27558D01*
X32441Y-27487D01*
X32349Y-27449D01*
X32250Y-27449D01*
X32250Y-22851D01*
X32250Y-16101D01*
X32211Y-16007D01*
X32211Y-14990D01*
X32200Y-14773D01*
X32138Y-14624D01*
X32043Y-14597D01*
X31973Y-14668D01*
X31973Y-14526D01*
X31946Y-14432D01*
X31742Y-14359D01*
X31525Y-14370D01*
X31376Y-14432D01*
X31349Y-14526D01*
X31661Y-14838D01*
X31973Y-14526D01*
X31973Y-14668D01*
X31732Y-14909D01*
X32043Y-15221D01*
X32138Y-15194D01*
X32211Y-14990D01*
X32211Y-16007D01*
X32136Y-15825D01*
X31973Y-15662D01*
X31973Y-15291D01*
X31661Y-14980D01*
X31590Y-15050D01*
X31590Y-14909D01*
X31278Y-14597D01*
X31184Y-14624D01*
X31111Y-14828D01*
X31122Y-15045D01*
X31184Y-15194D01*
X31278Y-15221D01*
X31590Y-14909D01*
X31590Y-15050D01*
X31349Y-15291D01*
X31376Y-15386D01*
X31580Y-15459D01*
X31797Y-15448D01*
X31946Y-15386D01*
X31973Y-15291D01*
X31973Y-15662D01*
X31925Y-15614D01*
X31649Y-15500D01*
X31351Y-15499D01*
X31075Y-15613D01*
X30864Y-15824D01*
X30750Y-16100D01*
X30749Y-16398D01*
X30863Y-16674D01*
X31074Y-16885D01*
X31350Y-16999D01*
X31648Y-17000D01*
X31924Y-16886D01*
X32135Y-16675D01*
X32249Y-16399D01*
X32250Y-16101D01*
X32250Y-22851D01*
X32250Y-22851D01*
X32250Y-18700D01*
X32250Y-17700D01*
X32212Y-17608D01*
X32141Y-17538D01*
X32049Y-17500D01*
X31950Y-17499D01*
X30950Y-17499D01*
X30858Y-17537D01*
X30788Y-17608D01*
X30750Y-17700D01*
X30749Y-17799D01*
X30749Y-18799D01*
X30787Y-18891D01*
X30858Y-18961D01*
X30950Y-18999D01*
X31049Y-19000D01*
X31361Y-19000D01*
X31361Y-19482D01*
X31352Y-19486D01*
X31199Y-19639D01*
X31116Y-19839D01*
X31116Y-20056D01*
X31198Y-20257D01*
X31352Y-20410D01*
X31552Y-20493D01*
X31769Y-20494D01*
X31969Y-20411D01*
X32123Y-20258D01*
X32206Y-20057D01*
X32206Y-19840D01*
X32123Y-19640D01*
X31970Y-19486D01*
X31961Y-19482D01*
X31961Y-19000D01*
X32049Y-19000D01*
X32141Y-18962D01*
X32211Y-18891D01*
X32249Y-18799D01*
X32250Y-18700D01*
X32250Y-22851D01*
X32211Y-22757D01*
X32211Y-21490D01*
X32200Y-21273D01*
X32138Y-21124D01*
X32043Y-21097D01*
X31973Y-21168D01*
X31973Y-21026D01*
X31946Y-20932D01*
X31742Y-20859D01*
X31525Y-20870D01*
X31376Y-20932D01*
X31349Y-21026D01*
X31661Y-21338D01*
X31973Y-21026D01*
X31973Y-21168D01*
X31732Y-21409D01*
X32043Y-21721D01*
X32138Y-21694D01*
X32211Y-21490D01*
X32211Y-22757D01*
X32136Y-22575D01*
X31973Y-22412D01*
X31973Y-21791D01*
X31661Y-21480D01*
X31590Y-21550D01*
X31590Y-21409D01*
X31278Y-21097D01*
X31184Y-21124D01*
X31111Y-21328D01*
X31122Y-21545D01*
X31184Y-21694D01*
X31278Y-21721D01*
X31590Y-21409D01*
X31590Y-21550D01*
X31349Y-21791D01*
X31376Y-21886D01*
X31580Y-21959D01*
X31797Y-21948D01*
X31946Y-21886D01*
X31973Y-21791D01*
X31973Y-22412D01*
X31925Y-22364D01*
X31649Y-22250D01*
X31351Y-22249D01*
X31075Y-22363D01*
X30864Y-22574D01*
X30750Y-22850D01*
X30749Y-23148D01*
X30863Y-23424D01*
X31074Y-23635D01*
X31350Y-23749D01*
X31648Y-23750D01*
X31924Y-23636D01*
X32135Y-23425D01*
X32249Y-23149D01*
X32250Y-22851D01*
X32250Y-27449D01*
X32250Y-27449D01*
X32250Y-25450D01*
X32250Y-24450D01*
X32212Y-24358D01*
X32141Y-24288D01*
X32049Y-24250D01*
X31950Y-24249D01*
X30950Y-24249D01*
X30858Y-24287D01*
X30788Y-24358D01*
X30750Y-24450D01*
X30749Y-24549D01*
X30749Y-25549D01*
X30787Y-25641D01*
X30858Y-25711D01*
X30950Y-25749D01*
X31049Y-25750D01*
X31200Y-25750D01*
X31200Y-26138D01*
X31199Y-26139D01*
X31116Y-26339D01*
X31116Y-26556D01*
X31198Y-26757D01*
X31352Y-26910D01*
X31552Y-26993D01*
X31769Y-26994D01*
X31969Y-26911D01*
X32123Y-26758D01*
X32206Y-26557D01*
X32206Y-26340D01*
X32123Y-26140D01*
X31970Y-25986D01*
X31800Y-25915D01*
X31800Y-25750D01*
X32049Y-25750D01*
X32141Y-25712D01*
X32211Y-25641D01*
X32249Y-25549D01*
X32250Y-25450D01*
X32250Y-27449D01*
X32112Y-27450D01*
X32050Y-27512D01*
X32050Y-27950D01*
X32487Y-27950D01*
X32550Y-27887D01*
X32550Y-27749D01*
X32550Y-28250D01*
X32550Y-28112D01*
X32487Y-28050D01*
X32050Y-28050D01*
X32050Y-28487D01*
X32112Y-28550D01*
X32349Y-28550D01*
X32441Y-28512D01*
X32511Y-28441D01*
X32549Y-28349D01*
X32550Y-28250D01*
X32550Y-28700D01*
X31950Y-28700D01*
X31950Y-28487D01*
X31950Y-28050D01*
X31942Y-28050D01*
X31942Y-27950D01*
X31950Y-27950D01*
X31950Y-27512D01*
X31887Y-27450D01*
X31650Y-27449D01*
X31558Y-27487D01*
X31488Y-27558D01*
X31450Y-27650D01*
X31450Y-27672D01*
X31311Y-27534D01*
X31109Y-27450D01*
X30891Y-27449D01*
X30688Y-27533D01*
X30534Y-27688D01*
X30486Y-27802D01*
X30445Y-27703D01*
X30297Y-27555D01*
X30104Y-27475D01*
X29896Y-27474D01*
X29703Y-27554D01*
X29629Y-27627D01*
X29629Y-12975D01*
X29618Y-12767D01*
X29560Y-12627D01*
X29467Y-12602D01*
X29397Y-12673D01*
X29397Y-12532D01*
X29372Y-12439D01*
X29175Y-12370D01*
X28967Y-12381D01*
X28827Y-12439D01*
X28802Y-12532D01*
X29100Y-12829D01*
X29397Y-12532D01*
X29397Y-12673D01*
X29170Y-12900D01*
X29467Y-13197D01*
X29560Y-13172D01*
X29629Y-12975D01*
X29629Y-27627D01*
X29555Y-27702D01*
X29499Y-27835D01*
X29445Y-27703D01*
X29397Y-27654D01*
X29397Y-13267D01*
X29100Y-12970D01*
X29029Y-13041D01*
X29029Y-12900D01*
X28732Y-12602D01*
X28639Y-12627D01*
X28625Y-12668D01*
X28625Y-12575D01*
X28587Y-12483D01*
X28516Y-12413D01*
X28424Y-12375D01*
X28325Y-12374D01*
X27775Y-12374D01*
X27683Y-12412D01*
X27613Y-12483D01*
X27575Y-12575D01*
X27574Y-12674D01*
X27574Y-13224D01*
X27612Y-13316D01*
X27683Y-13386D01*
X27775Y-13424D01*
X27874Y-13425D01*
X28424Y-13425D01*
X28516Y-13387D01*
X28586Y-13316D01*
X28624Y-13224D01*
X28625Y-13137D01*
X28639Y-13172D01*
X28732Y-13197D01*
X29029Y-12900D01*
X29029Y-13041D01*
X28802Y-13267D01*
X28827Y-13360D01*
X29024Y-13429D01*
X29232Y-13418D01*
X29372Y-13360D01*
X29397Y-13267D01*
X29397Y-27654D01*
X29297Y-27555D01*
X29104Y-27475D01*
X28896Y-27474D01*
X28703Y-27554D01*
X28555Y-27702D01*
X28475Y-27895D01*
X28474Y-28103D01*
X28554Y-28297D01*
X28702Y-28444D01*
X28895Y-28524D01*
X29103Y-28525D01*
X29297Y-28445D01*
X29444Y-28297D01*
X29500Y-28164D01*
X29554Y-28297D01*
X29702Y-28444D01*
X29895Y-28524D01*
X30103Y-28525D01*
X30297Y-28445D01*
X30444Y-28297D01*
X30486Y-28197D01*
X30533Y-28311D01*
X30688Y-28465D01*
X30890Y-28549D01*
X31108Y-28550D01*
X31311Y-28466D01*
X31450Y-28327D01*
X31450Y-28349D01*
X31488Y-28441D01*
X31558Y-28512D01*
X31650Y-28550D01*
X31887Y-28550D01*
X31950Y-28487D01*
X31950Y-28700D01*
X27408Y-28700D01*
X27408Y-21490D01*
X27408Y-14990D01*
X27397Y-14773D01*
X27335Y-14624D01*
X27240Y-14597D01*
X27170Y-14668D01*
X27170Y-14526D01*
X27143Y-14432D01*
X26938Y-14359D01*
X26722Y-14370D01*
X26573Y-14432D01*
X26546Y-14526D01*
X26858Y-14838D01*
X27170Y-14526D01*
X27170Y-14668D01*
X26928Y-14909D01*
X27240Y-15221D01*
X27335Y-15194D01*
X27408Y-14990D01*
X27408Y-21490D01*
X27403Y-21397D01*
X27403Y-19840D01*
X27320Y-19640D01*
X27170Y-19489D01*
X27170Y-15291D01*
X26858Y-14980D01*
X26787Y-15050D01*
X26787Y-14909D01*
X26475Y-14597D01*
X26380Y-14624D01*
X26308Y-14828D01*
X26319Y-15045D01*
X26380Y-15194D01*
X26475Y-15221D01*
X26787Y-14909D01*
X26787Y-15050D01*
X26546Y-15291D01*
X26573Y-15386D01*
X26777Y-15459D01*
X26994Y-15448D01*
X27143Y-15386D01*
X27170Y-15291D01*
X27170Y-19489D01*
X27167Y-19486D01*
X26967Y-19403D01*
X26750Y-19403D01*
X26549Y-19486D01*
X26502Y-19533D01*
X26502Y-17529D01*
X26491Y-17312D01*
X26430Y-17163D01*
X26335Y-17137D01*
X26264Y-17207D01*
X26264Y-17066D01*
X26237Y-16971D01*
X26033Y-16898D01*
X25816Y-16909D01*
X25667Y-16971D01*
X25640Y-17066D01*
X25952Y-17378D01*
X26264Y-17066D01*
X26264Y-17207D01*
X26023Y-17448D01*
X26335Y-17760D01*
X26430Y-17733D01*
X26502Y-17529D01*
X26502Y-19533D01*
X26396Y-19639D01*
X26313Y-19839D01*
X26312Y-20056D01*
X26395Y-20257D01*
X26548Y-20410D01*
X26749Y-20493D01*
X26966Y-20494D01*
X27166Y-20411D01*
X27320Y-20258D01*
X27403Y-20057D01*
X27403Y-19840D01*
X27403Y-21397D01*
X27397Y-21273D01*
X27335Y-21124D01*
X27240Y-21097D01*
X27170Y-21168D01*
X27170Y-21026D01*
X27143Y-20932D01*
X26938Y-20859D01*
X26722Y-20870D01*
X26573Y-20932D01*
X26546Y-21026D01*
X26858Y-21338D01*
X27170Y-21026D01*
X27170Y-21168D01*
X26928Y-21409D01*
X27240Y-21721D01*
X27335Y-21694D01*
X27408Y-21490D01*
X27408Y-28700D01*
X27403Y-28700D01*
X27403Y-26340D01*
X27320Y-26140D01*
X27170Y-25989D01*
X27170Y-21791D01*
X26858Y-21480D01*
X26787Y-21550D01*
X26787Y-21409D01*
X26475Y-21097D01*
X26380Y-21124D01*
X26308Y-21328D01*
X26319Y-21545D01*
X26380Y-21694D01*
X26475Y-21721D01*
X26787Y-21409D01*
X26787Y-21550D01*
X26546Y-21791D01*
X26573Y-21886D01*
X26777Y-21959D01*
X26994Y-21948D01*
X27143Y-21886D01*
X27170Y-21791D01*
X27170Y-25989D01*
X27167Y-25986D01*
X26967Y-25903D01*
X26750Y-25903D01*
X26549Y-25986D01*
X26502Y-26033D01*
X26502Y-24029D01*
X26491Y-23812D01*
X26430Y-23663D01*
X26335Y-23637D01*
X26264Y-23707D01*
X26264Y-23566D01*
X26264Y-17831D01*
X25952Y-17519D01*
X25882Y-17590D01*
X25882Y-17448D01*
X25570Y-17137D01*
X25475Y-17163D01*
X25450Y-17235D01*
X25450Y-13437D01*
X25450Y-12950D01*
X25442Y-12950D01*
X25442Y-12850D01*
X25450Y-12850D01*
X25450Y-12362D01*
X25387Y-12300D01*
X25199Y-12299D01*
X25100Y-12300D01*
X25008Y-12338D01*
X24937Y-12408D01*
X24914Y-12465D01*
X24840Y-12391D01*
X24619Y-12300D01*
X24381Y-12299D01*
X24160Y-12391D01*
X23991Y-12559D01*
X23900Y-12780D01*
X23899Y-13018D01*
X23991Y-13239D01*
X24159Y-13408D01*
X24380Y-13499D01*
X24618Y-13500D01*
X24839Y-13408D01*
X24914Y-13334D01*
X24937Y-13391D01*
X25008Y-13461D01*
X25100Y-13499D01*
X25199Y-13500D01*
X25387Y-13500D01*
X25450Y-13437D01*
X25450Y-17235D01*
X25402Y-17368D01*
X25413Y-17584D01*
X25475Y-17733D01*
X25570Y-17760D01*
X25882Y-17448D01*
X25882Y-17590D01*
X25640Y-17831D01*
X25667Y-17926D01*
X25872Y-17998D01*
X26088Y-17987D01*
X26237Y-17926D01*
X26264Y-17831D01*
X26264Y-23566D01*
X26237Y-23471D01*
X26033Y-23398D01*
X25816Y-23409D01*
X25667Y-23471D01*
X25640Y-23566D01*
X25952Y-23878D01*
X26264Y-23566D01*
X26264Y-23707D01*
X26023Y-23948D01*
X26335Y-24260D01*
X26430Y-24233D01*
X26502Y-24029D01*
X26502Y-26033D01*
X26396Y-26139D01*
X26313Y-26339D01*
X26312Y-26556D01*
X26395Y-26757D01*
X26548Y-26910D01*
X26749Y-26993D01*
X26966Y-26994D01*
X27166Y-26911D01*
X27320Y-26758D01*
X27403Y-26557D01*
X27403Y-26340D01*
X27403Y-28700D01*
X26264Y-28700D01*
X26264Y-24331D01*
X25952Y-24019D01*
X25882Y-24090D01*
X25882Y-23948D01*
X25570Y-23637D01*
X25475Y-23663D01*
X25402Y-23868D01*
X25413Y-24084D01*
X25475Y-24233D01*
X25570Y-24260D01*
X25882Y-23948D01*
X25882Y-24090D01*
X25640Y-24331D01*
X25667Y-24426D01*
X25872Y-24498D01*
X26088Y-24487D01*
X26237Y-24426D01*
X26264Y-24331D01*
X26264Y-28700D01*
X25045Y-28700D01*
X25045Y-22292D01*
X24962Y-22091D01*
X24809Y-21938D01*
X24608Y-21854D01*
X24392Y-21854D01*
X24191Y-21937D01*
X24038Y-22090D01*
X24000Y-22182D01*
X23962Y-22091D01*
X23809Y-21938D01*
X23608Y-21854D01*
X23392Y-21854D01*
X23191Y-21937D01*
X23038Y-22090D01*
X23000Y-22182D01*
X22962Y-22091D01*
X22809Y-21938D01*
X22608Y-21854D01*
X22392Y-21854D01*
X22191Y-21937D01*
X22038Y-22090D01*
X22000Y-22182D01*
X21962Y-22091D01*
X21809Y-21938D01*
X21608Y-21854D01*
X21392Y-21854D01*
X21191Y-21937D01*
X21038Y-22090D01*
X21000Y-22182D01*
X20962Y-22091D01*
X20809Y-21938D01*
X20608Y-21854D01*
X20392Y-21854D01*
X20191Y-21937D01*
X20038Y-22090D01*
X20000Y-22182D01*
X19962Y-22091D01*
X19809Y-21938D01*
X19608Y-21854D01*
X19392Y-21854D01*
X19191Y-21937D01*
X19038Y-22090D01*
X19000Y-22182D01*
X18962Y-22091D01*
X18809Y-21938D01*
X18608Y-21854D01*
X18392Y-21854D01*
X18191Y-21937D01*
X18038Y-22090D01*
X18000Y-22182D01*
X17962Y-22091D01*
X17809Y-21938D01*
X17608Y-21854D01*
X17392Y-21854D01*
X17191Y-21937D01*
X17038Y-22090D01*
X16954Y-22291D01*
X16954Y-22507D01*
X17037Y-22708D01*
X17190Y-22861D01*
X17391Y-22945D01*
X17607Y-22945D01*
X17808Y-22862D01*
X17961Y-22709D01*
X17999Y-22617D01*
X18037Y-22708D01*
X18190Y-22861D01*
X18391Y-22945D01*
X18607Y-22945D01*
X18808Y-22862D01*
X18961Y-22709D01*
X18999Y-22617D01*
X19037Y-22708D01*
X19190Y-22861D01*
X19391Y-22945D01*
X19607Y-22945D01*
X19808Y-22862D01*
X19961Y-22709D01*
X19999Y-22617D01*
X20037Y-22708D01*
X20190Y-22861D01*
X20391Y-22945D01*
X20607Y-22945D01*
X20808Y-22862D01*
X20961Y-22709D01*
X20999Y-22617D01*
X21037Y-22708D01*
X21190Y-22861D01*
X21391Y-22945D01*
X21607Y-22945D01*
X21808Y-22862D01*
X21961Y-22709D01*
X21999Y-22617D01*
X22037Y-22708D01*
X22190Y-22861D01*
X22391Y-22945D01*
X22607Y-22945D01*
X22808Y-22862D01*
X22961Y-22709D01*
X22999Y-22617D01*
X23037Y-22708D01*
X23190Y-22861D01*
X23391Y-22945D01*
X23607Y-22945D01*
X23808Y-22862D01*
X23961Y-22709D01*
X23999Y-22617D01*
X24037Y-22708D01*
X24190Y-22861D01*
X24391Y-22945D01*
X24607Y-22945D01*
X24808Y-22862D01*
X24961Y-22709D01*
X25045Y-22508D01*
X25045Y-22292D01*
X25045Y-28700D01*
X24445Y-28700D01*
X24445Y-26492D01*
X24445Y-23492D01*
X24362Y-23291D01*
X24209Y-23138D01*
X24008Y-23054D01*
X23792Y-23054D01*
X23591Y-23137D01*
X23438Y-23290D01*
X23400Y-23382D01*
X23362Y-23291D01*
X23209Y-23138D01*
X23008Y-23054D01*
X22792Y-23054D01*
X22591Y-23137D01*
X22438Y-23290D01*
X22400Y-23382D01*
X22362Y-23291D01*
X22209Y-23138D01*
X22008Y-23054D01*
X21792Y-23054D01*
X21591Y-23137D01*
X21438Y-23290D01*
X21400Y-23382D01*
X21362Y-23291D01*
X21209Y-23138D01*
X21008Y-23054D01*
X20792Y-23054D01*
X20591Y-23137D01*
X20438Y-23290D01*
X20354Y-23491D01*
X20354Y-23707D01*
X20437Y-23908D01*
X20590Y-24061D01*
X20791Y-24145D01*
X21007Y-24145D01*
X21208Y-24062D01*
X21361Y-23909D01*
X21399Y-23817D01*
X21437Y-23908D01*
X21590Y-24061D01*
X21791Y-24145D01*
X22007Y-24145D01*
X22208Y-24062D01*
X22361Y-23909D01*
X22399Y-23817D01*
X22437Y-23908D01*
X22590Y-24061D01*
X22791Y-24145D01*
X23007Y-24145D01*
X23208Y-24062D01*
X23361Y-23909D01*
X23399Y-23817D01*
X23437Y-23908D01*
X23590Y-24061D01*
X23791Y-24145D01*
X24007Y-24145D01*
X24208Y-24062D01*
X24361Y-23909D01*
X24445Y-23708D01*
X24445Y-23492D01*
X24445Y-26492D01*
X24362Y-26291D01*
X24209Y-26138D01*
X24008Y-26054D01*
X23792Y-26054D01*
X23591Y-26137D01*
X23438Y-26290D01*
X23400Y-26382D01*
X23362Y-26291D01*
X23209Y-26138D01*
X23008Y-26054D01*
X22792Y-26054D01*
X22591Y-26137D01*
X22438Y-26290D01*
X22354Y-26491D01*
X22354Y-26707D01*
X22437Y-26908D01*
X22590Y-27061D01*
X22791Y-27145D01*
X23007Y-27145D01*
X23208Y-27062D01*
X23361Y-26909D01*
X23399Y-26817D01*
X23437Y-26908D01*
X23590Y-27061D01*
X23791Y-27145D01*
X24007Y-27145D01*
X24208Y-27062D01*
X24361Y-26909D01*
X24445Y-26708D01*
X24445Y-26492D01*
X24445Y-28700D01*
X20445Y-28700D01*
X20445Y-26492D01*
X20362Y-26291D01*
X20209Y-26138D01*
X20008Y-26054D01*
X19792Y-26054D01*
X19591Y-26137D01*
X19445Y-26283D01*
X19445Y-23492D01*
X19362Y-23291D01*
X19209Y-23138D01*
X19008Y-23054D01*
X18792Y-23054D01*
X18591Y-23137D01*
X18438Y-23290D01*
X18400Y-23382D01*
X18362Y-23291D01*
X18209Y-23138D01*
X18008Y-23054D01*
X17792Y-23054D01*
X17591Y-23137D01*
X17438Y-23290D01*
X17354Y-23491D01*
X17354Y-23707D01*
X17437Y-23908D01*
X17590Y-24061D01*
X17791Y-24145D01*
X18007Y-24145D01*
X18208Y-24062D01*
X18361Y-23909D01*
X18399Y-23817D01*
X18437Y-23908D01*
X18590Y-24061D01*
X18791Y-24145D01*
X19007Y-24145D01*
X19208Y-24062D01*
X19361Y-23909D01*
X19445Y-23708D01*
X19445Y-23492D01*
X19445Y-26283D01*
X19438Y-26290D01*
X19400Y-26382D01*
X19362Y-26291D01*
X19209Y-26138D01*
X19008Y-26054D01*
X18792Y-26054D01*
X18591Y-26137D01*
X18438Y-26290D01*
X18400Y-26382D01*
X18362Y-26291D01*
X18209Y-26138D01*
X18008Y-26054D01*
X17792Y-26054D01*
X17591Y-26137D01*
X17438Y-26290D01*
X17354Y-26491D01*
X17354Y-26707D01*
X17437Y-26908D01*
X17590Y-27061D01*
X17791Y-27145D01*
X18007Y-27145D01*
X18208Y-27062D01*
X18361Y-26909D01*
X18399Y-26817D01*
X18437Y-26908D01*
X18590Y-27061D01*
X18791Y-27145D01*
X19007Y-27145D01*
X19208Y-27062D01*
X19361Y-26909D01*
X19399Y-26817D01*
X19437Y-26908D01*
X19590Y-27061D01*
X19791Y-27145D01*
X20007Y-27145D01*
X20208Y-27062D01*
X20361Y-26909D01*
X20445Y-26708D01*
X20445Y-26492D01*
X20445Y-28700D01*
X15050Y-28700D01*
X15050Y-11050D01*
X16025Y-11050D01*
X15537Y-11537D01*
X15472Y-11635D01*
X15450Y-11750D01*
X15450Y-13500D01*
X15472Y-13614D01*
X15537Y-13712D01*
X15941Y-14115D01*
X15941Y-15595D01*
X15876Y-15595D01*
X15785Y-15633D01*
X15714Y-15703D01*
X15676Y-15795D01*
X15676Y-15895D01*
X15676Y-16340D01*
X15387Y-16628D01*
X15322Y-16726D01*
X15300Y-16841D01*
X15300Y-18800D01*
X15322Y-18914D01*
X15387Y-19012D01*
X17087Y-20712D01*
X17185Y-20777D01*
X17300Y-20800D01*
X17800Y-20800D01*
X23800Y-20800D01*
X23800Y-20799D01*
X23914Y-20777D01*
X23914Y-20777D01*
X24012Y-20712D01*
X24382Y-20341D01*
X24391Y-20345D01*
X24607Y-20345D01*
X24808Y-20262D01*
X24961Y-20109D01*
X25045Y-19908D01*
X25045Y-19692D01*
X24962Y-19491D01*
X24809Y-19338D01*
X24608Y-19254D01*
X24392Y-19254D01*
X24191Y-19337D01*
X24038Y-19490D01*
X24000Y-19582D01*
X23962Y-19491D01*
X23809Y-19338D01*
X23608Y-19254D01*
X23392Y-19254D01*
X23191Y-19337D01*
X23038Y-19490D01*
X23000Y-19582D01*
X22962Y-19491D01*
X22809Y-19338D01*
X22608Y-19254D01*
X22392Y-19254D01*
X22191Y-19337D01*
X22038Y-19490D01*
X22000Y-19582D01*
X21962Y-19491D01*
X21809Y-19338D01*
X21608Y-19254D01*
X21392Y-19254D01*
X21191Y-19337D01*
X21038Y-19490D01*
X21000Y-19582D01*
X20962Y-19491D01*
X20809Y-19338D01*
X20608Y-19254D01*
X20392Y-19254D01*
X20191Y-19337D01*
X20038Y-19490D01*
X20000Y-19582D01*
X19962Y-19491D01*
X19947Y-19476D01*
X20212Y-19212D01*
X20212Y-19212D01*
X20277Y-19114D01*
X20297Y-19011D01*
X20390Y-19049D01*
X20608Y-19050D01*
X20811Y-18966D01*
X20965Y-18811D01*
X20999Y-18730D01*
X21033Y-18811D01*
X21188Y-18965D01*
X21390Y-19049D01*
X21608Y-19050D01*
X21811Y-18966D01*
X21965Y-18811D01*
X21999Y-18730D01*
X22033Y-18811D01*
X22188Y-18965D01*
X22390Y-19049D01*
X22608Y-19050D01*
X22811Y-18966D01*
X22965Y-18811D01*
X22999Y-18730D01*
X23033Y-18811D01*
X23188Y-18965D01*
X23390Y-19049D01*
X23608Y-19050D01*
X23811Y-18966D01*
X23965Y-18811D01*
X24049Y-18609D01*
X24050Y-18391D01*
X23966Y-18188D01*
X23811Y-18034D01*
X23730Y-18000D01*
X23811Y-17966D01*
X23965Y-17811D01*
X24049Y-17609D01*
X24050Y-17391D01*
X23966Y-17188D01*
X23811Y-17034D01*
X23609Y-16950D01*
X23391Y-16949D01*
X23188Y-17033D01*
X23034Y-17188D01*
X23002Y-17263D01*
X22981Y-17212D01*
X22885Y-17184D01*
X22570Y-17500D01*
X22885Y-17815D01*
X22981Y-17787D01*
X23000Y-17732D01*
X23033Y-17811D01*
X23188Y-17965D01*
X23269Y-17999D01*
X23188Y-18033D01*
X23034Y-18188D01*
X23000Y-18269D01*
X22966Y-18188D01*
X22811Y-18034D01*
X22736Y-18002D01*
X22787Y-17981D01*
X22815Y-17885D01*
X22500Y-17570D01*
X22184Y-17885D01*
X22212Y-17981D01*
X22267Y-18000D01*
X22188Y-18033D01*
X22034Y-18188D01*
X22000Y-18269D01*
X21966Y-18188D01*
X21811Y-18034D01*
X21730Y-18000D01*
X21811Y-17966D01*
X21965Y-17811D01*
X21997Y-17736D01*
X22018Y-17787D01*
X22114Y-17815D01*
X22429Y-17500D01*
X22423Y-17494D01*
X22494Y-17423D01*
X22500Y-17429D01*
X22815Y-17114D01*
X22787Y-17018D01*
X22581Y-16945D01*
X22368Y-16955D01*
X22612Y-16712D01*
X22612Y-16712D01*
X22677Y-16614D01*
X22699Y-16500D01*
X22700Y-16500D01*
X22700Y-16400D01*
X22849Y-16400D01*
X22941Y-16362D01*
X23011Y-16291D01*
X23049Y-16199D01*
X23050Y-16100D01*
X23050Y-15500D01*
X23050Y-14899D01*
X23050Y-14200D01*
X23012Y-14108D01*
X22941Y-14038D01*
X22849Y-14000D01*
X22829Y-14000D01*
X22829Y-13475D01*
X22825Y-13386D01*
X22825Y-12625D01*
X22825Y-12075D01*
X22787Y-11983D01*
X22716Y-11913D01*
X22624Y-11875D01*
X22525Y-11874D01*
X21975Y-11874D01*
X21883Y-11912D01*
X21813Y-11983D01*
X21775Y-12075D01*
X21774Y-12174D01*
X21774Y-12724D01*
X21812Y-12816D01*
X21883Y-12886D01*
X21975Y-12924D01*
X22062Y-12925D01*
X22027Y-12939D01*
X22002Y-13032D01*
X22300Y-13329D01*
X22597Y-13032D01*
X22572Y-12939D01*
X22531Y-12925D01*
X22624Y-12925D01*
X22716Y-12887D01*
X22786Y-12816D01*
X22824Y-12724D01*
X22825Y-12625D01*
X22825Y-13386D01*
X22818Y-13267D01*
X22760Y-13127D01*
X22667Y-13102D01*
X22370Y-13400D01*
X22667Y-13697D01*
X22760Y-13672D01*
X22829Y-13475D01*
X22829Y-14000D01*
X22750Y-13999D01*
X22597Y-13999D01*
X22597Y-13767D01*
X22300Y-13470D01*
X22229Y-13541D01*
X22229Y-13400D01*
X21932Y-13102D01*
X21839Y-13127D01*
X21770Y-13324D01*
X21781Y-13532D01*
X21839Y-13672D01*
X21932Y-13697D01*
X22229Y-13400D01*
X22229Y-13541D01*
X22002Y-13767D01*
X22027Y-13860D01*
X22224Y-13929D01*
X22432Y-13918D01*
X22572Y-13860D01*
X22597Y-13767D01*
X22597Y-13999D01*
X22512Y-14000D01*
X22450Y-14062D01*
X22450Y-14500D01*
X22987Y-14500D01*
X23050Y-14437D01*
X23050Y-14200D01*
X23050Y-14899D01*
X23050Y-14662D01*
X22987Y-14600D01*
X22450Y-14600D01*
X22450Y-15037D01*
X22512Y-15100D01*
X22750Y-15100D01*
X22849Y-15099D01*
X22941Y-15061D01*
X23012Y-14991D01*
X23050Y-14899D01*
X23050Y-15500D01*
X23012Y-15408D01*
X22941Y-15338D01*
X22849Y-15300D01*
X22750Y-15299D01*
X22350Y-15299D01*
X22350Y-15037D01*
X22350Y-14600D01*
X22350Y-14500D01*
X22350Y-14062D01*
X22287Y-14000D01*
X22049Y-13999D01*
X21950Y-14000D01*
X21858Y-14038D01*
X21800Y-14096D01*
X21741Y-14038D01*
X21649Y-14000D01*
X21550Y-13999D01*
X21312Y-14000D01*
X21250Y-14062D01*
X21250Y-14500D01*
X21787Y-14500D01*
X21800Y-14487D01*
X21812Y-14500D01*
X22350Y-14500D01*
X22350Y-14600D01*
X21812Y-14600D01*
X21800Y-14612D01*
X21787Y-14600D01*
X21250Y-14600D01*
X21250Y-15037D01*
X21312Y-15100D01*
X21550Y-15100D01*
X21649Y-15099D01*
X21741Y-15061D01*
X21800Y-15003D01*
X21858Y-15061D01*
X21950Y-15099D01*
X22049Y-15100D01*
X22287Y-15100D01*
X22350Y-15037D01*
X22350Y-15299D01*
X21950Y-15299D01*
X21858Y-15337D01*
X21799Y-15396D01*
X21741Y-15338D01*
X21649Y-15300D01*
X21550Y-15299D01*
X21150Y-15299D01*
X21150Y-15037D01*
X21150Y-14600D01*
X21150Y-14500D01*
X21150Y-14062D01*
X21087Y-14000D01*
X20849Y-13999D01*
X20750Y-14000D01*
X20658Y-14038D01*
X20600Y-14096D01*
X20541Y-14038D01*
X20449Y-14000D01*
X20350Y-13999D01*
X20112Y-14000D01*
X20050Y-14062D01*
X20050Y-14500D01*
X20587Y-14500D01*
X20600Y-14487D01*
X20612Y-14500D01*
X21150Y-14500D01*
X21150Y-14600D01*
X20612Y-14600D01*
X20600Y-14612D01*
X20587Y-14600D01*
X20050Y-14600D01*
X20050Y-15037D01*
X20112Y-15100D01*
X20350Y-15100D01*
X20449Y-15099D01*
X20541Y-15061D01*
X20600Y-15003D01*
X20658Y-15061D01*
X20750Y-15099D01*
X20849Y-15100D01*
X21087Y-15100D01*
X21150Y-15037D01*
X21150Y-15299D01*
X20750Y-15299D01*
X20658Y-15337D01*
X20599Y-15396D01*
X20541Y-15338D01*
X20449Y-15300D01*
X20350Y-15299D01*
X19950Y-15299D01*
X19950Y-15037D01*
X19950Y-14600D01*
X19950Y-14500D01*
X19950Y-14062D01*
X19887Y-14000D01*
X19649Y-13999D01*
X19550Y-14000D01*
X19458Y-14038D01*
X19387Y-14108D01*
X19349Y-14200D01*
X19350Y-14437D01*
X19412Y-14500D01*
X19950Y-14500D01*
X19950Y-14600D01*
X19412Y-14600D01*
X19350Y-14662D01*
X19349Y-14899D01*
X19387Y-14991D01*
X19458Y-15061D01*
X19550Y-15099D01*
X19649Y-15100D01*
X19887Y-15100D01*
X19950Y-15037D01*
X19950Y-15299D01*
X19550Y-15299D01*
X19458Y-15337D01*
X19388Y-15408D01*
X19350Y-15500D01*
X19350Y-15550D01*
X19195Y-15550D01*
X18750Y-15550D01*
X18712Y-15557D01*
X18781Y-15451D01*
X18000Y-14670D01*
X17929Y-14741D01*
X17218Y-15451D01*
X17312Y-15595D01*
X16994Y-15595D01*
X16903Y-15633D01*
X16832Y-15703D01*
X16799Y-15782D01*
X16767Y-15704D01*
X16697Y-15633D01*
X16605Y-15595D01*
X16541Y-15595D01*
X16541Y-13991D01*
X16518Y-13876D01*
X16453Y-13778D01*
X16453Y-13778D01*
X16050Y-13375D01*
X16050Y-13188D01*
X16085Y-13275D01*
X16248Y-13381D01*
X17029Y-12600D01*
X16248Y-11818D01*
X16085Y-11924D01*
X16050Y-12011D01*
X16050Y-11874D01*
X16374Y-11550D01*
X16511Y-11550D01*
X16424Y-11585D01*
X16318Y-11748D01*
X17100Y-12529D01*
X17881Y-11748D01*
X17775Y-11585D01*
X17688Y-11550D01*
X18327Y-11550D01*
X18305Y-11605D01*
X18304Y-11704D01*
X18304Y-13433D01*
X18295Y-13429D01*
X18235Y-13404D01*
X17975Y-13405D01*
X17951Y-13381D01*
X18114Y-13275D01*
X18295Y-12835D01*
X18294Y-12360D01*
X18114Y-11924D01*
X17951Y-11818D01*
X17170Y-12600D01*
X17176Y-12605D01*
X17105Y-12676D01*
X17100Y-12670D01*
X16318Y-13451D01*
X16424Y-13614D01*
X16864Y-13795D01*
X17124Y-13794D01*
X17148Y-13818D01*
X16985Y-13924D01*
X16804Y-14364D01*
X16805Y-14839D01*
X16985Y-15275D01*
X17148Y-15381D01*
X17929Y-14600D01*
X17923Y-14594D01*
X17994Y-14523D01*
X18000Y-14529D01*
X18005Y-14523D01*
X18076Y-14594D01*
X18070Y-14600D01*
X18851Y-15381D01*
X19014Y-15275D01*
X19195Y-14835D01*
X19194Y-14360D01*
X19014Y-13924D01*
X18851Y-13818D01*
X18875Y-13795D01*
X20494Y-13795D01*
X20586Y-13757D01*
X20656Y-13686D01*
X20694Y-13594D01*
X20695Y-13495D01*
X20695Y-11605D01*
X20672Y-11550D01*
X21500Y-11550D01*
X24000Y-11550D01*
X25625Y-11550D01*
X26200Y-12124D01*
X26200Y-12374D01*
X26160Y-12391D01*
X26085Y-12465D01*
X26062Y-12408D01*
X25991Y-12338D01*
X25899Y-12300D01*
X25800Y-12299D01*
X25612Y-12300D01*
X25550Y-12362D01*
X25550Y-12850D01*
X25557Y-12850D01*
X25557Y-12950D01*
X25550Y-12950D01*
X25550Y-13437D01*
X25612Y-13500D01*
X25800Y-13500D01*
X25899Y-13499D01*
X25991Y-13461D01*
X26062Y-13391D01*
X26085Y-13334D01*
X26159Y-13408D01*
X26380Y-13499D01*
X26618Y-13500D01*
X26839Y-13408D01*
X27008Y-13240D01*
X27099Y-13019D01*
X27100Y-12781D01*
X27008Y-12560D01*
X26840Y-12391D01*
X26800Y-12374D01*
X26800Y-12000D01*
X26799Y-11999D01*
X26777Y-11885D01*
X26712Y-11787D01*
X26712Y-11787D01*
X25974Y-11050D01*
X33200Y-11050D01*
X33200Y-11250D01*
X33200Y-28700D01*
M02*
