G04 (created by PCBNEW (2013-may-18)-stable) date jeu 02 jun 2016 15:51:39 CEST*
%MOIN*%
G04 Gerber Fmt 3.4, Leading zero omitted, Abs format*
%FSLAX34Y34*%
G01*
G70*
G90*
G04 APERTURE LIST*
%ADD10C,0.00590551*%
%ADD11C,0.012*%
G04 APERTURE END LIST*
G54D10*
G54D11*
X30500Y-15250D02*
X30500Y-19250D01*
X30000Y-15250D02*
X33000Y-15250D01*
X33000Y-15250D02*
X33000Y-19250D01*
X33000Y-19250D02*
X30000Y-19250D01*
X30000Y-19250D02*
X30000Y-15250D01*
X30500Y-22000D02*
X30500Y-26000D01*
X30000Y-22000D02*
X33000Y-22000D01*
X33000Y-22000D02*
X33000Y-26000D01*
X33000Y-26000D02*
X30000Y-26000D01*
X30000Y-26000D02*
X30000Y-22000D01*
X33742Y-16807D02*
X33142Y-16807D01*
X33142Y-17035D01*
X33171Y-17092D01*
X33200Y-17121D01*
X33257Y-17150D01*
X33342Y-17150D01*
X33400Y-17121D01*
X33428Y-17092D01*
X33457Y-17035D01*
X33457Y-16807D01*
X33142Y-17350D02*
X33142Y-17721D01*
X33371Y-17521D01*
X33371Y-17607D01*
X33400Y-17664D01*
X33428Y-17692D01*
X33485Y-17721D01*
X33628Y-17721D01*
X33685Y-17692D01*
X33714Y-17664D01*
X33742Y-17607D01*
X33742Y-17435D01*
X33714Y-17378D01*
X33685Y-17350D01*
X29685Y-15978D02*
X29714Y-15950D01*
X29742Y-15864D01*
X29742Y-15807D01*
X29714Y-15721D01*
X29657Y-15664D01*
X29600Y-15635D01*
X29485Y-15607D01*
X29400Y-15607D01*
X29285Y-15635D01*
X29228Y-15664D01*
X29171Y-15721D01*
X29142Y-15807D01*
X29142Y-15864D01*
X29171Y-15950D01*
X29200Y-15978D01*
X29142Y-16350D02*
X29142Y-16464D01*
X29171Y-16521D01*
X29228Y-16578D01*
X29342Y-16607D01*
X29542Y-16607D01*
X29657Y-16578D01*
X29714Y-16521D01*
X29742Y-16464D01*
X29742Y-16350D01*
X29714Y-16292D01*
X29657Y-16235D01*
X29542Y-16207D01*
X29342Y-16207D01*
X29228Y-16235D01*
X29171Y-16292D01*
X29142Y-16350D01*
X29742Y-16864D02*
X29142Y-16864D01*
X29742Y-17207D01*
X29142Y-17207D01*
X29742Y-17492D02*
X29142Y-17492D01*
X29742Y-17835D01*
X29142Y-17835D01*
X29800Y-17978D02*
X29800Y-18435D01*
X29200Y-18550D02*
X29171Y-18578D01*
X29142Y-18635D01*
X29142Y-18778D01*
X29171Y-18835D01*
X29200Y-18864D01*
X29257Y-18892D01*
X29314Y-18892D01*
X29400Y-18864D01*
X29742Y-18521D01*
X29742Y-18892D01*
X33742Y-23557D02*
X33142Y-23557D01*
X33142Y-23785D01*
X33171Y-23842D01*
X33200Y-23871D01*
X33257Y-23900D01*
X33342Y-23900D01*
X33400Y-23871D01*
X33428Y-23842D01*
X33457Y-23785D01*
X33457Y-23557D01*
X33342Y-24414D02*
X33742Y-24414D01*
X33114Y-24271D02*
X33542Y-24128D01*
X33542Y-24500D01*
X29685Y-22728D02*
X29714Y-22700D01*
X29742Y-22614D01*
X29742Y-22557D01*
X29714Y-22471D01*
X29657Y-22414D01*
X29600Y-22385D01*
X29485Y-22357D01*
X29400Y-22357D01*
X29285Y-22385D01*
X29228Y-22414D01*
X29171Y-22471D01*
X29142Y-22557D01*
X29142Y-22614D01*
X29171Y-22700D01*
X29200Y-22728D01*
X29142Y-23100D02*
X29142Y-23214D01*
X29171Y-23271D01*
X29228Y-23328D01*
X29342Y-23357D01*
X29542Y-23357D01*
X29657Y-23328D01*
X29714Y-23271D01*
X29742Y-23214D01*
X29742Y-23100D01*
X29714Y-23042D01*
X29657Y-22985D01*
X29542Y-22957D01*
X29342Y-22957D01*
X29228Y-22985D01*
X29171Y-23042D01*
X29142Y-23100D01*
X29742Y-23614D02*
X29142Y-23614D01*
X29742Y-23957D01*
X29142Y-23957D01*
X29742Y-24242D02*
X29142Y-24242D01*
X29742Y-24585D01*
X29142Y-24585D01*
X29800Y-24728D02*
X29800Y-25185D01*
X29200Y-25300D02*
X29171Y-25328D01*
X29142Y-25385D01*
X29142Y-25528D01*
X29171Y-25585D01*
X29200Y-25614D01*
X29257Y-25642D01*
X29314Y-25642D01*
X29400Y-25614D01*
X29742Y-25271D01*
X29742Y-25642D01*
M02*
