<?xml version="1.0" standalone="no"?>
 <!DOCTYPE svg PUBLIC "-//W3C//DTD SVG 1.1//EN" 
 "http://www.w3.org/Graphics/SVG/1.1/DTD/svg11.dtd"> 
<svg xmlns="http://www.w3.org/2000/svg" version="1.1" 
    width="41.9989cm" height="29.7002cm" viewBox="0 0 165350 116930 ">
<title>SVG Picture created as reFil-F_SilkS.svg date 2016/05/30 17:26:14 </title>
  <desc>Picture generated by PCBNEW </desc>
<g style="fill:#000000; fill-opacity:1;stroke:#000000; stroke-opacity:1;
stroke-linecap:round; stroke-linejoin:round; "
 transform="translate(0 0) scale(1 1)">
</g>
<g style="fill:#000000; fill-opacity:0.0; 
stroke:#000000; stroke-width:39.3701; stroke-opacity:1; 
stroke-linecap:round; stroke-linejoin:round;">
<path d="M4000 4000
L161350 4000
L161350 112930
L4000 112930
L4000 4000
" />
<path d="M4700 4700
L160650 4700
L160650 112230
L4700 112230
L4700 4700
" />
<path d="M26470 4000
L26470 4700
" />
<path d="M15382 4552
L15097 4552
" />
<path d="M15240 4552
L15240 4052
L15192 4123
L15144 4171
L15097 4195
" />
<path d="M26470 112930
L26470 112230
" />
<path d="M15382 112782
L15097 112782
" />
<path d="M15240 112782
L15240 112282
L15192 112353
L15144 112401
L15097 112425
" />
<path d="M48940 4000
L48940 4700
" />
<path d="M37567 4100
L37590 4076
L37638 4052
L37757 4052
L37805 4076
L37829 4100
L37852 4147
L37852 4195
L37829 4266
L37543 4552
L37852 4552
" />
<path d="M48940 112930
L48940 112230
" />
<path d="M37567 112330
L37590 112306
L37638 112282
L37757 112282
L37805 112306
L37829 112330
L37852 112377
L37852 112425
L37829 112496
L37543 112782
L37852 112782
" />
<path d="M71410 4000
L71410 4700
" />
<path d="M60013 4052
L60322 4052
L60156 4242
L60227 4242
L60275 4266
L60299 4290
L60322 4338
L60322 4457
L60299 4504
L60275 4528
L60227 4552
L60084 4552
L60037 4528
L60013 4504
" />
<path d="M71410 112930
L71410 112230
" />
<path d="M60013 112282
L60322 112282
L60156 112472
L60227 112472
L60275 112496
L60299 112520
L60322 112568
L60322 112687
L60299 112734
L60275 112758
L60227 112782
L60084 112782
L60037 112758
L60013 112734
" />
<path d="M93880 4000
L93880 4700
" />
<path d="M82745 4219
L82745 4552
" />
<path d="M82626 4028
L82507 4385
L82816 4385
" />
<path d="M93880 112930
L93880 112230
" />
<path d="M82745 112449
L82745 112782
" />
<path d="M82626 112258
L82507 112615
L82816 112615
" />
<path d="M116350 4000
L116350 4700
" />
<path d="M105239 4052
L105000 4052
L104977 4290
L105000 4266
L105048 4242
L105167 4242
L105215 4266
L105239 4290
L105262 4338
L105262 4457
L105239 4504
L105215 4528
L105167 4552
L105048 4552
L105000 4528
L104977 4504
" />
<path d="M116350 112930
L116350 112230
" />
<path d="M105239 112282
L105000 112282
L104977 112520
L105000 112496
L105048 112472
L105167 112472
L105215 112496
L105239 112520
L105262 112568
L105262 112687
L105239 112734
L105215 112758
L105167 112782
L105048 112782
L105000 112758
L104977 112734
" />
<path d="M138820 4000
L138820 4700
" />
<path d="M127685 4052
L127590 4052
L127542 4076
L127518 4100
L127470 4171
L127447 4266
L127447 4457
L127470 4504
L127494 4528
L127542 4552
L127637 4552
L127685 4528
L127709 4504
L127732 4457
L127732 4338
L127709 4290
L127685 4266
L127637 4242
L127542 4242
L127494 4266
L127470 4290
L127447 4338
" />
<path d="M138820 112930
L138820 112230
" />
<path d="M127685 112282
L127590 112282
L127542 112306
L127518 112330
L127470 112401
L127447 112496
L127447 112687
L127470 112734
L127494 112758
L127542 112782
L127637 112782
L127685 112758
L127709 112734
L127732 112687
L127732 112568
L127709 112520
L127685 112496
L127637 112472
L127542 112472
L127494 112496
L127470 112520
L127447 112568
" />
<path d="M149893 4052
L150226 4052
L150012 4552
" />
<path d="M149893 112282
L150226 112282
L150012 112782
" />
<path d="M4000 25780
L4700 25780
" />
<path d="M4230 14949
L4469 14949
" />
<path d="M4183 15092
L4350 14592
L4516 15092
" />
<path d="M161350 25780
L160650 25780
" />
<path d="M160880 14949
L161119 14949
" />
<path d="M160833 15092
L161000 14592
L161166 15092
" />
<path d="M4000 47560
L4700 47560
" />
<path d="M4385 36610
L4457 36634
L4480 36658
L4504 36705
L4504 36777
L4480 36824
L4457 36848
L4409 36872
L4219 36872
L4219 36372
L4385 36372
L4433 36396
L4457 36420
L4480 36467
L4480 36515
L4457 36562
L4433 36586
L4385 36610
L4219 36610
" />
<path d="M161350 47560
L160650 47560
" />
<path d="M161035 36610
L161107 36634
L161130 36658
L161154 36705
L161154 36777
L161130 36824
L161107 36848
L161059 36872
L160869 36872
L160869 36372
L161035 36372
L161083 36396
L161107 36420
L161130 36467
L161130 36515
L161107 36562
L161083 36586
L161035 36610
L160869 36610
" />
<path d="M4000 69340
L4700 69340
" />
<path d="M4504 58604
L4480 58628
L4409 58652
L4361 58652
L4290 58628
L4242 58580
L4219 58533
L4195 58438
L4195 58366
L4219 58271
L4242 58223
L4290 58176
L4361 58152
L4409 58152
L4480 58176
L4504 58200
" />
<path d="M161350 69340
L160650 69340
" />
<path d="M161154 58604
L161130 58628
L161059 58652
L161011 58652
L160940 58628
L160892 58580
L160869 58533
L160845 58438
L160845 58366
L160869 58271
L160892 58223
L160940 58176
L161011 58152
L161059 58152
L161130 58176
L161154 58200
" />
<path d="M4000 91120
L4700 91120
" />
<path d="M4219 80432
L4219 79932
L4338 79932
L4409 79956
L4457 80003
L4480 80051
L4504 80146
L4504 80218
L4480 80313
L4457 80360
L4409 80408
L4338 80432
L4219 80432
" />
<path d="M161350 91120
L160650 91120
" />
<path d="M160869 80432
L160869 79932
L160988 79932
L161059 79956
L161107 80003
L161130 80051
L161154 80146
L161154 80218
L161130 80313
L161107 80360
L161059 80408
L160988 80432
L160869 80432
" />
<path d="M4242 101950
L4409 101950
" />
<path d="M4480 102212
L4242 102212
L4242 101712
L4480 101712
" />
<path d="M160892 101950
L161059 101950
" />
<path d="M161130 102212
L160892 102212
L160892 101712
L161130 101712
" />
<path d="M127800 110672
L127875 110072
L128017 110072
L128100 110101
L128150 110158
L128171 110215
L128185 110330
L128175 110415
L128132 110530
L128096 110587
L128032 110644
L127942 110672
L127800 110672
" />
<path d="M128657 110672
L128696 110358
L128675 110301
L128621 110272
L128507 110272
L128446 110301
" />
<path d="M128660 110644
L128600 110672
L128457 110672
L128403 110644
L128382 110587
L128389 110530
L128425 110472
L128485 110444
L128628 110444
L128689 110415
" />
<path d="M128907 110272
L129135 110272
" />
<path d="M129017 110072
L128953 110587
L128975 110644
L129028 110672
L129085 110672
" />
<path d="M129517 110644
L129457 110672
L129342 110672
L129289 110644
L129267 110587
L129296 110358
L129332 110301
L129392 110272
L129507 110272
L129560 110301
L129582 110358
L129575 110415
L129282 110472
" />
<path d="M129807 110615
L129832 110644
L129800 110672
L129775 110644
L129807 110615
L129800 110672
" />
<path d="M129846 110301
L129871 110330
L129839 110358
L129814 110330
L129846 110301
L129839 110358
" />
<path d="M130560 110072
L130932 110072
L130703 110301
L130789 110301
L130842 110330
L130867 110358
L130889 110415
L130871 110558
L130835 110615
L130803 110644
L130742 110672
L130571 110672
L130517 110644
L130492 110615
" />
<path d="M131303 110072
L131360 110072
L131414 110101
L131439 110130
L131460 110187
L131475 110301
L131457 110444
L131414 110558
L131378 110615
L131346 110644
L131285 110672
L131228 110672
L131175 110644
L131150 110615
L131128 110558
L131114 110444
L131132 110301
L131175 110187
L131210 110130
L131242 110101
L131303 110072
" />
<path d="M132142 110672
L132192 110272
" />
<path d="M132185 110330
L132217 110301
L132278 110272
L132364 110272
L132417 110301
L132439 110358
L132400 110672
" />
<path d="M132439 110358
L132475 110301
L132535 110272
L132621 110272
L132675 110301
L132696 110358
L132657 110672
" />
<path d="M133200 110672
L133239 110358
L133217 110301
L133164 110272
L133050 110272
L132989 110301
" />
<path d="M133203 110644
L133142 110672
L133000 110672
L132946 110644
L132925 110587
L132932 110530
L132967 110472
L133028 110444
L133171 110444
L133232 110415
" />
<path d="M133478 110272
L133571 110672
" />
<path d="M133764 110272
L133571 110672
L133496 110815
L133464 110844
L133403 110872
" />
<path d="M134439 110130
L134471 110101
L134532 110072
L134675 110072
L134728 110101
L134753 110130
L134775 110187
L134767 110244
L134728 110330
L134342 110672
L134714 110672
" />
<path d="M135160 110072
L135217 110072
L135271 110101
L135296 110130
L135317 110187
L135332 110301
L135314 110444
L135271 110558
L135235 110615
L135203 110644
L135142 110672
L135085 110672
L135032 110644
L135007 110615
L134985 110558
L134971 110444
L134989 110301
L135032 110187
L135067 110130
L135100 110101
L135160 110072
" />
<path d="M135857 110672
L135514 110672
" />
<path d="M135685 110672
L135760 110072
L135692 110158
L135628 110215
L135567 110244
" />
<path d="M136446 110072
L136332 110072
L136271 110101
L136239 110130
L136171 110215
L136128 110330
L136100 110558
L136121 110615
L136146 110644
L136200 110672
L136314 110672
L136375 110644
L136407 110615
L136442 110558
L136460 110415
L136439 110358
L136414 110330
L136360 110301
L136246 110301
L136185 110330
L136153 110358
L136117 110415
" />
<path d="M119392 111872
L119392 111272
" />
<path d="M119735 111872
L119478 111530
" />
<path d="M119735 111272
L119392 111615
" />
<path d="M119992 111872
L119992 111472
" />
<path d="M119992 111272
L119964 111301
L119992 111330
L120021 111301
L119992 111272
L119992 111330
" />
<path d="M120621 111815
L120592 111844
L120507 111872
L120450 111872
L120364 111844
L120307 111787
L120278 111730
L120250 111615
L120250 111530
L120278 111415
L120307 111358
L120364 111301
L120450 111272
L120507 111272
L120592 111301
L120621 111330
" />
<path d="M121135 111872
L121135 111558
L121107 111501
L121050 111472
L120935 111472
L120878 111501
" />
<path d="M121135 111844
L121078 111872
L120935 111872
L120878 111844
L120850 111787
L120850 111730
L120878 111672
L120935 111644
L121078 111644
L121135 111615
" />
<path d="M121678 111872
L121678 111272
" />
<path d="M121678 111844
L121621 111872
L121507 111872
L121450 111844
L121421 111815
L121392 111758
L121392 111587
L121421 111530
L121450 111501
L121507 111472
L121621 111472
L121678 111501
" />
<path d="M122421 111558
L122621 111558
" />
<path d="M122707 111872
L122421 111872
L122421 111272
L122707 111272
" />
<path d="M122964 111815
L122992 111844
L122964 111872
L122935 111844
L122964 111815
L122964 111872
" />
<path d="M123249 111872
L123249 111272
L123392 111272
L123478 111301
L123535 111358
L123564 111415
L123592 111530
L123592 111615
L123564 111730
L123535 111787
L123478 111844
L123392 111872
L123249 111872
" />
<path d="M123849 111815
L123878 111844
L123849 111872
L123821 111844
L123849 111815
L123849 111872
" />
<path d="M124107 111701
L124392 111701
" />
<path d="M124049 111872
L124249 111272
L124449 111872
" />
<path d="M124649 111815
L124678 111844
L124649 111872
L124621 111844
L124649 111815
L124649 111872
" />
<path d="M152942 110672
L152778 110387
" />
<path d="M152600 110672
L152675 110072
L152903 110072
L152957 110101
L152982 110130
L153003 110187
L152992 110272
L152957 110330
L152925 110358
L152864 110387
L152635 110387
" />
<path d="M153432 110644
L153371 110672
L153257 110672
L153203 110644
L153182 110587
L153210 110358
L153246 110301
L153307 110272
L153421 110272
L153475 110301
L153496 110358
L153489 110415
L153196 110472
" />
<path d="M153707 110272
L153800 110672
L153992 110272
" />
<path d="M154178 110615
L154203 110644
L154171 110672
L154146 110644
L154178 110615
L154171 110672
" />
<path d="M154217 110301
L154242 110330
L154210 110358
L154185 110330
L154217 110301
L154210 110358
" />
<path d="M119364 110644
L119450 110672
L119592 110672
L119650 110644
L119678 110615
L119707 110558
L119707 110501
L119678 110444
L119650 110415
L119592 110387
L119478 110358
L119421 110330
L119392 110301
L119364 110244
L119364 110187
L119392 110130
L119421 110101
L119478 110072
L119621 110072
L119707 110101
" />
<path d="M119964 110672
L119964 110272
" />
<path d="M119964 110072
L119935 110101
L119964 110130
L119992 110101
L119964 110072
L119964 110130
" />
<path d="M120192 110272
L120507 110272
L120192 110672
L120507 110672
" />
<path d="M120964 110644
L120907 110672
L120792 110672
L120735 110644
L120707 110587
L120707 110358
L120735 110301
L120792 110272
L120907 110272
L120964 110301
L120992 110358
L120992 110415
L120707 110472
" />
<path d="M121250 110615
L121278 110644
L121250 110672
L121221 110644
L121250 110615
L121250 110672
" />
<path d="M121250 110301
L121278 110330
L121250 110358
L121221 110330
L121250 110301
L121250 110358
" />
<path d="M121964 110501
L122250 110501
" />
<path d="M121907 110672
L122107 110072
L122307 110672
" />
<path d="M122450 110072
L122821 110072
L122621 110301
L122707 110301
L122764 110330
L122792 110358
L122821 110415
L122821 110558
L122792 110615
L122764 110644
L122707 110672
L122535 110672
L122478 110644
L122450 110615
" />
<path d="M152592 111872
L152592 111272
" />
<path d="M153135 111872
L153135 111272
" />
<path d="M153135 111844
L153078 111872
L152964 111872
L152907 111844
L152878 111815
L152850 111758
L152850 111587
L152878 111530
L152907 111501
L152964 111472
L153078 111472
L153135 111501
" />
<path d="M153421 111815
L153450 111844
L153421 111872
L153392 111844
L153421 111815
L153421 111872
" />
<path d="M153421 111501
L153450 111530
L153421 111558
L153392 111530
L153421 111501
L153421 111558
" />
<path d="M154478 111872
L154135 111872
" />
<path d="M154307 111872
L154307 111272
L154249 111358
L154192 111415
L154135 111444
" />
<path d="M155164 111244
L154650 112015
" />
<path d="M155678 111872
L155335 111872
" />
<path d="M155507 111872
L155507 111272
L155449 111358
L155392 111415
L155335 111444
" />
<path d="M119389 108872
L119732 108872
" />
<path d="M119485 109472
L119560 108872
" />
<path d="M119857 109472
L119907 109072
" />
<path d="M119932 108872
L119900 108901
L119925 108930
L119957 108901
L119932 108872
L119925 108930
" />
<path d="M120107 109072
L120335 109072
" />
<path d="M120217 108872
L120153 109387
L120175 109444
L120228 109472
L120285 109472
" />
<path d="M120571 109472
L120517 109444
L120496 109387
L120560 108872
" />
<path d="M121032 109444
L120971 109472
L120857 109472
L120803 109444
L120782 109387
L120810 109158
L120846 109101
L120907 109072
L121021 109072
L121075 109101
L121096 109158
L121089 109215
L120796 109272
" />
<path d="M121321 109415
L121346 109444
L121314 109472
L121289 109444
L121321 109415
L121314 109472
" />
<path d="M121360 109101
L121385 109130
L121353 109158
L121328 109130
L121360 109101
L121353 109158
" />
<path d="M119592 106758
L119392 106758
" />
<path d="M119392 107072
L119392 106472
L119678 106472
" />
<path d="M119907 107072
L119907 106672
" />
<path d="M119907 106472
L119878 106501
L119907 106530
L119935 106501
L119907 106472
L119907 106530
" />
<path d="M120278 107072
L120221 107044
L120192 106987
L120192 106472
" />
<path d="M120735 107044
L120678 107072
L120564 107072
L120507 107044
L120478 106987
L120478 106758
L120507 106701
L120564 106672
L120678 106672
L120735 106701
L120764 106758
L120764 106815
L120478 106872
" />
<path d="M121021 107015
L121050 107044
L121021 107072
L120992 107044
L121021 107015
L121021 107072
" />
<path d="M121021 106701
L121050 106730
L121021 106758
L120992 106730
L121021 106701
L121021 106758
" />
<path d="M121764 107072
L121764 106672
" />
<path d="M121764 106787
L121792 106730
L121821 106701
L121878 106672
L121935 106672
" />
<path d="M122364 107044
L122307 107072
L122192 107072
L122135 107044
L122107 106987
L122107 106758
L122135 106701
L122192 106672
L122307 106672
L122364 106701
L122392 106758
L122392 106815
L122107 106872
" />
<path d="M122850 106758
L122650 106758
" />
<path d="M122650 107072
L122650 106472
L122935 106472
" />
<path d="M123164 107072
L123164 106672
" />
<path d="M123164 106472
L123135 106501
L123164 106530
L123192 106501
L123164 106472
L123164 106530
" />
<path d="M123535 107072
L123478 107044
L123450 106987
L123450 106472
" />
<path d="M123764 107015
L123792 107044
L123764 107072
L123735 107044
L123764 107015
L123764 107072
" />
<path d="M124050 107072
L124050 106472
" />
<path d="M124107 106844
L124278 107072
" />
<path d="M124278 106672
L124050 106901
" />
<path d="M124535 107072
L124535 106672
" />
<path d="M124535 106472
L124507 106501
L124535 106530
L124564 106501
L124535 106472
L124535 106530
" />
<path d="M125078 107044
L125021 107072
L124907 107072
L124850 107044
L124821 107015
L124792 106958
L124792 106787
L124821 106730
L124850 106701
L124907 106672
L125021 106672
L125078 106701
" />
<path d="M125592 107072
L125592 106758
L125564 106701
L125507 106672
L125392 106672
L125335 106701
" />
<path d="M125592 107044
L125535 107072
L125392 107072
L125335 107044
L125307 106987
L125307 106930
L125335 106872
L125392 106844
L125535 106844
L125592 106815
" />
<path d="M126135 107072
L126135 106472
" />
<path d="M126135 107044
L126078 107072
L125964 107072
L125907 107044
L125878 107015
L125850 106958
L125850 106787
L125878 106730
L125907 106701
L125964 106672
L126078 106672
L126135 106701
" />
<path d="M126278 107130
L126735 107130
" />
<path d="M126878 106672
L126878 107272
" />
<path d="M126878 106701
L126935 106672
L127050 106672
L127107 106701
L127135 106730
L127164 106787
L127164 106958
L127135 107015
L127107 107044
L127050 107072
L126935 107072
L126878 107044
" />
<path d="M127678 107044
L127621 107072
L127507 107072
L127450 107044
L127421 107015
L127392 106958
L127392 106787
L127421 106730
L127450 106701
L127507 106672
L127621 106672
L127678 106701
" />
<path d="M127935 107072
L127935 106472
" />
<path d="M127935 106701
L127992 106672
L128107 106672
L128164 106701
L128192 106730
L128221 106787
L128221 106958
L128192 107015
L128164 107044
L128107 107072
L127992 107072
L127935 107044
" />
<path d="M119364 108244
L119450 108272
L119592 108272
L119650 108244
L119678 108215
L119707 108158
L119707 108101
L119678 108044
L119650 108015
L119592 107987
L119478 107958
L119421 107930
L119392 107901
L119364 107844
L119364 107787
L119392 107730
L119421 107701
L119478 107672
L119621 107672
L119707 107701
" />
<path d="M119964 108272
L119964 107672
" />
<path d="M120221 108272
L120221 107958
L120192 107901
L120135 107872
L120050 107872
L119992 107901
L119964 107930
" />
<path d="M120735 108244
L120678 108272
L120564 108272
L120507 108244
L120478 108187
L120478 107958
L120507 107901
L120564 107872
L120678 107872
L120735 107901
L120764 107958
L120764 108015
L120478 108072
" />
<path d="M121250 108244
L121192 108272
L121078 108272
L121021 108244
L120992 108187
L120992 107958
L121021 107901
L121078 107872
L121192 107872
L121250 107901
L121278 107958
L121278 108015
L120992 108072
" />
<path d="M121450 107872
L121678 107872
" />
<path d="M121535 107672
L121535 108187
L121564 108244
L121621 108272
L121678 108272
" />
<path d="M121878 108215
L121907 108244
L121878 108272
L121850 108244
L121878 108215
L121878 108272
" />
<path d="M121878 107901
L121907 107930
L121878 107958
L121850 107930
L121878 107901
L121878 107958
" />
<path d="M118650 106230
L118650 112230
" />
<path d="M118650 106230
L160650 106230
" />
<path d="M118650 106230
L160650 106230
" />
<path d="M118650 108630
L160650 108630
" />
<path d="M151850 109830
L151850 112230
" />
<path d="M118650 111030
L160650 111030
" />
<path d="M118650 109830
L160650 109830
" />
<path d="M125250 109830
L125250 111030
" />
</g>
<g style="fill:#00A0A0; fill-opacity:0.0; 
stroke:#00A0A0; stroke-width:59.0551; stroke-opacity:1; 
stroke-linecap:round; stroke-linejoin:round;">
<path d="M28696 16359
L28565 16171
" />
<path d="M28471 16359
L28471 15965
L28621 15965
L28659 15984
L28678 16003
L28696 16040
L28696 16096
L28678 16134
L28659 16153
L28621 16171
L28471 16171
" />
<path d="M28865 16153
L28996 16153
" />
<path d="M29053 16359
L28865 16359
L28865 15965
L29053 15965
" />
<path d="M29409 16359
L29221 16359
L29221 15965
" />
<path d="M29746 16359
L29521 16359
" />
<path d="M29634 16359
L29634 15965
L29596 16021
L29559 16059
L29521 16078
" />
<path d="M26581 17840
L26637 17859
L26731 17859
L26769 17840
L26787 17821
L26806 17784
L26806 17746
L26787 17709
L26769 17690
L26731 17671
L26656 17653
L26619 17634
L26600 17615
L26581 17578
L26581 17540
L26600 17503
L26619 17484
L26656 17465
L26750 17465
L26806 17484
" />
<path d="M27200 17859
L27069 17671
" />
<path d="M26975 17859
L26975 17465
L27125 17465
L27162 17484
L27181 17503
L27200 17540
L27200 17596
L27181 17634
L27162 17653
L27125 17671
L26975 17671
" />
<path d="M27368 17859
L27368 17465
L27462 17465
L27518 17484
L27556 17521
L27575 17559
L27593 17634
L27593 17690
L27575 17765
L27556 17803
L27518 17840
L27462 17859
L27368 17859
" />
<path d="M27762 17709
L28062 17709
" />
<path d="M28325 17465
L28362 17465
L28400 17484
L28418 17503
L28437 17540
L28456 17615
L28456 17709
L28437 17784
L28418 17821
L28400 17840
L28362 17859
L28325 17859
L28287 17840
L28268 17821
L28250 17784
L28231 17709
L28231 17615
L28250 17540
L28268 17503
L28287 17484
L28325 17465
" />
<path d="M28812 17465
L28625 17465
L28606 17653
L28625 17634
L28662 17615
L28756 17615
L28793 17634
L28812 17653
L28831 17690
L28831 17784
L28812 17821
L28793 17840
L28756 17859
L28662 17859
L28625 17840
L28606 17821
" />
<path d="M28943 17465
L29075 17859
L29206 17465
" />
<path d="M29337 17859
L29337 17465
L29431 17465
L29487 17484
L29524 17521
L29543 17559
L29562 17634
L29562 17690
L29543 17765
L29524 17803
L29487 17840
L29431 17859
L29337 17859
" />
<path d="M29956 17821
L29937 17840
L29881 17859
L29843 17859
L29787 17840
L29749 17803
L29731 17765
L29712 17690
L29712 17634
L29731 17559
L29749 17521
L29787 17484
L29843 17465
L29881 17465
L29937 17484
L29956 17503
" />
<path d="M30124 17709
L30424 17709
" />
<path d="M30593 17840
L30649 17859
L30743 17859
L30781 17840
L30799 17821
L30818 17784
L30818 17746
L30799 17709
L30781 17690
L30743 17671
L30668 17653
L30631 17634
L30612 17615
L30593 17578
L30593 17540
L30612 17503
L30631 17484
L30668 17465
L30762 17465
L30818 17484
" />
<path d="M31174 17859
L30987 17859
L30987 17465
" />
<path d="M31305 17709
L31605 17709
" />
<path d="M32018 17821
L31999 17840
L31943 17859
L31905 17859
L31849 17840
L31812 17803
L31793 17765
L31774 17690
L31774 17634
L31793 17559
L31812 17521
L31849 17484
L31905 17465
L31943 17465
L31999 17484
L32018 17503
" />
<path d="M28481 22886
L28349 22698
" />
<path d="M28256 22886
L28256 22492
L28406 22492
L28443 22511
L28462 22529
L28481 22567
L28481 22623
L28462 22661
L28443 22679
L28406 22698
L28256 22698
" />
<path d="M28649 22679
L28781 22679
" />
<path d="M28837 22886
L28649 22886
L28649 22492
L28837 22492
" />
<path d="M29193 22886
L29006 22886
L29006 22492
" />
<path d="M29306 22529
L29324 22511
L29362 22492
L29456 22492
L29493 22511
L29512 22529
L29531 22567
L29531 22604
L29512 22661
L29287 22886
L29531 22886
" />
<path d="M26362 25702
L26418 25720
L26512 25720
L26550 25702
L26568 25683
L26587 25645
L26587 25608
L26568 25570
L26550 25552
L26512 25533
L26437 25514
L26400 25495
L26381 25477
L26362 25439
L26362 25402
L26381 25364
L26400 25345
L26437 25327
L26531 25327
L26587 25345
" />
<path d="M26981 25720
L26850 25533
" />
<path d="M26756 25720
L26756 25327
L26906 25327
L26943 25345
L26962 25364
L26981 25402
L26981 25458
L26962 25495
L26943 25514
L26906 25533
L26756 25533
" />
<path d="M27150 25720
L27150 25327
L27243 25327
L27300 25345
L27337 25383
L27356 25420
L27375 25495
L27375 25552
L27356 25627
L27337 25664
L27300 25702
L27243 25720
L27150 25720
" />
<path d="M27543 25570
L27843 25570
" />
<path d="M28106 25327
L28143 25327
L28181 25345
L28199 25364
L28218 25402
L28237 25477
L28237 25570
L28218 25645
L28199 25683
L28181 25702
L28143 25720
L28106 25720
L28068 25702
L28049 25683
L28031 25645
L28012 25570
L28012 25477
L28031 25402
L28049 25364
L28068 25345
L28106 25327
" />
<path d="M28593 25327
L28406 25327
L28387 25514
L28406 25495
L28443 25477
L28537 25477
L28574 25495
L28593 25514
L28612 25552
L28612 25645
L28593 25683
L28574 25702
L28537 25720
L28443 25720
L28406 25702
L28387 25683
" />
<path d="M28724 25327
L28856 25720
L28987 25327
" />
<path d="M29118 25720
L29118 25327
L29212 25327
L29268 25345
L29306 25383
L29324 25420
L29343 25495
L29343 25552
L29324 25627
L29306 25664
L29268 25702
L29212 25720
L29118 25720
" />
<path d="M29737 25683
L29718 25702
L29662 25720
L29624 25720
L29568 25702
L29531 25664
L29512 25627
L29493 25552
L29493 25495
L29512 25420
L29531 25383
L29568 25345
L29624 25327
L29662 25327
L29718 25345
L29737 25364
" />
<path d="M29905 25570
L30205 25570
" />
<path d="M30374 25702
L30430 25720
L30524 25720
L30562 25702
L30580 25683
L30599 25645
L30599 25608
L30580 25570
L30562 25552
L30524 25533
L30449 25514
L30412 25495
L30393 25477
L30374 25439
L30374 25402
L30393 25364
L30412 25345
L30449 25327
L30543 25327
L30599 25345
" />
<path d="M30955 25720
L30768 25720
L30768 25327
" />
<path d="M31087 25570
L31387 25570
" />
<path d="M31799 25683
L31780 25702
L31724 25720
L31687 25720
L31630 25702
L31593 25664
L31574 25627
L31555 25552
L31555 25495
L31574 25420
L31593 25383
L31630 25345
L31687 25327
L31724 25327
L31780 25345
L31799 25364
" />
<path d="M25209 22328
L24815 22328
L24815 22234
L24834 22178
L24871 22140
L24909 22121
L24984 22103
L25040 22103
L25115 22121
L25153 22140
L25190 22178
L25209 22234
L25209 22328
" />
<path d="M25190 21953
L25209 21896
L25209 21803
L25190 21765
L25171 21746
L25134 21728
L25096 21728
L25059 21746
L25040 21765
L25021 21803
L25003 21878
L24984 21915
L24965 21934
L24928 21953
L24890 21953
L24853 21934
L24834 21915
L24815 21878
L24815 21784
L24834 21728
" />
<path d="M25209 21353
L25209 21578
" />
<path d="M25209 21465
L24815 21465
L24871 21503
L24909 21540
L24928 21578
" />
<path d="M25140 26424
L25159 26368
L25159 26274
L25140 26237
L25121 26218
L25084 26199
L25046 26199
L25009 26218
L24990 26237
L24971 26274
L24953 26349
L24934 26387
L24915 26406
L24878 26424
L24840 26424
L24803 26406
L24784 26387
L24765 26349
L24765 26256
L24784 26199
" />
<path d="M25046 26049
L25046 25862
" />
<path d="M25159 26087
L24765 25956
L25159 25824
" />
<path d="M24765 25618
L24765 25581
L24784 25543
L24803 25524
L24840 25506
L24915 25487
L25009 25487
L25084 25506
L25121 25524
L25140 25543
L25159 25581
L25159 25618
L25140 25656
L25121 25674
L25084 25693
L25009 25712
L24915 25712
L24840 25693
L24803 25674
L24784 25656
L24765 25618
" />
<path d="M24896 25149
L25159 25149
" />
<path d="M24746 25243
L25028 25337
L25028 25093
" />
<path d="M25009 24943
L25009 24643
" />
<path d="M25159 24250
L25159 24475
" />
<path d="M25159 24362
L24765 24362
L24821 24400
L24859 24437
L24878 24475
" />
<path d="M25159 23875
L25159 24100
" />
<path d="M25159 23987
L24765 23987
L24821 24025
L24859 24062
L24878 24100
" />
<path d="M17665 25168
L18059 25037
L17665 24906
" />
<path d="M18040 24606
L18059 24643
L18059 24718
L18040 24756
L18021 24774
L17984 24793
L17871 24793
L17834 24774
L17815 24756
L17796 24718
L17796 24643
L17815 24606
" />
<path d="M18040 24268
L18059 24306
L18059 24381
L18040 24418
L18021 24437
L17984 24456
L17871 24456
L17834 24437
L17815 24418
L17796 24381
L17796 24306
L17815 24268
" />
<path d="M18853 24271
L18871 24215
L18890 24196
L18928 24178
L18984 24178
L19021 24196
L19040 24215
L19059 24253
L19059 24403
L18665 24403
L18665 24271
L18684 24234
L18703 24215
L18740 24196
L18778 24196
L18815 24215
L18834 24234
L18853 24271
L18853 24403
" />
<path d="M20684 24546
L20665 24584
L20665 24640
L20684 24696
L20721 24734
L20759 24753
L20834 24771
L20890 24771
L20965 24753
L21003 24734
L21040 24696
L21059 24640
L21059 24603
L21040 24546
L21021 24528
L20890 24528
L20890 24603
" />
<path d="M22121 24528
L22140 24546
L22159 24603
L22159 24640
L22140 24696
L22103 24734
L22065 24753
L21990 24771
L21934 24771
L21859 24753
L21821 24734
L21784 24696
L21765 24640
L21765 24603
L21784 24546
L21803 24528
" />
<path d="M23009 24899
L22615 24899
L22615 24806
L22634 24749
L22671 24712
L22709 24693
L22784 24674
L22840 24674
L22915 24693
L22953 24712
L22990 24749
L23009 24806
L23009 24899
" />
<path d="M23009 24506
L22615 24506
L22615 24356
L22634 24318
L22653 24300
L22690 24281
L22746 24281
L22784 24300
L22803 24318
L22821 24356
L22821 24506
" />
<path d="M24109 24653
L23715 24653
L23715 24559
L23734 24503
L23771 24465
L23809 24446
L23884 24428
L23940 24428
L24015 24446
L24053 24465
L24090 24503
L24109 24559
L24109 24653
" />
<path d="M23853 26084
L23853 25953
" />
<path d="M24059 25896
L24059 26084
L23665 26084
L23665 25896
" />
<path d="M23059 26159
L22665 26159
L23059 25934
L22665 25934
" />
<path d="M23021 25521
L23040 25540
L23059 25596
L23059 25634
L23040 25690
L23003 25728
L22965 25746
L22890 25765
L22834 25765
L22759 25746
L22721 25728
L22684 25690
L22665 25634
L22665 25596
L22684 25540
L22703 25521
" />
<path d="M20796 26565
L20796 26415
" />
<path d="M20665 26509
L21003 26509
L21040 26490
L21059 26453
L21059 26415
" />
<path d="M21040 26134
L21059 26171
L21059 26246
L21040 26284
L21003 26303
L20853 26303
L20815 26284
L20796 26246
L20796 26171
L20815 26134
L20853 26115
L20890 26115
L20928 26303
" />
<path d="M21059 25984
L20796 25778
" />
<path d="M20796 25984
L21059 25778
" />
<path d="M20796 25684
L20796 25534
" />
<path d="M20665 25628
L21003 25628
L21040 25609
L21059 25571
L21059 25534
" />
<path d="M19665 26168
L20059 26037
L19665 25906
" />
<path d="M20040 25606
L20059 25643
L20059 25718
L20040 25756
L20021 25774
L19984 25793
L19871 25793
L19834 25774
L19815 25756
L19796 25718
L19796 25643
L19815 25606
" />
<path d="M20040 25268
L20059 25306
L20059 25381
L20040 25418
L20021 25437
L19984 25456
L19871 25456
L19834 25437
L19815 25418
L19796 25381
L19796 25306
L19815 25268
" />
<path d="M18853 25993
L18853 26124
" />
<path d="M19059 26124
L18665 26124
L18665 25937
" />
<path d="M17946 26143
L17946 25956
" />
<path d="M18059 26181
L17665 26050
L18059 25918
" />
</g>
<g style="fill:#00A0A0; fill-opacity:0.0; 
stroke:#00A0A0; stroke-width:80; stroke-opacity:1; 
stroke-linecap:round; stroke-linejoin:round;">
<path d="M35222 26883
L34960 27050
" />
<path d="M35222 27169
L34672 27169
L34672 26978
L34698 26930
L34725 26907
L34777 26883
L34855 26883
L34908 26907
L34934 26930
L34960 26978
L34960 27169
" />
<path d="M35222 26407
L35222 26692
" />
<path d="M35222 26550
L34672 26550
L34751 26597
L34803 26645
L34829 26692
" />
<path d="M21454 16661
L21454 16261
L21607 16261
L21645 16280
L21664 16300
L21683 16338
L21683 16395
L21664 16433
L21645 16452
L21607 16471
L21454 16471
" />
<path d="M22064 16661
L21835 16661
" />
<path d="M21950 16661
L21950 16261
L21911 16319
L21873 16357
L21835 16376
" />
</g>
<g style="fill:#00A0A0; fill-opacity:0.0; 
stroke:#00A0A0; stroke-width:60; stroke-opacity:1; 
stroke-linecap:round; stroke-linejoin:round;">
<path d="M34971 26621
L34671 26621
L34671 26507
L34685 26478
L34700 26464
L34728 26450
L34771 26450
L34800 26464
L34814 26478
L34828 26507
L34828 26621
" />
<path d="M34700 26335
L34685 26321
L34671 26292
L34671 26221
L34685 26192
L34700 26178
L34728 26164
L34757 26164
L34800 26178
L34971 26350
L34971 26164
" />
</g>
<g style="fill:#00A0A0; fill-opacity:0.0; 
stroke:#00A0A0; stroke-width:80; stroke-opacity:1; 
stroke-linecap:round; stroke-linejoin:round;">
<path d="M26095 11142
L26095 11628
L26114 11685
L26133 11714
L26171 11742
L26247 11742
L26285 11714
L26304 11685
L26323 11628
L26323 11142
" />
<path d="M26723 11742
L26495 11742
" />
<path d="M26609 11742
L26609 11142
L26571 11228
L26533 11285
L26495 11314
" />
<path d="M25445 13892
L25711 13892
L25540 14492
" />
<path d="M25921 14150
L25883 14121
L25864 14092
L25845 14035
L25845 14007
L25864 13950
L25883 13921
L25921 13892
L25997 13892
L26035 13921
L26054 13950
L26073 14007
L26073 14035
L26054 14092
L26035 14121
L25997 14150
L25921 14150
L25883 14178
L25864 14207
L25845 14264
L25845 14378
L25864 14435
L25883 14464
L25921 14492
L25997 14492
L26035 14464
L26054 14435
L26073 14378
L26073 14264
L26054 14207
L26035 14178
L25997 14150
" />
<path d="M26321 13892
L26359 13892
L26397 13921
L26416 13950
L26435 14007
L26454 14121
L26454 14264
L26435 14378
L26416 14435
L26397 14464
L26359 14492
L26321 14492
L26283 14464
L26264 14435
L26245 14378
L26226 14264
L26226 14121
L26245 14007
L26264 13950
L26283 13921
L26321 13892
" />
<path d="M26816 13892
L26626 13892
L26607 14178
L26626 14150
L26664 14121
L26759 14121
L26797 14150
L26816 14178
L26835 14235
L26835 14378
L26816 14435
L26797 14464
L26759 14492
L26664 14492
L26626 14464
L26607 14435
" />
</g>
<g style="fill:#00A0A0; fill-opacity:0.0; 
stroke:#00A0A0; stroke-width:100; stroke-opacity:1; 
stroke-linecap:round; stroke-linejoin:round;">
<path d="M18214 11323
L18195 11342
L18138 11361
L18100 11361
L18042 11342
L18004 11304
L17985 11266
L17966 11190
L17966 11133
L17985 11057
L18004 11019
L18042 10980
L18100 10961
L18138 10961
L18195 10980
L18214 11000
" />
<path d="M18461 10961
L18538 10961
L18576 10980
L18614 11019
L18633 11095
L18633 11228
L18614 11304
L18576 11342
L18538 11361
L18461 11361
L18423 11342
L18385 11304
L18366 11228
L18366 11095
L18385 11019
L18423 10980
L18461 10961
" />
<path d="M18804 11361
L18804 10961
L19033 11361
L19033 10961
" />
<path d="M19433 11361
L19204 11361
" />
<path d="M19319 11361
L19319 10961
L19280 11019
L19242 11057
L19204 11076
" />
<path d="M14838 15552
L14895 15571
L14914 15590
L14933 15628
L14933 15685
L14914 15723
L14895 15742
L14857 15761
L14704 15761
L14704 15361
L14838 15361
L14876 15380
L14895 15400
L14914 15438
L14914 15476
L14895 15514
L14876 15533
L14838 15552
L14704 15552
" />
<path d="M15085 15647
L15276 15647
" />
<path d="M15047 15761
L15180 15361
L15314 15761
" />
<path d="M15676 15761
L15542 15571
" />
<path d="M15447 15761
L15447 15361
L15600 15361
L15638 15380
L15657 15400
L15676 15438
L15676 15495
L15657 15533
L15638 15552
L15600 15571
L15447 15571
" />
<path d="M16076 15761
L15942 15571
" />
<path d="M15847 15761
L15847 15361
L16000 15361
L16038 15380
L16057 15400
L16076 15438
L16076 15495
L16057 15533
L16038 15552
L16000 15571
L15847 15571
" />
<path d="M16247 15552
L16380 15552
" />
<path d="M16438 15761
L16247 15761
L16247 15361
L16438 15361
" />
<path d="M16800 15761
L16609 15761
L16609 15361
" />
<path d="M16838 15800
L17142 15800
" />
<path d="M17352 15361
L17352 15647
L17333 15704
L17295 15742
L17238 15761
L17200 15761
" />
<path d="M17523 15647
L17714 15647
" />
<path d="M17485 15761
L17619 15361
L17752 15761
" />
<path d="M18114 15723
L18095 15742
L18038 15761
L17999 15761
L17942 15742
L17904 15704
L17885 15666
L17866 15590
L17866 15533
L17885 15457
L17904 15419
L17942 15380
L17999 15361
L18038 15361
L18095 15380
L18114 15400
" />
<path d="M18285 15761
L18285 15361
" />
<path d="M18514 15761
L18342 15533
" />
<path d="M18514 15361
L18285 15590
" />
</g>
<g style="fill:#00A0A0; fill-opacity:0.0; 
stroke:#00A0A0; stroke-width:50; stroke-opacity:1; 
stroke-linecap:round; stroke-linejoin:round;">
<path d="M23350 12593
L23335 12608
L23292 12622
L23264 12622
L23221 12608
L23192 12579
L23178 12551
L23164 12493
L23164 12451
L23178 12393
L23192 12365
L23221 12336
L23264 12322
L23292 12322
L23335 12336
L23350 12351
" />
<path d="M23635 12622
L23464 12622
" />
<path d="M23550 12622
L23550 12322
L23521 12365
L23492 12393
L23464 12408
" />
<path d="M23013 13621
L22870 13621
" />
<path d="M22941 13621
L22941 13321
L22917 13364
L22894 13392
L22870 13407
" />
<path d="M23167 13321
L23191 13321
L23215 13335
L23227 13350
L23239 13378
L23251 13435
L23251 13507
L23239 13564
L23227 13592
L23215 13607
L23191 13621
L23167 13621
L23144 13607
L23132 13592
L23120 13564
L23108 13507
L23108 13435
L23120 13378
L23132 13350
L23144 13335
L23167 13321
" />
<path d="M23405 13321
L23429 13321
L23453 13335
L23465 13350
L23477 13378
L23489 13435
L23489 13507
L23477 13564
L23465 13592
L23453 13607
L23429 13621
L23405 13621
L23382 13607
L23370 13592
L23358 13564
L23346 13507
L23346 13435
L23358 13378
L23370 13350
L23382 13335
L23405 13321
" />
<path d="M23703 13421
L23703 13621
" />
<path d="M23596 13421
L23596 13578
L23608 13607
L23632 13621
L23667 13621
L23691 13607
L23703 13592
" />
<path d="M23905 13464
L23822 13464
" />
<path d="M23822 13621
L23822 13321
L23941 13321
" />
</g>
<g style="fill:#00A0A0; fill-opacity:0.0; 
stroke:#00A0A0; stroke-width:80; stroke-opacity:1; 
stroke-linecap:round; stroke-linejoin:round;">
</g>
<g style="fill:#00A0A0; fill-opacity:0.0; 
stroke:#00A0A0; stroke-width:75; stroke-opacity:1; 
stroke-linecap:round; stroke-linejoin:round;">
<path d="M22385 13007
L22614 13007
" />
<path d="M22500 13121
L22500 12892
" />
</g>
<g style="fill:#00A0A0; fill-opacity:0.0; 
stroke:#00A0A0; stroke-width:80; stroke-opacity:1; 
stroke-linecap:round; stroke-linejoin:round;">
</g>
<g style="fill:#00A0A0; fill-opacity:0.0; 
stroke:#00A0A0; stroke-width:50; stroke-opacity:1; 
stroke-linecap:round; stroke-linejoin:round;">
<path d="M29350 12492
L29335 12507
L29292 12521
L29264 12521
L29221 12507
L29192 12478
L29178 12450
L29164 12392
L29164 12350
L29178 12292
L29192 12264
L29221 12235
L29264 12221
L29292 12221
L29335 12235
L29350 12250
" />
<path d="M29464 12250
L29478 12235
L29507 12221
L29578 12221
L29607 12235
L29621 12250
L29635 12278
L29635 12307
L29621 12350
L29450 12521
L29635 12521
" />
<path d="M29251 13621
L29108 13621
" />
<path d="M29179 13621
L29179 13321
L29155 13364
L29132 13392
L29108 13407
" />
<path d="M29465 13421
L29465 13621
" />
<path d="M29358 13421
L29358 13578
L29370 13607
L29394 13621
L29429 13621
L29453 13607
L29465 13592
" />
<path d="M29667 13464
L29584 13464
" />
<path d="M29584 13621
L29584 13321
L29703 13321
" />
</g>
<g style="fill:#00A0A0; fill-opacity:0.0; 
stroke:#00A0A0; stroke-width:80; stroke-opacity:1; 
stroke-linecap:round; stroke-linejoin:round;">
</g>
<g style="fill:#00A0A0; fill-opacity:0.0; 
stroke:#00A0A0; stroke-width:75; stroke-opacity:1; 
stroke-linecap:round; stroke-linejoin:round;">
<path d="M28385 13007
L28614 13007
" />
<path d="M28500 13121
L28500 12892
" />
</g>
<g style="fill:#00A0A0; fill-opacity:0.0; 
stroke:#00A0A0; stroke-width:80; stroke-opacity:1; 
stroke-linecap:round; stroke-linejoin:round;">
</g>
<g style="fill:#00A0A0; fill-opacity:0.0; 
stroke:#00A0A0; stroke-width:120; stroke-opacity:1; 
stroke-linecap:round; stroke-linejoin:round;">
<path d="M33042 16642
L32442 16642
L32442 16414
L32471 16357
L32500 16328
L32557 16300
L32642 16300
L32700 16328
L32728 16357
L32757 16414
L32757 16642
" />
<path d="M32442 16100
L32442 15728
L32671 15928
L32671 15842
L32700 15785
L32728 15757
L32785 15728
L32928 15728
L32985 15757
L33014 15785
L33042 15842
L33042 16014
L33014 16071
L32985 16100
" />
<path d="M36985 17471
L37014 17499
L37042 17585
L37042 17642
L37014 17728
L36957 17785
L36900 17814
L36785 17842
L36700 17842
L36585 17814
L36528 17785
L36471 17728
L36442 17642
L36442 17585
L36471 17499
L36500 17471
" />
<path d="M36442 17099
L36442 16985
L36471 16928
L36528 16871
L36642 16842
L36842 16842
L36957 16871
L37014 16928
L37042 16985
L37042 17099
L37014 17157
L36957 17214
L36842 17242
L36642 17242
L36528 17214
L36471 17157
L36442 17099
" />
<path d="M37042 16585
L36442 16585
L37042 16242
L36442 16242
" />
<path d="M37042 15957
L36442 15957
L37042 15614
L36442 15614
" />
<path d="M37100 15471
L37100 15014
" />
<path d="M36500 14900
L36471 14871
L36442 14814
L36442 14671
L36471 14614
L36500 14585
L36557 14557
L36614 14557
L36700 14585
L37042 14928
L37042 14557
" />
<path d="M32942 23242
L32342 23242
L32342 23014
L32371 22957
L32400 22928
L32457 22900
L32542 22900
L32600 22928
L32628 22957
L32657 23014
L32657 23242
" />
<path d="M32542 22385
L32942 22385
" />
<path d="M32314 22528
L32742 22671
L32742 22300
" />
<path d="M36885 24071
L36914 24099
L36942 24185
L36942 24242
L36914 24328
L36857 24385
L36800 24414
L36685 24442
L36600 24442
L36485 24414
L36428 24385
L36371 24328
L36342 24242
L36342 24185
L36371 24099
L36400 24071
" />
<path d="M36342 23699
L36342 23585
L36371 23528
L36428 23471
L36542 23442
L36742 23442
L36857 23471
L36914 23528
L36942 23585
L36942 23699
L36914 23757
L36857 23814
L36742 23842
L36542 23842
L36428 23814
L36371 23757
L36342 23699
" />
<path d="M36942 23185
L36342 23185
L36942 22842
L36342 22842
" />
<path d="M36942 22557
L36342 22557
L36942 22214
L36342 22214
" />
<path d="M37000 22071
L37000 21614
" />
<path d="M36400 21500
L36371 21471
L36342 21414
L36342 21271
L36371 21214
L36400 21185
L36457 21157
L36514 21157
L36600 21185
L36942 21528
L36942 21157
" />
</g>
<g style="fill:#00A0A0; fill-opacity:0.0; 
stroke:#00A0A0; stroke-width:59.0551; stroke-opacity:1; 
stroke-linecap:round; stroke-linejoin:round;">
<path d="M20446 21053
L20503 21071
L20521 21090
L20540 21128
L20540 21184
L20521 21221
L20503 21240
L20465 21259
L20315 21259
L20315 20865
L20446 20865
L20484 20884
L20503 20903
L20521 20940
L20521 20978
L20503 21015
L20484 21034
L20446 21053
L20315 21053
" />
<path d="M20934 21221
L20915 21240
L20859 21259
L20821 21259
L20765 21240
L20728 21203
L20709 21165
L20690 21090
L20690 21034
L20709 20959
L20728 20921
L20765 20884
L20821 20865
L20859 20865
L20915 20884
L20934 20903
" />
<path d="M21103 21259
L21103 20865
L21196 20865
L21253 20884
L21290 20921
L21309 20959
L21328 21034
L21328 21090
L21309 21165
L21290 21203
L21253 21240
L21196 21259
L21103 21259
" />
<path d="M21703 21259
L21478 21259
" />
<path d="M21590 21259
L21590 20865
L21553 20921
L21515 20959
L21478 20978
" />
<path d="M19800 21121
L19781 21140
L19725 21159
L19687 21159
L19631 21140
L19593 21103
L19575 21065
L19556 20990
L19556 20934
L19575 20859
L19593 20821
L19631 20784
L19687 20765
L19725 20765
L19781 20784
L19800 20803
" />
<path d="M19968 21159
L19968 20765
L20062 20765
L20118 20784
L20156 20821
L20175 20859
L20193 20934
L20193 20990
L20175 21065
L20156 21103
L20118 21140
L20062 21159
L19968 21159
" />
<path d="M20531 20896
L20531 21159
" />
<path d="M20437 20746
L20343 21028
L20587 21028
" />
<path d="M20925 20765
L20737 20765
L20718 20953
L20737 20934
L20775 20915
L20868 20915
L20906 20934
L20925 20953
L20943 20990
L20943 21084
L20925 21121
L20906 21140
L20868 21159
L20775 21159
L20737 21140
L20718 21121
" />
<path d="M21281 20896
L21281 21159
" />
<path d="M21187 20746
L21093 21028
L21337 21028
" />
<path d="M21449 20765
L21693 20765
L21562 20915
L21618 20915
L21656 20934
L21674 20953
L21693 20990
L21693 21084
L21674 21121
L21656 21140
L21618 21159
L21506 21159
L21468 21140
L21449 21121
" />
<path d="M21993 20953
L22049 20971
L22068 20990
L22087 21028
L22087 21084
L22068 21121
L22049 21140
L22012 21159
L21862 21159
L21862 20765
L21993 20765
L22031 20784
L22049 20803
L22068 20840
L22068 20878
L22049 20915
L22031 20934
L21993 20953
L21862 20953
" />
<path d="M22256 20953
L22387 20953
" />
<path d="M22443 21159
L22256 21159
L22256 20765
L22443 20765
" />
<path d="M32624 19455
L31403 19455
" />
<path d="M31403 19455
L31325 19730
" />
<path d="M31325 19730
L32506 19730
" />
<path d="M31443 19809
L31600 19809
" />
<path d="M31167 20163
L31325 19809
" />
<path d="M31325 19809
L31482 19809
" />
<path d="M32545 19730
L32624 19455
" />
<path d="M31955 20163
L32112 20163
" />
<path d="M32033 20163
L31285 20163
" />
<path d="M31285 20163
L31167 20163
" />
<path d="M32506 19809
L31522 19809
" />
<path d="M32073.3 20163.8 A395.664 395.664 0.0 0 0 32506.3 19809.4 " />
<circle cx="26207.1" cy="19612.6" r="440.17" /> 
<path d="M32900 20400
L25380 20400
" />
<path d="M25380 20400
L25380 14297
" />
<path d="M25380 14297
L32900 14297
" />
<path d="M32900 14297
L32900 20400
" />
<path d="M32624 25955
L31403 25955
" />
<path d="M31403 25955
L31325 26230
" />
<path d="M31325 26230
L32506 26230
" />
<path d="M31443 26309
L31600 26309
" />
<path d="M31167 26663
L31325 26309
" />
<path d="M31325 26309
L31482 26309
" />
<path d="M32545 26230
L32624 25955
" />
<path d="M31955 26663
L32112 26663
" />
<path d="M32033 26663
L31285 26663
" />
<path d="M31285 26663
L31167 26663
" />
<path d="M32506 26309
L31522 26309
" />
<path d="M32073.3 26663.8 A395.664 395.664 0.0 0 0 32506.3 26309.4 " />
<circle cx="26207.1" cy="26112.6" r="440.17" /> 
<path d="M32900 26900
L25380 26900
" />
<path d="M25380 26900
L25380 20797
" />
<path d="M25380 20797
L32900 20797
" />
<path d="M32900 20797
L32900 26900
" />
<path d="M20400 26100
L20300 26000
" />
<path d="M20300 26000
L19000 26000
" />
<path d="M19000 26000
L18900 26100
" />
<path d="M18900 26100
L19000 26200
" />
<path d="M19000 26200
L20300 26200
" />
<path d="M20300 26200
L20400 26100
" />
<path d="M18850 24150
L18950 24250
" />
<path d="M18950 24250
L18950 25900
" />
<path d="M18950 25900
L18850 26000
" />
<path d="M18850 26000
L18750 25900
" />
<path d="M18750 25900
L18750 24250
" />
<path d="M18750 24250
L18850 24150
" />
<path d="M20400 24100
L20300 24200
" />
<path d="M20300 24200
L19000 24200
" />
<path d="M19000 24200
L18900 24100
" />
<path d="M18900 24100
L19000 24000
" />
<path d="M19000 24000
L20300 24000
" />
<path d="M20300 24000
L20400 24100
" />
<path d="M20400 24100
L20350 24100
" />
<path d="M20450 24150
L20550 24250
" />
<path d="M20550 24250
L20550 25900
" />
<path d="M20550 25900
L20450 26000
" />
<path d="M20450 26000
L20350 25900
" />
<path d="M20350 25900
L20350 24250
" />
<path d="M20350 24250
L20450 24150
" />
<path d="M21900 24100
L21800 24200
" />
<path d="M21800 24200
L20600 24200
" />
<path d="M20600 24200
L20500 24100
" />
<path d="M20500 24100
L20600 24000
" />
<path d="M20600 24000
L21800 24000
" />
<path d="M21800 24000
L21900 24100
" />
<path d="M21800 26000
L20600 26000
" />
<path d="M20600 26000
L20500 26100
" />
<path d="M20500 26100
L20600 26200
" />
<path d="M20600 26200
L21800 26200
" />
<path d="M21800 26200
L21900 26100
" />
<path d="M21900 26100
L21800 26000
" />
<path d="M22100 26000
L22000 26100
" />
<path d="M22000 26100
L21900 26000
" />
<path d="M21900 26000
L21900 24250
" />
<path d="M21900 24250
L22000 24150
" />
<path d="M22000 24150
L22100 24250
" />
<path d="M22100 24250
L22100 26000
" />
<path d="M22100 26000
L22050 26000
" />
<path d="M24650 27100
L24650 23100
" />
<path d="M24650 23100
L17150 23100
" />
<path d="M17150 23100
L17150 27100
" />
<path d="M24650 27100
L17150 27100
" />
<path d="M23301 22895
L23301 22816
" />
</g>
<g style="fill:#00A0A0; fill-opacity:0.0; 
stroke:#00A0A0; stroke-width:150; stroke-opacity:1; 
stroke-linecap:round; stroke-linejoin:round;">
<path d="M34000 26900
L34000 25900
" />
<circle cx="34000" cy="26900" r="559.017" /> 
</g>
<g style="fill:#00A0A0; fill-opacity:0.0; 
stroke:#00A0A0; stroke-width:120; stroke-opacity:1; 
stroke-linecap:round; stroke-linejoin:round;">
<path d="M19000 17000
L24000 17000
" />
<path d="M24000 17000
L24000 19000
" />
<path d="M24000 19000
L19000 19000
" />
<path d="M19000 19000
L19000 17000
" />
</g>
<g style="fill:#00A0A0; fill-opacity:0.0; 
stroke:#00A0A0; stroke-width:60; stroke-opacity:1; 
stroke-linecap:round; stroke-linejoin:round;">
<path d="M36100 27400
L35100 27400
" />
<path d="M35100 27400
L35100 25400
" />
<path d="M35100 25400
L36100 25400
" />
<path d="M36100 25400
L36100 27400
" />
</g>
<g style="fill:#00A0A0; fill-opacity:0.0; 
stroke:#00A0A0; stroke-width:100; stroke-opacity:1; 
stroke-linecap:round; stroke-linejoin:round;">
<path d="M24650 12250
L24650 12000
" />
<path d="M24650 12000
L28150 12000
" />
<path d="M28150 12000
L28150 12250
" />
<path d="M24650 13750
L24650 12250
" />
<path d="M24650 12250
L28150 12250
" />
<path d="M28150 12250
L28150 13750
" />
<path d="M28150 13750
L24650 13750
" />
</g>
<g style="fill:#00A0A0; fill-opacity:0.0; 
stroke:#00A0A0; stroke-width:150; stroke-opacity:1; 
stroke-linecap:round; stroke-linejoin:round;">
<path d="M15800 11700
L15500 11700
" />
<path d="M15500 11700
L15500 15100
" />
<path d="M15500 15100
L15800 15100
" />
<path d="M17000 11700
L17000 15100
" />
<path d="M20800 11700
L20800 15100
" />
<path d="M15800 15100
L20800 15100
" />
<path d="M15800 11700
L20800 11700
" />
</g>
<g style="fill:#00A0A0; fill-opacity:0.0; 
stroke:#00A0A0; stroke-width:50; stroke-opacity:1; 
stroke-linecap:round; stroke-linejoin:round;">
<circle cx="23400" cy="13000" r="1001.25" /> 
<circle cx="29400" cy="13000" r="1001.25" /> 
</g>
<g style="fill:#00A0A0; fill-opacity:0.0; 
stroke:#00A0A0; stroke-width:120; stroke-opacity:1; 
stroke-linecap:round; stroke-linejoin:round;">
<path d="M35800 14200
L35800 18200
" />
<path d="M36300 14200
L33300 14200
" />
<path d="M33300 14200
L33300 18200
" />
<path d="M33300 18200
L36300 18200
" />
<path d="M36300 18200
L36300 14200
" />
<path d="M35700 20800
L35700 24800
" />
<path d="M36200 20800
L33200 20800
" />
<path d="M33200 20800
L33200 24800
" />
<path d="M33200 24800
L36200 24800
" />
<path d="M36200 24800
L36200 20800
" />
</g>
<g style="fill:#00A0A0; fill-opacity:0.0; 
stroke:#00A0A0; stroke-width:59.0551; stroke-opacity:1; 
stroke-linecap:round; stroke-linejoin:round;">
<path d="M24875 22400
L24875 19800
" />
<path d="M24875 19800
L17125 19800
" />
<path d="M17125 19800
L17125 22400
" />
<path d="M17125 22400
L24850 22400
" />
</g>
<g style="fill:#808000; fill-opacity:0.0; 
stroke:#808000; stroke-width:39.3701; stroke-opacity:1; 
stroke-linecap:round; stroke-linejoin:round;">
</g>
<g style="fill:#808000; fill-opacity:1.0; 
stroke:#808000; stroke-width:39.3701; stroke-opacity:1; 
stroke-linecap:round; stroke-linejoin:round;">
<circle cx="25852.8" cy="17348.8" r="275.591" /> 
<circle cx="31561.4" cy="19848.8" r="275.591" /> 
<circle cx="26758.3" cy="19848.8" r="275.591" /> 
<circle cx="26758.3" cy="14809.4" r="275.591" /> 
<circle cx="31561.4" cy="14809.4" r="275.591" /> 
<circle cx="25852.8" cy="23848.8" r="275.591" /> 
<circle cx="31561.4" cy="26348.8" r="275.591" /> 
<circle cx="26758.3" cy="26348.8" r="275.591" /> 
<circle cx="26758.3" cy="21309.4" r="275.591" /> 
<circle cx="31561.4" cy="21309.4" r="275.591" /> 
<circle cx="22900" cy="26600" r="275.591" /> 
<circle cx="23900" cy="26600" r="275.591" /> 
<circle cx="19900" cy="26600" r="275.591" /> 
<circle cx="18900" cy="26600" r="275.591" /> 
<circle cx="17900" cy="26600" r="275.591" /> 
<circle cx="17900" cy="23600" r="275.591" /> 
<circle cx="18900" cy="23600" r="275.591" /> 
<circle cx="20900" cy="23600" r="275.591" /> 
<circle cx="21900" cy="23600" r="275.591" /> 
<circle cx="22900" cy="23600" r="275.591" /> 
<circle cx="23900" cy="23600" r="275.591" /> 
<circle cx="34000" cy="26900" r="255.315" /> 
<circle cx="34000" cy="25900" r="255.315" /> 
<polyline style="fill-rule:evenodd;"
points="19219,18780
19219,18219
19780,18219
19780,18780
19219,18780
" /> 
<circle cx="19500" cy="17500" r="280.315" /> 
<circle cx="20500" cy="18500" r="280.315" /> 
<circle cx="20500" cy="17500" r="280.315" /> 
<circle cx="21500" cy="18500" r="280.315" /> 
<circle cx="21500" cy="17500" r="280.315" /> 
<circle cx="22500" cy="18500" r="280.315" /> 
<circle cx="22500" cy="17500" r="280.315" /> 
<circle cx="23500" cy="18500" r="280.315" /> 
<circle cx="23500" cy="17500" r="280.315" /> 
<polyline style="fill-rule:evenodd;"
points="35880,27180
35319,27180
35319,26619
35880,26619
35880,27180
" /> 
<circle cx="35600" cy="25900" r="280.315" /> 
<circle cx="25400" cy="13000" r="330.315" /> 
<polyline style="fill-rule:evenodd;"
points="26730,13330
26069,13330
26069,12669
26730,12669
26730,13330
" /> 
<circle cx="27400" cy="13000" r="330.315" /> 
<circle cx="18600" cy="13400" r="925.315" /> 
<polyline style="fill-rule:evenodd;"
points="20074,14325
20074,12474
21925,12474
21925,14325
20074,14325
" /> 
<circle cx="19500" cy="15400" r="925.315" /> 
<polyline style="fill-rule:evenodd;"
points="22644,13255
22644,12744
23155,12744
23155,13255
22644,13255
" /> 
<circle cx="23900" cy="13000" r="255.315" /> 
<polyline style="fill-rule:evenodd;"
points="28644,13255
28644,12744
29155,12744
29155,13255
28644,13255
" /> 
<circle cx="29900" cy="13000" r="255.315" /> 
<polyline style="fill-rule:evenodd;"
points="35280,17680
34319,17680
34319,16719
35280,16719
35280,17680
" /> 
<circle cx="34800" cy="15200" r="480.315" /> 
<polyline style="fill-rule:evenodd;"
points="35180,24280
34219,24280
34219,23319
35180,23319
35180,24280
" /> 
<circle cx="34700" cy="21800" r="480.315" /> 
<circle cx="24500" cy="19800" r="275.591" /> 
<circle cx="23500" cy="19800" r="275.591" /> 
<circle cx="22500" cy="19800" r="275.591" /> 
<circle cx="21500" cy="19800" r="275.591" /> 
<circle cx="20500" cy="19800" r="275.591" /> 
<circle cx="18500" cy="19800" r="275.591" /> 
<circle cx="17500" cy="19800" r="275.591" /> 
<circle cx="17500" cy="22400" r="275.591" /> 
<circle cx="18500" cy="22400" r="275.591" /> 
<circle cx="19500" cy="22400" r="275.591" /> 
<circle cx="20500" cy="22400" r="275.591" /> 
<circle cx="21500" cy="22400" r="275.591" /> 
<circle cx="22500" cy="22400" r="275.591" /> 
<circle cx="23500" cy="22400" r="275.591" /> 
<circle cx="24500" cy="22400" r="275.591" /> 
<circle cx="19500" cy="19800" r="275.591" /> 
</g> 
</svg>
