M48
;DRILL file {Pcbnew (2013-may-18)-stable} date jeu 02 jun 2016 15:53:26 CEST
;FORMAT={-:-/ absolute / inch / decimal}
FMAT,2
INCH,TZ
T1C0.024
T2C0.032
T3C0.040
T4C0.045
T5C0.060
%
G90
G05
M72
T1
X1.75Y-1.98
X1.75Y-2.24
X1.79Y-2.36
X1.79Y-2.66
X1.85Y-1.98
X1.85Y-2.24
X1.89Y-2.36
X1.89Y-2.66
X1.95Y-1.98
X1.95Y-2.24
X1.99Y-2.66
X2.05Y-1.98
X2.05Y-2.24
X2.09Y-2.36
X2.15Y-1.98
X2.15Y-2.24
X2.19Y-2.36
X2.25Y-1.98
X2.25Y-2.24
X2.29Y-2.36
X2.29Y-2.66
X2.35Y-1.98
X2.35Y-2.24
X2.39Y-2.36
X2.39Y-2.66
X2.45Y-1.98
X2.45Y-2.24
X2.5953Y-1.7449
X2.5953Y-2.3949
X2.6858Y-1.4909
X2.6858Y-1.9949
X2.6858Y-2.1409
X2.6858Y-2.6449
X3.1661Y-1.4909
X3.1661Y-1.9949
X3.1661Y-2.1409
X3.1661Y-2.6449
T2
X2.23Y-1.24
X2.23Y-1.34
X2.81Y-1.29
X2.9Y-2.8
X2.91Y-1.29
X3.Y-2.8
T3
X1.95Y-1.75
X1.95Y-1.85
X2.05Y-1.75
X2.05Y-1.85
X2.15Y-1.75
X2.15Y-1.85
X2.25Y-1.75
X2.25Y-1.85
X2.35Y-1.75
X2.35Y-1.85
X3.1Y-2.8
X3.2Y-2.8
T4
X2.45Y-1.29
X2.55Y-1.29
X2.65Y-1.29
T5
X3.15Y-1.625
X3.15Y-1.825
X3.15Y-2.3
X3.15Y-2.5
T3
X1.71Y-1.23G85X1.71Y-1.29
G05
X1.77Y-1.46G85X1.83Y-1.46
G05
X1.95Y-1.23G85X1.95Y-1.29
G05
T0
M30
