G04 (created by PCBNEW (2013-may-18)-stable) date ven 03 jun 2016 15:34:57 CEST*
%MOIN*%
G04 Gerber Fmt 3.4, Leading zero omitted, Abs format*
%FSLAX34Y34*%
G01*
G70*
G90*
G04 APERTURE LIST*
%ADD10C,0.00590551*%
%ADD11C,0.0590551*%
%ADD12R,0.1X0.1*%
%ADD13C,0.1*%
%ADD14R,0.06X0.06*%
%ADD15C,0.06*%
%ADD16C,0.07*%
%ADD17R,0.07X0.07*%
%ADD18C,0.189*%
%ADD19R,0.189X0.189*%
%ADD20R,0.06X0.08*%
%ADD21R,0.0709X0.0629*%
%ADD22R,0.08X0.06*%
%ADD23R,0.025X0.045*%
%ADD24C,0.023622*%
%ADD25C,0.01*%
G04 APERTURE END LIST*
G54D10*
G54D11*
X24252Y-17548D03*
X29961Y-20048D03*
X25158Y-20048D03*
X25158Y-15009D03*
X29961Y-15009D03*
G54D12*
X24800Y-12100D03*
G54D13*
X26800Y-12100D03*
G54D11*
X21000Y-28050D03*
X22000Y-28050D03*
X18000Y-28050D03*
X17000Y-28050D03*
X16000Y-28050D03*
X16000Y-25050D03*
X17000Y-25050D03*
X19000Y-25050D03*
X20000Y-25050D03*
X21000Y-25050D03*
X22000Y-25050D03*
X24252Y-24048D03*
X29961Y-26548D03*
X25158Y-26548D03*
X25158Y-21509D03*
X29961Y-21509D03*
G54D14*
X15850Y-20400D03*
G54D15*
X15850Y-19400D03*
X16850Y-20400D03*
X16850Y-19400D03*
X17850Y-20400D03*
X17850Y-19400D03*
X18850Y-20400D03*
X18850Y-19400D03*
X19850Y-20400D03*
X19850Y-19400D03*
G54D14*
X21200Y-19400D03*
G54D15*
X21200Y-20400D03*
G54D16*
X20700Y-12000D03*
G54D17*
X21700Y-12000D03*
G54D16*
X22700Y-12000D03*
G54D18*
X16100Y-12200D03*
G54D19*
X18500Y-12200D03*
G54D18*
X17000Y-14200D03*
G54D12*
X31200Y-12100D03*
G54D13*
X29200Y-12100D03*
G54D11*
X22700Y-21400D03*
X21700Y-21400D03*
X20700Y-21400D03*
X19700Y-21400D03*
X18700Y-21400D03*
X16700Y-21400D03*
X15700Y-21400D03*
X15700Y-24000D03*
X16700Y-24000D03*
X17700Y-24000D03*
X18700Y-24000D03*
X19700Y-24000D03*
X20700Y-24000D03*
X21700Y-24000D03*
X22700Y-24000D03*
X17700Y-21400D03*
G54D20*
X18000Y-16100D03*
X19300Y-16100D03*
X15800Y-16100D03*
X17100Y-16100D03*
X18750Y-17200D03*
X20050Y-17200D03*
G54D21*
X16800Y-18259D03*
X16800Y-17141D03*
X15800Y-18259D03*
X15800Y-17141D03*
X17800Y-18259D03*
X17800Y-17141D03*
G54D22*
X22400Y-19250D03*
X22400Y-20550D03*
G54D23*
X20700Y-13200D03*
X21300Y-13200D03*
X22700Y-13200D03*
X22100Y-13200D03*
G54D24*
X20700Y-12000D02*
X20700Y-13200D01*
G54D25*
X22400Y-19250D02*
X22850Y-19250D01*
X23200Y-20900D02*
X22700Y-21400D01*
X23200Y-19600D02*
X23200Y-20900D01*
X22850Y-19250D02*
X23200Y-19600D01*
X22400Y-19250D02*
X22400Y-18600D01*
X22059Y-18259D02*
X19259Y-18259D01*
X22400Y-18600D02*
X22059Y-18259D01*
X17800Y-18259D02*
X19259Y-18259D01*
X19850Y-18850D02*
X19850Y-19400D01*
X19259Y-18259D02*
X19850Y-18850D01*
X22700Y-13200D02*
X22700Y-12000D01*
X16800Y-18259D02*
X16800Y-18500D01*
X15850Y-20100D02*
X15850Y-20400D01*
X16350Y-19600D02*
X15850Y-20100D01*
X16350Y-18950D02*
X16350Y-19600D01*
X16800Y-18500D02*
X16350Y-18950D01*
X15800Y-18259D02*
X15800Y-19350D01*
X15800Y-19350D02*
X15850Y-19400D01*
X15800Y-16100D02*
X15800Y-17141D01*
X18750Y-17200D02*
X17859Y-17200D01*
X17859Y-17200D02*
X17800Y-17141D01*
X18000Y-16100D02*
X18000Y-15600D01*
X16400Y-16741D02*
X16800Y-17141D01*
X16400Y-15600D02*
X16400Y-16741D01*
X16600Y-15400D02*
X16400Y-15600D01*
X17800Y-15400D02*
X16600Y-15400D01*
X18000Y-15600D02*
X17800Y-15400D01*
X21350Y-20550D02*
X21200Y-20400D01*
X22400Y-20550D02*
X21350Y-20550D01*
G54D10*
G36*
X17157Y-16150D02*
X17150Y-16150D01*
X17150Y-16157D01*
X17050Y-16157D01*
X17050Y-16150D01*
X17042Y-16150D01*
X17042Y-16050D01*
X17050Y-16050D01*
X17050Y-16042D01*
X17150Y-16042D01*
X17150Y-16050D01*
X17157Y-16050D01*
X17157Y-16150D01*
X17157Y-16150D01*
G37*
G54D25*
X17157Y-16150D02*
X17150Y-16150D01*
X17150Y-16157D01*
X17050Y-16157D01*
X17050Y-16150D01*
X17042Y-16150D01*
X17042Y-16050D01*
X17050Y-16050D01*
X17050Y-16042D01*
X17150Y-16042D01*
X17150Y-16050D01*
X17157Y-16050D01*
X17157Y-16150D01*
G54D10*
G36*
X19619Y-19899D02*
X19538Y-19933D01*
X19384Y-20088D01*
X19350Y-20169D01*
X19316Y-20088D01*
X19161Y-19934D01*
X19086Y-19902D01*
X19137Y-19881D01*
X19165Y-19785D01*
X18850Y-19470D01*
X18534Y-19785D01*
X18562Y-19881D01*
X18617Y-19900D01*
X18538Y-19933D01*
X18384Y-20088D01*
X18350Y-20169D01*
X18316Y-20088D01*
X18161Y-19934D01*
X18080Y-19900D01*
X18161Y-19866D01*
X18315Y-19711D01*
X18347Y-19636D01*
X18368Y-19687D01*
X18464Y-19715D01*
X18779Y-19400D01*
X18464Y-19084D01*
X18368Y-19112D01*
X18349Y-19167D01*
X18316Y-19088D01*
X18161Y-18934D01*
X17959Y-18850D01*
X17741Y-18849D01*
X17538Y-18933D01*
X17384Y-19088D01*
X17350Y-19169D01*
X17316Y-19088D01*
X17161Y-18934D01*
X16959Y-18850D01*
X16874Y-18850D01*
X16900Y-18823D01*
X17204Y-18823D01*
X17295Y-18785D01*
X17299Y-18781D01*
X17303Y-18785D01*
X17395Y-18823D01*
X17495Y-18823D01*
X18204Y-18823D01*
X18295Y-18785D01*
X18366Y-18715D01*
X18404Y-18623D01*
X18404Y-18559D01*
X19134Y-18559D01*
X19524Y-18948D01*
X19384Y-19088D01*
X19352Y-19163D01*
X19331Y-19112D01*
X19235Y-19084D01*
X19165Y-19155D01*
X19165Y-19014D01*
X19137Y-18918D01*
X18931Y-18845D01*
X18713Y-18856D01*
X18562Y-18918D01*
X18534Y-19014D01*
X18850Y-19329D01*
X19165Y-19014D01*
X19165Y-19155D01*
X18920Y-19400D01*
X19235Y-19715D01*
X19331Y-19687D01*
X19350Y-19632D01*
X19383Y-19711D01*
X19538Y-19865D01*
X19619Y-19899D01*
X19619Y-19899D01*
G37*
G54D25*
X19619Y-19899D02*
X19538Y-19933D01*
X19384Y-20088D01*
X19350Y-20169D01*
X19316Y-20088D01*
X19161Y-19934D01*
X19086Y-19902D01*
X19137Y-19881D01*
X19165Y-19785D01*
X18850Y-19470D01*
X18534Y-19785D01*
X18562Y-19881D01*
X18617Y-19900D01*
X18538Y-19933D01*
X18384Y-20088D01*
X18350Y-20169D01*
X18316Y-20088D01*
X18161Y-19934D01*
X18080Y-19900D01*
X18161Y-19866D01*
X18315Y-19711D01*
X18347Y-19636D01*
X18368Y-19687D01*
X18464Y-19715D01*
X18779Y-19400D01*
X18464Y-19084D01*
X18368Y-19112D01*
X18349Y-19167D01*
X18316Y-19088D01*
X18161Y-18934D01*
X17959Y-18850D01*
X17741Y-18849D01*
X17538Y-18933D01*
X17384Y-19088D01*
X17350Y-19169D01*
X17316Y-19088D01*
X17161Y-18934D01*
X16959Y-18850D01*
X16874Y-18850D01*
X16900Y-18823D01*
X17204Y-18823D01*
X17295Y-18785D01*
X17299Y-18781D01*
X17303Y-18785D01*
X17395Y-18823D01*
X17495Y-18823D01*
X18204Y-18823D01*
X18295Y-18785D01*
X18366Y-18715D01*
X18404Y-18623D01*
X18404Y-18559D01*
X19134Y-18559D01*
X19524Y-18948D01*
X19384Y-19088D01*
X19352Y-19163D01*
X19331Y-19112D01*
X19235Y-19084D01*
X19165Y-19155D01*
X19165Y-19014D01*
X19137Y-18918D01*
X18931Y-18845D01*
X18713Y-18856D01*
X18562Y-18918D01*
X18534Y-19014D01*
X18850Y-19329D01*
X19165Y-19014D01*
X19165Y-19155D01*
X18920Y-19400D01*
X19235Y-19715D01*
X19331Y-19687D01*
X19350Y-19632D01*
X19383Y-19711D01*
X19538Y-19865D01*
X19619Y-19899D01*
G54D10*
G36*
X22075Y-18699D02*
X21950Y-18699D01*
X21858Y-18737D01*
X21788Y-18808D01*
X21750Y-18900D01*
X21749Y-18999D01*
X21749Y-19050D01*
X21712Y-18958D01*
X21641Y-18888D01*
X21549Y-18850D01*
X21450Y-18849D01*
X21312Y-18850D01*
X21250Y-18912D01*
X21250Y-19350D01*
X21257Y-19350D01*
X21257Y-19450D01*
X21250Y-19450D01*
X21250Y-19457D01*
X21150Y-19457D01*
X21150Y-19450D01*
X21150Y-19350D01*
X21150Y-18912D01*
X21087Y-18850D01*
X20949Y-18849D01*
X20850Y-18850D01*
X20758Y-18888D01*
X20687Y-18958D01*
X20649Y-19050D01*
X20650Y-19287D01*
X20712Y-19350D01*
X21150Y-19350D01*
X21150Y-19450D01*
X20712Y-19450D01*
X20650Y-19512D01*
X20649Y-19749D01*
X20687Y-19841D01*
X20758Y-19911D01*
X20850Y-19949D01*
X20872Y-19949D01*
X20734Y-20088D01*
X20650Y-20290D01*
X20649Y-20508D01*
X20733Y-20711D01*
X20888Y-20865D01*
X21090Y-20949D01*
X21308Y-20950D01*
X21511Y-20866D01*
X21527Y-20850D01*
X21749Y-20850D01*
X21749Y-20854D01*
X21592Y-20854D01*
X21391Y-20937D01*
X21238Y-21090D01*
X21200Y-21182D01*
X21162Y-21091D01*
X21009Y-20938D01*
X20808Y-20854D01*
X20592Y-20854D01*
X20391Y-20937D01*
X20238Y-21090D01*
X20200Y-21182D01*
X20162Y-21091D01*
X20009Y-20938D01*
X19998Y-20933D01*
X20161Y-20866D01*
X20315Y-20711D01*
X20399Y-20509D01*
X20400Y-20291D01*
X20316Y-20088D01*
X20161Y-19934D01*
X20080Y-19900D01*
X20161Y-19866D01*
X20315Y-19711D01*
X20399Y-19509D01*
X20400Y-19291D01*
X20316Y-19088D01*
X20161Y-18934D01*
X20150Y-18929D01*
X20150Y-18850D01*
X20127Y-18735D01*
X20062Y-18637D01*
X20062Y-18637D01*
X19983Y-18559D01*
X21934Y-18559D01*
X22075Y-18699D01*
X22075Y-18699D01*
G37*
G54D25*
X22075Y-18699D02*
X21950Y-18699D01*
X21858Y-18737D01*
X21788Y-18808D01*
X21750Y-18900D01*
X21749Y-18999D01*
X21749Y-19050D01*
X21712Y-18958D01*
X21641Y-18888D01*
X21549Y-18850D01*
X21450Y-18849D01*
X21312Y-18850D01*
X21250Y-18912D01*
X21250Y-19350D01*
X21257Y-19350D01*
X21257Y-19450D01*
X21250Y-19450D01*
X21250Y-19457D01*
X21150Y-19457D01*
X21150Y-19450D01*
X21150Y-19350D01*
X21150Y-18912D01*
X21087Y-18850D01*
X20949Y-18849D01*
X20850Y-18850D01*
X20758Y-18888D01*
X20687Y-18958D01*
X20649Y-19050D01*
X20650Y-19287D01*
X20712Y-19350D01*
X21150Y-19350D01*
X21150Y-19450D01*
X20712Y-19450D01*
X20650Y-19512D01*
X20649Y-19749D01*
X20687Y-19841D01*
X20758Y-19911D01*
X20850Y-19949D01*
X20872Y-19949D01*
X20734Y-20088D01*
X20650Y-20290D01*
X20649Y-20508D01*
X20733Y-20711D01*
X20888Y-20865D01*
X21090Y-20949D01*
X21308Y-20950D01*
X21511Y-20866D01*
X21527Y-20850D01*
X21749Y-20850D01*
X21749Y-20854D01*
X21592Y-20854D01*
X21391Y-20937D01*
X21238Y-21090D01*
X21200Y-21182D01*
X21162Y-21091D01*
X21009Y-20938D01*
X20808Y-20854D01*
X20592Y-20854D01*
X20391Y-20937D01*
X20238Y-21090D01*
X20200Y-21182D01*
X20162Y-21091D01*
X20009Y-20938D01*
X19998Y-20933D01*
X20161Y-20866D01*
X20315Y-20711D01*
X20399Y-20509D01*
X20400Y-20291D01*
X20316Y-20088D01*
X20161Y-19934D01*
X20080Y-19900D01*
X20161Y-19866D01*
X20315Y-19711D01*
X20399Y-19509D01*
X20400Y-19291D01*
X20316Y-19088D01*
X20161Y-18934D01*
X20150Y-18929D01*
X20150Y-18850D01*
X20127Y-18735D01*
X20062Y-18637D01*
X20062Y-18637D01*
X19983Y-18559D01*
X21934Y-18559D01*
X22075Y-18699D01*
G54D10*
G36*
X32200Y-29400D02*
X31950Y-29400D01*
X31950Y-12550D01*
X31950Y-11550D01*
X31912Y-11458D01*
X31841Y-11388D01*
X31749Y-11350D01*
X31650Y-11349D01*
X30650Y-11349D01*
X30558Y-11387D01*
X30488Y-11458D01*
X30450Y-11550D01*
X30449Y-11649D01*
X30449Y-12649D01*
X30487Y-12741D01*
X30558Y-12811D01*
X30650Y-12849D01*
X30749Y-12850D01*
X31749Y-12850D01*
X31841Y-12812D01*
X31911Y-12741D01*
X31949Y-12649D01*
X31950Y-12550D01*
X31950Y-29400D01*
X30511Y-29400D01*
X30511Y-21590D01*
X30511Y-15090D01*
X30500Y-14873D01*
X30438Y-14724D01*
X30343Y-14697D01*
X30273Y-14768D01*
X30273Y-14626D01*
X30246Y-14532D01*
X30042Y-14459D01*
X29950Y-14464D01*
X29950Y-11951D01*
X29836Y-11675D01*
X29625Y-11464D01*
X29349Y-11350D01*
X29051Y-11349D01*
X28775Y-11463D01*
X28564Y-11674D01*
X28450Y-11950D01*
X28449Y-12248D01*
X28563Y-12524D01*
X28774Y-12735D01*
X29050Y-12849D01*
X29348Y-12850D01*
X29624Y-12736D01*
X29835Y-12525D01*
X29949Y-12249D01*
X29950Y-11951D01*
X29950Y-14464D01*
X29825Y-14470D01*
X29676Y-14532D01*
X29649Y-14626D01*
X29961Y-14938D01*
X30273Y-14626D01*
X30273Y-14768D01*
X30032Y-15009D01*
X30343Y-15321D01*
X30438Y-15294D01*
X30511Y-15090D01*
X30511Y-21590D01*
X30506Y-21497D01*
X30506Y-19940D01*
X30423Y-19740D01*
X30273Y-19589D01*
X30273Y-15391D01*
X29961Y-15080D01*
X29890Y-15150D01*
X29890Y-15009D01*
X29578Y-14697D01*
X29484Y-14724D01*
X29411Y-14928D01*
X29422Y-15145D01*
X29484Y-15294D01*
X29578Y-15321D01*
X29890Y-15009D01*
X29890Y-15150D01*
X29649Y-15391D01*
X29676Y-15486D01*
X29880Y-15559D01*
X30097Y-15548D01*
X30246Y-15486D01*
X30273Y-15391D01*
X30273Y-19589D01*
X30270Y-19586D01*
X30070Y-19503D01*
X29853Y-19503D01*
X29652Y-19586D01*
X29499Y-19739D01*
X29416Y-19939D01*
X29416Y-20156D01*
X29498Y-20357D01*
X29652Y-20510D01*
X29852Y-20593D01*
X30069Y-20594D01*
X30269Y-20511D01*
X30423Y-20358D01*
X30506Y-20157D01*
X30506Y-19940D01*
X30506Y-21497D01*
X30500Y-21373D01*
X30438Y-21224D01*
X30343Y-21197D01*
X30273Y-21268D01*
X30273Y-21126D01*
X30246Y-21032D01*
X30042Y-20959D01*
X29825Y-20970D01*
X29676Y-21032D01*
X29649Y-21126D01*
X29961Y-21438D01*
X30273Y-21126D01*
X30273Y-21268D01*
X30032Y-21509D01*
X30343Y-21821D01*
X30438Y-21794D01*
X30511Y-21590D01*
X30511Y-29400D01*
X30506Y-29400D01*
X30506Y-26440D01*
X30423Y-26240D01*
X30273Y-26089D01*
X30273Y-21891D01*
X29961Y-21580D01*
X29890Y-21650D01*
X29890Y-21509D01*
X29578Y-21197D01*
X29484Y-21224D01*
X29411Y-21428D01*
X29422Y-21645D01*
X29484Y-21794D01*
X29578Y-21821D01*
X29890Y-21509D01*
X29890Y-21650D01*
X29649Y-21891D01*
X29676Y-21986D01*
X29880Y-22059D01*
X30097Y-22048D01*
X30246Y-21986D01*
X30273Y-21891D01*
X30273Y-26089D01*
X30270Y-26086D01*
X30070Y-26003D01*
X29853Y-26003D01*
X29652Y-26086D01*
X29499Y-26239D01*
X29416Y-26439D01*
X29416Y-26656D01*
X29498Y-26857D01*
X29652Y-27010D01*
X29852Y-27093D01*
X30069Y-27094D01*
X30269Y-27011D01*
X30423Y-26858D01*
X30506Y-26657D01*
X30506Y-26440D01*
X30506Y-29400D01*
X27550Y-29400D01*
X27550Y-11951D01*
X27436Y-11675D01*
X27225Y-11464D01*
X26949Y-11350D01*
X26651Y-11349D01*
X26375Y-11463D01*
X26164Y-11674D01*
X26050Y-11950D01*
X26049Y-12248D01*
X26163Y-12524D01*
X26374Y-12735D01*
X26650Y-12849D01*
X26948Y-12850D01*
X27224Y-12736D01*
X27435Y-12525D01*
X27549Y-12249D01*
X27550Y-11951D01*
X27550Y-29400D01*
X25708Y-29400D01*
X25708Y-21590D01*
X25708Y-15090D01*
X25697Y-14873D01*
X25635Y-14724D01*
X25550Y-14700D01*
X25550Y-12550D01*
X25550Y-11550D01*
X25512Y-11458D01*
X25441Y-11388D01*
X25349Y-11350D01*
X25250Y-11349D01*
X24250Y-11349D01*
X24158Y-11387D01*
X24088Y-11458D01*
X24050Y-11550D01*
X24049Y-11649D01*
X24049Y-12649D01*
X24087Y-12741D01*
X24158Y-12811D01*
X24250Y-12849D01*
X24349Y-12850D01*
X25349Y-12850D01*
X25441Y-12812D01*
X25511Y-12741D01*
X25549Y-12649D01*
X25550Y-12550D01*
X25550Y-14700D01*
X25540Y-14697D01*
X25470Y-14768D01*
X25470Y-14626D01*
X25443Y-14532D01*
X25238Y-14459D01*
X25022Y-14470D01*
X24873Y-14532D01*
X24846Y-14626D01*
X25158Y-14938D01*
X25470Y-14626D01*
X25470Y-14768D01*
X25228Y-15009D01*
X25540Y-15321D01*
X25635Y-15294D01*
X25708Y-15090D01*
X25708Y-21590D01*
X25703Y-21497D01*
X25703Y-19940D01*
X25620Y-19740D01*
X25470Y-19589D01*
X25470Y-15391D01*
X25158Y-15080D01*
X25087Y-15150D01*
X25087Y-15009D01*
X24775Y-14697D01*
X24680Y-14724D01*
X24608Y-14928D01*
X24619Y-15145D01*
X24680Y-15294D01*
X24775Y-15321D01*
X25087Y-15009D01*
X25087Y-15150D01*
X24846Y-15391D01*
X24873Y-15486D01*
X25077Y-15559D01*
X25294Y-15548D01*
X25443Y-15486D01*
X25470Y-15391D01*
X25470Y-19589D01*
X25467Y-19586D01*
X25267Y-19503D01*
X25050Y-19503D01*
X24849Y-19586D01*
X24802Y-19633D01*
X24802Y-17629D01*
X24791Y-17412D01*
X24730Y-17263D01*
X24635Y-17237D01*
X24564Y-17307D01*
X24564Y-17166D01*
X24537Y-17071D01*
X24333Y-16998D01*
X24116Y-17009D01*
X23967Y-17071D01*
X23940Y-17166D01*
X24252Y-17478D01*
X24564Y-17166D01*
X24564Y-17307D01*
X24323Y-17548D01*
X24635Y-17860D01*
X24730Y-17833D01*
X24802Y-17629D01*
X24802Y-19633D01*
X24696Y-19739D01*
X24613Y-19939D01*
X24612Y-20156D01*
X24695Y-20357D01*
X24848Y-20510D01*
X25049Y-20593D01*
X25266Y-20594D01*
X25466Y-20511D01*
X25620Y-20358D01*
X25703Y-20157D01*
X25703Y-19940D01*
X25703Y-21497D01*
X25697Y-21373D01*
X25635Y-21224D01*
X25540Y-21197D01*
X25470Y-21268D01*
X25470Y-21126D01*
X25443Y-21032D01*
X25238Y-20959D01*
X25022Y-20970D01*
X24873Y-21032D01*
X24846Y-21126D01*
X25158Y-21438D01*
X25470Y-21126D01*
X25470Y-21268D01*
X25228Y-21509D01*
X25540Y-21821D01*
X25635Y-21794D01*
X25708Y-21590D01*
X25708Y-29400D01*
X25703Y-29400D01*
X25703Y-26440D01*
X25620Y-26240D01*
X25470Y-26089D01*
X25470Y-21891D01*
X25158Y-21580D01*
X25087Y-21650D01*
X25087Y-21509D01*
X24775Y-21197D01*
X24680Y-21224D01*
X24608Y-21428D01*
X24619Y-21645D01*
X24680Y-21794D01*
X24775Y-21821D01*
X25087Y-21509D01*
X25087Y-21650D01*
X24846Y-21891D01*
X24873Y-21986D01*
X25077Y-22059D01*
X25294Y-22048D01*
X25443Y-21986D01*
X25470Y-21891D01*
X25470Y-26089D01*
X25467Y-26086D01*
X25267Y-26003D01*
X25050Y-26003D01*
X24849Y-26086D01*
X24802Y-26133D01*
X24802Y-24129D01*
X24791Y-23912D01*
X24730Y-23763D01*
X24635Y-23737D01*
X24564Y-23807D01*
X24564Y-23666D01*
X24564Y-17931D01*
X24252Y-17619D01*
X24182Y-17690D01*
X24182Y-17548D01*
X23870Y-17237D01*
X23775Y-17263D01*
X23702Y-17468D01*
X23713Y-17684D01*
X23775Y-17833D01*
X23870Y-17860D01*
X24182Y-17548D01*
X24182Y-17690D01*
X23940Y-17931D01*
X23967Y-18026D01*
X24172Y-18098D01*
X24388Y-18087D01*
X24537Y-18026D01*
X24564Y-17931D01*
X24564Y-23666D01*
X24537Y-23571D01*
X24333Y-23498D01*
X24116Y-23509D01*
X23967Y-23571D01*
X23940Y-23666D01*
X24252Y-23978D01*
X24564Y-23666D01*
X24564Y-23807D01*
X24323Y-24048D01*
X24635Y-24360D01*
X24730Y-24333D01*
X24802Y-24129D01*
X24802Y-26133D01*
X24696Y-26239D01*
X24613Y-26439D01*
X24612Y-26656D01*
X24695Y-26857D01*
X24848Y-27010D01*
X25049Y-27093D01*
X25266Y-27094D01*
X25466Y-27011D01*
X25620Y-26858D01*
X25703Y-26657D01*
X25703Y-26440D01*
X25703Y-29400D01*
X24564Y-29400D01*
X24564Y-24431D01*
X24252Y-24119D01*
X24182Y-24190D01*
X24182Y-24048D01*
X23870Y-23737D01*
X23775Y-23763D01*
X23702Y-23968D01*
X23713Y-24184D01*
X23775Y-24333D01*
X23870Y-24360D01*
X24182Y-24048D01*
X24182Y-24190D01*
X23940Y-24431D01*
X23967Y-24526D01*
X24172Y-24598D01*
X24388Y-24587D01*
X24537Y-24526D01*
X24564Y-24431D01*
X24564Y-29400D01*
X23500Y-29400D01*
X23500Y-20900D01*
X23500Y-19600D01*
X23499Y-19599D01*
X23477Y-19485D01*
X23412Y-19387D01*
X23412Y-19387D01*
X23300Y-19275D01*
X23300Y-11881D01*
X23208Y-11660D01*
X23040Y-11491D01*
X22819Y-11400D01*
X22581Y-11399D01*
X22360Y-11491D01*
X22285Y-11565D01*
X22262Y-11508D01*
X22191Y-11438D01*
X22099Y-11400D01*
X22000Y-11399D01*
X21812Y-11400D01*
X21750Y-11462D01*
X21750Y-11950D01*
X21757Y-11950D01*
X21757Y-12050D01*
X21750Y-12050D01*
X21750Y-12537D01*
X21812Y-12600D01*
X22000Y-12600D01*
X22099Y-12599D01*
X22191Y-12561D01*
X22262Y-12491D01*
X22285Y-12434D01*
X22359Y-12508D01*
X22400Y-12525D01*
X22400Y-12796D01*
X22366Y-12762D01*
X22274Y-12724D01*
X22212Y-12725D01*
X22150Y-12787D01*
X22150Y-13150D01*
X22157Y-13150D01*
X22157Y-13250D01*
X22150Y-13250D01*
X22150Y-13612D01*
X22212Y-13675D01*
X22274Y-13675D01*
X22366Y-13637D01*
X22399Y-13603D01*
X22433Y-13636D01*
X22525Y-13674D01*
X22624Y-13675D01*
X22874Y-13675D01*
X22966Y-13637D01*
X23036Y-13566D01*
X23074Y-13474D01*
X23075Y-13375D01*
X23075Y-12925D01*
X23037Y-12833D01*
X23000Y-12796D01*
X23000Y-12525D01*
X23039Y-12508D01*
X23208Y-12340D01*
X23299Y-12119D01*
X23300Y-11881D01*
X23300Y-19275D01*
X23062Y-19037D01*
X23050Y-19029D01*
X23050Y-18900D01*
X23012Y-18808D01*
X22941Y-18738D01*
X22849Y-18700D01*
X22750Y-18699D01*
X22700Y-18699D01*
X22700Y-18600D01*
X22699Y-18599D01*
X22677Y-18485D01*
X22612Y-18387D01*
X22612Y-18387D01*
X22271Y-18046D01*
X22173Y-17981D01*
X22059Y-17959D01*
X22050Y-17959D01*
X22050Y-13612D01*
X22050Y-13250D01*
X22050Y-13150D01*
X22050Y-12787D01*
X21987Y-12725D01*
X21925Y-12724D01*
X21833Y-12762D01*
X21763Y-12833D01*
X21725Y-12925D01*
X21724Y-13024D01*
X21725Y-13087D01*
X21787Y-13150D01*
X22050Y-13150D01*
X22050Y-13250D01*
X21787Y-13250D01*
X21725Y-13312D01*
X21724Y-13375D01*
X21725Y-13474D01*
X21763Y-13566D01*
X21833Y-13637D01*
X21925Y-13675D01*
X21987Y-13675D01*
X22050Y-13612D01*
X22050Y-17959D01*
X21675Y-17959D01*
X21675Y-13375D01*
X21675Y-13024D01*
X21674Y-12925D01*
X21650Y-12864D01*
X21650Y-12537D01*
X21650Y-12050D01*
X21642Y-12050D01*
X21642Y-11950D01*
X21650Y-11950D01*
X21650Y-11462D01*
X21587Y-11400D01*
X21399Y-11399D01*
X21300Y-11400D01*
X21208Y-11438D01*
X21137Y-11508D01*
X21114Y-11565D01*
X21040Y-11491D01*
X20819Y-11400D01*
X20581Y-11399D01*
X20360Y-11491D01*
X20191Y-11659D01*
X20100Y-11880D01*
X20099Y-12118D01*
X20191Y-12339D01*
X20331Y-12480D01*
X20331Y-12908D01*
X20325Y-12925D01*
X20324Y-13024D01*
X20324Y-13474D01*
X20362Y-13566D01*
X20433Y-13636D01*
X20525Y-13674D01*
X20624Y-13675D01*
X20874Y-13675D01*
X20966Y-13637D01*
X21000Y-13603D01*
X21033Y-13637D01*
X21125Y-13675D01*
X21187Y-13675D01*
X21250Y-13612D01*
X21250Y-13250D01*
X21242Y-13250D01*
X21242Y-13150D01*
X21250Y-13150D01*
X21250Y-12787D01*
X21187Y-12725D01*
X21125Y-12724D01*
X21068Y-12748D01*
X21068Y-12480D01*
X21114Y-12434D01*
X21137Y-12491D01*
X21208Y-12561D01*
X21300Y-12599D01*
X21399Y-12600D01*
X21587Y-12600D01*
X21650Y-12537D01*
X21650Y-12864D01*
X21636Y-12833D01*
X21566Y-12762D01*
X21474Y-12724D01*
X21412Y-12725D01*
X21350Y-12787D01*
X21350Y-13150D01*
X21612Y-13150D01*
X21675Y-13087D01*
X21675Y-13024D01*
X21675Y-13375D01*
X21675Y-13312D01*
X21612Y-13250D01*
X21350Y-13250D01*
X21350Y-13612D01*
X21412Y-13675D01*
X21474Y-13675D01*
X21566Y-13637D01*
X21636Y-13566D01*
X21674Y-13474D01*
X21675Y-13375D01*
X21675Y-17959D01*
X20600Y-17959D01*
X20600Y-17550D01*
X20600Y-16849D01*
X20599Y-16750D01*
X20561Y-16658D01*
X20491Y-16587D01*
X20399Y-16549D01*
X20162Y-16550D01*
X20100Y-16612D01*
X20100Y-17150D01*
X20537Y-17150D01*
X20600Y-17087D01*
X20600Y-16849D01*
X20600Y-17550D01*
X20600Y-17312D01*
X20537Y-17250D01*
X20100Y-17250D01*
X20100Y-17787D01*
X20162Y-17850D01*
X20399Y-17850D01*
X20491Y-17812D01*
X20561Y-17741D01*
X20599Y-17649D01*
X20600Y-17550D01*
X20600Y-17959D01*
X20000Y-17959D01*
X20000Y-17787D01*
X20000Y-17250D01*
X20000Y-17150D01*
X20000Y-16612D01*
X19937Y-16550D01*
X19849Y-16549D01*
X19849Y-16549D01*
X19850Y-16450D01*
X19850Y-15749D01*
X19849Y-15650D01*
X19811Y-15558D01*
X19741Y-15487D01*
X19695Y-15468D01*
X19695Y-13095D01*
X19695Y-11205D01*
X19657Y-11113D01*
X19586Y-11043D01*
X19494Y-11005D01*
X19395Y-11004D01*
X17505Y-11004D01*
X17413Y-11042D01*
X17343Y-11113D01*
X17305Y-11205D01*
X17304Y-11304D01*
X17304Y-13033D01*
X17295Y-13029D01*
X17235Y-13004D01*
X16975Y-13005D01*
X16951Y-12981D01*
X17114Y-12875D01*
X17295Y-12435D01*
X17294Y-11960D01*
X17114Y-11524D01*
X16951Y-11418D01*
X16881Y-11489D01*
X16881Y-11348D01*
X16775Y-11185D01*
X16335Y-11004D01*
X15860Y-11005D01*
X15424Y-11185D01*
X15318Y-11348D01*
X16100Y-12129D01*
X16881Y-11348D01*
X16881Y-11489D01*
X16170Y-12200D01*
X16176Y-12205D01*
X16105Y-12276D01*
X16100Y-12270D01*
X16029Y-12341D01*
X16029Y-12200D01*
X15248Y-11418D01*
X15085Y-11524D01*
X14904Y-11964D01*
X14905Y-12439D01*
X15085Y-12875D01*
X15248Y-12981D01*
X16029Y-12200D01*
X16029Y-12341D01*
X15318Y-13051D01*
X15424Y-13214D01*
X15864Y-13395D01*
X16124Y-13394D01*
X16148Y-13418D01*
X15985Y-13524D01*
X15804Y-13964D01*
X15805Y-14439D01*
X15985Y-14875D01*
X16148Y-14981D01*
X16929Y-14200D01*
X16923Y-14194D01*
X16994Y-14123D01*
X17000Y-14129D01*
X17005Y-14123D01*
X17076Y-14194D01*
X17070Y-14200D01*
X17851Y-14981D01*
X18014Y-14875D01*
X18195Y-14435D01*
X18194Y-13960D01*
X18014Y-13524D01*
X17851Y-13418D01*
X17875Y-13395D01*
X19494Y-13395D01*
X19586Y-13357D01*
X19656Y-13286D01*
X19694Y-13194D01*
X19695Y-13095D01*
X19695Y-15468D01*
X19649Y-15449D01*
X19412Y-15450D01*
X19350Y-15512D01*
X19350Y-16050D01*
X19787Y-16050D01*
X19850Y-15987D01*
X19850Y-15749D01*
X19850Y-16450D01*
X19850Y-16212D01*
X19787Y-16150D01*
X19350Y-16150D01*
X19350Y-16687D01*
X19412Y-16750D01*
X19500Y-16750D01*
X19500Y-16750D01*
X19499Y-16849D01*
X19500Y-17087D01*
X19562Y-17150D01*
X20000Y-17150D01*
X20000Y-17250D01*
X19562Y-17250D01*
X19500Y-17312D01*
X19499Y-17550D01*
X19500Y-17649D01*
X19538Y-17741D01*
X19608Y-17812D01*
X19700Y-17850D01*
X19937Y-17850D01*
X20000Y-17787D01*
X20000Y-17959D01*
X19259Y-17959D01*
X18404Y-17959D01*
X18404Y-17894D01*
X18383Y-17842D01*
X18400Y-17849D01*
X18499Y-17850D01*
X19099Y-17850D01*
X19191Y-17812D01*
X19261Y-17741D01*
X19299Y-17649D01*
X19300Y-17550D01*
X19300Y-16750D01*
X19262Y-16658D01*
X19250Y-16646D01*
X19250Y-16150D01*
X19250Y-16050D01*
X19250Y-15512D01*
X19187Y-15450D01*
X18950Y-15449D01*
X18858Y-15487D01*
X18788Y-15558D01*
X18750Y-15650D01*
X18749Y-15749D01*
X18750Y-15987D01*
X18812Y-16050D01*
X19250Y-16050D01*
X19250Y-16150D01*
X18812Y-16150D01*
X18750Y-16212D01*
X18749Y-16450D01*
X18750Y-16549D01*
X18750Y-16549D01*
X18549Y-16549D01*
X18549Y-16549D01*
X18550Y-16450D01*
X18550Y-15650D01*
X18512Y-15558D01*
X18441Y-15488D01*
X18349Y-15450D01*
X18253Y-15449D01*
X18212Y-15387D01*
X18212Y-15387D01*
X18195Y-15371D01*
X18012Y-15187D01*
X17914Y-15122D01*
X17800Y-15100D01*
X17749Y-15100D01*
X17781Y-15051D01*
X17000Y-14270D01*
X16929Y-14341D01*
X16218Y-15051D01*
X16324Y-15214D01*
X16350Y-15224D01*
X16187Y-15387D01*
X16146Y-15450D01*
X16050Y-15449D01*
X15450Y-15449D01*
X15358Y-15487D01*
X15288Y-15558D01*
X15250Y-15650D01*
X15249Y-15749D01*
X15249Y-16549D01*
X15284Y-16633D01*
X15233Y-16684D01*
X15195Y-16776D01*
X15195Y-16876D01*
X15195Y-17505D01*
X15233Y-17596D01*
X15303Y-17667D01*
X15382Y-17700D01*
X15304Y-17732D01*
X15233Y-17802D01*
X15195Y-17894D01*
X15195Y-17994D01*
X15195Y-18623D01*
X15233Y-18714D01*
X15303Y-18785D01*
X15395Y-18823D01*
X15495Y-18823D01*
X15500Y-18823D01*
X15500Y-18972D01*
X15384Y-19088D01*
X15300Y-19290D01*
X15299Y-19508D01*
X15383Y-19711D01*
X15522Y-19849D01*
X15500Y-19849D01*
X15408Y-19887D01*
X15338Y-19958D01*
X15300Y-20050D01*
X15299Y-20149D01*
X15299Y-20749D01*
X15337Y-20841D01*
X15408Y-20911D01*
X15424Y-20918D01*
X15414Y-20922D01*
X15388Y-21017D01*
X15700Y-21329D01*
X16011Y-21017D01*
X15992Y-20950D01*
X16199Y-20950D01*
X16291Y-20912D01*
X16361Y-20841D01*
X16399Y-20749D01*
X16399Y-20727D01*
X16538Y-20865D01*
X16544Y-20868D01*
X16414Y-20922D01*
X16388Y-21017D01*
X16700Y-21329D01*
X17011Y-21017D01*
X16989Y-20937D01*
X17161Y-20866D01*
X17315Y-20711D01*
X17349Y-20630D01*
X17383Y-20711D01*
X17538Y-20865D01*
X17551Y-20871D01*
X17391Y-20937D01*
X17238Y-21090D01*
X17202Y-21175D01*
X17177Y-21114D01*
X17082Y-21088D01*
X16770Y-21400D01*
X17082Y-21711D01*
X17177Y-21685D01*
X17200Y-21619D01*
X17237Y-21708D01*
X17390Y-21861D01*
X17591Y-21945D01*
X17807Y-21945D01*
X18008Y-21862D01*
X18161Y-21709D01*
X18199Y-21617D01*
X18237Y-21708D01*
X18390Y-21861D01*
X18591Y-21945D01*
X18807Y-21945D01*
X19008Y-21862D01*
X19161Y-21709D01*
X19199Y-21617D01*
X19237Y-21708D01*
X19390Y-21861D01*
X19591Y-21945D01*
X19807Y-21945D01*
X20008Y-21862D01*
X20161Y-21709D01*
X20199Y-21617D01*
X20237Y-21708D01*
X20390Y-21861D01*
X20591Y-21945D01*
X20807Y-21945D01*
X21008Y-21862D01*
X21161Y-21709D01*
X21199Y-21617D01*
X21237Y-21708D01*
X21390Y-21861D01*
X21591Y-21945D01*
X21807Y-21945D01*
X22008Y-21862D01*
X22161Y-21709D01*
X22199Y-21617D01*
X22237Y-21708D01*
X22390Y-21861D01*
X22591Y-21945D01*
X22807Y-21945D01*
X23008Y-21862D01*
X23161Y-21709D01*
X23245Y-21508D01*
X23245Y-21292D01*
X23241Y-21282D01*
X23412Y-21112D01*
X23412Y-21112D01*
X23477Y-21014D01*
X23499Y-20900D01*
X23500Y-20900D01*
X23500Y-29400D01*
X23245Y-29400D01*
X23245Y-23892D01*
X23162Y-23691D01*
X23009Y-23538D01*
X22808Y-23454D01*
X22592Y-23454D01*
X22391Y-23537D01*
X22238Y-23690D01*
X22200Y-23782D01*
X22162Y-23691D01*
X22009Y-23538D01*
X21808Y-23454D01*
X21592Y-23454D01*
X21391Y-23537D01*
X21238Y-23690D01*
X21200Y-23782D01*
X21162Y-23691D01*
X21009Y-23538D01*
X20808Y-23454D01*
X20592Y-23454D01*
X20391Y-23537D01*
X20238Y-23690D01*
X20200Y-23782D01*
X20162Y-23691D01*
X20009Y-23538D01*
X19808Y-23454D01*
X19592Y-23454D01*
X19391Y-23537D01*
X19238Y-23690D01*
X19200Y-23782D01*
X19162Y-23691D01*
X19009Y-23538D01*
X18808Y-23454D01*
X18592Y-23454D01*
X18391Y-23537D01*
X18238Y-23690D01*
X18200Y-23782D01*
X18162Y-23691D01*
X18009Y-23538D01*
X17808Y-23454D01*
X17592Y-23454D01*
X17391Y-23537D01*
X17238Y-23690D01*
X17200Y-23782D01*
X17162Y-23691D01*
X17011Y-23540D01*
X17011Y-21782D01*
X16700Y-21470D01*
X16629Y-21541D01*
X16629Y-21400D01*
X16317Y-21088D01*
X16222Y-21114D01*
X16201Y-21173D01*
X16177Y-21114D01*
X16082Y-21088D01*
X15770Y-21400D01*
X16082Y-21711D01*
X16177Y-21685D01*
X16198Y-21626D01*
X16222Y-21685D01*
X16317Y-21711D01*
X16629Y-21400D01*
X16629Y-21541D01*
X16388Y-21782D01*
X16414Y-21877D01*
X16619Y-21950D01*
X16836Y-21939D01*
X16985Y-21877D01*
X17011Y-21782D01*
X17011Y-23540D01*
X17009Y-23538D01*
X16808Y-23454D01*
X16592Y-23454D01*
X16391Y-23537D01*
X16238Y-23690D01*
X16200Y-23782D01*
X16162Y-23691D01*
X16011Y-23540D01*
X16011Y-21782D01*
X15700Y-21470D01*
X15629Y-21541D01*
X15629Y-21400D01*
X15317Y-21088D01*
X15222Y-21114D01*
X15149Y-21319D01*
X15160Y-21536D01*
X15222Y-21685D01*
X15317Y-21711D01*
X15629Y-21400D01*
X15629Y-21541D01*
X15388Y-21782D01*
X15414Y-21877D01*
X15619Y-21950D01*
X15836Y-21939D01*
X15985Y-21877D01*
X16011Y-21782D01*
X16011Y-23540D01*
X16009Y-23538D01*
X15808Y-23454D01*
X15592Y-23454D01*
X15391Y-23537D01*
X15238Y-23690D01*
X15154Y-23891D01*
X15154Y-24107D01*
X15237Y-24308D01*
X15390Y-24461D01*
X15591Y-24545D01*
X15793Y-24545D01*
X15691Y-24587D01*
X15538Y-24740D01*
X15454Y-24941D01*
X15454Y-25157D01*
X15537Y-25358D01*
X15690Y-25511D01*
X15891Y-25595D01*
X16107Y-25595D01*
X16308Y-25512D01*
X16461Y-25359D01*
X16499Y-25267D01*
X16537Y-25358D01*
X16690Y-25511D01*
X16891Y-25595D01*
X17107Y-25595D01*
X17308Y-25512D01*
X17461Y-25359D01*
X17545Y-25158D01*
X17545Y-24942D01*
X17462Y-24741D01*
X17309Y-24588D01*
X17108Y-24504D01*
X16906Y-24504D01*
X17008Y-24462D01*
X17161Y-24309D01*
X17199Y-24217D01*
X17237Y-24308D01*
X17390Y-24461D01*
X17591Y-24545D01*
X17807Y-24545D01*
X18008Y-24462D01*
X18161Y-24309D01*
X18199Y-24217D01*
X18237Y-24308D01*
X18390Y-24461D01*
X18591Y-24545D01*
X18793Y-24545D01*
X18691Y-24587D01*
X18538Y-24740D01*
X18454Y-24941D01*
X18454Y-25157D01*
X18537Y-25358D01*
X18690Y-25511D01*
X18891Y-25595D01*
X19107Y-25595D01*
X19308Y-25512D01*
X19461Y-25359D01*
X19499Y-25267D01*
X19537Y-25358D01*
X19690Y-25511D01*
X19891Y-25595D01*
X20107Y-25595D01*
X20308Y-25512D01*
X20461Y-25359D01*
X20499Y-25267D01*
X20537Y-25358D01*
X20690Y-25511D01*
X20891Y-25595D01*
X21107Y-25595D01*
X21308Y-25512D01*
X21461Y-25359D01*
X21499Y-25267D01*
X21537Y-25358D01*
X21690Y-25511D01*
X21891Y-25595D01*
X22107Y-25595D01*
X22308Y-25512D01*
X22461Y-25359D01*
X22545Y-25158D01*
X22545Y-24942D01*
X22462Y-24741D01*
X22309Y-24588D01*
X22108Y-24504D01*
X21906Y-24504D01*
X22008Y-24462D01*
X22161Y-24309D01*
X22199Y-24217D01*
X22237Y-24308D01*
X22390Y-24461D01*
X22591Y-24545D01*
X22807Y-24545D01*
X23008Y-24462D01*
X23161Y-24309D01*
X23245Y-24108D01*
X23245Y-23892D01*
X23245Y-29400D01*
X22545Y-29400D01*
X22545Y-27942D01*
X22462Y-27741D01*
X22309Y-27588D01*
X22108Y-27504D01*
X21892Y-27504D01*
X21691Y-27587D01*
X21538Y-27740D01*
X21500Y-27832D01*
X21462Y-27741D01*
X21309Y-27588D01*
X21108Y-27504D01*
X20892Y-27504D01*
X20691Y-27587D01*
X20538Y-27740D01*
X20454Y-27941D01*
X20454Y-28157D01*
X20537Y-28358D01*
X20690Y-28511D01*
X20891Y-28595D01*
X21107Y-28595D01*
X21308Y-28512D01*
X21461Y-28359D01*
X21499Y-28267D01*
X21537Y-28358D01*
X21690Y-28511D01*
X21891Y-28595D01*
X22107Y-28595D01*
X22308Y-28512D01*
X22461Y-28359D01*
X22545Y-28158D01*
X22545Y-27942D01*
X22545Y-29400D01*
X18545Y-29400D01*
X18545Y-27942D01*
X18462Y-27741D01*
X18309Y-27588D01*
X18108Y-27504D01*
X17892Y-27504D01*
X17691Y-27587D01*
X17538Y-27740D01*
X17500Y-27832D01*
X17462Y-27741D01*
X17309Y-27588D01*
X17108Y-27504D01*
X16892Y-27504D01*
X16691Y-27587D01*
X16538Y-27740D01*
X16500Y-27832D01*
X16462Y-27741D01*
X16309Y-27588D01*
X16108Y-27504D01*
X15892Y-27504D01*
X15691Y-27587D01*
X15538Y-27740D01*
X15454Y-27941D01*
X15454Y-28157D01*
X15537Y-28358D01*
X15690Y-28511D01*
X15891Y-28595D01*
X16107Y-28595D01*
X16308Y-28512D01*
X16461Y-28359D01*
X16499Y-28267D01*
X16537Y-28358D01*
X16690Y-28511D01*
X16891Y-28595D01*
X17107Y-28595D01*
X17308Y-28512D01*
X17461Y-28359D01*
X17499Y-28267D01*
X17537Y-28358D01*
X17690Y-28511D01*
X17891Y-28595D01*
X18107Y-28595D01*
X18308Y-28512D01*
X18461Y-28359D01*
X18545Y-28158D01*
X18545Y-27942D01*
X18545Y-29400D01*
X14550Y-29400D01*
X14550Y-10800D01*
X32200Y-10800D01*
X32200Y-29400D01*
X32200Y-29400D01*
G37*
G54D25*
X32200Y-29400D02*
X31950Y-29400D01*
X31950Y-12550D01*
X31950Y-11550D01*
X31912Y-11458D01*
X31841Y-11388D01*
X31749Y-11350D01*
X31650Y-11349D01*
X30650Y-11349D01*
X30558Y-11387D01*
X30488Y-11458D01*
X30450Y-11550D01*
X30449Y-11649D01*
X30449Y-12649D01*
X30487Y-12741D01*
X30558Y-12811D01*
X30650Y-12849D01*
X30749Y-12850D01*
X31749Y-12850D01*
X31841Y-12812D01*
X31911Y-12741D01*
X31949Y-12649D01*
X31950Y-12550D01*
X31950Y-29400D01*
X30511Y-29400D01*
X30511Y-21590D01*
X30511Y-15090D01*
X30500Y-14873D01*
X30438Y-14724D01*
X30343Y-14697D01*
X30273Y-14768D01*
X30273Y-14626D01*
X30246Y-14532D01*
X30042Y-14459D01*
X29950Y-14464D01*
X29950Y-11951D01*
X29836Y-11675D01*
X29625Y-11464D01*
X29349Y-11350D01*
X29051Y-11349D01*
X28775Y-11463D01*
X28564Y-11674D01*
X28450Y-11950D01*
X28449Y-12248D01*
X28563Y-12524D01*
X28774Y-12735D01*
X29050Y-12849D01*
X29348Y-12850D01*
X29624Y-12736D01*
X29835Y-12525D01*
X29949Y-12249D01*
X29950Y-11951D01*
X29950Y-14464D01*
X29825Y-14470D01*
X29676Y-14532D01*
X29649Y-14626D01*
X29961Y-14938D01*
X30273Y-14626D01*
X30273Y-14768D01*
X30032Y-15009D01*
X30343Y-15321D01*
X30438Y-15294D01*
X30511Y-15090D01*
X30511Y-21590D01*
X30506Y-21497D01*
X30506Y-19940D01*
X30423Y-19740D01*
X30273Y-19589D01*
X30273Y-15391D01*
X29961Y-15080D01*
X29890Y-15150D01*
X29890Y-15009D01*
X29578Y-14697D01*
X29484Y-14724D01*
X29411Y-14928D01*
X29422Y-15145D01*
X29484Y-15294D01*
X29578Y-15321D01*
X29890Y-15009D01*
X29890Y-15150D01*
X29649Y-15391D01*
X29676Y-15486D01*
X29880Y-15559D01*
X30097Y-15548D01*
X30246Y-15486D01*
X30273Y-15391D01*
X30273Y-19589D01*
X30270Y-19586D01*
X30070Y-19503D01*
X29853Y-19503D01*
X29652Y-19586D01*
X29499Y-19739D01*
X29416Y-19939D01*
X29416Y-20156D01*
X29498Y-20357D01*
X29652Y-20510D01*
X29852Y-20593D01*
X30069Y-20594D01*
X30269Y-20511D01*
X30423Y-20358D01*
X30506Y-20157D01*
X30506Y-19940D01*
X30506Y-21497D01*
X30500Y-21373D01*
X30438Y-21224D01*
X30343Y-21197D01*
X30273Y-21268D01*
X30273Y-21126D01*
X30246Y-21032D01*
X30042Y-20959D01*
X29825Y-20970D01*
X29676Y-21032D01*
X29649Y-21126D01*
X29961Y-21438D01*
X30273Y-21126D01*
X30273Y-21268D01*
X30032Y-21509D01*
X30343Y-21821D01*
X30438Y-21794D01*
X30511Y-21590D01*
X30511Y-29400D01*
X30506Y-29400D01*
X30506Y-26440D01*
X30423Y-26240D01*
X30273Y-26089D01*
X30273Y-21891D01*
X29961Y-21580D01*
X29890Y-21650D01*
X29890Y-21509D01*
X29578Y-21197D01*
X29484Y-21224D01*
X29411Y-21428D01*
X29422Y-21645D01*
X29484Y-21794D01*
X29578Y-21821D01*
X29890Y-21509D01*
X29890Y-21650D01*
X29649Y-21891D01*
X29676Y-21986D01*
X29880Y-22059D01*
X30097Y-22048D01*
X30246Y-21986D01*
X30273Y-21891D01*
X30273Y-26089D01*
X30270Y-26086D01*
X30070Y-26003D01*
X29853Y-26003D01*
X29652Y-26086D01*
X29499Y-26239D01*
X29416Y-26439D01*
X29416Y-26656D01*
X29498Y-26857D01*
X29652Y-27010D01*
X29852Y-27093D01*
X30069Y-27094D01*
X30269Y-27011D01*
X30423Y-26858D01*
X30506Y-26657D01*
X30506Y-26440D01*
X30506Y-29400D01*
X27550Y-29400D01*
X27550Y-11951D01*
X27436Y-11675D01*
X27225Y-11464D01*
X26949Y-11350D01*
X26651Y-11349D01*
X26375Y-11463D01*
X26164Y-11674D01*
X26050Y-11950D01*
X26049Y-12248D01*
X26163Y-12524D01*
X26374Y-12735D01*
X26650Y-12849D01*
X26948Y-12850D01*
X27224Y-12736D01*
X27435Y-12525D01*
X27549Y-12249D01*
X27550Y-11951D01*
X27550Y-29400D01*
X25708Y-29400D01*
X25708Y-21590D01*
X25708Y-15090D01*
X25697Y-14873D01*
X25635Y-14724D01*
X25550Y-14700D01*
X25550Y-12550D01*
X25550Y-11550D01*
X25512Y-11458D01*
X25441Y-11388D01*
X25349Y-11350D01*
X25250Y-11349D01*
X24250Y-11349D01*
X24158Y-11387D01*
X24088Y-11458D01*
X24050Y-11550D01*
X24049Y-11649D01*
X24049Y-12649D01*
X24087Y-12741D01*
X24158Y-12811D01*
X24250Y-12849D01*
X24349Y-12850D01*
X25349Y-12850D01*
X25441Y-12812D01*
X25511Y-12741D01*
X25549Y-12649D01*
X25550Y-12550D01*
X25550Y-14700D01*
X25540Y-14697D01*
X25470Y-14768D01*
X25470Y-14626D01*
X25443Y-14532D01*
X25238Y-14459D01*
X25022Y-14470D01*
X24873Y-14532D01*
X24846Y-14626D01*
X25158Y-14938D01*
X25470Y-14626D01*
X25470Y-14768D01*
X25228Y-15009D01*
X25540Y-15321D01*
X25635Y-15294D01*
X25708Y-15090D01*
X25708Y-21590D01*
X25703Y-21497D01*
X25703Y-19940D01*
X25620Y-19740D01*
X25470Y-19589D01*
X25470Y-15391D01*
X25158Y-15080D01*
X25087Y-15150D01*
X25087Y-15009D01*
X24775Y-14697D01*
X24680Y-14724D01*
X24608Y-14928D01*
X24619Y-15145D01*
X24680Y-15294D01*
X24775Y-15321D01*
X25087Y-15009D01*
X25087Y-15150D01*
X24846Y-15391D01*
X24873Y-15486D01*
X25077Y-15559D01*
X25294Y-15548D01*
X25443Y-15486D01*
X25470Y-15391D01*
X25470Y-19589D01*
X25467Y-19586D01*
X25267Y-19503D01*
X25050Y-19503D01*
X24849Y-19586D01*
X24802Y-19633D01*
X24802Y-17629D01*
X24791Y-17412D01*
X24730Y-17263D01*
X24635Y-17237D01*
X24564Y-17307D01*
X24564Y-17166D01*
X24537Y-17071D01*
X24333Y-16998D01*
X24116Y-17009D01*
X23967Y-17071D01*
X23940Y-17166D01*
X24252Y-17478D01*
X24564Y-17166D01*
X24564Y-17307D01*
X24323Y-17548D01*
X24635Y-17860D01*
X24730Y-17833D01*
X24802Y-17629D01*
X24802Y-19633D01*
X24696Y-19739D01*
X24613Y-19939D01*
X24612Y-20156D01*
X24695Y-20357D01*
X24848Y-20510D01*
X25049Y-20593D01*
X25266Y-20594D01*
X25466Y-20511D01*
X25620Y-20358D01*
X25703Y-20157D01*
X25703Y-19940D01*
X25703Y-21497D01*
X25697Y-21373D01*
X25635Y-21224D01*
X25540Y-21197D01*
X25470Y-21268D01*
X25470Y-21126D01*
X25443Y-21032D01*
X25238Y-20959D01*
X25022Y-20970D01*
X24873Y-21032D01*
X24846Y-21126D01*
X25158Y-21438D01*
X25470Y-21126D01*
X25470Y-21268D01*
X25228Y-21509D01*
X25540Y-21821D01*
X25635Y-21794D01*
X25708Y-21590D01*
X25708Y-29400D01*
X25703Y-29400D01*
X25703Y-26440D01*
X25620Y-26240D01*
X25470Y-26089D01*
X25470Y-21891D01*
X25158Y-21580D01*
X25087Y-21650D01*
X25087Y-21509D01*
X24775Y-21197D01*
X24680Y-21224D01*
X24608Y-21428D01*
X24619Y-21645D01*
X24680Y-21794D01*
X24775Y-21821D01*
X25087Y-21509D01*
X25087Y-21650D01*
X24846Y-21891D01*
X24873Y-21986D01*
X25077Y-22059D01*
X25294Y-22048D01*
X25443Y-21986D01*
X25470Y-21891D01*
X25470Y-26089D01*
X25467Y-26086D01*
X25267Y-26003D01*
X25050Y-26003D01*
X24849Y-26086D01*
X24802Y-26133D01*
X24802Y-24129D01*
X24791Y-23912D01*
X24730Y-23763D01*
X24635Y-23737D01*
X24564Y-23807D01*
X24564Y-23666D01*
X24564Y-17931D01*
X24252Y-17619D01*
X24182Y-17690D01*
X24182Y-17548D01*
X23870Y-17237D01*
X23775Y-17263D01*
X23702Y-17468D01*
X23713Y-17684D01*
X23775Y-17833D01*
X23870Y-17860D01*
X24182Y-17548D01*
X24182Y-17690D01*
X23940Y-17931D01*
X23967Y-18026D01*
X24172Y-18098D01*
X24388Y-18087D01*
X24537Y-18026D01*
X24564Y-17931D01*
X24564Y-23666D01*
X24537Y-23571D01*
X24333Y-23498D01*
X24116Y-23509D01*
X23967Y-23571D01*
X23940Y-23666D01*
X24252Y-23978D01*
X24564Y-23666D01*
X24564Y-23807D01*
X24323Y-24048D01*
X24635Y-24360D01*
X24730Y-24333D01*
X24802Y-24129D01*
X24802Y-26133D01*
X24696Y-26239D01*
X24613Y-26439D01*
X24612Y-26656D01*
X24695Y-26857D01*
X24848Y-27010D01*
X25049Y-27093D01*
X25266Y-27094D01*
X25466Y-27011D01*
X25620Y-26858D01*
X25703Y-26657D01*
X25703Y-26440D01*
X25703Y-29400D01*
X24564Y-29400D01*
X24564Y-24431D01*
X24252Y-24119D01*
X24182Y-24190D01*
X24182Y-24048D01*
X23870Y-23737D01*
X23775Y-23763D01*
X23702Y-23968D01*
X23713Y-24184D01*
X23775Y-24333D01*
X23870Y-24360D01*
X24182Y-24048D01*
X24182Y-24190D01*
X23940Y-24431D01*
X23967Y-24526D01*
X24172Y-24598D01*
X24388Y-24587D01*
X24537Y-24526D01*
X24564Y-24431D01*
X24564Y-29400D01*
X23500Y-29400D01*
X23500Y-20900D01*
X23500Y-19600D01*
X23499Y-19599D01*
X23477Y-19485D01*
X23412Y-19387D01*
X23412Y-19387D01*
X23300Y-19275D01*
X23300Y-11881D01*
X23208Y-11660D01*
X23040Y-11491D01*
X22819Y-11400D01*
X22581Y-11399D01*
X22360Y-11491D01*
X22285Y-11565D01*
X22262Y-11508D01*
X22191Y-11438D01*
X22099Y-11400D01*
X22000Y-11399D01*
X21812Y-11400D01*
X21750Y-11462D01*
X21750Y-11950D01*
X21757Y-11950D01*
X21757Y-12050D01*
X21750Y-12050D01*
X21750Y-12537D01*
X21812Y-12600D01*
X22000Y-12600D01*
X22099Y-12599D01*
X22191Y-12561D01*
X22262Y-12491D01*
X22285Y-12434D01*
X22359Y-12508D01*
X22400Y-12525D01*
X22400Y-12796D01*
X22366Y-12762D01*
X22274Y-12724D01*
X22212Y-12725D01*
X22150Y-12787D01*
X22150Y-13150D01*
X22157Y-13150D01*
X22157Y-13250D01*
X22150Y-13250D01*
X22150Y-13612D01*
X22212Y-13675D01*
X22274Y-13675D01*
X22366Y-13637D01*
X22399Y-13603D01*
X22433Y-13636D01*
X22525Y-13674D01*
X22624Y-13675D01*
X22874Y-13675D01*
X22966Y-13637D01*
X23036Y-13566D01*
X23074Y-13474D01*
X23075Y-13375D01*
X23075Y-12925D01*
X23037Y-12833D01*
X23000Y-12796D01*
X23000Y-12525D01*
X23039Y-12508D01*
X23208Y-12340D01*
X23299Y-12119D01*
X23300Y-11881D01*
X23300Y-19275D01*
X23062Y-19037D01*
X23050Y-19029D01*
X23050Y-18900D01*
X23012Y-18808D01*
X22941Y-18738D01*
X22849Y-18700D01*
X22750Y-18699D01*
X22700Y-18699D01*
X22700Y-18600D01*
X22699Y-18599D01*
X22677Y-18485D01*
X22612Y-18387D01*
X22612Y-18387D01*
X22271Y-18046D01*
X22173Y-17981D01*
X22059Y-17959D01*
X22050Y-17959D01*
X22050Y-13612D01*
X22050Y-13250D01*
X22050Y-13150D01*
X22050Y-12787D01*
X21987Y-12725D01*
X21925Y-12724D01*
X21833Y-12762D01*
X21763Y-12833D01*
X21725Y-12925D01*
X21724Y-13024D01*
X21725Y-13087D01*
X21787Y-13150D01*
X22050Y-13150D01*
X22050Y-13250D01*
X21787Y-13250D01*
X21725Y-13312D01*
X21724Y-13375D01*
X21725Y-13474D01*
X21763Y-13566D01*
X21833Y-13637D01*
X21925Y-13675D01*
X21987Y-13675D01*
X22050Y-13612D01*
X22050Y-17959D01*
X21675Y-17959D01*
X21675Y-13375D01*
X21675Y-13024D01*
X21674Y-12925D01*
X21650Y-12864D01*
X21650Y-12537D01*
X21650Y-12050D01*
X21642Y-12050D01*
X21642Y-11950D01*
X21650Y-11950D01*
X21650Y-11462D01*
X21587Y-11400D01*
X21399Y-11399D01*
X21300Y-11400D01*
X21208Y-11438D01*
X21137Y-11508D01*
X21114Y-11565D01*
X21040Y-11491D01*
X20819Y-11400D01*
X20581Y-11399D01*
X20360Y-11491D01*
X20191Y-11659D01*
X20100Y-11880D01*
X20099Y-12118D01*
X20191Y-12339D01*
X20331Y-12480D01*
X20331Y-12908D01*
X20325Y-12925D01*
X20324Y-13024D01*
X20324Y-13474D01*
X20362Y-13566D01*
X20433Y-13636D01*
X20525Y-13674D01*
X20624Y-13675D01*
X20874Y-13675D01*
X20966Y-13637D01*
X21000Y-13603D01*
X21033Y-13637D01*
X21125Y-13675D01*
X21187Y-13675D01*
X21250Y-13612D01*
X21250Y-13250D01*
X21242Y-13250D01*
X21242Y-13150D01*
X21250Y-13150D01*
X21250Y-12787D01*
X21187Y-12725D01*
X21125Y-12724D01*
X21068Y-12748D01*
X21068Y-12480D01*
X21114Y-12434D01*
X21137Y-12491D01*
X21208Y-12561D01*
X21300Y-12599D01*
X21399Y-12600D01*
X21587Y-12600D01*
X21650Y-12537D01*
X21650Y-12864D01*
X21636Y-12833D01*
X21566Y-12762D01*
X21474Y-12724D01*
X21412Y-12725D01*
X21350Y-12787D01*
X21350Y-13150D01*
X21612Y-13150D01*
X21675Y-13087D01*
X21675Y-13024D01*
X21675Y-13375D01*
X21675Y-13312D01*
X21612Y-13250D01*
X21350Y-13250D01*
X21350Y-13612D01*
X21412Y-13675D01*
X21474Y-13675D01*
X21566Y-13637D01*
X21636Y-13566D01*
X21674Y-13474D01*
X21675Y-13375D01*
X21675Y-17959D01*
X20600Y-17959D01*
X20600Y-17550D01*
X20600Y-16849D01*
X20599Y-16750D01*
X20561Y-16658D01*
X20491Y-16587D01*
X20399Y-16549D01*
X20162Y-16550D01*
X20100Y-16612D01*
X20100Y-17150D01*
X20537Y-17150D01*
X20600Y-17087D01*
X20600Y-16849D01*
X20600Y-17550D01*
X20600Y-17312D01*
X20537Y-17250D01*
X20100Y-17250D01*
X20100Y-17787D01*
X20162Y-17850D01*
X20399Y-17850D01*
X20491Y-17812D01*
X20561Y-17741D01*
X20599Y-17649D01*
X20600Y-17550D01*
X20600Y-17959D01*
X20000Y-17959D01*
X20000Y-17787D01*
X20000Y-17250D01*
X20000Y-17150D01*
X20000Y-16612D01*
X19937Y-16550D01*
X19849Y-16549D01*
X19849Y-16549D01*
X19850Y-16450D01*
X19850Y-15749D01*
X19849Y-15650D01*
X19811Y-15558D01*
X19741Y-15487D01*
X19695Y-15468D01*
X19695Y-13095D01*
X19695Y-11205D01*
X19657Y-11113D01*
X19586Y-11043D01*
X19494Y-11005D01*
X19395Y-11004D01*
X17505Y-11004D01*
X17413Y-11042D01*
X17343Y-11113D01*
X17305Y-11205D01*
X17304Y-11304D01*
X17304Y-13033D01*
X17295Y-13029D01*
X17235Y-13004D01*
X16975Y-13005D01*
X16951Y-12981D01*
X17114Y-12875D01*
X17295Y-12435D01*
X17294Y-11960D01*
X17114Y-11524D01*
X16951Y-11418D01*
X16881Y-11489D01*
X16881Y-11348D01*
X16775Y-11185D01*
X16335Y-11004D01*
X15860Y-11005D01*
X15424Y-11185D01*
X15318Y-11348D01*
X16100Y-12129D01*
X16881Y-11348D01*
X16881Y-11489D01*
X16170Y-12200D01*
X16176Y-12205D01*
X16105Y-12276D01*
X16100Y-12270D01*
X16029Y-12341D01*
X16029Y-12200D01*
X15248Y-11418D01*
X15085Y-11524D01*
X14904Y-11964D01*
X14905Y-12439D01*
X15085Y-12875D01*
X15248Y-12981D01*
X16029Y-12200D01*
X16029Y-12341D01*
X15318Y-13051D01*
X15424Y-13214D01*
X15864Y-13395D01*
X16124Y-13394D01*
X16148Y-13418D01*
X15985Y-13524D01*
X15804Y-13964D01*
X15805Y-14439D01*
X15985Y-14875D01*
X16148Y-14981D01*
X16929Y-14200D01*
X16923Y-14194D01*
X16994Y-14123D01*
X17000Y-14129D01*
X17005Y-14123D01*
X17076Y-14194D01*
X17070Y-14200D01*
X17851Y-14981D01*
X18014Y-14875D01*
X18195Y-14435D01*
X18194Y-13960D01*
X18014Y-13524D01*
X17851Y-13418D01*
X17875Y-13395D01*
X19494Y-13395D01*
X19586Y-13357D01*
X19656Y-13286D01*
X19694Y-13194D01*
X19695Y-13095D01*
X19695Y-15468D01*
X19649Y-15449D01*
X19412Y-15450D01*
X19350Y-15512D01*
X19350Y-16050D01*
X19787Y-16050D01*
X19850Y-15987D01*
X19850Y-15749D01*
X19850Y-16450D01*
X19850Y-16212D01*
X19787Y-16150D01*
X19350Y-16150D01*
X19350Y-16687D01*
X19412Y-16750D01*
X19500Y-16750D01*
X19500Y-16750D01*
X19499Y-16849D01*
X19500Y-17087D01*
X19562Y-17150D01*
X20000Y-17150D01*
X20000Y-17250D01*
X19562Y-17250D01*
X19500Y-17312D01*
X19499Y-17550D01*
X19500Y-17649D01*
X19538Y-17741D01*
X19608Y-17812D01*
X19700Y-17850D01*
X19937Y-17850D01*
X20000Y-17787D01*
X20000Y-17959D01*
X19259Y-17959D01*
X18404Y-17959D01*
X18404Y-17894D01*
X18383Y-17842D01*
X18400Y-17849D01*
X18499Y-17850D01*
X19099Y-17850D01*
X19191Y-17812D01*
X19261Y-17741D01*
X19299Y-17649D01*
X19300Y-17550D01*
X19300Y-16750D01*
X19262Y-16658D01*
X19250Y-16646D01*
X19250Y-16150D01*
X19250Y-16050D01*
X19250Y-15512D01*
X19187Y-15450D01*
X18950Y-15449D01*
X18858Y-15487D01*
X18788Y-15558D01*
X18750Y-15650D01*
X18749Y-15749D01*
X18750Y-15987D01*
X18812Y-16050D01*
X19250Y-16050D01*
X19250Y-16150D01*
X18812Y-16150D01*
X18750Y-16212D01*
X18749Y-16450D01*
X18750Y-16549D01*
X18750Y-16549D01*
X18549Y-16549D01*
X18549Y-16549D01*
X18550Y-16450D01*
X18550Y-15650D01*
X18512Y-15558D01*
X18441Y-15488D01*
X18349Y-15450D01*
X18253Y-15449D01*
X18212Y-15387D01*
X18212Y-15387D01*
X18195Y-15371D01*
X18012Y-15187D01*
X17914Y-15122D01*
X17800Y-15100D01*
X17749Y-15100D01*
X17781Y-15051D01*
X17000Y-14270D01*
X16929Y-14341D01*
X16218Y-15051D01*
X16324Y-15214D01*
X16350Y-15224D01*
X16187Y-15387D01*
X16146Y-15450D01*
X16050Y-15449D01*
X15450Y-15449D01*
X15358Y-15487D01*
X15288Y-15558D01*
X15250Y-15650D01*
X15249Y-15749D01*
X15249Y-16549D01*
X15284Y-16633D01*
X15233Y-16684D01*
X15195Y-16776D01*
X15195Y-16876D01*
X15195Y-17505D01*
X15233Y-17596D01*
X15303Y-17667D01*
X15382Y-17700D01*
X15304Y-17732D01*
X15233Y-17802D01*
X15195Y-17894D01*
X15195Y-17994D01*
X15195Y-18623D01*
X15233Y-18714D01*
X15303Y-18785D01*
X15395Y-18823D01*
X15495Y-18823D01*
X15500Y-18823D01*
X15500Y-18972D01*
X15384Y-19088D01*
X15300Y-19290D01*
X15299Y-19508D01*
X15383Y-19711D01*
X15522Y-19849D01*
X15500Y-19849D01*
X15408Y-19887D01*
X15338Y-19958D01*
X15300Y-20050D01*
X15299Y-20149D01*
X15299Y-20749D01*
X15337Y-20841D01*
X15408Y-20911D01*
X15424Y-20918D01*
X15414Y-20922D01*
X15388Y-21017D01*
X15700Y-21329D01*
X16011Y-21017D01*
X15992Y-20950D01*
X16199Y-20950D01*
X16291Y-20912D01*
X16361Y-20841D01*
X16399Y-20749D01*
X16399Y-20727D01*
X16538Y-20865D01*
X16544Y-20868D01*
X16414Y-20922D01*
X16388Y-21017D01*
X16700Y-21329D01*
X17011Y-21017D01*
X16989Y-20937D01*
X17161Y-20866D01*
X17315Y-20711D01*
X17349Y-20630D01*
X17383Y-20711D01*
X17538Y-20865D01*
X17551Y-20871D01*
X17391Y-20937D01*
X17238Y-21090D01*
X17202Y-21175D01*
X17177Y-21114D01*
X17082Y-21088D01*
X16770Y-21400D01*
X17082Y-21711D01*
X17177Y-21685D01*
X17200Y-21619D01*
X17237Y-21708D01*
X17390Y-21861D01*
X17591Y-21945D01*
X17807Y-21945D01*
X18008Y-21862D01*
X18161Y-21709D01*
X18199Y-21617D01*
X18237Y-21708D01*
X18390Y-21861D01*
X18591Y-21945D01*
X18807Y-21945D01*
X19008Y-21862D01*
X19161Y-21709D01*
X19199Y-21617D01*
X19237Y-21708D01*
X19390Y-21861D01*
X19591Y-21945D01*
X19807Y-21945D01*
X20008Y-21862D01*
X20161Y-21709D01*
X20199Y-21617D01*
X20237Y-21708D01*
X20390Y-21861D01*
X20591Y-21945D01*
X20807Y-21945D01*
X21008Y-21862D01*
X21161Y-21709D01*
X21199Y-21617D01*
X21237Y-21708D01*
X21390Y-21861D01*
X21591Y-21945D01*
X21807Y-21945D01*
X22008Y-21862D01*
X22161Y-21709D01*
X22199Y-21617D01*
X22237Y-21708D01*
X22390Y-21861D01*
X22591Y-21945D01*
X22807Y-21945D01*
X23008Y-21862D01*
X23161Y-21709D01*
X23245Y-21508D01*
X23245Y-21292D01*
X23241Y-21282D01*
X23412Y-21112D01*
X23412Y-21112D01*
X23477Y-21014D01*
X23499Y-20900D01*
X23500Y-20900D01*
X23500Y-29400D01*
X23245Y-29400D01*
X23245Y-23892D01*
X23162Y-23691D01*
X23009Y-23538D01*
X22808Y-23454D01*
X22592Y-23454D01*
X22391Y-23537D01*
X22238Y-23690D01*
X22200Y-23782D01*
X22162Y-23691D01*
X22009Y-23538D01*
X21808Y-23454D01*
X21592Y-23454D01*
X21391Y-23537D01*
X21238Y-23690D01*
X21200Y-23782D01*
X21162Y-23691D01*
X21009Y-23538D01*
X20808Y-23454D01*
X20592Y-23454D01*
X20391Y-23537D01*
X20238Y-23690D01*
X20200Y-23782D01*
X20162Y-23691D01*
X20009Y-23538D01*
X19808Y-23454D01*
X19592Y-23454D01*
X19391Y-23537D01*
X19238Y-23690D01*
X19200Y-23782D01*
X19162Y-23691D01*
X19009Y-23538D01*
X18808Y-23454D01*
X18592Y-23454D01*
X18391Y-23537D01*
X18238Y-23690D01*
X18200Y-23782D01*
X18162Y-23691D01*
X18009Y-23538D01*
X17808Y-23454D01*
X17592Y-23454D01*
X17391Y-23537D01*
X17238Y-23690D01*
X17200Y-23782D01*
X17162Y-23691D01*
X17011Y-23540D01*
X17011Y-21782D01*
X16700Y-21470D01*
X16629Y-21541D01*
X16629Y-21400D01*
X16317Y-21088D01*
X16222Y-21114D01*
X16201Y-21173D01*
X16177Y-21114D01*
X16082Y-21088D01*
X15770Y-21400D01*
X16082Y-21711D01*
X16177Y-21685D01*
X16198Y-21626D01*
X16222Y-21685D01*
X16317Y-21711D01*
X16629Y-21400D01*
X16629Y-21541D01*
X16388Y-21782D01*
X16414Y-21877D01*
X16619Y-21950D01*
X16836Y-21939D01*
X16985Y-21877D01*
X17011Y-21782D01*
X17011Y-23540D01*
X17009Y-23538D01*
X16808Y-23454D01*
X16592Y-23454D01*
X16391Y-23537D01*
X16238Y-23690D01*
X16200Y-23782D01*
X16162Y-23691D01*
X16011Y-23540D01*
X16011Y-21782D01*
X15700Y-21470D01*
X15629Y-21541D01*
X15629Y-21400D01*
X15317Y-21088D01*
X15222Y-21114D01*
X15149Y-21319D01*
X15160Y-21536D01*
X15222Y-21685D01*
X15317Y-21711D01*
X15629Y-21400D01*
X15629Y-21541D01*
X15388Y-21782D01*
X15414Y-21877D01*
X15619Y-21950D01*
X15836Y-21939D01*
X15985Y-21877D01*
X16011Y-21782D01*
X16011Y-23540D01*
X16009Y-23538D01*
X15808Y-23454D01*
X15592Y-23454D01*
X15391Y-23537D01*
X15238Y-23690D01*
X15154Y-23891D01*
X15154Y-24107D01*
X15237Y-24308D01*
X15390Y-24461D01*
X15591Y-24545D01*
X15793Y-24545D01*
X15691Y-24587D01*
X15538Y-24740D01*
X15454Y-24941D01*
X15454Y-25157D01*
X15537Y-25358D01*
X15690Y-25511D01*
X15891Y-25595D01*
X16107Y-25595D01*
X16308Y-25512D01*
X16461Y-25359D01*
X16499Y-25267D01*
X16537Y-25358D01*
X16690Y-25511D01*
X16891Y-25595D01*
X17107Y-25595D01*
X17308Y-25512D01*
X17461Y-25359D01*
X17545Y-25158D01*
X17545Y-24942D01*
X17462Y-24741D01*
X17309Y-24588D01*
X17108Y-24504D01*
X16906Y-24504D01*
X17008Y-24462D01*
X17161Y-24309D01*
X17199Y-24217D01*
X17237Y-24308D01*
X17390Y-24461D01*
X17591Y-24545D01*
X17807Y-24545D01*
X18008Y-24462D01*
X18161Y-24309D01*
X18199Y-24217D01*
X18237Y-24308D01*
X18390Y-24461D01*
X18591Y-24545D01*
X18793Y-24545D01*
X18691Y-24587D01*
X18538Y-24740D01*
X18454Y-24941D01*
X18454Y-25157D01*
X18537Y-25358D01*
X18690Y-25511D01*
X18891Y-25595D01*
X19107Y-25595D01*
X19308Y-25512D01*
X19461Y-25359D01*
X19499Y-25267D01*
X19537Y-25358D01*
X19690Y-25511D01*
X19891Y-25595D01*
X20107Y-25595D01*
X20308Y-25512D01*
X20461Y-25359D01*
X20499Y-25267D01*
X20537Y-25358D01*
X20690Y-25511D01*
X20891Y-25595D01*
X21107Y-25595D01*
X21308Y-25512D01*
X21461Y-25359D01*
X21499Y-25267D01*
X21537Y-25358D01*
X21690Y-25511D01*
X21891Y-25595D01*
X22107Y-25595D01*
X22308Y-25512D01*
X22461Y-25359D01*
X22545Y-25158D01*
X22545Y-24942D01*
X22462Y-24741D01*
X22309Y-24588D01*
X22108Y-24504D01*
X21906Y-24504D01*
X22008Y-24462D01*
X22161Y-24309D01*
X22199Y-24217D01*
X22237Y-24308D01*
X22390Y-24461D01*
X22591Y-24545D01*
X22807Y-24545D01*
X23008Y-24462D01*
X23161Y-24309D01*
X23245Y-24108D01*
X23245Y-23892D01*
X23245Y-29400D01*
X22545Y-29400D01*
X22545Y-27942D01*
X22462Y-27741D01*
X22309Y-27588D01*
X22108Y-27504D01*
X21892Y-27504D01*
X21691Y-27587D01*
X21538Y-27740D01*
X21500Y-27832D01*
X21462Y-27741D01*
X21309Y-27588D01*
X21108Y-27504D01*
X20892Y-27504D01*
X20691Y-27587D01*
X20538Y-27740D01*
X20454Y-27941D01*
X20454Y-28157D01*
X20537Y-28358D01*
X20690Y-28511D01*
X20891Y-28595D01*
X21107Y-28595D01*
X21308Y-28512D01*
X21461Y-28359D01*
X21499Y-28267D01*
X21537Y-28358D01*
X21690Y-28511D01*
X21891Y-28595D01*
X22107Y-28595D01*
X22308Y-28512D01*
X22461Y-28359D01*
X22545Y-28158D01*
X22545Y-27942D01*
X22545Y-29400D01*
X18545Y-29400D01*
X18545Y-27942D01*
X18462Y-27741D01*
X18309Y-27588D01*
X18108Y-27504D01*
X17892Y-27504D01*
X17691Y-27587D01*
X17538Y-27740D01*
X17500Y-27832D01*
X17462Y-27741D01*
X17309Y-27588D01*
X17108Y-27504D01*
X16892Y-27504D01*
X16691Y-27587D01*
X16538Y-27740D01*
X16500Y-27832D01*
X16462Y-27741D01*
X16309Y-27588D01*
X16108Y-27504D01*
X15892Y-27504D01*
X15691Y-27587D01*
X15538Y-27740D01*
X15454Y-27941D01*
X15454Y-28157D01*
X15537Y-28358D01*
X15690Y-28511D01*
X15891Y-28595D01*
X16107Y-28595D01*
X16308Y-28512D01*
X16461Y-28359D01*
X16499Y-28267D01*
X16537Y-28358D01*
X16690Y-28511D01*
X16891Y-28595D01*
X17107Y-28595D01*
X17308Y-28512D01*
X17461Y-28359D01*
X17499Y-28267D01*
X17537Y-28358D01*
X17690Y-28511D01*
X17891Y-28595D01*
X18107Y-28595D01*
X18308Y-28512D01*
X18461Y-28359D01*
X18545Y-28158D01*
X18545Y-27942D01*
X18545Y-29400D01*
X14550Y-29400D01*
X14550Y-10800D01*
X32200Y-10800D01*
X32200Y-29400D01*
M02*
