M48
;DRILL file {Pcbnew (2013-may-18)-stable} date ven 03 jun 2016 15:34:58 CEST
;FORMAT={-:-/ absolute / inch / decimal}
FMAT,2
INCH,TZ
T1C0.024
T2C0.040
T3C0.045
T4C0.060
%
G90
G05
M72
T1
X1.57Y-2.14
X1.57Y-2.4
X1.6Y-2.505
X1.6Y-2.805
X1.67Y-2.14
X1.67Y-2.4
X1.7Y-2.505
X1.7Y-2.805
X1.77Y-2.14
X1.77Y-2.4
X1.8Y-2.805
X1.87Y-2.14
X1.87Y-2.4
X1.9Y-2.505
X1.97Y-2.14
X1.97Y-2.4
X2.Y-2.505
X2.07Y-2.14
X2.07Y-2.4
X2.1Y-2.505
X2.1Y-2.805
X2.17Y-2.14
X2.17Y-2.4
X2.2Y-2.505
X2.2Y-2.805
X2.27Y-2.14
X2.27Y-2.4
X2.4253Y-1.7549
X2.4253Y-2.4049
X2.5158Y-1.5009
X2.5158Y-2.0049
X2.5158Y-2.1509
X2.5158Y-2.6549
X2.9961Y-1.5009
X2.9961Y-2.0049
X2.9961Y-2.1509
X2.9961Y-2.6549
T2
X1.585Y-1.94
X1.585Y-2.04
X1.685Y-1.94
X1.685Y-2.04
X1.785Y-1.94
X1.785Y-2.04
X1.885Y-1.94
X1.885Y-2.04
X1.985Y-1.94
X1.985Y-2.04
X2.12Y-1.94
X2.12Y-2.04
T3
X2.07Y-1.2
X2.17Y-1.2
X2.27Y-1.2
T4
X2.48Y-1.21
X2.68Y-1.21
X2.92Y-1.21
X3.12Y-1.21
T2
X1.61Y-1.19G85X1.61Y-1.25
G05
X1.67Y-1.42G85X1.73Y-1.42
G05
X1.85Y-1.19G85X1.85Y-1.25
G05
T0
M30
