<?xml version="1.0" standalone="no"?>
 <!DOCTYPE svg PUBLIC "-//W3C//DTD SVG 1.1//EN" 
 "http://www.w3.org/Graphics/SVG/1.1/DTD/svg11.dtd"> 
<svg xmlns="http://www.w3.org/2000/svg" version="1.1" 
    width="41.9989cm" height="29.7002cm" viewBox="0 0 165350 116930 ">
<title>SVG Picture created as reFil-B_Cu.svg date 2016/05/30 17:26:14 </title>
  <desc>Picture generated by PCBNEW </desc>
<g style="fill:#000000; fill-opacity:1;stroke:#000000; stroke-opacity:1;
stroke-linecap:round; stroke-linejoin:round; "
 transform="translate(0 0) scale(1 1)">
</g>
<g style="fill:#000000; fill-opacity:0.0; 
stroke:#000000; stroke-width:39.3701; stroke-opacity:1; 
stroke-linecap:round; stroke-linejoin:round;">
<path d="M4000 4000
L161350 4000
L161350 112930
L4000 112930
L4000 4000
" />
<path d="M4700 4700
L160650 4700
L160650 112230
L4700 112230
L4700 4700
" />
<path d="M26470 4000
L26470 4700
" />
<path d="M15382 4552
L15097 4552
" />
<path d="M15240 4552
L15240 4052
L15192 4123
L15144 4171
L15097 4195
" />
<path d="M26470 112930
L26470 112230
" />
<path d="M15382 112782
L15097 112782
" />
<path d="M15240 112782
L15240 112282
L15192 112353
L15144 112401
L15097 112425
" />
<path d="M48940 4000
L48940 4700
" />
<path d="M37567 4100
L37590 4076
L37638 4052
L37757 4052
L37805 4076
L37829 4100
L37852 4147
L37852 4195
L37829 4266
L37543 4552
L37852 4552
" />
<path d="M48940 112930
L48940 112230
" />
<path d="M37567 112330
L37590 112306
L37638 112282
L37757 112282
L37805 112306
L37829 112330
L37852 112377
L37852 112425
L37829 112496
L37543 112782
L37852 112782
" />
<path d="M71410 4000
L71410 4700
" />
<path d="M60013 4052
L60322 4052
L60156 4242
L60227 4242
L60275 4266
L60299 4290
L60322 4338
L60322 4457
L60299 4504
L60275 4528
L60227 4552
L60084 4552
L60037 4528
L60013 4504
" />
<path d="M71410 112930
L71410 112230
" />
<path d="M60013 112282
L60322 112282
L60156 112472
L60227 112472
L60275 112496
L60299 112520
L60322 112568
L60322 112687
L60299 112734
L60275 112758
L60227 112782
L60084 112782
L60037 112758
L60013 112734
" />
<path d="M93880 4000
L93880 4700
" />
<path d="M82745 4219
L82745 4552
" />
<path d="M82626 4028
L82507 4385
L82816 4385
" />
<path d="M93880 112930
L93880 112230
" />
<path d="M82745 112449
L82745 112782
" />
<path d="M82626 112258
L82507 112615
L82816 112615
" />
<path d="M116350 4000
L116350 4700
" />
<path d="M105239 4052
L105000 4052
L104977 4290
L105000 4266
L105048 4242
L105167 4242
L105215 4266
L105239 4290
L105262 4338
L105262 4457
L105239 4504
L105215 4528
L105167 4552
L105048 4552
L105000 4528
L104977 4504
" />
<path d="M116350 112930
L116350 112230
" />
<path d="M105239 112282
L105000 112282
L104977 112520
L105000 112496
L105048 112472
L105167 112472
L105215 112496
L105239 112520
L105262 112568
L105262 112687
L105239 112734
L105215 112758
L105167 112782
L105048 112782
L105000 112758
L104977 112734
" />
<path d="M138820 4000
L138820 4700
" />
<path d="M127685 4052
L127590 4052
L127542 4076
L127518 4100
L127470 4171
L127447 4266
L127447 4457
L127470 4504
L127494 4528
L127542 4552
L127637 4552
L127685 4528
L127709 4504
L127732 4457
L127732 4338
L127709 4290
L127685 4266
L127637 4242
L127542 4242
L127494 4266
L127470 4290
L127447 4338
" />
<path d="M138820 112930
L138820 112230
" />
<path d="M127685 112282
L127590 112282
L127542 112306
L127518 112330
L127470 112401
L127447 112496
L127447 112687
L127470 112734
L127494 112758
L127542 112782
L127637 112782
L127685 112758
L127709 112734
L127732 112687
L127732 112568
L127709 112520
L127685 112496
L127637 112472
L127542 112472
L127494 112496
L127470 112520
L127447 112568
" />
<path d="M149893 4052
L150226 4052
L150012 4552
" />
<path d="M149893 112282
L150226 112282
L150012 112782
" />
<path d="M4000 25780
L4700 25780
" />
<path d="M4230 14949
L4469 14949
" />
<path d="M4183 15092
L4350 14592
L4516 15092
" />
<path d="M161350 25780
L160650 25780
" />
<path d="M160880 14949
L161119 14949
" />
<path d="M160833 15092
L161000 14592
L161166 15092
" />
<path d="M4000 47560
L4700 47560
" />
<path d="M4385 36610
L4457 36634
L4480 36658
L4504 36705
L4504 36777
L4480 36824
L4457 36848
L4409 36872
L4219 36872
L4219 36372
L4385 36372
L4433 36396
L4457 36420
L4480 36467
L4480 36515
L4457 36562
L4433 36586
L4385 36610
L4219 36610
" />
<path d="M161350 47560
L160650 47560
" />
<path d="M161035 36610
L161107 36634
L161130 36658
L161154 36705
L161154 36777
L161130 36824
L161107 36848
L161059 36872
L160869 36872
L160869 36372
L161035 36372
L161083 36396
L161107 36420
L161130 36467
L161130 36515
L161107 36562
L161083 36586
L161035 36610
L160869 36610
" />
<path d="M4000 69340
L4700 69340
" />
<path d="M4504 58604
L4480 58628
L4409 58652
L4361 58652
L4290 58628
L4242 58580
L4219 58533
L4195 58438
L4195 58366
L4219 58271
L4242 58223
L4290 58176
L4361 58152
L4409 58152
L4480 58176
L4504 58200
" />
<path d="M161350 69340
L160650 69340
" />
<path d="M161154 58604
L161130 58628
L161059 58652
L161011 58652
L160940 58628
L160892 58580
L160869 58533
L160845 58438
L160845 58366
L160869 58271
L160892 58223
L160940 58176
L161011 58152
L161059 58152
L161130 58176
L161154 58200
" />
<path d="M4000 91120
L4700 91120
" />
<path d="M4219 80432
L4219 79932
L4338 79932
L4409 79956
L4457 80003
L4480 80051
L4504 80146
L4504 80218
L4480 80313
L4457 80360
L4409 80408
L4338 80432
L4219 80432
" />
<path d="M161350 91120
L160650 91120
" />
<path d="M160869 80432
L160869 79932
L160988 79932
L161059 79956
L161107 80003
L161130 80051
L161154 80146
L161154 80218
L161130 80313
L161107 80360
L161059 80408
L160988 80432
L160869 80432
" />
<path d="M4242 101950
L4409 101950
" />
<path d="M4480 102212
L4242 102212
L4242 101712
L4480 101712
" />
<path d="M160892 101950
L161059 101950
" />
<path d="M161130 102212
L160892 102212
L160892 101712
L161130 101712
" />
<path d="M127800 110672
L127875 110072
L128017 110072
L128100 110101
L128150 110158
L128171 110215
L128185 110330
L128175 110415
L128132 110530
L128096 110587
L128032 110644
L127942 110672
L127800 110672
" />
<path d="M128657 110672
L128696 110358
L128675 110301
L128621 110272
L128507 110272
L128446 110301
" />
<path d="M128660 110644
L128600 110672
L128457 110672
L128403 110644
L128382 110587
L128389 110530
L128425 110472
L128485 110444
L128628 110444
L128689 110415
" />
<path d="M128907 110272
L129135 110272
" />
<path d="M129017 110072
L128953 110587
L128975 110644
L129028 110672
L129085 110672
" />
<path d="M129517 110644
L129457 110672
L129342 110672
L129289 110644
L129267 110587
L129296 110358
L129332 110301
L129392 110272
L129507 110272
L129560 110301
L129582 110358
L129575 110415
L129282 110472
" />
<path d="M129807 110615
L129832 110644
L129800 110672
L129775 110644
L129807 110615
L129800 110672
" />
<path d="M129846 110301
L129871 110330
L129839 110358
L129814 110330
L129846 110301
L129839 110358
" />
<path d="M130560 110072
L130932 110072
L130703 110301
L130789 110301
L130842 110330
L130867 110358
L130889 110415
L130871 110558
L130835 110615
L130803 110644
L130742 110672
L130571 110672
L130517 110644
L130492 110615
" />
<path d="M131303 110072
L131360 110072
L131414 110101
L131439 110130
L131460 110187
L131475 110301
L131457 110444
L131414 110558
L131378 110615
L131346 110644
L131285 110672
L131228 110672
L131175 110644
L131150 110615
L131128 110558
L131114 110444
L131132 110301
L131175 110187
L131210 110130
L131242 110101
L131303 110072
" />
<path d="M132142 110672
L132192 110272
" />
<path d="M132185 110330
L132217 110301
L132278 110272
L132364 110272
L132417 110301
L132439 110358
L132400 110672
" />
<path d="M132439 110358
L132475 110301
L132535 110272
L132621 110272
L132675 110301
L132696 110358
L132657 110672
" />
<path d="M133200 110672
L133239 110358
L133217 110301
L133164 110272
L133050 110272
L132989 110301
" />
<path d="M133203 110644
L133142 110672
L133000 110672
L132946 110644
L132925 110587
L132932 110530
L132967 110472
L133028 110444
L133171 110444
L133232 110415
" />
<path d="M133478 110272
L133571 110672
" />
<path d="M133764 110272
L133571 110672
L133496 110815
L133464 110844
L133403 110872
" />
<path d="M134439 110130
L134471 110101
L134532 110072
L134675 110072
L134728 110101
L134753 110130
L134775 110187
L134767 110244
L134728 110330
L134342 110672
L134714 110672
" />
<path d="M135160 110072
L135217 110072
L135271 110101
L135296 110130
L135317 110187
L135332 110301
L135314 110444
L135271 110558
L135235 110615
L135203 110644
L135142 110672
L135085 110672
L135032 110644
L135007 110615
L134985 110558
L134971 110444
L134989 110301
L135032 110187
L135067 110130
L135100 110101
L135160 110072
" />
<path d="M135857 110672
L135514 110672
" />
<path d="M135685 110672
L135760 110072
L135692 110158
L135628 110215
L135567 110244
" />
<path d="M136446 110072
L136332 110072
L136271 110101
L136239 110130
L136171 110215
L136128 110330
L136100 110558
L136121 110615
L136146 110644
L136200 110672
L136314 110672
L136375 110644
L136407 110615
L136442 110558
L136460 110415
L136439 110358
L136414 110330
L136360 110301
L136246 110301
L136185 110330
L136153 110358
L136117 110415
" />
<path d="M119392 111872
L119392 111272
" />
<path d="M119735 111872
L119478 111530
" />
<path d="M119735 111272
L119392 111615
" />
<path d="M119992 111872
L119992 111472
" />
<path d="M119992 111272
L119964 111301
L119992 111330
L120021 111301
L119992 111272
L119992 111330
" />
<path d="M120621 111815
L120592 111844
L120507 111872
L120450 111872
L120364 111844
L120307 111787
L120278 111730
L120250 111615
L120250 111530
L120278 111415
L120307 111358
L120364 111301
L120450 111272
L120507 111272
L120592 111301
L120621 111330
" />
<path d="M121135 111872
L121135 111558
L121107 111501
L121050 111472
L120935 111472
L120878 111501
" />
<path d="M121135 111844
L121078 111872
L120935 111872
L120878 111844
L120850 111787
L120850 111730
L120878 111672
L120935 111644
L121078 111644
L121135 111615
" />
<path d="M121678 111872
L121678 111272
" />
<path d="M121678 111844
L121621 111872
L121507 111872
L121450 111844
L121421 111815
L121392 111758
L121392 111587
L121421 111530
L121450 111501
L121507 111472
L121621 111472
L121678 111501
" />
<path d="M122421 111558
L122621 111558
" />
<path d="M122707 111872
L122421 111872
L122421 111272
L122707 111272
" />
<path d="M122964 111815
L122992 111844
L122964 111872
L122935 111844
L122964 111815
L122964 111872
" />
<path d="M123249 111872
L123249 111272
L123392 111272
L123478 111301
L123535 111358
L123564 111415
L123592 111530
L123592 111615
L123564 111730
L123535 111787
L123478 111844
L123392 111872
L123249 111872
" />
<path d="M123849 111815
L123878 111844
L123849 111872
L123821 111844
L123849 111815
L123849 111872
" />
<path d="M124107 111701
L124392 111701
" />
<path d="M124049 111872
L124249 111272
L124449 111872
" />
<path d="M124649 111815
L124678 111844
L124649 111872
L124621 111844
L124649 111815
L124649 111872
" />
<path d="M152942 110672
L152778 110387
" />
<path d="M152600 110672
L152675 110072
L152903 110072
L152957 110101
L152982 110130
L153003 110187
L152992 110272
L152957 110330
L152925 110358
L152864 110387
L152635 110387
" />
<path d="M153432 110644
L153371 110672
L153257 110672
L153203 110644
L153182 110587
L153210 110358
L153246 110301
L153307 110272
L153421 110272
L153475 110301
L153496 110358
L153489 110415
L153196 110472
" />
<path d="M153707 110272
L153800 110672
L153992 110272
" />
<path d="M154178 110615
L154203 110644
L154171 110672
L154146 110644
L154178 110615
L154171 110672
" />
<path d="M154217 110301
L154242 110330
L154210 110358
L154185 110330
L154217 110301
L154210 110358
" />
<path d="M119364 110644
L119450 110672
L119592 110672
L119650 110644
L119678 110615
L119707 110558
L119707 110501
L119678 110444
L119650 110415
L119592 110387
L119478 110358
L119421 110330
L119392 110301
L119364 110244
L119364 110187
L119392 110130
L119421 110101
L119478 110072
L119621 110072
L119707 110101
" />
<path d="M119964 110672
L119964 110272
" />
<path d="M119964 110072
L119935 110101
L119964 110130
L119992 110101
L119964 110072
L119964 110130
" />
<path d="M120192 110272
L120507 110272
L120192 110672
L120507 110672
" />
<path d="M120964 110644
L120907 110672
L120792 110672
L120735 110644
L120707 110587
L120707 110358
L120735 110301
L120792 110272
L120907 110272
L120964 110301
L120992 110358
L120992 110415
L120707 110472
" />
<path d="M121250 110615
L121278 110644
L121250 110672
L121221 110644
L121250 110615
L121250 110672
" />
<path d="M121250 110301
L121278 110330
L121250 110358
L121221 110330
L121250 110301
L121250 110358
" />
<path d="M121964 110501
L122250 110501
" />
<path d="M121907 110672
L122107 110072
L122307 110672
" />
<path d="M122450 110072
L122821 110072
L122621 110301
L122707 110301
L122764 110330
L122792 110358
L122821 110415
L122821 110558
L122792 110615
L122764 110644
L122707 110672
L122535 110672
L122478 110644
L122450 110615
" />
<path d="M152592 111872
L152592 111272
" />
<path d="M153135 111872
L153135 111272
" />
<path d="M153135 111844
L153078 111872
L152964 111872
L152907 111844
L152878 111815
L152850 111758
L152850 111587
L152878 111530
L152907 111501
L152964 111472
L153078 111472
L153135 111501
" />
<path d="M153421 111815
L153450 111844
L153421 111872
L153392 111844
L153421 111815
L153421 111872
" />
<path d="M153421 111501
L153450 111530
L153421 111558
L153392 111530
L153421 111501
L153421 111558
" />
<path d="M154478 111872
L154135 111872
" />
<path d="M154307 111872
L154307 111272
L154249 111358
L154192 111415
L154135 111444
" />
<path d="M155164 111244
L154650 112015
" />
<path d="M155678 111872
L155335 111872
" />
<path d="M155507 111872
L155507 111272
L155449 111358
L155392 111415
L155335 111444
" />
<path d="M119389 108872
L119732 108872
" />
<path d="M119485 109472
L119560 108872
" />
<path d="M119857 109472
L119907 109072
" />
<path d="M119932 108872
L119900 108901
L119925 108930
L119957 108901
L119932 108872
L119925 108930
" />
<path d="M120107 109072
L120335 109072
" />
<path d="M120217 108872
L120153 109387
L120175 109444
L120228 109472
L120285 109472
" />
<path d="M120571 109472
L120517 109444
L120496 109387
L120560 108872
" />
<path d="M121032 109444
L120971 109472
L120857 109472
L120803 109444
L120782 109387
L120810 109158
L120846 109101
L120907 109072
L121021 109072
L121075 109101
L121096 109158
L121089 109215
L120796 109272
" />
<path d="M121321 109415
L121346 109444
L121314 109472
L121289 109444
L121321 109415
L121314 109472
" />
<path d="M121360 109101
L121385 109130
L121353 109158
L121328 109130
L121360 109101
L121353 109158
" />
<path d="M119592 106758
L119392 106758
" />
<path d="M119392 107072
L119392 106472
L119678 106472
" />
<path d="M119907 107072
L119907 106672
" />
<path d="M119907 106472
L119878 106501
L119907 106530
L119935 106501
L119907 106472
L119907 106530
" />
<path d="M120278 107072
L120221 107044
L120192 106987
L120192 106472
" />
<path d="M120735 107044
L120678 107072
L120564 107072
L120507 107044
L120478 106987
L120478 106758
L120507 106701
L120564 106672
L120678 106672
L120735 106701
L120764 106758
L120764 106815
L120478 106872
" />
<path d="M121021 107015
L121050 107044
L121021 107072
L120992 107044
L121021 107015
L121021 107072
" />
<path d="M121021 106701
L121050 106730
L121021 106758
L120992 106730
L121021 106701
L121021 106758
" />
<path d="M121764 107072
L121764 106672
" />
<path d="M121764 106787
L121792 106730
L121821 106701
L121878 106672
L121935 106672
" />
<path d="M122364 107044
L122307 107072
L122192 107072
L122135 107044
L122107 106987
L122107 106758
L122135 106701
L122192 106672
L122307 106672
L122364 106701
L122392 106758
L122392 106815
L122107 106872
" />
<path d="M122850 106758
L122650 106758
" />
<path d="M122650 107072
L122650 106472
L122935 106472
" />
<path d="M123164 107072
L123164 106672
" />
<path d="M123164 106472
L123135 106501
L123164 106530
L123192 106501
L123164 106472
L123164 106530
" />
<path d="M123535 107072
L123478 107044
L123450 106987
L123450 106472
" />
<path d="M123764 107015
L123792 107044
L123764 107072
L123735 107044
L123764 107015
L123764 107072
" />
<path d="M124050 107072
L124050 106472
" />
<path d="M124107 106844
L124278 107072
" />
<path d="M124278 106672
L124050 106901
" />
<path d="M124535 107072
L124535 106672
" />
<path d="M124535 106472
L124507 106501
L124535 106530
L124564 106501
L124535 106472
L124535 106530
" />
<path d="M125078 107044
L125021 107072
L124907 107072
L124850 107044
L124821 107015
L124792 106958
L124792 106787
L124821 106730
L124850 106701
L124907 106672
L125021 106672
L125078 106701
" />
<path d="M125592 107072
L125592 106758
L125564 106701
L125507 106672
L125392 106672
L125335 106701
" />
<path d="M125592 107044
L125535 107072
L125392 107072
L125335 107044
L125307 106987
L125307 106930
L125335 106872
L125392 106844
L125535 106844
L125592 106815
" />
<path d="M126135 107072
L126135 106472
" />
<path d="M126135 107044
L126078 107072
L125964 107072
L125907 107044
L125878 107015
L125850 106958
L125850 106787
L125878 106730
L125907 106701
L125964 106672
L126078 106672
L126135 106701
" />
<path d="M126278 107130
L126735 107130
" />
<path d="M126878 106672
L126878 107272
" />
<path d="M126878 106701
L126935 106672
L127050 106672
L127107 106701
L127135 106730
L127164 106787
L127164 106958
L127135 107015
L127107 107044
L127050 107072
L126935 107072
L126878 107044
" />
<path d="M127678 107044
L127621 107072
L127507 107072
L127450 107044
L127421 107015
L127392 106958
L127392 106787
L127421 106730
L127450 106701
L127507 106672
L127621 106672
L127678 106701
" />
<path d="M127935 107072
L127935 106472
" />
<path d="M127935 106701
L127992 106672
L128107 106672
L128164 106701
L128192 106730
L128221 106787
L128221 106958
L128192 107015
L128164 107044
L128107 107072
L127992 107072
L127935 107044
" />
<path d="M119364 108244
L119450 108272
L119592 108272
L119650 108244
L119678 108215
L119707 108158
L119707 108101
L119678 108044
L119650 108015
L119592 107987
L119478 107958
L119421 107930
L119392 107901
L119364 107844
L119364 107787
L119392 107730
L119421 107701
L119478 107672
L119621 107672
L119707 107701
" />
<path d="M119964 108272
L119964 107672
" />
<path d="M120221 108272
L120221 107958
L120192 107901
L120135 107872
L120050 107872
L119992 107901
L119964 107930
" />
<path d="M120735 108244
L120678 108272
L120564 108272
L120507 108244
L120478 108187
L120478 107958
L120507 107901
L120564 107872
L120678 107872
L120735 107901
L120764 107958
L120764 108015
L120478 108072
" />
<path d="M121250 108244
L121192 108272
L121078 108272
L121021 108244
L120992 108187
L120992 107958
L121021 107901
L121078 107872
L121192 107872
L121250 107901
L121278 107958
L121278 108015
L120992 108072
" />
<path d="M121450 107872
L121678 107872
" />
<path d="M121535 107672
L121535 108187
L121564 108244
L121621 108272
L121678 108272
" />
<path d="M121878 108215
L121907 108244
L121878 108272
L121850 108244
L121878 108215
L121878 108272
" />
<path d="M121878 107901
L121907 107930
L121878 107958
L121850 107930
L121878 107901
L121878 107958
" />
<path d="M118650 106230
L118650 112230
" />
<path d="M118650 106230
L160650 106230
" />
<path d="M118650 106230
L160650 106230
" />
<path d="M118650 108630
L160650 108630
" />
<path d="M151850 109830
L151850 112230
" />
<path d="M118650 111030
L160650 111030
" />
<path d="M118650 109830
L160650 109830
" />
<path d="M125250 109830
L125250 111030
" />
</g>
<g style="fill:#808000; fill-opacity:0.0; 
stroke:#808000; stroke-width:39.3701; stroke-opacity:1; 
stroke-linecap:round; stroke-linejoin:round;">
</g>
<g style="fill:#808000; fill-opacity:1.0; 
stroke:#808000; stroke-width:39.3701; stroke-opacity:1; 
stroke-linecap:round; stroke-linejoin:round;">
<circle cx="25852.8" cy="17348.8" r="275.591" /> 
<circle cx="31561.4" cy="19848.8" r="275.591" /> 
<circle cx="26758.3" cy="19848.8" r="275.591" /> 
<circle cx="26758.3" cy="14809.4" r="275.591" /> 
<circle cx="31561.4" cy="14809.4" r="275.591" /> 
<circle cx="25852.8" cy="23848.8" r="275.591" /> 
<circle cx="31561.4" cy="26348.8" r="275.591" /> 
<circle cx="26758.3" cy="26348.8" r="275.591" /> 
<circle cx="26758.3" cy="21309.4" r="275.591" /> 
<circle cx="31561.4" cy="21309.4" r="275.591" /> 
<circle cx="22900" cy="26600" r="275.591" /> 
<circle cx="23900" cy="26600" r="275.591" /> 
<circle cx="19900" cy="26600" r="275.591" /> 
<circle cx="18900" cy="26600" r="275.591" /> 
<circle cx="17900" cy="26600" r="275.591" /> 
<circle cx="17900" cy="23600" r="275.591" /> 
<circle cx="18900" cy="23600" r="275.591" /> 
<circle cx="20900" cy="23600" r="275.591" /> 
<circle cx="21900" cy="23600" r="275.591" /> 
<circle cx="22900" cy="23600" r="275.591" /> 
<circle cx="23900" cy="23600" r="275.591" /> 
<circle cx="34000" cy="26900" r="255.315" /> 
<circle cx="34000" cy="25900" r="255.315" /> 
<polyline style="fill-rule:evenodd;"
points="19219,18780
19219,18219
19780,18219
19780,18780
19219,18780
" /> 
<circle cx="19500" cy="17500" r="280.315" /> 
<circle cx="20500" cy="18500" r="280.315" /> 
<circle cx="20500" cy="17500" r="280.315" /> 
<circle cx="21500" cy="18500" r="280.315" /> 
<circle cx="21500" cy="17500" r="280.315" /> 
<circle cx="22500" cy="18500" r="280.315" /> 
<circle cx="22500" cy="17500" r="280.315" /> 
<circle cx="23500" cy="18500" r="280.315" /> 
<circle cx="23500" cy="17500" r="280.315" /> 
<polyline style="fill-rule:evenodd;"
points="35880,27180
35319,27180
35319,26619
35880,26619
35880,27180
" /> 
<circle cx="35600" cy="25900" r="280.315" /> 
<circle cx="25400" cy="13000" r="330.315" /> 
<polyline style="fill-rule:evenodd;"
points="26730,13330
26069,13330
26069,12669
26730,12669
26730,13330
" /> 
<circle cx="27400" cy="13000" r="330.315" /> 
<circle cx="18600" cy="13400" r="925.315" /> 
<polyline style="fill-rule:evenodd;"
points="20074,14325
20074,12474
21925,12474
21925,14325
20074,14325
" /> 
<circle cx="19500" cy="15400" r="925.315" /> 
<polyline style="fill-rule:evenodd;"
points="22644,13255
22644,12744
23155,12744
23155,13255
22644,13255
" /> 
<circle cx="23900" cy="13000" r="255.315" /> 
<polyline style="fill-rule:evenodd;"
points="28644,13255
28644,12744
29155,12744
29155,13255
28644,13255
" /> 
<circle cx="29900" cy="13000" r="255.315" /> 
<polyline style="fill-rule:evenodd;"
points="35280,17680
34319,17680
34319,16719
35280,16719
35280,17680
" /> 
<circle cx="34800" cy="15200" r="480.315" /> 
<polyline style="fill-rule:evenodd;"
points="35180,24280
34219,24280
34219,23319
35180,23319
35180,24280
" /> 
<circle cx="34700" cy="21800" r="480.315" /> 
<circle cx="24500" cy="19800" r="275.591" /> 
<circle cx="23500" cy="19800" r="275.591" /> 
<circle cx="22500" cy="19800" r="275.591" /> 
<circle cx="21500" cy="19800" r="275.591" /> 
<circle cx="20500" cy="19800" r="275.591" /> 
<circle cx="18500" cy="19800" r="275.591" /> 
<circle cx="17500" cy="19800" r="275.591" /> 
<circle cx="17500" cy="22400" r="275.591" /> 
<circle cx="18500" cy="22400" r="275.591" /> 
<circle cx="19500" cy="22400" r="275.591" /> 
<circle cx="20500" cy="22400" r="275.591" /> 
<circle cx="21500" cy="22400" r="275.591" /> 
<circle cx="22500" cy="22400" r="275.591" /> 
<circle cx="23500" cy="22400" r="275.591" /> 
<circle cx="24500" cy="22400" r="275.591" /> 
<circle cx="19500" cy="19800" r="275.591" /> 
</g>
<g style="fill:#00A000; fill-opacity:1.0; 
stroke:#00A000; stroke-width:236.22; stroke-opacity:1; 
stroke-linecap:round; stroke-linejoin:round;">
<path d="M24900 12000
L24900 12500
" />
<path d="M24900 12500
L25400 13000
" />
<path d="M21000 13400
L22500 13400
" />
<path d="M22500 13400
L22900 13000
" />
<path d="M34800 15200
L34800 13700
" />
<path d="M22400 12000
L21000 13400
" />
<path d="M33100 12000
L24900 12000
" />
<path d="M24900 12000
L22400 12000
" />
<path d="M34800 13700
L33100 12000
" />
<path d="M34700 21800
L34700 20800
" />
<path d="M35600 16000
L34800 15200
" />
<path d="M35600 19900
L35600 16000
" />
<path d="M34700 20800
L35600 19900
" />
</g>
<g style="fill:#00A000; fill-opacity:1.0; 
stroke:#00A000; stroke-width:100; stroke-opacity:1; 
stroke-linecap:round; stroke-linejoin:round;">
<path d="M30500 26900
L34000 26900
" />
<path d="M29400 25800
L30500 26900
" />
<path d="M26000 25800
L29400 25800
" />
<path d="M25200 25000
L26000 25800
" />
<path d="M25200 23200
L25200 25000
" />
<path d="M24500 22500
L25200 23200
" />
<path d="M24500 22400
L24500 22500
" />
<path d="M24500 22400
L24500 22000
" />
<path d="M27400 20200
L27400 13000
" />
<path d="M27000 20600
L27400 20200
" />
<path d="M25900 20600
L27000 20600
" />
<path d="M24500 22000
L25900 20600
" />
<path d="M23500 17500
L23700 17500
" />
<path d="M23700 17500
L24500 18300
" />
<path d="M24500 18300
L24500 19800
" />
<path d="M17900 23600
L17900 24700
" />
<path d="M19800 26600
L19900 26600
" />
<path d="M17900 24700
L19800 26600
" />
<path d="M17900 23600
L17900 22800
" />
<path d="M17900 22800
L18000 22700
" />
<path d="M18000 22700
L18000 22200
" />
<path d="M18000 22200
L18600 21600
" />
<path d="M18600 21600
L23700 21600
" />
<path d="M23700 21600
L24500 22400
" />
<path d="M27400 13000
L28900 13000
" />
<path d="M20500 19800
L20500 18500
" />
<path d="M22500 18500
L22500 19800
" />
<path d="M23500 19800
L23500 18500
" />
<path d="M21500 19800
L21500 18500
" />
<path d="M26758 19848
L26051 19848
" />
<path d="M18100 18500
L19500 18500
" />
<path d="M16900 19700
L18100 18500
" />
<path d="M16900 20600
L16900 19700
" />
<path d="M17600 21300
L16900 20600
" />
<path d="M24600 21300
L17600 21300
" />
<path d="M26051 19848
L24600 21300
" />
<path d="M26758 26348
L26758 26541
" />
<path d="M18600 17500
L19500 17500
" />
<path d="M16600 19500
L18600 17500
" />
<path d="M16600 27300
L16600 19500
" />
<path d="M17400 28100
L16600 27300
" />
<path d="M25200 28100
L17400 28100
" />
<path d="M26758 26541
L25200 28100
" />
<path d="M23900 26600
L23900 26200
" />
<path d="M20900 21800
L21500 22400
" />
<path d="M19400 21800
L20900 21800
" />
<path d="M19000 22200
L19400 21800
" />
<path d="M19000 22700
L19000 22200
" />
<path d="M20900 24600
L19000 22700
" />
<path d="M22300 24600
L20900 24600
" />
<path d="M23900 26200
L22300 24600
" />
<path d="M22500 22400
L22500 22600
" />
<path d="M21500 24200
L20900 23600
" />
<path d="M24200 24200
L21500 24200
" />
<path d="M24500 23900
L24200 24200
" />
<path d="M24500 23500
L24500 23900
" />
<path d="M23900 22900
L24500 23500
" />
<path d="M23300 22900
L23900 22900
" />
<path d="M23200 22800
L23300 22900
" />
<path d="M22700 22800
L23200 22800
" />
<path d="M22500 22600
L22700 22800
" />
<path d="M23500 22400
L23800 22400
" />
<path d="M19400 27100
L18900 26600
" />
<path d="M24500 27100
L19400 27100
" />
<path d="M24800 26800
L24500 27100
" />
<path d="M24800 23400
L24800 26800
" />
<path d="M24700 23300
L24800 23400
" />
<path d="M23800 22400
L24700 23300
" />
</g>
<g style="fill:#00A000; fill-opacity:1.0; 
stroke:#00A000; stroke-width:236.22; stroke-opacity:1; 
stroke-linecap:round; stroke-linejoin:round;">
<path d="M34700 23800
L32100 23800
" />
<path d="M31561 24338
L31561 26348
" />
<path d="M32100 23800
L31561 24338
" />
<path d="M34800 17200
L32100 17200
" />
<path d="M31561 17738
L31561 19848
" />
<path d="M32100 17200
L31561 17738
" />
</g>
<g style="fill:#00A000; fill-opacity:1.0; 
stroke:#00A000; stroke-width:100; stroke-opacity:1; 
stroke-linecap:round; stroke-linejoin:round;">
<path d="M21900 23600
L21500 23600
" />
<path d="M19500 22700
L19500 22400
" />
<path d="M19900 23100
L19500 22700
" />
<path d="M21100 23100
L19900 23100
" />
<path d="M21300 23300
L21100 23100
" />
<path d="M21300 23400
L21300 23300
" />
<path d="M21500 23600
L21300 23400
" />
<path d="M17500 22400
L17500 23300
" />
<path d="M17300 26000
L17900 26600
" />
<path d="M17300 23500
L17300 26000
" />
<path d="M17500 23300
L17300 23500
" />
<path d="M18500 22400
L18500 23200
" />
<path d="M18500 23200
L18900 23600
" />
<path d="M20700 22400
L20500 22400
" />
<path d="M21400 23100
L20700 22400
" />
<path d="M23200 23100
L21400 23100
" />
<path d="M23700 23600
L23200 23100
" />
<path d="M23900 23600
L23700 23600
" />
<path d="M35100 25900
L34800 26200
" />
<path d="M19800 16800
L20500 17500
" />
<path d="M18700 16800
L19800 16800
" />
<path d="M16300 19200
L18700 16800
" />
<path d="M16300 27500
L16300 19200
" />
<path d="M17200 28400
L16300 27500
" />
<path d="M33800 28400
L17200 28400
" />
<path d="M34800 27400
L33800 28400
" />
<path d="M34800 26200
L34800 27400
" />
<path d="M35600 25900
L35100 25900
" />
<path d="M35100 25900
L34000 25900
" />
</g>
<g style="fill:#00A000; fill-opacity:1.0; 
stroke:#00A000; stroke-width:39.3701; stroke-opacity:1; 
stroke-linecap:round; stroke-linejoin:round;">
<polyline style="fill-rule:evenodd;"
points="36350,28750
36150,28750
36150,25791
36066,25588
35911,25434
35709,25350
35491,25349
35288,25433
35134,25588
35129,25600
35100,25600
34442,25600
34297,25455
34104,25375
33896,25374
33703,25454
33555,25602
33475,25795
33474,26003
33554,26197
33702,26344
33835,26400
33703,26454
33557,26600
32047,26600
32106,26457
32106,26240
32023,26040
31929,25945
31929,24491
32252,24168
33949,24168
33949,24349
33987,24441
34058,24511
34150,24549
34249,24550
35249,24550
35341,24512
35411,24441
35449,24349
35450,24250
35450,23250
35412,23158
35341,23088
35249,23050
35150,23049
34150,23049
34058,23087
33988,23158
33950,23250
33949,23349
33949,23431
32111,23431
32111,21390
32100,21173
32038,21024
31943,20997
31873,21068
31873,20926
31846,20832
31642,20759
31425,20770
31276,20832
31249,20926
31561,21238
31873,20926
31873,21068
31632,21309
31943,21621
32038,21594
32111,21390
32111,23431
32100,23431
31959,23459
31873,23517
31873,21691
31561,21380
31490,21450
31490,21309
31178,20997
31084,21024
31011,21228
31022,21445
31084,21594
31178,21621
31490,21309
31490,21450
31249,21691
31276,21786
31480,21859
31697,21848
31846,21786
31873,21691
31873,23517
31839,23539
31301,24078
31221,24197
31193,24338
31193,25945
31099,26039
31016,26239
31016,26456
31075,26600
30624,26600
30429,26405
30429,13075
30418,12867
30360,12727
30267,12702
30197,12773
30197,12632
30172,12539
29975,12470
29767,12481
29627,12539
29602,12632
29900,12929
30197,12632
30197,12773
29970,13000
30267,13297
30360,13272
30429,13075
30429,26405
30197,26172
30197,13367
29900,13070
29602,13367
29627,13460
29824,13529
30032,13518
30172,13460
30197,13367
30197,26172
29612,25587
29514,25522
29400,25500
27308,25500
27308,21390
27297,21173
27235,21024
27140,20997
26828,21309
27140,21621
27235,21594
27308,21390
27308,25500
27070,25500
27070,21691
26758,21380
26687,21450
26687,21309
26375,20997
26280,21024
26208,21228
26219,21445
26280,21594
26375,21621
26687,21309
26687,21450
26446,21691
26473,21786
26677,21859
26894,21848
27043,21786
27070,21691
27070,25500
26402,25500
26402,23929
26391,23712
26330,23563
26235,23537
26164,23607
25923,23848
26235,24160
26330,24133
26402,23929
26402,25500
26164,25500
26124,25500
25500,24875
25500,24272
25540,24231
25567,24326
25772,24398
25988,24387
26137,24326
26164,24231
25852,23919
25847,23925
25776,23854
25782,23848
25776,23843
25847,23772
25852,23778
26164,23466
26137,23371
25933,23298
25716,23309
25567,23371
25540,23466
25500,23425
25500,23200
25499,23199
25477,23085
25412,22987
25412,22987
25012,22588
25045,22508
25045,22292
24962,22091
24897,22026
26024,20900
26454,20900
26446,20926
26758,21238
27070,20926
27059,20888
27114,20877
27114,20877
27212,20812
27612,20412
27612,20412
27677,20314
27699,20200
27700,20200
27700,13525
27739,13508
27908,13340
27925,13300
28374,13300
28374,13324
28412,13416
28483,13486
28575,13524
28674,13525
29224,13525
29316,13487
29386,13416
29424,13324
29425,13237
29439,13272
29532,13297
29829,13000
29532,12702
29439,12727
29425,12768
29425,12675
29387,12583
29316,12513
29224,12475
29125,12474
28575,12474
28483,12512
28413,12583
28375,12675
28375,12700
27925,12700
27908,12660
27740,12491
27519,12400
27281,12399
27060,12491
26985,12565
26962,12508
26891,12438
26799,12400
26700,12399
26512,12400
26450,12462
26450,12950
26457,12950
26457,13050
26450,13050
26450,13537
26512,13600
26700,13600
26799,13599
26891,13561
26962,13491
26985,13434
27059,13508
27100,13525
27100,14397
27070,14426
27043,14332
26838,14259
26622,14270
26473,14332
26446,14426
26758,14738
26763,14733
26834,14803
26828,14809
26834,14815
26763,14885
26758,14880
26687,14950
26687,14809
26375,14497
26280,14524
26208,14728
26219,14945
26280,15094
26375,15121
26687,14809
26687,14950
26446,15191
26473,15286
26677,15359
26894,15348
27043,15286
27070,15191
27070,15191
27100,15221
27100,19419
27070,19389
27067,19386
26867,19303
26650,19303
26449,19386
26402,19433
26402,17429
26391,17212
26330,17063
26235,17037
26164,17107
26164,16966
26137,16871
25933,16798
25716,16809
25567,16871
25540,16966
25852,17278
26164,16966
26164,17107
25923,17348
26235,17660
26330,17633
26402,17429
26402,19433
26296,19539
26292,19548
26164,19548
26164,17731
25852,17419
25782,17490
25782,17348
25470,17037
25375,17063
25302,17268
25313,17484
25375,17633
25470,17660
25782,17348
25782,17490
25540,17731
25567,17826
25772,17898
25988,17887
26137,17826
26164,17731
26164,19548
26051,19548
25936,19571
25839,19636
24475,21000
18811,21000
18811,20182
18500,19870
18429,19941
18429,19800
18117,19488
18022,19514
18001,19573
17977,19514
17882,19488
17570,19800
17882,20111
17977,20085
17998,20026
18022,20085
18117,20111
18429,19800
18429,19941
18188,20182
18214,20277
18419,20350
18636,20339
18785,20277
18811,20182
18811,21000
17724,21000
17200,20475
17200,20224
17214,20277
17419,20350
17636,20339
17785,20277
17811,20182
17500,19870
17494,19876
17423,19805
17429,19800
17423,19794
17494,19723
17500,19729
17811,19417
17785,19322
17723,19300
18224,18800
18949,18800
18949,18849
18987,18941
19058,19011
19150,19049
19249,19050
19849,19050
19941,19012
20011,18941
20049,18849
20049,18827
20188,18965
20200,18970
20200,19333
20191,19337
20038,19490
20000,19582
19962,19491
19809,19338
19608,19254
19392,19254
19191,19337
19038,19490
19002,19575
18977,19514
18882,19488
18811,19558
18811,19417
18785,19322
18580,19249
18363,19260
18214,19322
18188,19417
18500,19729
18811,19417
18811,19558
18570,19800
18882,20111
18977,20085
19000,20019
19037,20108
19190,20261
19391,20345
19607,20345
19808,20262
19961,20109
19999,20017
20037,20108
20190,20261
20391,20345
20607,20345
20808,20262
20961,20109
20999,20017
21037,20108
21190,20261
21391,20345
21607,20345
21808,20262
21961,20109
21999,20017
22037,20108
22190,20261
22391,20345
22607,20345
22808,20262
22961,20109
22999,20017
23037,20108
23190,20261
23391,20345
23607,20345
23808,20262
23961,20109
23999,20017
24037,20108
24190,20261
24391,20345
24607,20345
24808,20262
24961,20109
25045,19908
25045,19692
24962,19491
24809,19338
24800,19334
24800,18300
24799,18299
24777,18185
24712,18087
24712,18087
24429,17805
24429,13075
24418,12867
24360,12727
24267,12702
24197,12773
24197,12632
24172,12539
23975,12470
23767,12481
23627,12539
23602,12632
23900,12929
24197,12632
24197,12773
23970,13000
24267,13297
24360,13272
24429,13075
24429,17805
24197,17572
24197,13367
23900,13070
23602,13367
23627,13460
23824,13529
24032,13518
24172,13460
24197,13367
24197,17572
24050,17425
24050,17391
23966,17188
23811,17034
23609,16950
23391,16949
23188,17033
23034,17188
23002,17263
22981,17212
22885,17184
22815,17255
22815,17114
22787,17018
22581,16945
22363,16956
22212,17018
22184,17114
22500,17429
22815,17114
22815,17255
22570,17500
22885,17815
22981,17787
23000,17732
23033,17811
23188,17965
23269,17999
23188,18033
23034,18188
23000,18269
22966,18188
22811,18034
22736,18002
22787,17981
22815,17885
22500,17570
22184,17885
22212,17981
22267,18000
22188,18033
22034,18188
22000,18269
21966,18188
21811,18034
21730,18000
21811,17966
21965,17811
21997,17736
22018,17787
22114,17815
22429,17500
22114,17184
22018,17212
21999,17267
21966,17188
21811,17034
21609,16950
21391,16949
21188,17033
21034,17188
21000,17269
20966,17188
20811,17034
20695,16985
20609,16950
20391,16949
20379,16954
20012,16587
19914,16522
19913,16522
20175,16414
20281,16251
19500,15470
19429,15541
18718,16251
18824,16414
19032,16500
18700,16500
18585,16522
18487,16587
16087,18987
16022,19085
16000,19200
16000,27500
16022,27614
16087,27712
16987,28612
16987,28612
17085,28677
17200,28700
33800,28700
33800,28699
33914,28677
33914,28677
34012,28612
35012,27612
35012,27612
35077,27514
35099,27400
35100,27400
35100,27353
35158,27411
35250,27449
35349,27450
35487,27450
35550,27387
35550,26950
35542,26950
35542,26850
35550,26850
35550,26842
35650,26842
35650,26850
36087,26850
36150,26787
36150,26550
36112,26458
36041,26388
35949,26350
35927,26350
36065,26211
36149,26009
36150,25791
36150,28750
36150,28750
36150,27249
36150,27012
36087,26950
35650,26950
35650,27387
35712,27450
35850,27450
35949,27449
36041,27411
36112,27341
36150,27249
36150,28750
15950,28750
15950,11650
22308,11650
22259,11659
22139,11739
21674,12204
20005,12204
19913,12242
19843,12313
19805,12405
19804,12504
19804,14233
19795,14229
19735,14204
19475,14205
19451,14181
19614,14075
19795,13635
19794,13160
19614,12724
19451,12618
19381,12689
19381,12548
19275,12385
18835,12204
18360,12205
17924,12385
17818,12548
18600,13329
19381,12548
19381,12689
18670,13400
18676,13405
18605,13476
18600,13470
18529,13541
18529,13400
17748,12618
17585,12724
17404,13164
17405,13639
17585,14075
17748,14181
18529,13400
18529,13541
17818,14251
17924,14414
18364,14595
18624,14594
18648,14618
18485,14724
18304,15164
18305,15639
18485,16075
18648,16181
19429,15400
19423,15394
19494,15323
19500,15329
19505,15323
19576,15394
19570,15400
20351,16181
20514,16075
20695,15635
20694,15160
20514,14724
20351,14618
20375,14595
21994,14595
22086,14557
22156,14486
22194,14394
22195,14295
22195,13768
22500,13768
22640,13740
22760,13660
22895,13525
23224,13525
23316,13487
23386,13416
23424,13324
23425,13237
23439,13272
23532,13297
23829,13000
23532,12702
23439,12727
23425,12768
23425,12675
23387,12583
23316,12513
23224,12475
23125,12474
22575,12474
22483,12512
22413,12583
22375,12675
22374,12774
22374,13004
22347,13031
22195,13031
22195,12725
22552,12368
24531,12368
24531,12500
24559,12640
24639,12760
24800,12920
24799,13118
24891,13339
25059,13508
25280,13599
25518,13600
25739,13508
25814,13434
25837,13491
25908,13561
26000,13599
26099,13600
26287,13600
26350,13537
26350,13050
26342,13050
26342,12950
26350,12950
26350,12462
26287,12400
26099,12399
26000,12400
25908,12438
25837,12508
25814,12565
25740,12491
25519,12400
25320,12399
25288,12368
32947,12368
34431,13852
34431,14540
34375,14563
34164,14774
34050,15050
34049,15348
34163,15624
34374,15835
34650,15949
34948,15950
35005,15926
35231,16152
35231,16449
34250,16449
34158,16487
34088,16558
34050,16650
34049,16749
34049,16831
32111,16831
32111,14890
32100,14673
32038,14524
31943,14497
31873,14568
31873,14426
31846,14332
31642,14259
31425,14270
31276,14332
31249,14426
31561,14738
31873,14426
31873,14568
31632,14809
31943,15121
32038,15094
32111,14890
32111,16831
32100,16831
31959,16859
31873,16917
31873,15191
31561,14880
31490,14950
31490,14809
31178,14497
31084,14524
31011,14728
31022,14945
31084,15094
31178,15121
31490,14809
31490,14950
31249,15191
31276,15286
31480,15359
31697,15348
31846,15286
31873,15191
31873,16917
31839,16939
31301,17478
31221,17597
31193,17738
31193,19445
31099,19539
31016,19739
31016,19956
31098,20157
31252,20310
31452,20393
31669,20394
31869,20311
32023,20158
32106,19957
32106,19740
32023,19540
31929,19445
31929,17891
32252,17568
34049,17568
34049,17749
34087,17841
34158,17911
34250,17949
34349,17950
35231,17950
35231,19747
34439,20539
34359,20659
34331,20800
34331,21140
34275,21163
34064,21374
33950,21650
33949,21948
34063,22224
34274,22435
34550,22549
34848,22550
35124,22436
35335,22225
35449,21949
35450,21651
35336,21375
35125,21164
35068,21140
35068,20952
35860,20160
35940,20040
35968,19900
35968,16000
35968,15999
35968,15999
35963,15976
35940,15859
35860,15739
35860,15739
35526,15405
35549,15349
35550,15051
35436,14775
35225,14564
35168,14540
35168,13700
35140,13559
35060,13439
33360,11739
33240,11659
33191,11650
36350,11650
36350,28750
" /> 
</g>
<g style="fill:#00A000; fill-opacity:0.0; 
stroke:#00A000; stroke-width:100; stroke-opacity:1; 
stroke-linecap:round; stroke-linejoin:round;">
<polyline fill="none;"
points="36350,28750
36150,28750
36150,25791
36066,25588
35911,25434
35709,25350
35491,25349
35288,25433
35134,25588
35129,25600
35100,25600
34442,25600
34297,25455
34104,25375
33896,25374
33703,25454
33555,25602
33475,25795
33474,26003
33554,26197
33702,26344
33835,26400
33703,26454
33557,26600
32047,26600
32106,26457
32106,26240
32023,26040
31929,25945
31929,24491
32252,24168
33949,24168
33949,24349
33987,24441
34058,24511
34150,24549
34249,24550
35249,24550
35341,24512
35411,24441
35449,24349
35450,24250
35450,23250
35412,23158
35341,23088
35249,23050
35150,23049
34150,23049
34058,23087
33988,23158
33950,23250
33949,23349
33949,23431
32111,23431
32111,21390
32100,21173
32038,21024
31943,20997
31873,21068
31873,20926
31846,20832
31642,20759
31425,20770
31276,20832
31249,20926
31561,21238
31873,20926
31873,21068
31632,21309
31943,21621
32038,21594
32111,21390
32111,23431
32100,23431
31959,23459
31873,23517
31873,21691
31561,21380
31490,21450
31490,21309
31178,20997
31084,21024
31011,21228
31022,21445
31084,21594
31178,21621
31490,21309
31490,21450
31249,21691
31276,21786
31480,21859
31697,21848
31846,21786
31873,21691
31873,23517
31839,23539
31301,24078
31221,24197
31193,24338
31193,25945
31099,26039
31016,26239
31016,26456
31075,26600
30624,26600
30429,26405
30429,13075
30418,12867
30360,12727
30267,12702
30197,12773
30197,12632
30172,12539
29975,12470
29767,12481
29627,12539
29602,12632
29900,12929
30197,12632
30197,12773
29970,13000
30267,13297
30360,13272
30429,13075
30429,26405
30197,26172
30197,13367
29900,13070
29602,13367
29627,13460
29824,13529
30032,13518
30172,13460
30197,13367
30197,26172
29612,25587
29514,25522
29400,25500
27308,25500
27308,21390
27297,21173
27235,21024
27140,20997
26828,21309
27140,21621
27235,21594
27308,21390
27308,25500
27070,25500
27070,21691
26758,21380
26687,21450
26687,21309
26375,20997
26280,21024
26208,21228
26219,21445
26280,21594
26375,21621
26687,21309
26687,21450
26446,21691
26473,21786
26677,21859
26894,21848
27043,21786
27070,21691
27070,25500
26402,25500
26402,23929
26391,23712
26330,23563
26235,23537
26164,23607
25923,23848
26235,24160
26330,24133
26402,23929
26402,25500
26164,25500
26124,25500
25500,24875
25500,24272
25540,24231
25567,24326
25772,24398
25988,24387
26137,24326
26164,24231
25852,23919
25847,23925
25776,23854
25782,23848
25776,23843
25847,23772
25852,23778
26164,23466
26137,23371
25933,23298
25716,23309
25567,23371
25540,23466
25500,23425
25500,23200
25499,23199
25477,23085
25412,22987
25412,22987
25012,22588
25045,22508
25045,22292
24962,22091
24897,22026
26024,20900
26454,20900
26446,20926
26758,21238
27070,20926
27059,20888
27114,20877
27114,20877
27212,20812
27612,20412
27612,20412
27677,20314
27699,20200
27700,20200
27700,13525
27739,13508
27908,13340
27925,13300
28374,13300
28374,13324
28412,13416
28483,13486
28575,13524
28674,13525
29224,13525
29316,13487
29386,13416
29424,13324
29425,13237
29439,13272
29532,13297
29829,13000
29532,12702
29439,12727
29425,12768
29425,12675
29387,12583
29316,12513
29224,12475
29125,12474
28575,12474
28483,12512
28413,12583
28375,12675
28375,12700
27925,12700
27908,12660
27740,12491
27519,12400
27281,12399
27060,12491
26985,12565
26962,12508
26891,12438
26799,12400
26700,12399
26512,12400
26450,12462
26450,12950
26457,12950
26457,13050
26450,13050
26450,13537
26512,13600
26700,13600
26799,13599
26891,13561
26962,13491
26985,13434
27059,13508
27100,13525
27100,14397
27070,14426
27043,14332
26838,14259
26622,14270
26473,14332
26446,14426
26758,14738
26763,14733
26834,14803
26828,14809
26834,14815
26763,14885
26758,14880
26687,14950
26687,14809
26375,14497
26280,14524
26208,14728
26219,14945
26280,15094
26375,15121
26687,14809
26687,14950
26446,15191
26473,15286
26677,15359
26894,15348
27043,15286
27070,15191
27070,15191
27100,15221
27100,19419
27070,19389
27067,19386
26867,19303
26650,19303
26449,19386
26402,19433
26402,17429
26391,17212
26330,17063
26235,17037
26164,17107
26164,16966
26137,16871
25933,16798
25716,16809
25567,16871
25540,16966
25852,17278
26164,16966
26164,17107
25923,17348
26235,17660
26330,17633
26402,17429
26402,19433
26296,19539
26292,19548
26164,19548
26164,17731
25852,17419
25782,17490
25782,17348
25470,17037
25375,17063
25302,17268
25313,17484
25375,17633
25470,17660
25782,17348
25782,17490
25540,17731
25567,17826
25772,17898
25988,17887
26137,17826
26164,17731
26164,19548
26051,19548
25936,19571
25839,19636
24475,21000
18811,21000
18811,20182
18500,19870
18429,19941
18429,19800
18117,19488
18022,19514
18001,19573
17977,19514
17882,19488
17570,19800
17882,20111
17977,20085
17998,20026
18022,20085
18117,20111
18429,19800
18429,19941
18188,20182
18214,20277
18419,20350
18636,20339
18785,20277
18811,20182
18811,21000
17724,21000
17200,20475
17200,20224
17214,20277
17419,20350
17636,20339
17785,20277
17811,20182
17500,19870
17494,19876
17423,19805
17429,19800
17423,19794
17494,19723
17500,19729
17811,19417
17785,19322
17723,19300
18224,18800
18949,18800
18949,18849
18987,18941
19058,19011
19150,19049
19249,19050
19849,19050
19941,19012
20011,18941
20049,18849
20049,18827
20188,18965
20200,18970
20200,19333
20191,19337
20038,19490
20000,19582
19962,19491
19809,19338
19608,19254
19392,19254
19191,19337
19038,19490
19002,19575
18977,19514
18882,19488
18811,19558
18811,19417
18785,19322
18580,19249
18363,19260
18214,19322
18188,19417
18500,19729
18811,19417
18811,19558
18570,19800
18882,20111
18977,20085
19000,20019
19037,20108
19190,20261
19391,20345
19607,20345
19808,20262
19961,20109
19999,20017
20037,20108
20190,20261
20391,20345
20607,20345
20808,20262
20961,20109
20999,20017
21037,20108
21190,20261
21391,20345
21607,20345
21808,20262
21961,20109
21999,20017
22037,20108
22190,20261
22391,20345
22607,20345
22808,20262
22961,20109
22999,20017
23037,20108
23190,20261
23391,20345
23607,20345
23808,20262
23961,20109
23999,20017
24037,20108
24190,20261
24391,20345
24607,20345
24808,20262
24961,20109
25045,19908
25045,19692
24962,19491
24809,19338
24800,19334
24800,18300
24799,18299
24777,18185
24712,18087
24712,18087
24429,17805
24429,13075
24418,12867
24360,12727
24267,12702
24197,12773
24197,12632
24172,12539
23975,12470
23767,12481
23627,12539
23602,12632
23900,12929
24197,12632
24197,12773
23970,13000
24267,13297
24360,13272
24429,13075
24429,17805
24197,17572
24197,13367
23900,13070
23602,13367
23627,13460
23824,13529
24032,13518
24172,13460
24197,13367
24197,17572
24050,17425
24050,17391
23966,17188
23811,17034
23609,16950
23391,16949
23188,17033
23034,17188
23002,17263
22981,17212
22885,17184
22815,17255
22815,17114
22787,17018
22581,16945
22363,16956
22212,17018
22184,17114
22500,17429
22815,17114
22815,17255
22570,17500
22885,17815
22981,17787
23000,17732
23033,17811
23188,17965
23269,17999
23188,18033
23034,18188
23000,18269
22966,18188
22811,18034
22736,18002
22787,17981
22815,17885
22500,17570
22184,17885
22212,17981
22267,18000
22188,18033
22034,18188
22000,18269
21966,18188
21811,18034
21730,18000
21811,17966
21965,17811
21997,17736
22018,17787
22114,17815
22429,17500
22114,17184
22018,17212
21999,17267
21966,17188
21811,17034
21609,16950
21391,16949
21188,17033
21034,17188
21000,17269
20966,17188
20811,17034
20695,16985
20609,16950
20391,16949
20379,16954
20012,16587
19914,16522
19913,16522
20175,16414
20281,16251
19500,15470
19429,15541
18718,16251
18824,16414
19032,16500
18700,16500
18585,16522
18487,16587
16087,18987
16022,19085
16000,19200
16000,27500
16022,27614
16087,27712
16987,28612
16987,28612
17085,28677
17200,28700
33800,28700
33800,28699
33914,28677
33914,28677
34012,28612
35012,27612
35012,27612
35077,27514
35099,27400
35100,27400
35100,27353
35158,27411
35250,27449
35349,27450
35487,27450
35550,27387
35550,26950
35542,26950
35542,26850
35550,26850
35550,26842
35650,26842
35650,26850
36087,26850
36150,26787
36150,26550
36112,26458
36041,26388
35949,26350
35927,26350
36065,26211
36149,26009
36150,25791
36150,28750
36150,28750
36150,27249
36150,27012
36087,26950
35650,26950
35650,27387
35712,27450
35850,27450
35949,27449
36041,27411
36112,27341
36150,27249
36150,28750
15950,28750
15950,11650
22308,11650
22259,11659
22139,11739
21674,12204
20005,12204
19913,12242
19843,12313
19805,12405
19804,12504
19804,14233
19795,14229
19735,14204
19475,14205
19451,14181
19614,14075
19795,13635
19794,13160
19614,12724
19451,12618
19381,12689
19381,12548
19275,12385
18835,12204
18360,12205
17924,12385
17818,12548
18600,13329
19381,12548
19381,12689
18670,13400
18676,13405
18605,13476
18600,13470
18529,13541
18529,13400
17748,12618
17585,12724
17404,13164
17405,13639
17585,14075
17748,14181
18529,13400
18529,13541
17818,14251
17924,14414
18364,14595
18624,14594
18648,14618
18485,14724
18304,15164
18305,15639
18485,16075
18648,16181
19429,15400
19423,15394
19494,15323
19500,15329
19505,15323
19576,15394
19570,15400
20351,16181
20514,16075
20695,15635
20694,15160
20514,14724
20351,14618
20375,14595
21994,14595
22086,14557
22156,14486
22194,14394
22195,14295
22195,13768
22500,13768
22640,13740
22760,13660
22895,13525
23224,13525
23316,13487
23386,13416
23424,13324
23425,13237
23439,13272
23532,13297
23829,13000
23532,12702
23439,12727
23425,12768
23425,12675
23387,12583
23316,12513
23224,12475
23125,12474
22575,12474
22483,12512
22413,12583
22375,12675
22374,12774
22374,13004
22347,13031
22195,13031
22195,12725
22552,12368
24531,12368
24531,12500
24559,12640
24639,12760
24800,12920
24799,13118
24891,13339
25059,13508
25280,13599
25518,13600
25739,13508
25814,13434
25837,13491
25908,13561
26000,13599
26099,13600
26287,13600
26350,13537
26350,13050
26342,13050
26342,12950
26350,12950
26350,12462
26287,12400
26099,12399
26000,12400
25908,12438
25837,12508
25814,12565
25740,12491
25519,12400
25320,12399
25288,12368
32947,12368
34431,13852
34431,14540
34375,14563
34164,14774
34050,15050
34049,15348
34163,15624
34374,15835
34650,15949
34948,15950
35005,15926
35231,16152
35231,16449
34250,16449
34158,16487
34088,16558
34050,16650
34049,16749
34049,16831
32111,16831
32111,14890
32100,14673
32038,14524
31943,14497
31873,14568
31873,14426
31846,14332
31642,14259
31425,14270
31276,14332
31249,14426
31561,14738
31873,14426
31873,14568
31632,14809
31943,15121
32038,15094
32111,14890
32111,16831
32100,16831
31959,16859
31873,16917
31873,15191
31561,14880
31490,14950
31490,14809
31178,14497
31084,14524
31011,14728
31022,14945
31084,15094
31178,15121
31490,14809
31490,14950
31249,15191
31276,15286
31480,15359
31697,15348
31846,15286
31873,15191
31873,16917
31839,16939
31301,17478
31221,17597
31193,17738
31193,19445
31099,19539
31016,19739
31016,19956
31098,20157
31252,20310
31452,20393
31669,20394
31869,20311
32023,20158
32106,19957
32106,19740
32023,19540
31929,19445
31929,17891
32252,17568
34049,17568
34049,17749
34087,17841
34158,17911
34250,17949
34349,17950
35231,17950
35231,19747
34439,20539
34359,20659
34331,20800
34331,21140
34275,21163
34064,21374
33950,21650
33949,21948
34063,22224
34274,22435
34550,22549
34848,22550
35124,22436
35335,22225
35449,21949
35450,21651
35336,21375
35125,21164
35068,21140
35068,20952
35860,20160
35940,20040
35968,19900
35968,16000
35968,15999
35968,15999
35963,15976
35940,15859
35860,15739
35860,15739
35526,15405
35549,15349
35550,15051
35436,14775
35225,14564
35168,14540
35168,13700
35140,13559
35060,13439
33360,11739
33240,11659
33191,11650
36350,11650
36350,28750
" /> 
</g>
<g style="fill:#FFFFFF; fill-opacity:0.0; 
stroke:#FFFFFF; stroke-width:39.3701; stroke-opacity:1; 
stroke-linecap:round; stroke-linejoin:round;">
</g>
<g style="fill:#FFFFFF; fill-opacity:1.0; 
stroke:#FFFFFF; stroke-width:39.3701; stroke-opacity:1; 
stroke-linecap:round; stroke-linejoin:round;">
<circle cx="25852.8" cy="17348.8" r="98.4252" /> 
<circle cx="31561.4" cy="19848.8" r="98.4252" /> 
<circle cx="26758.3" cy="19848.8" r="98.4252" /> 
<circle cx="26758.3" cy="14809.4" r="98.4252" /> 
<circle cx="31561.4" cy="14809.4" r="98.4252" /> 
<circle cx="25852.8" cy="23848.8" r="98.4252" /> 
<circle cx="31561.4" cy="26348.8" r="98.4252" /> 
<circle cx="26758.3" cy="26348.8" r="98.4252" /> 
<circle cx="26758.3" cy="21309.4" r="98.4252" /> 
<circle cx="31561.4" cy="21309.4" r="98.4252" /> 
<circle cx="22900" cy="26600" r="98.4252" /> 
<circle cx="23900" cy="26600" r="98.4252" /> 
<circle cx="19900" cy="26600" r="98.4252" /> 
<circle cx="18900" cy="26600" r="98.4252" /> 
<circle cx="17900" cy="26600" r="98.4252" /> 
<circle cx="17900" cy="23600" r="98.4252" /> 
<circle cx="18900" cy="23600" r="98.4252" /> 
<circle cx="20900" cy="23600" r="98.4252" /> 
<circle cx="21900" cy="23600" r="98.4252" /> 
<circle cx="22900" cy="23600" r="98.4252" /> 
<circle cx="23900" cy="23600" r="98.4252" /> 
<circle cx="34000" cy="26900" r="140.315" /> 
<circle cx="34000" cy="25900" r="140.315" /> 
<circle cx="19500" cy="18500" r="180.315" /> 
<circle cx="19500" cy="17500" r="180.315" /> 
<circle cx="20500" cy="18500" r="180.315" /> 
<circle cx="20500" cy="17500" r="180.315" /> 
<circle cx="21500" cy="18500" r="180.315" /> 
<circle cx="21500" cy="17500" r="180.315" /> 
<circle cx="22500" cy="18500" r="180.315" /> 
<circle cx="22500" cy="17500" r="180.315" /> 
<circle cx="23500" cy="18500" r="180.315" /> 
<circle cx="23500" cy="17500" r="180.315" /> 
<circle cx="35600" cy="26900" r="180.315" /> 
<circle cx="35600" cy="25900" r="180.315" /> 
<circle cx="25400" cy="13000" r="205.315" /> 
<circle cx="26400" cy="13000" r="205.315" /> 
<circle cx="27400" cy="13000" r="205.315" /> 
</g>
<g style="fill:#FFFFFF; fill-opacity:1.0; 
stroke:#FFFFFF; stroke-width:400; stroke-opacity:1; 
stroke-linecap:round; stroke-linejoin:round;">
<path d="M18600 13100
L18600 13700
" />
<path d="M21000 13100
L21000 13700
" />
<path d="M19200 15400
L19800 15400
" />
</g>
<g style="fill:#FFFFFF; fill-opacity:1.0; 
stroke:#FFFFFF; stroke-width:39.3701; stroke-opacity:1; 
stroke-linecap:round; stroke-linejoin:round;">
<circle cx="22900" cy="13000" r="140.315" /> 
<circle cx="23900" cy="13000" r="140.315" /> 
<circle cx="28900" cy="13000" r="140.315" /> 
<circle cx="29900" cy="13000" r="140.315" /> 
<circle cx="34800" cy="17200" r="280.315" /> 
<circle cx="34800" cy="15200" r="280.315" /> 
<circle cx="34700" cy="23800" r="280.315" /> 
<circle cx="34700" cy="21800" r="280.315" /> 
<circle cx="24500" cy="19800" r="98.4252" /> 
<circle cx="23500" cy="19800" r="98.4252" /> 
<circle cx="22500" cy="19800" r="98.4252" /> 
<circle cx="21500" cy="19800" r="98.4252" /> 
<circle cx="20500" cy="19800" r="98.4252" /> 
<circle cx="18500" cy="19800" r="98.4252" /> 
<circle cx="17500" cy="19800" r="98.4252" /> 
<circle cx="17500" cy="22400" r="98.4252" /> 
<circle cx="18500" cy="22400" r="98.4252" /> 
<circle cx="19500" cy="22400" r="98.4252" /> 
<circle cx="20500" cy="22400" r="98.4252" /> 
<circle cx="21500" cy="22400" r="98.4252" /> 
<circle cx="22500" cy="22400" r="98.4252" /> 
<circle cx="23500" cy="22400" r="98.4252" /> 
<circle cx="24500" cy="22400" r="98.4252" /> 
<circle cx="19500" cy="19800" r="98.4252" /> 
</g> 
</svg>
