G04 (created by PCBNEW (2013-may-18)-stable) date lun 04 jui 2016 15:07:43 CEST*
%MOIN*%
G04 Gerber Fmt 3.4, Leading zero omitted, Abs format*
%FSLAX34Y34*%
G01*
G70*
G90*
G04 APERTURE LIST*
%ADD10C,0.00590551*%
%ADD11C,0.012*%
%ADD12C,0.006*%
%ADD13C,0.01*%
%ADD14C,0.015*%
%ADD15C,0.005*%
%ADD16C,0.0026*%
%ADD17C,0.004*%
%ADD18C,0.0047*%
%ADD19C,0.008*%
%ADD20C,0.0035*%
%ADD21C,0.0045*%
%ADD22C,0.0590551*%
%ADD23R,0.1X0.1*%
%ADD24C,0.1*%
%ADD25R,0.06X0.06*%
%ADD26C,0.06*%
%ADD27C,0.07*%
%ADD28R,0.07X0.07*%
%ADD29C,0.189*%
%ADD30R,0.189X0.189*%
%ADD31R,0.08X0.06*%
%ADD32R,0.0709X0.0629*%
%ADD33R,0.06X0.08*%
%ADD34R,0.025X0.045*%
G04 APERTURE END LIST*
G54D10*
X19300Y-19325D02*
X16700Y-19325D01*
X16700Y-19325D02*
X16700Y-27075D01*
X16700Y-27075D02*
X19300Y-27075D01*
X19300Y-27075D02*
X19300Y-19350D01*
G54D11*
X35000Y-21100D02*
X35000Y-25100D01*
X35500Y-21100D02*
X32500Y-21100D01*
X32500Y-21100D02*
X32500Y-25100D01*
X32500Y-25100D02*
X35500Y-25100D01*
X35500Y-25100D02*
X35500Y-21100D01*
X13900Y-27100D02*
X13900Y-22100D01*
X13900Y-22100D02*
X15900Y-22100D01*
X15900Y-22100D02*
X15900Y-27100D01*
X15900Y-27100D02*
X13900Y-27100D01*
X35000Y-14400D02*
X35000Y-18400D01*
X35500Y-14400D02*
X32500Y-14400D01*
X32500Y-14400D02*
X32500Y-18400D01*
X32500Y-18400D02*
X35500Y-18400D01*
X35500Y-18400D02*
X35500Y-14400D01*
G54D10*
X23200Y-21800D02*
X23100Y-21900D01*
X23100Y-21900D02*
X23100Y-23200D01*
X23100Y-23200D02*
X23200Y-23300D01*
X23200Y-23300D02*
X23300Y-23200D01*
X23300Y-23200D02*
X23300Y-21900D01*
X23300Y-21900D02*
X23200Y-21800D01*
X21250Y-23350D02*
X21350Y-23250D01*
X21350Y-23250D02*
X23000Y-23250D01*
X23000Y-23250D02*
X23100Y-23350D01*
X23100Y-23350D02*
X23000Y-23450D01*
X23000Y-23450D02*
X21350Y-23450D01*
X21350Y-23450D02*
X21250Y-23350D01*
X21200Y-21800D02*
X21300Y-21900D01*
X21300Y-21900D02*
X21300Y-23200D01*
X21300Y-23200D02*
X21200Y-23300D01*
X21200Y-23300D02*
X21100Y-23200D01*
X21100Y-23200D02*
X21100Y-21900D01*
X21100Y-21900D02*
X21200Y-21800D01*
X21200Y-21800D02*
X21200Y-21850D01*
X21250Y-21750D02*
X21350Y-21650D01*
X21350Y-21650D02*
X23000Y-21650D01*
X23000Y-21650D02*
X23100Y-21750D01*
X23100Y-21750D02*
X23000Y-21850D01*
X23000Y-21850D02*
X21350Y-21850D01*
X21350Y-21850D02*
X21250Y-21750D01*
X21200Y-20300D02*
X21300Y-20400D01*
X21300Y-20400D02*
X21300Y-21600D01*
X21300Y-21600D02*
X21200Y-21700D01*
X21200Y-21700D02*
X21100Y-21600D01*
X21100Y-21600D02*
X21100Y-20400D01*
X21100Y-20400D02*
X21200Y-20300D01*
X23100Y-20400D02*
X23100Y-21600D01*
X23100Y-21600D02*
X23200Y-21700D01*
X23200Y-21700D02*
X23300Y-21600D01*
X23300Y-21600D02*
X23300Y-20400D01*
X23300Y-20400D02*
X23200Y-20300D01*
X23200Y-20300D02*
X23100Y-20400D01*
X23100Y-20100D02*
X23200Y-20200D01*
X23200Y-20200D02*
X23100Y-20300D01*
X23100Y-20300D02*
X21350Y-20300D01*
X21350Y-20300D02*
X21250Y-20200D01*
X21250Y-20200D02*
X21350Y-20100D01*
X21350Y-20100D02*
X23100Y-20100D01*
X23100Y-20100D02*
X23100Y-20150D01*
X24200Y-17550D02*
X20200Y-17550D01*
X20200Y-17550D02*
X20200Y-25050D01*
X20200Y-25050D02*
X24200Y-25050D01*
X24200Y-17550D02*
X24200Y-25050D01*
X19995Y-18898D02*
X19916Y-18898D01*
G54D12*
X24300Y-25700D02*
X24300Y-26700D01*
X24300Y-26700D02*
X22300Y-26700D01*
X22300Y-26700D02*
X22300Y-25700D01*
X22300Y-25700D02*
X24300Y-25700D01*
G54D13*
X20150Y-14650D02*
X20150Y-14400D01*
X20150Y-14400D02*
X23650Y-14400D01*
X23650Y-14400D02*
X23650Y-14650D01*
X20150Y-16150D02*
X20150Y-14650D01*
X20150Y-14650D02*
X23650Y-14650D01*
X23650Y-14650D02*
X23650Y-16150D01*
X23650Y-16150D02*
X20150Y-16150D01*
G54D14*
X12000Y-13700D02*
X11700Y-13700D01*
X11700Y-13700D02*
X11700Y-17100D01*
X11700Y-17100D02*
X12000Y-17100D01*
X13200Y-13700D02*
X13200Y-17100D01*
X17000Y-13700D02*
X17000Y-17100D01*
X12000Y-17100D02*
X17000Y-17100D01*
X12000Y-13700D02*
X17000Y-13700D01*
G54D15*
X33850Y-20700D02*
X34750Y-20700D01*
X34750Y-20700D02*
X34750Y-20050D01*
X33850Y-19350D02*
X33850Y-18700D01*
X33850Y-18700D02*
X34750Y-18700D01*
X34750Y-18700D02*
X34750Y-19350D01*
X33850Y-20050D02*
X33850Y-20700D01*
X33850Y-27400D02*
X34750Y-27400D01*
X34750Y-27400D02*
X34750Y-26750D01*
X33850Y-26050D02*
X33850Y-25400D01*
X33850Y-25400D02*
X34750Y-25400D01*
X34750Y-25400D02*
X34750Y-26050D01*
X33850Y-26750D02*
X33850Y-27400D01*
X16050Y-19800D02*
X15150Y-19800D01*
X15150Y-19800D02*
X15150Y-20450D01*
X16050Y-21150D02*
X16050Y-21800D01*
X16050Y-21800D02*
X15150Y-21800D01*
X15150Y-21800D02*
X15150Y-21150D01*
X16050Y-20450D02*
X16050Y-19800D01*
G54D16*
X33061Y-19661D02*
X33061Y-19739D01*
X33061Y-19739D02*
X33139Y-19739D01*
X33139Y-19661D02*
X33139Y-19739D01*
X33061Y-19661D02*
X33139Y-19661D01*
X32825Y-19877D02*
X32825Y-20014D01*
X32825Y-20014D02*
X32923Y-20014D01*
X32923Y-19877D02*
X32923Y-20014D01*
X32825Y-19877D02*
X32923Y-19877D01*
X32825Y-20014D02*
X32825Y-20054D01*
X32825Y-20054D02*
X33296Y-20054D01*
X33296Y-20014D02*
X33296Y-20054D01*
X32825Y-20014D02*
X33296Y-20014D01*
X33316Y-20014D02*
X33316Y-20054D01*
X33316Y-20054D02*
X33375Y-20054D01*
X33375Y-20014D02*
X33375Y-20054D01*
X33316Y-20014D02*
X33375Y-20014D01*
X32825Y-19346D02*
X32825Y-19386D01*
X32825Y-19386D02*
X33296Y-19386D01*
X33296Y-19346D02*
X33296Y-19386D01*
X32825Y-19346D02*
X33296Y-19346D01*
X33316Y-19346D02*
X33316Y-19386D01*
X33316Y-19386D02*
X33375Y-19386D01*
X33375Y-19346D02*
X33375Y-19386D01*
X33316Y-19346D02*
X33375Y-19346D01*
X32825Y-19877D02*
X32825Y-19936D01*
X32825Y-19936D02*
X32923Y-19936D01*
X32923Y-19877D02*
X32923Y-19936D01*
X32825Y-19877D02*
X32923Y-19877D01*
G54D17*
X32805Y-20310D02*
X32805Y-19090D01*
X32805Y-19090D02*
X33395Y-19090D01*
X33395Y-19090D02*
X33395Y-20310D01*
X33395Y-20310D02*
X32805Y-20310D01*
X32903Y-19484D02*
G75*
G03X32904Y-19916I196J-215D01*
G74*
G01*
X33296Y-19484D02*
G75*
G03X32904Y-19483I-196J-215D01*
G74*
G01*
X33296Y-19915D02*
G75*
G03X33295Y-19483I-196J215D01*
G74*
G01*
X32903Y-19915D02*
G75*
G03X33295Y-19916I196J215D01*
G74*
G01*
G54D16*
X33061Y-26361D02*
X33061Y-26439D01*
X33061Y-26439D02*
X33139Y-26439D01*
X33139Y-26361D02*
X33139Y-26439D01*
X33061Y-26361D02*
X33139Y-26361D01*
X32825Y-26577D02*
X32825Y-26714D01*
X32825Y-26714D02*
X32923Y-26714D01*
X32923Y-26577D02*
X32923Y-26714D01*
X32825Y-26577D02*
X32923Y-26577D01*
X32825Y-26714D02*
X32825Y-26754D01*
X32825Y-26754D02*
X33296Y-26754D01*
X33296Y-26714D02*
X33296Y-26754D01*
X32825Y-26714D02*
X33296Y-26714D01*
X33316Y-26714D02*
X33316Y-26754D01*
X33316Y-26754D02*
X33375Y-26754D01*
X33375Y-26714D02*
X33375Y-26754D01*
X33316Y-26714D02*
X33375Y-26714D01*
X32825Y-26046D02*
X32825Y-26086D01*
X32825Y-26086D02*
X33296Y-26086D01*
X33296Y-26046D02*
X33296Y-26086D01*
X32825Y-26046D02*
X33296Y-26046D01*
X33316Y-26046D02*
X33316Y-26086D01*
X33316Y-26086D02*
X33375Y-26086D01*
X33375Y-26046D02*
X33375Y-26086D01*
X33316Y-26046D02*
X33375Y-26046D01*
X32825Y-26577D02*
X32825Y-26636D01*
X32825Y-26636D02*
X32923Y-26636D01*
X32923Y-26577D02*
X32923Y-26636D01*
X32825Y-26577D02*
X32923Y-26577D01*
G54D17*
X32805Y-27010D02*
X32805Y-25790D01*
X32805Y-25790D02*
X33395Y-25790D01*
X33395Y-25790D02*
X33395Y-27010D01*
X33395Y-27010D02*
X32805Y-27010D01*
X32903Y-26184D02*
G75*
G03X32904Y-26616I196J-215D01*
G74*
G01*
X33296Y-26184D02*
G75*
G03X32904Y-26183I-196J-215D01*
G74*
G01*
X33296Y-26615D02*
G75*
G03X33295Y-26183I-196J215D01*
G74*
G01*
X32903Y-26615D02*
G75*
G03X33295Y-26616I196J215D01*
G74*
G01*
G54D16*
X14439Y-20839D02*
X14439Y-20761D01*
X14439Y-20761D02*
X14361Y-20761D01*
X14361Y-20839D02*
X14361Y-20761D01*
X14439Y-20839D02*
X14361Y-20839D01*
X14675Y-20623D02*
X14675Y-20486D01*
X14675Y-20486D02*
X14577Y-20486D01*
X14577Y-20623D02*
X14577Y-20486D01*
X14675Y-20623D02*
X14577Y-20623D01*
X14675Y-20486D02*
X14675Y-20446D01*
X14675Y-20446D02*
X14204Y-20446D01*
X14204Y-20486D02*
X14204Y-20446D01*
X14675Y-20486D02*
X14204Y-20486D01*
X14184Y-20486D02*
X14184Y-20446D01*
X14184Y-20446D02*
X14125Y-20446D01*
X14125Y-20486D02*
X14125Y-20446D01*
X14184Y-20486D02*
X14125Y-20486D01*
X14675Y-21154D02*
X14675Y-21114D01*
X14675Y-21114D02*
X14204Y-21114D01*
X14204Y-21154D02*
X14204Y-21114D01*
X14675Y-21154D02*
X14204Y-21154D01*
X14184Y-21154D02*
X14184Y-21114D01*
X14184Y-21114D02*
X14125Y-21114D01*
X14125Y-21154D02*
X14125Y-21114D01*
X14184Y-21154D02*
X14125Y-21154D01*
X14675Y-20623D02*
X14675Y-20564D01*
X14675Y-20564D02*
X14577Y-20564D01*
X14577Y-20623D02*
X14577Y-20564D01*
X14675Y-20623D02*
X14577Y-20623D01*
G54D17*
X14695Y-20190D02*
X14695Y-21410D01*
X14695Y-21410D02*
X14105Y-21410D01*
X14105Y-21410D02*
X14105Y-20190D01*
X14105Y-20190D02*
X14695Y-20190D01*
X14596Y-21015D02*
G75*
G03X14595Y-20583I-196J215D01*
G74*
G01*
X14203Y-21015D02*
G75*
G03X14595Y-21016I196J215D01*
G74*
G01*
X14203Y-20584D02*
G75*
G03X14204Y-21016I196J-215D01*
G74*
G01*
X14596Y-20584D02*
G75*
G03X14204Y-20583I-196J-215D01*
G74*
G01*
G54D15*
X20000Y-25750D02*
X20000Y-26650D01*
X20000Y-26650D02*
X20650Y-26650D01*
X21350Y-25750D02*
X22000Y-25750D01*
X22000Y-25750D02*
X22000Y-26650D01*
X22000Y-26650D02*
X21350Y-26650D01*
X20650Y-25750D02*
X20000Y-25750D01*
G54D18*
X20997Y-17056D02*
X21272Y-17056D01*
X20603Y-17056D02*
X20328Y-17056D01*
X20997Y-16544D02*
X21272Y-16544D01*
X20328Y-16544D02*
X20603Y-16544D01*
X21272Y-16550D02*
X21272Y-17050D01*
X20328Y-17050D02*
X20328Y-16550D01*
X22803Y-16544D02*
X22528Y-16544D01*
X23197Y-16544D02*
X23472Y-16544D01*
X22803Y-17056D02*
X22528Y-17056D01*
X23472Y-17056D02*
X23197Y-17056D01*
X22528Y-17050D02*
X22528Y-16550D01*
X23472Y-16550D02*
X23472Y-17050D01*
G54D10*
X31824Y-19555D02*
X30603Y-19555D01*
X30603Y-19555D02*
X30525Y-19830D01*
X30525Y-19830D02*
X31706Y-19830D01*
X30643Y-19909D02*
X30800Y-19909D01*
X30367Y-20263D02*
X30525Y-19909D01*
X30525Y-19909D02*
X30682Y-19909D01*
X31745Y-19830D02*
X31824Y-19555D01*
X31155Y-20263D02*
X31312Y-20263D01*
X31233Y-20263D02*
X30485Y-20263D01*
X30485Y-20263D02*
X30367Y-20263D01*
X31706Y-19909D02*
X30722Y-19909D01*
X31273Y-20263D02*
G75*
G03X31706Y-19909I39J393D01*
G74*
G01*
X25847Y-19712D02*
G75*
G03X25847Y-19712I-440J0D01*
G74*
G01*
X32100Y-20500D02*
X24580Y-20500D01*
X24580Y-20500D02*
X24580Y-14397D01*
X24580Y-14397D02*
X32100Y-14397D01*
X32100Y-14397D02*
X32100Y-20500D01*
X31924Y-26255D02*
X30703Y-26255D01*
X30703Y-26255D02*
X30625Y-26530D01*
X30625Y-26530D02*
X31806Y-26530D01*
X30743Y-26609D02*
X30900Y-26609D01*
X30467Y-26963D02*
X30625Y-26609D01*
X30625Y-26609D02*
X30782Y-26609D01*
X31845Y-26530D02*
X31924Y-26255D01*
X31255Y-26963D02*
X31412Y-26963D01*
X31333Y-26963D02*
X30585Y-26963D01*
X30585Y-26963D02*
X30467Y-26963D01*
X31806Y-26609D02*
X30822Y-26609D01*
X31373Y-26963D02*
G75*
G03X31806Y-26609I39J393D01*
G74*
G01*
X25947Y-26412D02*
G75*
G03X25947Y-26412I-440J0D01*
G74*
G01*
X32200Y-27200D02*
X24680Y-27200D01*
X24680Y-27200D02*
X24680Y-21097D01*
X24680Y-21097D02*
X32200Y-21097D01*
X32200Y-21097D02*
X32200Y-27200D01*
X18453Y-23753D02*
X18471Y-23696D01*
X18490Y-23678D01*
X18528Y-23659D01*
X18584Y-23659D01*
X18621Y-23678D01*
X18640Y-23696D01*
X18659Y-23734D01*
X18659Y-23884D01*
X18265Y-23884D01*
X18265Y-23753D01*
X18284Y-23715D01*
X18303Y-23696D01*
X18340Y-23678D01*
X18378Y-23678D01*
X18415Y-23696D01*
X18434Y-23715D01*
X18453Y-23753D01*
X18453Y-23884D01*
X18621Y-23265D02*
X18640Y-23284D01*
X18659Y-23340D01*
X18659Y-23378D01*
X18640Y-23434D01*
X18603Y-23471D01*
X18565Y-23490D01*
X18490Y-23509D01*
X18434Y-23509D01*
X18359Y-23490D01*
X18321Y-23471D01*
X18284Y-23434D01*
X18265Y-23378D01*
X18265Y-23340D01*
X18284Y-23284D01*
X18303Y-23265D01*
X18659Y-23096D02*
X18265Y-23096D01*
X18265Y-23003D01*
X18284Y-22946D01*
X18321Y-22909D01*
X18359Y-22890D01*
X18434Y-22871D01*
X18490Y-22871D01*
X18565Y-22890D01*
X18603Y-22909D01*
X18640Y-22946D01*
X18659Y-23003D01*
X18659Y-23096D01*
X18659Y-22496D02*
X18659Y-22721D01*
X18659Y-22609D02*
X18265Y-22609D01*
X18321Y-22646D01*
X18359Y-22684D01*
X18378Y-22721D01*
X17721Y-24299D02*
X17740Y-24318D01*
X17759Y-24374D01*
X17759Y-24412D01*
X17740Y-24468D01*
X17703Y-24506D01*
X17665Y-24524D01*
X17590Y-24543D01*
X17534Y-24543D01*
X17459Y-24524D01*
X17421Y-24506D01*
X17384Y-24468D01*
X17365Y-24412D01*
X17365Y-24374D01*
X17384Y-24318D01*
X17403Y-24299D01*
X17759Y-24131D02*
X17365Y-24131D01*
X17365Y-24037D01*
X17384Y-23981D01*
X17421Y-23943D01*
X17459Y-23924D01*
X17534Y-23906D01*
X17590Y-23906D01*
X17665Y-23924D01*
X17703Y-23943D01*
X17740Y-23981D01*
X17759Y-24037D01*
X17759Y-24131D01*
X17496Y-23568D02*
X17759Y-23568D01*
X17346Y-23662D02*
X17628Y-23756D01*
X17628Y-23512D01*
X17365Y-23174D02*
X17365Y-23362D01*
X17553Y-23381D01*
X17534Y-23362D01*
X17515Y-23324D01*
X17515Y-23231D01*
X17534Y-23193D01*
X17553Y-23174D01*
X17590Y-23156D01*
X17684Y-23156D01*
X17721Y-23174D01*
X17740Y-23193D01*
X17759Y-23231D01*
X17759Y-23324D01*
X17740Y-23362D01*
X17721Y-23381D01*
X17496Y-22818D02*
X17759Y-22818D01*
X17346Y-22912D02*
X17628Y-23006D01*
X17628Y-22762D01*
X17365Y-22650D02*
X17365Y-22406D01*
X17515Y-22537D01*
X17515Y-22481D01*
X17534Y-22443D01*
X17553Y-22425D01*
X17590Y-22406D01*
X17684Y-22406D01*
X17721Y-22425D01*
X17740Y-22443D01*
X17759Y-22481D01*
X17759Y-22593D01*
X17740Y-22631D01*
X17721Y-22650D01*
X17553Y-22106D02*
X17571Y-22050D01*
X17590Y-22031D01*
X17628Y-22012D01*
X17684Y-22012D01*
X17721Y-22031D01*
X17740Y-22050D01*
X17759Y-22087D01*
X17759Y-22237D01*
X17365Y-22237D01*
X17365Y-22106D01*
X17384Y-22068D01*
X17403Y-22050D01*
X17440Y-22031D01*
X17478Y-22031D01*
X17515Y-22050D01*
X17534Y-22068D01*
X17553Y-22106D01*
X17553Y-22237D01*
X17553Y-21843D02*
X17553Y-21712D01*
X17759Y-21656D02*
X17759Y-21843D01*
X17365Y-21843D01*
X17365Y-21656D01*
G54D11*
X35342Y-23542D02*
X34742Y-23542D01*
X34742Y-23314D01*
X34771Y-23257D01*
X34800Y-23228D01*
X34857Y-23200D01*
X34942Y-23200D01*
X35000Y-23228D01*
X35028Y-23257D01*
X35057Y-23314D01*
X35057Y-23542D01*
X34942Y-22685D02*
X35342Y-22685D01*
X34714Y-22828D02*
X35142Y-22971D01*
X35142Y-22600D01*
X29928Y-23185D02*
X29900Y-23214D01*
X29814Y-23242D01*
X29757Y-23242D01*
X29671Y-23214D01*
X29614Y-23157D01*
X29585Y-23100D01*
X29557Y-22985D01*
X29557Y-22900D01*
X29585Y-22785D01*
X29614Y-22728D01*
X29671Y-22671D01*
X29757Y-22642D01*
X29814Y-22642D01*
X29900Y-22671D01*
X29928Y-22700D01*
X30300Y-22642D02*
X30414Y-22642D01*
X30471Y-22671D01*
X30528Y-22728D01*
X30557Y-22842D01*
X30557Y-23042D01*
X30528Y-23157D01*
X30471Y-23214D01*
X30414Y-23242D01*
X30300Y-23242D01*
X30242Y-23214D01*
X30185Y-23157D01*
X30157Y-23042D01*
X30157Y-22842D01*
X30185Y-22728D01*
X30242Y-22671D01*
X30300Y-22642D01*
X30814Y-23242D02*
X30814Y-22642D01*
X31157Y-23242D01*
X31157Y-22642D01*
X31442Y-23242D02*
X31442Y-22642D01*
X31785Y-23242D01*
X31785Y-22642D01*
X31928Y-23300D02*
X32385Y-23300D01*
X32500Y-22700D02*
X32528Y-22671D01*
X32585Y-22642D01*
X32728Y-22642D01*
X32785Y-22671D01*
X32814Y-22700D01*
X32842Y-22757D01*
X32842Y-22814D01*
X32814Y-22900D01*
X32471Y-23242D01*
X32842Y-23242D01*
G54D19*
X13561Y-24645D02*
X13161Y-24645D01*
X13161Y-24492D01*
X13180Y-24454D01*
X13200Y-24435D01*
X13238Y-24416D01*
X13295Y-24416D01*
X13333Y-24435D01*
X13352Y-24454D01*
X13371Y-24492D01*
X13371Y-24645D01*
X13561Y-24035D02*
X13561Y-24264D01*
X13561Y-24149D02*
X13161Y-24149D01*
X13219Y-24188D01*
X13257Y-24226D01*
X13276Y-24264D01*
G54D11*
X33442Y-16842D02*
X32842Y-16842D01*
X32842Y-16614D01*
X32871Y-16557D01*
X32900Y-16528D01*
X32957Y-16500D01*
X33042Y-16500D01*
X33100Y-16528D01*
X33128Y-16557D01*
X33157Y-16614D01*
X33157Y-16842D01*
X32842Y-16300D02*
X32842Y-15928D01*
X33071Y-16128D01*
X33071Y-16042D01*
X33100Y-15985D01*
X33128Y-15957D01*
X33185Y-15928D01*
X33328Y-15928D01*
X33385Y-15957D01*
X33414Y-15985D01*
X33442Y-16042D01*
X33442Y-16214D01*
X33414Y-16271D01*
X33385Y-16300D01*
X35285Y-17621D02*
X35314Y-17649D01*
X35342Y-17735D01*
X35342Y-17792D01*
X35314Y-17878D01*
X35257Y-17935D01*
X35200Y-17964D01*
X35085Y-17992D01*
X35000Y-17992D01*
X34885Y-17964D01*
X34828Y-17935D01*
X34771Y-17878D01*
X34742Y-17792D01*
X34742Y-17735D01*
X34771Y-17649D01*
X34800Y-17621D01*
X34742Y-17249D02*
X34742Y-17135D01*
X34771Y-17078D01*
X34828Y-17021D01*
X34942Y-16992D01*
X35142Y-16992D01*
X35257Y-17021D01*
X35314Y-17078D01*
X35342Y-17135D01*
X35342Y-17249D01*
X35314Y-17307D01*
X35257Y-17364D01*
X35142Y-17392D01*
X34942Y-17392D01*
X34828Y-17364D01*
X34771Y-17307D01*
X34742Y-17249D01*
X35342Y-16735D02*
X34742Y-16735D01*
X35342Y-16392D01*
X34742Y-16392D01*
X35342Y-16107D02*
X34742Y-16107D01*
X35342Y-15764D01*
X34742Y-15764D01*
X35400Y-15621D02*
X35400Y-15164D01*
X34800Y-15050D02*
X34771Y-15021D01*
X34742Y-14964D01*
X34742Y-14821D01*
X34771Y-14764D01*
X34800Y-14735D01*
X34857Y-14707D01*
X34914Y-14707D01*
X35000Y-14735D01*
X35342Y-15078D01*
X35342Y-14707D01*
G54D10*
X21821Y-21059D02*
X21821Y-20665D01*
X21915Y-20665D01*
X21971Y-20684D01*
X22009Y-20721D01*
X22028Y-20759D01*
X22046Y-20834D01*
X22046Y-20890D01*
X22028Y-20965D01*
X22009Y-21003D01*
X21971Y-21040D01*
X21915Y-21059D01*
X21821Y-21059D01*
X22196Y-21040D02*
X22253Y-21059D01*
X22346Y-21059D01*
X22384Y-21040D01*
X22403Y-21021D01*
X22421Y-20984D01*
X22421Y-20946D01*
X22403Y-20909D01*
X22384Y-20890D01*
X22346Y-20871D01*
X22271Y-20853D01*
X22234Y-20834D01*
X22215Y-20815D01*
X22196Y-20778D01*
X22196Y-20740D01*
X22215Y-20703D01*
X22234Y-20684D01*
X22271Y-20665D01*
X22365Y-20665D01*
X22421Y-20684D01*
X22796Y-21059D02*
X22571Y-21059D01*
X22684Y-21059D02*
X22684Y-20665D01*
X22646Y-20721D01*
X22609Y-20759D01*
X22571Y-20778D01*
X20925Y-17840D02*
X20981Y-17859D01*
X21075Y-17859D01*
X21112Y-17840D01*
X21131Y-17821D01*
X21150Y-17784D01*
X21150Y-17746D01*
X21131Y-17709D01*
X21112Y-17690D01*
X21075Y-17671D01*
X21000Y-17653D01*
X20962Y-17634D01*
X20943Y-17615D01*
X20925Y-17578D01*
X20925Y-17540D01*
X20943Y-17503D01*
X20962Y-17484D01*
X21000Y-17465D01*
X21093Y-17465D01*
X21150Y-17484D01*
X21300Y-17746D02*
X21487Y-17746D01*
X21262Y-17859D02*
X21393Y-17465D01*
X21525Y-17859D01*
X21731Y-17465D02*
X21768Y-17465D01*
X21806Y-17484D01*
X21825Y-17503D01*
X21843Y-17540D01*
X21862Y-17615D01*
X21862Y-17709D01*
X21843Y-17784D01*
X21825Y-17821D01*
X21806Y-17840D01*
X21768Y-17859D01*
X21731Y-17859D01*
X21693Y-17840D01*
X21675Y-17821D01*
X21656Y-17784D01*
X21637Y-17709D01*
X21637Y-17615D01*
X21656Y-17540D01*
X21675Y-17503D01*
X21693Y-17484D01*
X21731Y-17465D01*
X22200Y-17596D02*
X22200Y-17859D01*
X22106Y-17446D02*
X22012Y-17728D01*
X22256Y-17728D01*
X22406Y-17709D02*
X22706Y-17709D01*
X23099Y-17859D02*
X22874Y-17859D01*
X22987Y-17859D02*
X22987Y-17465D01*
X22949Y-17521D01*
X22912Y-17559D01*
X22874Y-17578D01*
X23474Y-17859D02*
X23249Y-17859D01*
X23362Y-17859D02*
X23362Y-17465D01*
X23324Y-17521D01*
X23287Y-17559D01*
X23249Y-17578D01*
X21531Y-23965D02*
X21662Y-24359D01*
X21793Y-23965D01*
X22093Y-24340D02*
X22056Y-24359D01*
X21981Y-24359D01*
X21943Y-24340D01*
X21925Y-24321D01*
X21906Y-24284D01*
X21906Y-24171D01*
X21925Y-24134D01*
X21943Y-24115D01*
X21981Y-24096D01*
X22056Y-24096D01*
X22093Y-24115D01*
X22431Y-24340D02*
X22393Y-24359D01*
X22318Y-24359D01*
X22281Y-24340D01*
X22262Y-24321D01*
X22243Y-24284D01*
X22243Y-24171D01*
X22262Y-24134D01*
X22281Y-24115D01*
X22318Y-24096D01*
X22393Y-24096D01*
X22431Y-24115D01*
X21428Y-23253D02*
X21484Y-23271D01*
X21503Y-23290D01*
X21521Y-23328D01*
X21521Y-23384D01*
X21503Y-23421D01*
X21484Y-23440D01*
X21446Y-23459D01*
X21296Y-23459D01*
X21296Y-23065D01*
X21428Y-23065D01*
X21465Y-23084D01*
X21484Y-23103D01*
X21503Y-23140D01*
X21503Y-23178D01*
X21484Y-23215D01*
X21465Y-23234D01*
X21428Y-23253D01*
X21296Y-23253D01*
X21853Y-21084D02*
X21815Y-21065D01*
X21759Y-21065D01*
X21703Y-21084D01*
X21665Y-21121D01*
X21646Y-21159D01*
X21628Y-21234D01*
X21628Y-21290D01*
X21646Y-21365D01*
X21665Y-21403D01*
X21703Y-21440D01*
X21759Y-21459D01*
X21796Y-21459D01*
X21853Y-21440D01*
X21871Y-21421D01*
X21871Y-21290D01*
X21796Y-21290D01*
X21971Y-20321D02*
X21953Y-20340D01*
X21896Y-20359D01*
X21859Y-20359D01*
X21803Y-20340D01*
X21765Y-20303D01*
X21746Y-20265D01*
X21728Y-20190D01*
X21728Y-20134D01*
X21746Y-20059D01*
X21765Y-20021D01*
X21803Y-19984D01*
X21859Y-19965D01*
X21896Y-19965D01*
X21953Y-19984D01*
X21971Y-20003D01*
X21400Y-19509D02*
X21400Y-19115D01*
X21493Y-19115D01*
X21550Y-19134D01*
X21587Y-19171D01*
X21606Y-19209D01*
X21625Y-19284D01*
X21625Y-19340D01*
X21606Y-19415D01*
X21587Y-19453D01*
X21550Y-19490D01*
X21493Y-19509D01*
X21400Y-19509D01*
X21793Y-19509D02*
X21793Y-19115D01*
X21943Y-19115D01*
X21981Y-19134D01*
X21999Y-19153D01*
X22018Y-19190D01*
X22018Y-19246D01*
X21999Y-19284D01*
X21981Y-19303D01*
X21943Y-19321D01*
X21793Y-19321D01*
X21546Y-18409D02*
X21546Y-18015D01*
X21640Y-18015D01*
X21696Y-18034D01*
X21734Y-18071D01*
X21753Y-18109D01*
X21771Y-18184D01*
X21771Y-18240D01*
X21753Y-18315D01*
X21734Y-18353D01*
X21696Y-18390D01*
X21640Y-18409D01*
X21546Y-18409D01*
X23015Y-18253D02*
X23146Y-18253D01*
X23203Y-18459D02*
X23015Y-18459D01*
X23015Y-18065D01*
X23203Y-18065D01*
X22640Y-19459D02*
X22640Y-19065D01*
X22865Y-19459D01*
X22865Y-19065D01*
X23278Y-19421D02*
X23259Y-19440D01*
X23203Y-19459D01*
X23165Y-19459D01*
X23109Y-19440D01*
X23071Y-19403D01*
X23053Y-19365D01*
X23034Y-19290D01*
X23034Y-19234D01*
X23053Y-19159D01*
X23071Y-19121D01*
X23109Y-19084D01*
X23165Y-19065D01*
X23203Y-19065D01*
X23259Y-19084D01*
X23278Y-19103D01*
X22634Y-21196D02*
X22784Y-21196D01*
X22690Y-21065D02*
X22690Y-21403D01*
X22709Y-21440D01*
X22746Y-21459D01*
X22784Y-21459D01*
X23065Y-21440D02*
X23028Y-21459D01*
X22953Y-21459D01*
X22915Y-21440D01*
X22896Y-21403D01*
X22896Y-21253D01*
X22915Y-21215D01*
X22953Y-21196D01*
X23028Y-21196D01*
X23065Y-21215D01*
X23084Y-21253D01*
X23084Y-21290D01*
X22896Y-21328D01*
X23215Y-21459D02*
X23421Y-21196D01*
X23215Y-21196D02*
X23421Y-21459D01*
X23515Y-21196D02*
X23665Y-21196D01*
X23571Y-21065D02*
X23571Y-21403D01*
X23590Y-21440D01*
X23628Y-21459D01*
X23665Y-21459D01*
X22331Y-22065D02*
X22462Y-22459D01*
X22593Y-22065D01*
X22893Y-22440D02*
X22856Y-22459D01*
X22781Y-22459D01*
X22743Y-22440D01*
X22725Y-22421D01*
X22706Y-22384D01*
X22706Y-22271D01*
X22725Y-22234D01*
X22743Y-22215D01*
X22781Y-22196D01*
X22856Y-22196D01*
X22893Y-22215D01*
X23231Y-22440D02*
X23193Y-22459D01*
X23118Y-22459D01*
X23081Y-22440D01*
X23062Y-22421D01*
X23043Y-22384D01*
X23043Y-22271D01*
X23062Y-22234D01*
X23081Y-22215D01*
X23118Y-22196D01*
X23193Y-22196D01*
X23231Y-22215D01*
X23206Y-23253D02*
X23075Y-23253D01*
X23075Y-23459D02*
X23075Y-23065D01*
X23262Y-23065D01*
X23056Y-24346D02*
X23243Y-24346D01*
X23018Y-24459D02*
X23150Y-24065D01*
X23281Y-24459D01*
G54D12*
X23078Y-27071D02*
X23078Y-26771D01*
X23192Y-26771D01*
X23221Y-26785D01*
X23235Y-26800D01*
X23250Y-26828D01*
X23250Y-26871D01*
X23235Y-26900D01*
X23221Y-26914D01*
X23192Y-26928D01*
X23078Y-26928D01*
X23364Y-26800D02*
X23378Y-26785D01*
X23407Y-26771D01*
X23478Y-26771D01*
X23507Y-26785D01*
X23521Y-26800D01*
X23535Y-26828D01*
X23535Y-26857D01*
X23521Y-26900D01*
X23350Y-27071D01*
X23535Y-27071D01*
G54D19*
X20095Y-13942D02*
X20095Y-14428D01*
X20114Y-14485D01*
X20133Y-14514D01*
X20171Y-14542D01*
X20247Y-14542D01*
X20285Y-14514D01*
X20304Y-14485D01*
X20323Y-14428D01*
X20323Y-13942D01*
X20723Y-14542D02*
X20495Y-14542D01*
X20609Y-14542D02*
X20609Y-13942D01*
X20571Y-14028D01*
X20533Y-14085D01*
X20495Y-14114D01*
X23842Y-16104D02*
X23842Y-15838D01*
X24442Y-16009D01*
X24100Y-15628D02*
X24071Y-15666D01*
X24042Y-15685D01*
X23985Y-15704D01*
X23957Y-15704D01*
X23900Y-15685D01*
X23871Y-15666D01*
X23842Y-15628D01*
X23842Y-15552D01*
X23871Y-15514D01*
X23900Y-15495D01*
X23957Y-15476D01*
X23985Y-15476D01*
X24042Y-15495D01*
X24071Y-15514D01*
X24100Y-15552D01*
X24100Y-15628D01*
X24128Y-15666D01*
X24157Y-15685D01*
X24214Y-15704D01*
X24328Y-15704D01*
X24385Y-15685D01*
X24414Y-15666D01*
X24442Y-15628D01*
X24442Y-15552D01*
X24414Y-15514D01*
X24385Y-15495D01*
X24328Y-15476D01*
X24214Y-15476D01*
X24157Y-15495D01*
X24128Y-15514D01*
X24100Y-15552D01*
X23842Y-15228D02*
X23842Y-15190D01*
X23871Y-15152D01*
X23900Y-15133D01*
X23957Y-15114D01*
X24071Y-15095D01*
X24214Y-15095D01*
X24328Y-15114D01*
X24385Y-15133D01*
X24414Y-15152D01*
X24442Y-15190D01*
X24442Y-15228D01*
X24414Y-15266D01*
X24385Y-15285D01*
X24328Y-15304D01*
X24214Y-15323D01*
X24071Y-15323D01*
X23957Y-15304D01*
X23900Y-15285D01*
X23871Y-15266D01*
X23842Y-15228D01*
X23842Y-14733D02*
X23842Y-14923D01*
X24128Y-14942D01*
X24100Y-14923D01*
X24071Y-14885D01*
X24071Y-14790D01*
X24100Y-14752D01*
X24128Y-14733D01*
X24185Y-14714D01*
X24328Y-14714D01*
X24385Y-14733D01*
X24414Y-14752D01*
X24442Y-14790D01*
X24442Y-14885D01*
X24414Y-14923D01*
X24385Y-14942D01*
G54D13*
X17414Y-17123D02*
X17395Y-17142D01*
X17338Y-17161D01*
X17300Y-17161D01*
X17242Y-17142D01*
X17204Y-17104D01*
X17185Y-17066D01*
X17166Y-16990D01*
X17166Y-16933D01*
X17185Y-16857D01*
X17204Y-16819D01*
X17242Y-16780D01*
X17300Y-16761D01*
X17338Y-16761D01*
X17395Y-16780D01*
X17414Y-16800D01*
X17661Y-16761D02*
X17738Y-16761D01*
X17776Y-16780D01*
X17814Y-16819D01*
X17833Y-16895D01*
X17833Y-17028D01*
X17814Y-17104D01*
X17776Y-17142D01*
X17738Y-17161D01*
X17661Y-17161D01*
X17623Y-17142D01*
X17585Y-17104D01*
X17566Y-17028D01*
X17566Y-16895D01*
X17585Y-16819D01*
X17623Y-16780D01*
X17661Y-16761D01*
X18004Y-17161D02*
X18004Y-16761D01*
X18233Y-17161D01*
X18233Y-16761D01*
X18633Y-17161D02*
X18404Y-17161D01*
X18519Y-17161D02*
X18519Y-16761D01*
X18480Y-16819D01*
X18442Y-16857D01*
X18404Y-16876D01*
X14138Y-18752D02*
X14195Y-18771D01*
X14214Y-18790D01*
X14233Y-18828D01*
X14233Y-18885D01*
X14214Y-18923D01*
X14195Y-18942D01*
X14157Y-18961D01*
X14004Y-18961D01*
X14004Y-18561D01*
X14138Y-18561D01*
X14176Y-18580D01*
X14195Y-18600D01*
X14214Y-18638D01*
X14214Y-18676D01*
X14195Y-18714D01*
X14176Y-18733D01*
X14138Y-18752D01*
X14004Y-18752D01*
X14385Y-18847D02*
X14576Y-18847D01*
X14347Y-18961D02*
X14480Y-18561D01*
X14614Y-18961D01*
X14976Y-18961D02*
X14842Y-18771D01*
X14747Y-18961D02*
X14747Y-18561D01*
X14900Y-18561D01*
X14938Y-18580D01*
X14957Y-18600D01*
X14976Y-18638D01*
X14976Y-18695D01*
X14957Y-18733D01*
X14938Y-18752D01*
X14900Y-18771D01*
X14747Y-18771D01*
X15376Y-18961D02*
X15242Y-18771D01*
X15147Y-18961D02*
X15147Y-18561D01*
X15300Y-18561D01*
X15338Y-18580D01*
X15357Y-18600D01*
X15376Y-18638D01*
X15376Y-18695D01*
X15357Y-18733D01*
X15338Y-18752D01*
X15300Y-18771D01*
X15147Y-18771D01*
X15547Y-18752D02*
X15680Y-18752D01*
X15738Y-18961D02*
X15547Y-18961D01*
X15547Y-18561D01*
X15738Y-18561D01*
X16100Y-18961D02*
X15909Y-18961D01*
X15909Y-18561D01*
X16138Y-19000D02*
X16442Y-19000D01*
X16652Y-18561D02*
X16652Y-18847D01*
X16633Y-18904D01*
X16595Y-18942D01*
X16538Y-18961D01*
X16500Y-18961D01*
X16823Y-18847D02*
X17014Y-18847D01*
X16785Y-18961D02*
X16919Y-18561D01*
X17052Y-18961D01*
X17414Y-18923D02*
X17395Y-18942D01*
X17338Y-18961D01*
X17299Y-18961D01*
X17242Y-18942D01*
X17204Y-18904D01*
X17185Y-18866D01*
X17166Y-18790D01*
X17166Y-18733D01*
X17185Y-18657D01*
X17204Y-18619D01*
X17242Y-18580D01*
X17299Y-18561D01*
X17338Y-18561D01*
X17395Y-18580D01*
X17414Y-18600D01*
X17585Y-18961D02*
X17585Y-18561D01*
X17814Y-18961D02*
X17642Y-18733D01*
X17814Y-18561D02*
X17585Y-18790D01*
G54D15*
X34421Y-19750D02*
X34278Y-19850D01*
X34421Y-19921D02*
X34121Y-19921D01*
X34121Y-19807D01*
X34135Y-19778D01*
X34150Y-19764D01*
X34178Y-19750D01*
X34221Y-19750D01*
X34250Y-19764D01*
X34264Y-19778D01*
X34278Y-19807D01*
X34278Y-19921D01*
X34150Y-19635D02*
X34135Y-19621D01*
X34121Y-19592D01*
X34121Y-19521D01*
X34135Y-19492D01*
X34150Y-19478D01*
X34178Y-19464D01*
X34207Y-19464D01*
X34250Y-19478D01*
X34421Y-19650D01*
X34421Y-19464D01*
X34421Y-26450D02*
X34278Y-26550D01*
X34421Y-26621D02*
X34121Y-26621D01*
X34121Y-26507D01*
X34135Y-26478D01*
X34150Y-26464D01*
X34178Y-26450D01*
X34221Y-26450D01*
X34250Y-26464D01*
X34264Y-26478D01*
X34278Y-26507D01*
X34278Y-26621D01*
X34121Y-26350D02*
X34121Y-26164D01*
X34235Y-26264D01*
X34235Y-26221D01*
X34250Y-26192D01*
X34264Y-26178D01*
X34292Y-26164D01*
X34364Y-26164D01*
X34392Y-26178D01*
X34407Y-26192D01*
X34421Y-26221D01*
X34421Y-26307D01*
X34407Y-26335D01*
X34392Y-26350D01*
X15721Y-20850D02*
X15578Y-20950D01*
X15721Y-21021D02*
X15421Y-21021D01*
X15421Y-20907D01*
X15435Y-20878D01*
X15450Y-20864D01*
X15478Y-20850D01*
X15521Y-20850D01*
X15550Y-20864D01*
X15564Y-20878D01*
X15578Y-20907D01*
X15578Y-21021D01*
X15521Y-20592D02*
X15721Y-20592D01*
X15407Y-20664D02*
X15621Y-20735D01*
X15621Y-20550D01*
G54D20*
X33821Y-19321D02*
X33521Y-19321D01*
X33521Y-19250D01*
X33535Y-19207D01*
X33564Y-19178D01*
X33592Y-19164D01*
X33650Y-19150D01*
X33692Y-19150D01*
X33750Y-19164D01*
X33778Y-19178D01*
X33807Y-19207D01*
X33821Y-19250D01*
X33821Y-19321D01*
X33821Y-18864D02*
X33821Y-19035D01*
X33821Y-18950D02*
X33521Y-18950D01*
X33564Y-18978D01*
X33592Y-19007D01*
X33607Y-19035D01*
X32907Y-19821D02*
X32764Y-19821D01*
X32764Y-19521D01*
X33007Y-19664D02*
X33107Y-19664D01*
X33150Y-19821D02*
X33007Y-19821D01*
X33007Y-19521D01*
X33150Y-19521D01*
X33278Y-19821D02*
X33278Y-19521D01*
X33350Y-19521D01*
X33392Y-19535D01*
X33421Y-19564D01*
X33435Y-19592D01*
X33450Y-19650D01*
X33450Y-19692D01*
X33435Y-19750D01*
X33421Y-19778D01*
X33392Y-19807D01*
X33350Y-19821D01*
X33278Y-19821D01*
X33821Y-26721D02*
X33521Y-26721D01*
X33521Y-26650D01*
X33535Y-26607D01*
X33564Y-26578D01*
X33592Y-26564D01*
X33650Y-26550D01*
X33692Y-26550D01*
X33750Y-26564D01*
X33778Y-26578D01*
X33807Y-26607D01*
X33821Y-26650D01*
X33821Y-26721D01*
X33550Y-26435D02*
X33535Y-26421D01*
X33521Y-26392D01*
X33521Y-26321D01*
X33535Y-26292D01*
X33550Y-26278D01*
X33578Y-26264D01*
X33607Y-26264D01*
X33650Y-26278D01*
X33821Y-26450D01*
X33821Y-26264D01*
X32907Y-26521D02*
X32764Y-26521D01*
X32764Y-26221D01*
X33007Y-26364D02*
X33107Y-26364D01*
X33150Y-26521D02*
X33007Y-26521D01*
X33007Y-26221D01*
X33150Y-26221D01*
X33278Y-26521D02*
X33278Y-26221D01*
X33350Y-26221D01*
X33392Y-26235D01*
X33421Y-26264D01*
X33435Y-26292D01*
X33450Y-26350D01*
X33450Y-26392D01*
X33435Y-26450D01*
X33421Y-26478D01*
X33392Y-26507D01*
X33350Y-26521D01*
X33278Y-26521D01*
X13921Y-20921D02*
X13621Y-20921D01*
X13621Y-20850D01*
X13635Y-20807D01*
X13664Y-20778D01*
X13692Y-20764D01*
X13750Y-20750D01*
X13792Y-20750D01*
X13850Y-20764D01*
X13878Y-20778D01*
X13907Y-20807D01*
X13921Y-20850D01*
X13921Y-20921D01*
X13621Y-20650D02*
X13621Y-20464D01*
X13735Y-20564D01*
X13735Y-20521D01*
X13750Y-20492D01*
X13764Y-20478D01*
X13792Y-20464D01*
X13864Y-20464D01*
X13892Y-20478D01*
X13907Y-20492D01*
X13921Y-20521D01*
X13921Y-20607D01*
X13907Y-20635D01*
X13892Y-20650D01*
X15121Y-20992D02*
X15121Y-21135D01*
X14821Y-21135D01*
X14964Y-20892D02*
X14964Y-20792D01*
X15121Y-20750D02*
X15121Y-20892D01*
X14821Y-20892D01*
X14821Y-20750D01*
X15121Y-20621D02*
X14821Y-20621D01*
X14821Y-20550D01*
X14835Y-20507D01*
X14864Y-20478D01*
X14892Y-20464D01*
X14950Y-20450D01*
X14992Y-20450D01*
X15050Y-20464D01*
X15078Y-20478D01*
X15107Y-20507D01*
X15121Y-20550D01*
X15121Y-20621D01*
G54D15*
X21000Y-26271D02*
X20900Y-26128D01*
X20828Y-26271D02*
X20828Y-25971D01*
X20942Y-25971D01*
X20971Y-25985D01*
X20985Y-26000D01*
X21000Y-26028D01*
X21000Y-26071D01*
X20985Y-26100D01*
X20971Y-26114D01*
X20942Y-26128D01*
X20828Y-26128D01*
X21285Y-26271D02*
X21114Y-26271D01*
X21200Y-26271D02*
X21200Y-25971D01*
X21171Y-26014D01*
X21142Y-26042D01*
X21114Y-26057D01*
G54D21*
X20861Y-16830D02*
X20871Y-16838D01*
X20880Y-16864D01*
X20880Y-16881D01*
X20871Y-16907D01*
X20852Y-16924D01*
X20833Y-16932D01*
X20795Y-16941D01*
X20766Y-16941D01*
X20728Y-16932D01*
X20709Y-16924D01*
X20690Y-16907D01*
X20680Y-16881D01*
X20680Y-16864D01*
X20690Y-16838D01*
X20700Y-16830D01*
X20880Y-16658D02*
X20880Y-16761D01*
X20880Y-16710D02*
X20680Y-16710D01*
X20709Y-16727D01*
X20728Y-16744D01*
X20738Y-16761D01*
X21280Y-17095D02*
X21280Y-17078D01*
X21290Y-17061D01*
X21300Y-17052D01*
X21319Y-17044D01*
X21357Y-17035D01*
X21404Y-17035D01*
X21442Y-17044D01*
X21461Y-17052D01*
X21471Y-17061D01*
X21480Y-17078D01*
X21480Y-17095D01*
X21471Y-17112D01*
X21461Y-17121D01*
X21442Y-17130D01*
X21404Y-17138D01*
X21357Y-17138D01*
X21319Y-17130D01*
X21300Y-17121D01*
X21290Y-17112D01*
X21280Y-17095D01*
X21461Y-16958D02*
X21471Y-16949D01*
X21480Y-16958D01*
X21471Y-16967D01*
X21461Y-16958D01*
X21480Y-16958D01*
X21480Y-16778D02*
X21480Y-16881D01*
X21480Y-16830D02*
X21280Y-16830D01*
X21309Y-16847D01*
X21328Y-16864D01*
X21338Y-16881D01*
X21347Y-16624D02*
X21480Y-16624D01*
X21347Y-16701D02*
X21452Y-16701D01*
X21471Y-16692D01*
X21480Y-16675D01*
X21480Y-16649D01*
X21471Y-16632D01*
X21461Y-16624D01*
X21376Y-16478D02*
X21376Y-16538D01*
X21480Y-16538D02*
X21280Y-16538D01*
X21280Y-16452D01*
X23111Y-16780D02*
X23121Y-16788D01*
X23130Y-16814D01*
X23130Y-16831D01*
X23121Y-16857D01*
X23102Y-16874D01*
X23083Y-16882D01*
X23045Y-16891D01*
X23016Y-16891D01*
X22978Y-16882D01*
X22959Y-16874D01*
X22940Y-16857D01*
X22930Y-16831D01*
X22930Y-16814D01*
X22940Y-16788D01*
X22950Y-16780D01*
X22950Y-16711D02*
X22940Y-16702D01*
X22930Y-16685D01*
X22930Y-16642D01*
X22940Y-16625D01*
X22950Y-16617D01*
X22969Y-16608D01*
X22988Y-16608D01*
X23016Y-16617D01*
X23130Y-16720D01*
X23130Y-16608D01*
X23730Y-16907D02*
X23730Y-17010D01*
X23730Y-16958D02*
X23530Y-16958D01*
X23559Y-16975D01*
X23578Y-16992D01*
X23588Y-17010D01*
X23597Y-16752D02*
X23730Y-16752D01*
X23597Y-16830D02*
X23702Y-16830D01*
X23721Y-16821D01*
X23730Y-16804D01*
X23730Y-16778D01*
X23721Y-16761D01*
X23711Y-16752D01*
X23626Y-16607D02*
X23626Y-16667D01*
X23730Y-16667D02*
X23530Y-16667D01*
X23530Y-16581D01*
G54D10*
X27896Y-16459D02*
X27765Y-16271D01*
X27671Y-16459D02*
X27671Y-16065D01*
X27821Y-16065D01*
X27859Y-16084D01*
X27878Y-16103D01*
X27896Y-16140D01*
X27896Y-16196D01*
X27878Y-16234D01*
X27859Y-16253D01*
X27821Y-16271D01*
X27671Y-16271D01*
X28065Y-16253D02*
X28196Y-16253D01*
X28253Y-16459D02*
X28065Y-16459D01*
X28065Y-16065D01*
X28253Y-16065D01*
X28609Y-16459D02*
X28421Y-16459D01*
X28421Y-16065D01*
X28946Y-16459D02*
X28721Y-16459D01*
X28834Y-16459D02*
X28834Y-16065D01*
X28796Y-16121D01*
X28759Y-16159D01*
X28721Y-16178D01*
X25981Y-17840D02*
X26037Y-17859D01*
X26131Y-17859D01*
X26169Y-17840D01*
X26187Y-17821D01*
X26206Y-17784D01*
X26206Y-17746D01*
X26187Y-17709D01*
X26169Y-17690D01*
X26131Y-17671D01*
X26056Y-17653D01*
X26019Y-17634D01*
X26000Y-17615D01*
X25981Y-17578D01*
X25981Y-17540D01*
X26000Y-17503D01*
X26019Y-17484D01*
X26056Y-17465D01*
X26150Y-17465D01*
X26206Y-17484D01*
X26600Y-17859D02*
X26469Y-17671D01*
X26375Y-17859D02*
X26375Y-17465D01*
X26525Y-17465D01*
X26562Y-17484D01*
X26581Y-17503D01*
X26600Y-17540D01*
X26600Y-17596D01*
X26581Y-17634D01*
X26562Y-17653D01*
X26525Y-17671D01*
X26375Y-17671D01*
X26768Y-17859D02*
X26768Y-17465D01*
X26862Y-17465D01*
X26918Y-17484D01*
X26956Y-17521D01*
X26975Y-17559D01*
X26993Y-17634D01*
X26993Y-17690D01*
X26975Y-17765D01*
X26956Y-17803D01*
X26918Y-17840D01*
X26862Y-17859D01*
X26768Y-17859D01*
X27162Y-17709D02*
X27462Y-17709D01*
X27725Y-17465D02*
X27762Y-17465D01*
X27800Y-17484D01*
X27818Y-17503D01*
X27837Y-17540D01*
X27856Y-17615D01*
X27856Y-17709D01*
X27837Y-17784D01*
X27818Y-17821D01*
X27800Y-17840D01*
X27762Y-17859D01*
X27725Y-17859D01*
X27687Y-17840D01*
X27668Y-17821D01*
X27650Y-17784D01*
X27631Y-17709D01*
X27631Y-17615D01*
X27650Y-17540D01*
X27668Y-17503D01*
X27687Y-17484D01*
X27725Y-17465D01*
X28212Y-17465D02*
X28025Y-17465D01*
X28006Y-17653D01*
X28025Y-17634D01*
X28062Y-17615D01*
X28156Y-17615D01*
X28193Y-17634D01*
X28212Y-17653D01*
X28231Y-17690D01*
X28231Y-17784D01*
X28212Y-17821D01*
X28193Y-17840D01*
X28156Y-17859D01*
X28062Y-17859D01*
X28025Y-17840D01*
X28006Y-17821D01*
X28343Y-17465D02*
X28475Y-17859D01*
X28606Y-17465D01*
X28737Y-17859D02*
X28737Y-17465D01*
X28831Y-17465D01*
X28887Y-17484D01*
X28924Y-17521D01*
X28943Y-17559D01*
X28962Y-17634D01*
X28962Y-17690D01*
X28943Y-17765D01*
X28924Y-17803D01*
X28887Y-17840D01*
X28831Y-17859D01*
X28737Y-17859D01*
X29356Y-17821D02*
X29337Y-17840D01*
X29281Y-17859D01*
X29243Y-17859D01*
X29187Y-17840D01*
X29149Y-17803D01*
X29131Y-17765D01*
X29112Y-17690D01*
X29112Y-17634D01*
X29131Y-17559D01*
X29149Y-17521D01*
X29187Y-17484D01*
X29243Y-17465D01*
X29281Y-17465D01*
X29337Y-17484D01*
X29356Y-17503D01*
X29524Y-17709D02*
X29824Y-17709D01*
X29993Y-17840D02*
X30049Y-17859D01*
X30143Y-17859D01*
X30181Y-17840D01*
X30199Y-17821D01*
X30218Y-17784D01*
X30218Y-17746D01*
X30199Y-17709D01*
X30181Y-17690D01*
X30143Y-17671D01*
X30068Y-17653D01*
X30031Y-17634D01*
X30012Y-17615D01*
X29993Y-17578D01*
X29993Y-17540D01*
X30012Y-17503D01*
X30031Y-17484D01*
X30068Y-17465D01*
X30162Y-17465D01*
X30218Y-17484D01*
X30574Y-17859D02*
X30387Y-17859D01*
X30387Y-17465D01*
X30705Y-17709D02*
X31005Y-17709D01*
X31418Y-17821D02*
X31399Y-17840D01*
X31343Y-17859D01*
X31305Y-17859D01*
X31249Y-17840D01*
X31212Y-17803D01*
X31193Y-17765D01*
X31174Y-17690D01*
X31174Y-17634D01*
X31193Y-17559D01*
X31212Y-17521D01*
X31249Y-17484D01*
X31305Y-17465D01*
X31343Y-17465D01*
X31399Y-17484D01*
X31418Y-17503D01*
X27996Y-23159D02*
X27865Y-22971D01*
X27771Y-23159D02*
X27771Y-22765D01*
X27921Y-22765D01*
X27959Y-22784D01*
X27978Y-22803D01*
X27996Y-22840D01*
X27996Y-22896D01*
X27978Y-22934D01*
X27959Y-22953D01*
X27921Y-22971D01*
X27771Y-22971D01*
X28165Y-22953D02*
X28296Y-22953D01*
X28353Y-23159D02*
X28165Y-23159D01*
X28165Y-22765D01*
X28353Y-22765D01*
X28709Y-23159D02*
X28521Y-23159D01*
X28521Y-22765D01*
X28821Y-22803D02*
X28840Y-22784D01*
X28878Y-22765D01*
X28971Y-22765D01*
X29009Y-22784D01*
X29028Y-22803D01*
X29046Y-22840D01*
X29046Y-22878D01*
X29028Y-22934D01*
X28803Y-23159D01*
X29046Y-23159D01*
X26081Y-24540D02*
X26137Y-24559D01*
X26231Y-24559D01*
X26269Y-24540D01*
X26287Y-24521D01*
X26306Y-24484D01*
X26306Y-24446D01*
X26287Y-24409D01*
X26269Y-24390D01*
X26231Y-24371D01*
X26156Y-24353D01*
X26119Y-24334D01*
X26100Y-24315D01*
X26081Y-24278D01*
X26081Y-24240D01*
X26100Y-24203D01*
X26119Y-24184D01*
X26156Y-24165D01*
X26250Y-24165D01*
X26306Y-24184D01*
X26700Y-24559D02*
X26569Y-24371D01*
X26475Y-24559D02*
X26475Y-24165D01*
X26625Y-24165D01*
X26662Y-24184D01*
X26681Y-24203D01*
X26700Y-24240D01*
X26700Y-24296D01*
X26681Y-24334D01*
X26662Y-24353D01*
X26625Y-24371D01*
X26475Y-24371D01*
X26868Y-24559D02*
X26868Y-24165D01*
X26962Y-24165D01*
X27018Y-24184D01*
X27056Y-24221D01*
X27075Y-24259D01*
X27093Y-24334D01*
X27093Y-24390D01*
X27075Y-24465D01*
X27056Y-24503D01*
X27018Y-24540D01*
X26962Y-24559D01*
X26868Y-24559D01*
X27262Y-24409D02*
X27562Y-24409D01*
X27825Y-24165D02*
X27862Y-24165D01*
X27900Y-24184D01*
X27918Y-24203D01*
X27937Y-24240D01*
X27956Y-24315D01*
X27956Y-24409D01*
X27937Y-24484D01*
X27918Y-24521D01*
X27900Y-24540D01*
X27862Y-24559D01*
X27825Y-24559D01*
X27787Y-24540D01*
X27768Y-24521D01*
X27750Y-24484D01*
X27731Y-24409D01*
X27731Y-24315D01*
X27750Y-24240D01*
X27768Y-24203D01*
X27787Y-24184D01*
X27825Y-24165D01*
X28312Y-24165D02*
X28125Y-24165D01*
X28106Y-24353D01*
X28125Y-24334D01*
X28162Y-24315D01*
X28256Y-24315D01*
X28293Y-24334D01*
X28312Y-24353D01*
X28331Y-24390D01*
X28331Y-24484D01*
X28312Y-24521D01*
X28293Y-24540D01*
X28256Y-24559D01*
X28162Y-24559D01*
X28125Y-24540D01*
X28106Y-24521D01*
X28443Y-24165D02*
X28575Y-24559D01*
X28706Y-24165D01*
X28837Y-24559D02*
X28837Y-24165D01*
X28931Y-24165D01*
X28987Y-24184D01*
X29024Y-24221D01*
X29043Y-24259D01*
X29062Y-24334D01*
X29062Y-24390D01*
X29043Y-24465D01*
X29024Y-24503D01*
X28987Y-24540D01*
X28931Y-24559D01*
X28837Y-24559D01*
X29456Y-24521D02*
X29437Y-24540D01*
X29381Y-24559D01*
X29343Y-24559D01*
X29287Y-24540D01*
X29249Y-24503D01*
X29231Y-24465D01*
X29212Y-24390D01*
X29212Y-24334D01*
X29231Y-24259D01*
X29249Y-24221D01*
X29287Y-24184D01*
X29343Y-24165D01*
X29381Y-24165D01*
X29437Y-24184D01*
X29456Y-24203D01*
X29624Y-24409D02*
X29924Y-24409D01*
X30093Y-24540D02*
X30149Y-24559D01*
X30243Y-24559D01*
X30281Y-24540D01*
X30299Y-24521D01*
X30318Y-24484D01*
X30318Y-24446D01*
X30299Y-24409D01*
X30281Y-24390D01*
X30243Y-24371D01*
X30168Y-24353D01*
X30131Y-24334D01*
X30112Y-24315D01*
X30093Y-24278D01*
X30093Y-24240D01*
X30112Y-24203D01*
X30131Y-24184D01*
X30168Y-24165D01*
X30262Y-24165D01*
X30318Y-24184D01*
X30674Y-24559D02*
X30487Y-24559D01*
X30487Y-24165D01*
X30805Y-24409D02*
X31105Y-24409D01*
X31518Y-24521D02*
X31499Y-24540D01*
X31443Y-24559D01*
X31405Y-24559D01*
X31349Y-24540D01*
X31312Y-24503D01*
X31293Y-24465D01*
X31274Y-24390D01*
X31274Y-24334D01*
X31293Y-24259D01*
X31312Y-24221D01*
X31349Y-24184D01*
X31405Y-24165D01*
X31443Y-24165D01*
X31499Y-24184D01*
X31518Y-24203D01*
%LPC*%
G54D22*
X16700Y-19700D03*
X16700Y-20700D03*
X16700Y-21700D03*
X16700Y-22700D03*
X16700Y-23700D03*
X16700Y-25700D03*
X16700Y-26700D03*
X19300Y-26700D03*
X19300Y-25700D03*
X19300Y-24700D03*
X19300Y-23700D03*
X19300Y-22700D03*
X19300Y-21700D03*
X19300Y-20700D03*
X19300Y-19700D03*
X16700Y-24700D03*
G54D23*
X34000Y-24100D03*
G54D24*
X34000Y-22100D03*
G54D25*
X15400Y-26600D03*
G54D26*
X14400Y-26600D03*
X15400Y-25600D03*
X14400Y-25600D03*
X15400Y-24600D03*
X14400Y-24600D03*
X15400Y-23600D03*
X14400Y-23600D03*
X15400Y-22600D03*
X14400Y-22600D03*
G54D23*
X34000Y-17400D03*
G54D24*
X34000Y-15400D03*
G54D22*
X23700Y-19300D03*
X23700Y-18300D03*
X23700Y-22300D03*
X23700Y-23300D03*
X23700Y-24300D03*
X20700Y-24300D03*
X20700Y-23300D03*
X20700Y-21300D03*
X20700Y-20300D03*
X20700Y-19300D03*
X20700Y-18300D03*
G54D25*
X23800Y-26200D03*
G54D26*
X22800Y-26200D03*
G54D27*
X20900Y-15400D03*
G54D28*
X21900Y-15400D03*
G54D27*
X22900Y-15400D03*
G54D29*
X14800Y-15400D03*
G54D30*
X17200Y-15400D03*
G54D29*
X15700Y-17400D03*
G54D31*
X34300Y-20350D03*
X34300Y-19050D03*
X34300Y-27050D03*
X34300Y-25750D03*
X15600Y-20150D03*
X15600Y-21450D03*
G54D32*
X33100Y-19141D03*
X33100Y-20259D03*
X33100Y-25841D03*
X33100Y-26959D03*
X14400Y-21359D03*
X14400Y-20241D03*
G54D33*
X20350Y-26200D03*
X21650Y-26200D03*
G54D34*
X20500Y-16800D03*
X21100Y-16800D03*
X23300Y-16800D03*
X22700Y-16800D03*
G54D22*
X25052Y-17448D03*
X30761Y-19948D03*
X25958Y-19948D03*
X25958Y-14909D03*
X30761Y-14909D03*
X25152Y-24148D03*
X30861Y-26648D03*
X26058Y-26648D03*
X26058Y-21609D03*
X30861Y-21609D03*
M02*
