<?xml version="1.0" standalone="no"?>
 <!DOCTYPE svg PUBLIC "-//W3C//DTD SVG 1.1//EN" 
 "http://www.w3.org/Graphics/SVG/1.1/DTD/svg11.dtd"> 
<svg xmlns="http://www.w3.org/2000/svg" version="1.1" 
    width="41.9989cm" height="29.7002cm" viewBox="0 0 165350 116930 ">
<title>SVG Picture created as reFil-F_Cu.svg date 2016/05/30 17:26:14 </title>
  <desc>Picture generated by PCBNEW </desc>
<g style="fill:#000000; fill-opacity:1;stroke:#000000; stroke-opacity:1;
stroke-linecap:round; stroke-linejoin:round; "
 transform="translate(0 0) scale(1 1)">
</g>
<g style="fill:#000000; fill-opacity:0.0; 
stroke:#000000; stroke-width:39.3701; stroke-opacity:1; 
stroke-linecap:round; stroke-linejoin:round;">
<path d="M4000 4000
L161350 4000
L161350 112930
L4000 112930
L4000 4000
" />
<path d="M4700 4700
L160650 4700
L160650 112230
L4700 112230
L4700 4700
" />
<path d="M26470 4000
L26470 4700
" />
<path d="M15382 4552
L15097 4552
" />
<path d="M15240 4552
L15240 4052
L15192 4123
L15144 4171
L15097 4195
" />
<path d="M26470 112930
L26470 112230
" />
<path d="M15382 112782
L15097 112782
" />
<path d="M15240 112782
L15240 112282
L15192 112353
L15144 112401
L15097 112425
" />
<path d="M48940 4000
L48940 4700
" />
<path d="M37567 4100
L37590 4076
L37638 4052
L37757 4052
L37805 4076
L37829 4100
L37852 4147
L37852 4195
L37829 4266
L37543 4552
L37852 4552
" />
<path d="M48940 112930
L48940 112230
" />
<path d="M37567 112330
L37590 112306
L37638 112282
L37757 112282
L37805 112306
L37829 112330
L37852 112377
L37852 112425
L37829 112496
L37543 112782
L37852 112782
" />
<path d="M71410 4000
L71410 4700
" />
<path d="M60013 4052
L60322 4052
L60156 4242
L60227 4242
L60275 4266
L60299 4290
L60322 4338
L60322 4457
L60299 4504
L60275 4528
L60227 4552
L60084 4552
L60037 4528
L60013 4504
" />
<path d="M71410 112930
L71410 112230
" />
<path d="M60013 112282
L60322 112282
L60156 112472
L60227 112472
L60275 112496
L60299 112520
L60322 112568
L60322 112687
L60299 112734
L60275 112758
L60227 112782
L60084 112782
L60037 112758
L60013 112734
" />
<path d="M93880 4000
L93880 4700
" />
<path d="M82745 4219
L82745 4552
" />
<path d="M82626 4028
L82507 4385
L82816 4385
" />
<path d="M93880 112930
L93880 112230
" />
<path d="M82745 112449
L82745 112782
" />
<path d="M82626 112258
L82507 112615
L82816 112615
" />
<path d="M116350 4000
L116350 4700
" />
<path d="M105239 4052
L105000 4052
L104977 4290
L105000 4266
L105048 4242
L105167 4242
L105215 4266
L105239 4290
L105262 4338
L105262 4457
L105239 4504
L105215 4528
L105167 4552
L105048 4552
L105000 4528
L104977 4504
" />
<path d="M116350 112930
L116350 112230
" />
<path d="M105239 112282
L105000 112282
L104977 112520
L105000 112496
L105048 112472
L105167 112472
L105215 112496
L105239 112520
L105262 112568
L105262 112687
L105239 112734
L105215 112758
L105167 112782
L105048 112782
L105000 112758
L104977 112734
" />
<path d="M138820 4000
L138820 4700
" />
<path d="M127685 4052
L127590 4052
L127542 4076
L127518 4100
L127470 4171
L127447 4266
L127447 4457
L127470 4504
L127494 4528
L127542 4552
L127637 4552
L127685 4528
L127709 4504
L127732 4457
L127732 4338
L127709 4290
L127685 4266
L127637 4242
L127542 4242
L127494 4266
L127470 4290
L127447 4338
" />
<path d="M138820 112930
L138820 112230
" />
<path d="M127685 112282
L127590 112282
L127542 112306
L127518 112330
L127470 112401
L127447 112496
L127447 112687
L127470 112734
L127494 112758
L127542 112782
L127637 112782
L127685 112758
L127709 112734
L127732 112687
L127732 112568
L127709 112520
L127685 112496
L127637 112472
L127542 112472
L127494 112496
L127470 112520
L127447 112568
" />
<path d="M149893 4052
L150226 4052
L150012 4552
" />
<path d="M149893 112282
L150226 112282
L150012 112782
" />
<path d="M4000 25780
L4700 25780
" />
<path d="M4230 14949
L4469 14949
" />
<path d="M4183 15092
L4350 14592
L4516 15092
" />
<path d="M161350 25780
L160650 25780
" />
<path d="M160880 14949
L161119 14949
" />
<path d="M160833 15092
L161000 14592
L161166 15092
" />
<path d="M4000 47560
L4700 47560
" />
<path d="M4385 36610
L4457 36634
L4480 36658
L4504 36705
L4504 36777
L4480 36824
L4457 36848
L4409 36872
L4219 36872
L4219 36372
L4385 36372
L4433 36396
L4457 36420
L4480 36467
L4480 36515
L4457 36562
L4433 36586
L4385 36610
L4219 36610
" />
<path d="M161350 47560
L160650 47560
" />
<path d="M161035 36610
L161107 36634
L161130 36658
L161154 36705
L161154 36777
L161130 36824
L161107 36848
L161059 36872
L160869 36872
L160869 36372
L161035 36372
L161083 36396
L161107 36420
L161130 36467
L161130 36515
L161107 36562
L161083 36586
L161035 36610
L160869 36610
" />
<path d="M4000 69340
L4700 69340
" />
<path d="M4504 58604
L4480 58628
L4409 58652
L4361 58652
L4290 58628
L4242 58580
L4219 58533
L4195 58438
L4195 58366
L4219 58271
L4242 58223
L4290 58176
L4361 58152
L4409 58152
L4480 58176
L4504 58200
" />
<path d="M161350 69340
L160650 69340
" />
<path d="M161154 58604
L161130 58628
L161059 58652
L161011 58652
L160940 58628
L160892 58580
L160869 58533
L160845 58438
L160845 58366
L160869 58271
L160892 58223
L160940 58176
L161011 58152
L161059 58152
L161130 58176
L161154 58200
" />
<path d="M4000 91120
L4700 91120
" />
<path d="M4219 80432
L4219 79932
L4338 79932
L4409 79956
L4457 80003
L4480 80051
L4504 80146
L4504 80218
L4480 80313
L4457 80360
L4409 80408
L4338 80432
L4219 80432
" />
<path d="M161350 91120
L160650 91120
" />
<path d="M160869 80432
L160869 79932
L160988 79932
L161059 79956
L161107 80003
L161130 80051
L161154 80146
L161154 80218
L161130 80313
L161107 80360
L161059 80408
L160988 80432
L160869 80432
" />
<path d="M4242 101950
L4409 101950
" />
<path d="M4480 102212
L4242 102212
L4242 101712
L4480 101712
" />
<path d="M160892 101950
L161059 101950
" />
<path d="M161130 102212
L160892 102212
L160892 101712
L161130 101712
" />
<path d="M127800 110672
L127875 110072
L128017 110072
L128100 110101
L128150 110158
L128171 110215
L128185 110330
L128175 110415
L128132 110530
L128096 110587
L128032 110644
L127942 110672
L127800 110672
" />
<path d="M128657 110672
L128696 110358
L128675 110301
L128621 110272
L128507 110272
L128446 110301
" />
<path d="M128660 110644
L128600 110672
L128457 110672
L128403 110644
L128382 110587
L128389 110530
L128425 110472
L128485 110444
L128628 110444
L128689 110415
" />
<path d="M128907 110272
L129135 110272
" />
<path d="M129017 110072
L128953 110587
L128975 110644
L129028 110672
L129085 110672
" />
<path d="M129517 110644
L129457 110672
L129342 110672
L129289 110644
L129267 110587
L129296 110358
L129332 110301
L129392 110272
L129507 110272
L129560 110301
L129582 110358
L129575 110415
L129282 110472
" />
<path d="M129807 110615
L129832 110644
L129800 110672
L129775 110644
L129807 110615
L129800 110672
" />
<path d="M129846 110301
L129871 110330
L129839 110358
L129814 110330
L129846 110301
L129839 110358
" />
<path d="M130560 110072
L130932 110072
L130703 110301
L130789 110301
L130842 110330
L130867 110358
L130889 110415
L130871 110558
L130835 110615
L130803 110644
L130742 110672
L130571 110672
L130517 110644
L130492 110615
" />
<path d="M131303 110072
L131360 110072
L131414 110101
L131439 110130
L131460 110187
L131475 110301
L131457 110444
L131414 110558
L131378 110615
L131346 110644
L131285 110672
L131228 110672
L131175 110644
L131150 110615
L131128 110558
L131114 110444
L131132 110301
L131175 110187
L131210 110130
L131242 110101
L131303 110072
" />
<path d="M132142 110672
L132192 110272
" />
<path d="M132185 110330
L132217 110301
L132278 110272
L132364 110272
L132417 110301
L132439 110358
L132400 110672
" />
<path d="M132439 110358
L132475 110301
L132535 110272
L132621 110272
L132675 110301
L132696 110358
L132657 110672
" />
<path d="M133200 110672
L133239 110358
L133217 110301
L133164 110272
L133050 110272
L132989 110301
" />
<path d="M133203 110644
L133142 110672
L133000 110672
L132946 110644
L132925 110587
L132932 110530
L132967 110472
L133028 110444
L133171 110444
L133232 110415
" />
<path d="M133478 110272
L133571 110672
" />
<path d="M133764 110272
L133571 110672
L133496 110815
L133464 110844
L133403 110872
" />
<path d="M134439 110130
L134471 110101
L134532 110072
L134675 110072
L134728 110101
L134753 110130
L134775 110187
L134767 110244
L134728 110330
L134342 110672
L134714 110672
" />
<path d="M135160 110072
L135217 110072
L135271 110101
L135296 110130
L135317 110187
L135332 110301
L135314 110444
L135271 110558
L135235 110615
L135203 110644
L135142 110672
L135085 110672
L135032 110644
L135007 110615
L134985 110558
L134971 110444
L134989 110301
L135032 110187
L135067 110130
L135100 110101
L135160 110072
" />
<path d="M135857 110672
L135514 110672
" />
<path d="M135685 110672
L135760 110072
L135692 110158
L135628 110215
L135567 110244
" />
<path d="M136446 110072
L136332 110072
L136271 110101
L136239 110130
L136171 110215
L136128 110330
L136100 110558
L136121 110615
L136146 110644
L136200 110672
L136314 110672
L136375 110644
L136407 110615
L136442 110558
L136460 110415
L136439 110358
L136414 110330
L136360 110301
L136246 110301
L136185 110330
L136153 110358
L136117 110415
" />
<path d="M119392 111872
L119392 111272
" />
<path d="M119735 111872
L119478 111530
" />
<path d="M119735 111272
L119392 111615
" />
<path d="M119992 111872
L119992 111472
" />
<path d="M119992 111272
L119964 111301
L119992 111330
L120021 111301
L119992 111272
L119992 111330
" />
<path d="M120621 111815
L120592 111844
L120507 111872
L120450 111872
L120364 111844
L120307 111787
L120278 111730
L120250 111615
L120250 111530
L120278 111415
L120307 111358
L120364 111301
L120450 111272
L120507 111272
L120592 111301
L120621 111330
" />
<path d="M121135 111872
L121135 111558
L121107 111501
L121050 111472
L120935 111472
L120878 111501
" />
<path d="M121135 111844
L121078 111872
L120935 111872
L120878 111844
L120850 111787
L120850 111730
L120878 111672
L120935 111644
L121078 111644
L121135 111615
" />
<path d="M121678 111872
L121678 111272
" />
<path d="M121678 111844
L121621 111872
L121507 111872
L121450 111844
L121421 111815
L121392 111758
L121392 111587
L121421 111530
L121450 111501
L121507 111472
L121621 111472
L121678 111501
" />
<path d="M122421 111558
L122621 111558
" />
<path d="M122707 111872
L122421 111872
L122421 111272
L122707 111272
" />
<path d="M122964 111815
L122992 111844
L122964 111872
L122935 111844
L122964 111815
L122964 111872
" />
<path d="M123249 111872
L123249 111272
L123392 111272
L123478 111301
L123535 111358
L123564 111415
L123592 111530
L123592 111615
L123564 111730
L123535 111787
L123478 111844
L123392 111872
L123249 111872
" />
<path d="M123849 111815
L123878 111844
L123849 111872
L123821 111844
L123849 111815
L123849 111872
" />
<path d="M124107 111701
L124392 111701
" />
<path d="M124049 111872
L124249 111272
L124449 111872
" />
<path d="M124649 111815
L124678 111844
L124649 111872
L124621 111844
L124649 111815
L124649 111872
" />
<path d="M152942 110672
L152778 110387
" />
<path d="M152600 110672
L152675 110072
L152903 110072
L152957 110101
L152982 110130
L153003 110187
L152992 110272
L152957 110330
L152925 110358
L152864 110387
L152635 110387
" />
<path d="M153432 110644
L153371 110672
L153257 110672
L153203 110644
L153182 110587
L153210 110358
L153246 110301
L153307 110272
L153421 110272
L153475 110301
L153496 110358
L153489 110415
L153196 110472
" />
<path d="M153707 110272
L153800 110672
L153992 110272
" />
<path d="M154178 110615
L154203 110644
L154171 110672
L154146 110644
L154178 110615
L154171 110672
" />
<path d="M154217 110301
L154242 110330
L154210 110358
L154185 110330
L154217 110301
L154210 110358
" />
<path d="M119364 110644
L119450 110672
L119592 110672
L119650 110644
L119678 110615
L119707 110558
L119707 110501
L119678 110444
L119650 110415
L119592 110387
L119478 110358
L119421 110330
L119392 110301
L119364 110244
L119364 110187
L119392 110130
L119421 110101
L119478 110072
L119621 110072
L119707 110101
" />
<path d="M119964 110672
L119964 110272
" />
<path d="M119964 110072
L119935 110101
L119964 110130
L119992 110101
L119964 110072
L119964 110130
" />
<path d="M120192 110272
L120507 110272
L120192 110672
L120507 110672
" />
<path d="M120964 110644
L120907 110672
L120792 110672
L120735 110644
L120707 110587
L120707 110358
L120735 110301
L120792 110272
L120907 110272
L120964 110301
L120992 110358
L120992 110415
L120707 110472
" />
<path d="M121250 110615
L121278 110644
L121250 110672
L121221 110644
L121250 110615
L121250 110672
" />
<path d="M121250 110301
L121278 110330
L121250 110358
L121221 110330
L121250 110301
L121250 110358
" />
<path d="M121964 110501
L122250 110501
" />
<path d="M121907 110672
L122107 110072
L122307 110672
" />
<path d="M122450 110072
L122821 110072
L122621 110301
L122707 110301
L122764 110330
L122792 110358
L122821 110415
L122821 110558
L122792 110615
L122764 110644
L122707 110672
L122535 110672
L122478 110644
L122450 110615
" />
<path d="M152592 111872
L152592 111272
" />
<path d="M153135 111872
L153135 111272
" />
<path d="M153135 111844
L153078 111872
L152964 111872
L152907 111844
L152878 111815
L152850 111758
L152850 111587
L152878 111530
L152907 111501
L152964 111472
L153078 111472
L153135 111501
" />
<path d="M153421 111815
L153450 111844
L153421 111872
L153392 111844
L153421 111815
L153421 111872
" />
<path d="M153421 111501
L153450 111530
L153421 111558
L153392 111530
L153421 111501
L153421 111558
" />
<path d="M154478 111872
L154135 111872
" />
<path d="M154307 111872
L154307 111272
L154249 111358
L154192 111415
L154135 111444
" />
<path d="M155164 111244
L154650 112015
" />
<path d="M155678 111872
L155335 111872
" />
<path d="M155507 111872
L155507 111272
L155449 111358
L155392 111415
L155335 111444
" />
<path d="M119389 108872
L119732 108872
" />
<path d="M119485 109472
L119560 108872
" />
<path d="M119857 109472
L119907 109072
" />
<path d="M119932 108872
L119900 108901
L119925 108930
L119957 108901
L119932 108872
L119925 108930
" />
<path d="M120107 109072
L120335 109072
" />
<path d="M120217 108872
L120153 109387
L120175 109444
L120228 109472
L120285 109472
" />
<path d="M120571 109472
L120517 109444
L120496 109387
L120560 108872
" />
<path d="M121032 109444
L120971 109472
L120857 109472
L120803 109444
L120782 109387
L120810 109158
L120846 109101
L120907 109072
L121021 109072
L121075 109101
L121096 109158
L121089 109215
L120796 109272
" />
<path d="M121321 109415
L121346 109444
L121314 109472
L121289 109444
L121321 109415
L121314 109472
" />
<path d="M121360 109101
L121385 109130
L121353 109158
L121328 109130
L121360 109101
L121353 109158
" />
<path d="M119592 106758
L119392 106758
" />
<path d="M119392 107072
L119392 106472
L119678 106472
" />
<path d="M119907 107072
L119907 106672
" />
<path d="M119907 106472
L119878 106501
L119907 106530
L119935 106501
L119907 106472
L119907 106530
" />
<path d="M120278 107072
L120221 107044
L120192 106987
L120192 106472
" />
<path d="M120735 107044
L120678 107072
L120564 107072
L120507 107044
L120478 106987
L120478 106758
L120507 106701
L120564 106672
L120678 106672
L120735 106701
L120764 106758
L120764 106815
L120478 106872
" />
<path d="M121021 107015
L121050 107044
L121021 107072
L120992 107044
L121021 107015
L121021 107072
" />
<path d="M121021 106701
L121050 106730
L121021 106758
L120992 106730
L121021 106701
L121021 106758
" />
<path d="M121764 107072
L121764 106672
" />
<path d="M121764 106787
L121792 106730
L121821 106701
L121878 106672
L121935 106672
" />
<path d="M122364 107044
L122307 107072
L122192 107072
L122135 107044
L122107 106987
L122107 106758
L122135 106701
L122192 106672
L122307 106672
L122364 106701
L122392 106758
L122392 106815
L122107 106872
" />
<path d="M122850 106758
L122650 106758
" />
<path d="M122650 107072
L122650 106472
L122935 106472
" />
<path d="M123164 107072
L123164 106672
" />
<path d="M123164 106472
L123135 106501
L123164 106530
L123192 106501
L123164 106472
L123164 106530
" />
<path d="M123535 107072
L123478 107044
L123450 106987
L123450 106472
" />
<path d="M123764 107015
L123792 107044
L123764 107072
L123735 107044
L123764 107015
L123764 107072
" />
<path d="M124050 107072
L124050 106472
" />
<path d="M124107 106844
L124278 107072
" />
<path d="M124278 106672
L124050 106901
" />
<path d="M124535 107072
L124535 106672
" />
<path d="M124535 106472
L124507 106501
L124535 106530
L124564 106501
L124535 106472
L124535 106530
" />
<path d="M125078 107044
L125021 107072
L124907 107072
L124850 107044
L124821 107015
L124792 106958
L124792 106787
L124821 106730
L124850 106701
L124907 106672
L125021 106672
L125078 106701
" />
<path d="M125592 107072
L125592 106758
L125564 106701
L125507 106672
L125392 106672
L125335 106701
" />
<path d="M125592 107044
L125535 107072
L125392 107072
L125335 107044
L125307 106987
L125307 106930
L125335 106872
L125392 106844
L125535 106844
L125592 106815
" />
<path d="M126135 107072
L126135 106472
" />
<path d="M126135 107044
L126078 107072
L125964 107072
L125907 107044
L125878 107015
L125850 106958
L125850 106787
L125878 106730
L125907 106701
L125964 106672
L126078 106672
L126135 106701
" />
<path d="M126278 107130
L126735 107130
" />
<path d="M126878 106672
L126878 107272
" />
<path d="M126878 106701
L126935 106672
L127050 106672
L127107 106701
L127135 106730
L127164 106787
L127164 106958
L127135 107015
L127107 107044
L127050 107072
L126935 107072
L126878 107044
" />
<path d="M127678 107044
L127621 107072
L127507 107072
L127450 107044
L127421 107015
L127392 106958
L127392 106787
L127421 106730
L127450 106701
L127507 106672
L127621 106672
L127678 106701
" />
<path d="M127935 107072
L127935 106472
" />
<path d="M127935 106701
L127992 106672
L128107 106672
L128164 106701
L128192 106730
L128221 106787
L128221 106958
L128192 107015
L128164 107044
L128107 107072
L127992 107072
L127935 107044
" />
<path d="M119364 108244
L119450 108272
L119592 108272
L119650 108244
L119678 108215
L119707 108158
L119707 108101
L119678 108044
L119650 108015
L119592 107987
L119478 107958
L119421 107930
L119392 107901
L119364 107844
L119364 107787
L119392 107730
L119421 107701
L119478 107672
L119621 107672
L119707 107701
" />
<path d="M119964 108272
L119964 107672
" />
<path d="M120221 108272
L120221 107958
L120192 107901
L120135 107872
L120050 107872
L119992 107901
L119964 107930
" />
<path d="M120735 108244
L120678 108272
L120564 108272
L120507 108244
L120478 108187
L120478 107958
L120507 107901
L120564 107872
L120678 107872
L120735 107901
L120764 107958
L120764 108015
L120478 108072
" />
<path d="M121250 108244
L121192 108272
L121078 108272
L121021 108244
L120992 108187
L120992 107958
L121021 107901
L121078 107872
L121192 107872
L121250 107901
L121278 107958
L121278 108015
L120992 108072
" />
<path d="M121450 107872
L121678 107872
" />
<path d="M121535 107672
L121535 108187
L121564 108244
L121621 108272
L121678 108272
" />
<path d="M121878 108215
L121907 108244
L121878 108272
L121850 108244
L121878 108215
L121878 108272
" />
<path d="M121878 107901
L121907 107930
L121878 107958
L121850 107930
L121878 107901
L121878 107958
" />
<path d="M118650 106230
L118650 112230
" />
<path d="M118650 106230
L160650 106230
" />
<path d="M118650 106230
L160650 106230
" />
<path d="M118650 108630
L160650 108630
" />
<path d="M151850 109830
L151850 112230
" />
<path d="M118650 111030
L160650 111030
" />
<path d="M118650 109830
L160650 109830
" />
<path d="M125250 109830
L125250 111030
" />
</g>
<g style="fill:#808000; fill-opacity:0.0; 
stroke:#808000; stroke-width:39.3701; stroke-opacity:1; 
stroke-linecap:round; stroke-linejoin:round;">
</g>
<g style="fill:#808000; fill-opacity:1.0; 
stroke:#808000; stroke-width:39.3701; stroke-opacity:1; 
stroke-linecap:round; stroke-linejoin:round;">
<circle cx="25852.8" cy="17348.8" r="275.591" /> 
<circle cx="31561.4" cy="19848.8" r="275.591" /> 
<circle cx="26758.3" cy="19848.8" r="275.591" /> 
<circle cx="26758.3" cy="14809.4" r="275.591" /> 
<circle cx="31561.4" cy="14809.4" r="275.591" /> 
<circle cx="25852.8" cy="23848.8" r="275.591" /> 
<circle cx="31561.4" cy="26348.8" r="275.591" /> 
<circle cx="26758.3" cy="26348.8" r="275.591" /> 
<circle cx="26758.3" cy="21309.4" r="275.591" /> 
<circle cx="31561.4" cy="21309.4" r="275.591" /> 
<circle cx="22900" cy="26600" r="275.591" /> 
<circle cx="23900" cy="26600" r="275.591" /> 
<circle cx="19900" cy="26600" r="275.591" /> 
<circle cx="18900" cy="26600" r="275.591" /> 
<circle cx="17900" cy="26600" r="275.591" /> 
<circle cx="17900" cy="23600" r="275.591" /> 
<circle cx="18900" cy="23600" r="275.591" /> 
<circle cx="20900" cy="23600" r="275.591" /> 
<circle cx="21900" cy="23600" r="275.591" /> 
<circle cx="22900" cy="23600" r="275.591" /> 
<circle cx="23900" cy="23600" r="275.591" /> 
<circle cx="34000" cy="26900" r="255.315" /> 
<circle cx="34000" cy="25900" r="255.315" /> 
<polyline style="fill-rule:evenodd;"
points="19219,18780
19219,18219
19780,18219
19780,18780
19219,18780
" /> 
<circle cx="19500" cy="17500" r="280.315" /> 
<circle cx="20500" cy="18500" r="280.315" /> 
<circle cx="20500" cy="17500" r="280.315" /> 
<circle cx="21500" cy="18500" r="280.315" /> 
<circle cx="21500" cy="17500" r="280.315" /> 
<circle cx="22500" cy="18500" r="280.315" /> 
<circle cx="22500" cy="17500" r="280.315" /> 
<circle cx="23500" cy="18500" r="280.315" /> 
<circle cx="23500" cy="17500" r="280.315" /> 
<polyline style="fill-rule:evenodd;"
points="35880,27180
35319,27180
35319,26619
35880,26619
35880,27180
" /> 
<circle cx="35600" cy="25900" r="280.315" /> 
<circle cx="25400" cy="13000" r="330.315" /> 
<polyline style="fill-rule:evenodd;"
points="26730,13330
26069,13330
26069,12669
26730,12669
26730,13330
" /> 
<circle cx="27400" cy="13000" r="330.315" /> 
<circle cx="18600" cy="13400" r="925.315" /> 
<polyline style="fill-rule:evenodd;"
points="20074,14325
20074,12474
21925,12474
21925,14325
20074,14325
" /> 
<circle cx="19500" cy="15400" r="925.315" /> 
<polyline style="fill-rule:evenodd;"
points="22644,13255
22644,12744
23155,12744
23155,13255
22644,13255
" /> 
<circle cx="23900" cy="13000" r="255.315" /> 
<polyline style="fill-rule:evenodd;"
points="28644,13255
28644,12744
29155,12744
29155,13255
28644,13255
" /> 
<circle cx="29900" cy="13000" r="255.315" /> 
<polyline style="fill-rule:evenodd;"
points="35280,17680
34319,17680
34319,16719
35280,16719
35280,17680
" /> 
<circle cx="34800" cy="15200" r="480.315" /> 
<polyline style="fill-rule:evenodd;"
points="35180,24280
34219,24280
34219,23319
35180,23319
35180,24280
" /> 
<circle cx="34700" cy="21800" r="480.315" /> 
<circle cx="24500" cy="19800" r="275.591" /> 
<circle cx="23500" cy="19800" r="275.591" /> 
<circle cx="22500" cy="19800" r="275.591" /> 
<circle cx="21500" cy="19800" r="275.591" /> 
<circle cx="20500" cy="19800" r="275.591" /> 
<circle cx="18500" cy="19800" r="275.591" /> 
<circle cx="17500" cy="19800" r="275.591" /> 
<circle cx="17500" cy="22400" r="275.591" /> 
<circle cx="18500" cy="22400" r="275.591" /> 
<circle cx="19500" cy="22400" r="275.591" /> 
<circle cx="20500" cy="22400" r="275.591" /> 
<circle cx="21500" cy="22400" r="275.591" /> 
<circle cx="22500" cy="22400" r="275.591" /> 
<circle cx="23500" cy="22400" r="275.591" /> 
<circle cx="24500" cy="22400" r="275.591" /> 
<circle cx="19500" cy="19800" r="275.591" /> 
</g>
<g style="fill:#FFFFFF; fill-opacity:1.0; 
stroke:#FFFFFF; stroke-width:39.3701; stroke-opacity:1; 
stroke-linecap:round; stroke-linejoin:round;">
<circle cx="25852.8" cy="17348.8" r="98.4252" /> 
<circle cx="31561.4" cy="19848.8" r="98.4252" /> 
<circle cx="26758.3" cy="19848.8" r="98.4252" /> 
<circle cx="26758.3" cy="14809.4" r="98.4252" /> 
<circle cx="31561.4" cy="14809.4" r="98.4252" /> 
<circle cx="25852.8" cy="23848.8" r="98.4252" /> 
<circle cx="31561.4" cy="26348.8" r="98.4252" /> 
<circle cx="26758.3" cy="26348.8" r="98.4252" /> 
<circle cx="26758.3" cy="21309.4" r="98.4252" /> 
<circle cx="31561.4" cy="21309.4" r="98.4252" /> 
<circle cx="22900" cy="26600" r="98.4252" /> 
<circle cx="23900" cy="26600" r="98.4252" /> 
<circle cx="19900" cy="26600" r="98.4252" /> 
<circle cx="18900" cy="26600" r="98.4252" /> 
<circle cx="17900" cy="26600" r="98.4252" /> 
<circle cx="17900" cy="23600" r="98.4252" /> 
<circle cx="18900" cy="23600" r="98.4252" /> 
<circle cx="20900" cy="23600" r="98.4252" /> 
<circle cx="21900" cy="23600" r="98.4252" /> 
<circle cx="22900" cy="23600" r="98.4252" /> 
<circle cx="23900" cy="23600" r="98.4252" /> 
<circle cx="34000" cy="26900" r="140.315" /> 
<circle cx="34000" cy="25900" r="140.315" /> 
<circle cx="19500" cy="18500" r="180.315" /> 
<circle cx="19500" cy="17500" r="180.315" /> 
<circle cx="20500" cy="18500" r="180.315" /> 
<circle cx="20500" cy="17500" r="180.315" /> 
<circle cx="21500" cy="18500" r="180.315" /> 
<circle cx="21500" cy="17500" r="180.315" /> 
<circle cx="22500" cy="18500" r="180.315" /> 
<circle cx="22500" cy="17500" r="180.315" /> 
<circle cx="23500" cy="18500" r="180.315" /> 
<circle cx="23500" cy="17500" r="180.315" /> 
<circle cx="35600" cy="26900" r="180.315" /> 
<circle cx="35600" cy="25900" r="180.315" /> 
<circle cx="25400" cy="13000" r="205.315" /> 
<circle cx="26400" cy="13000" r="205.315" /> 
<circle cx="27400" cy="13000" r="205.315" /> 
</g>
<g style="fill:#FFFFFF; fill-opacity:1.0; 
stroke:#FFFFFF; stroke-width:400; stroke-opacity:1; 
stroke-linecap:round; stroke-linejoin:round;">
<path d="M18600 13100
L18600 13700
" />
<path d="M21000 13100
L21000 13700
" />
<path d="M19200 15400
L19800 15400
" />
</g>
<g style="fill:#FFFFFF; fill-opacity:1.0; 
stroke:#FFFFFF; stroke-width:39.3701; stroke-opacity:1; 
stroke-linecap:round; stroke-linejoin:round;">
<circle cx="22900" cy="13000" r="140.315" /> 
<circle cx="23900" cy="13000" r="140.315" /> 
<circle cx="28900" cy="13000" r="140.315" /> 
<circle cx="29900" cy="13000" r="140.315" /> 
<circle cx="34800" cy="17200" r="280.315" /> 
<circle cx="34800" cy="15200" r="280.315" /> 
<circle cx="34700" cy="23800" r="280.315" /> 
<circle cx="34700" cy="21800" r="280.315" /> 
<circle cx="24500" cy="19800" r="98.4252" /> 
<circle cx="23500" cy="19800" r="98.4252" /> 
<circle cx="22500" cy="19800" r="98.4252" /> 
<circle cx="21500" cy="19800" r="98.4252" /> 
<circle cx="20500" cy="19800" r="98.4252" /> 
<circle cx="18500" cy="19800" r="98.4252" /> 
<circle cx="17500" cy="19800" r="98.4252" /> 
<circle cx="17500" cy="22400" r="98.4252" /> 
<circle cx="18500" cy="22400" r="98.4252" /> 
<circle cx="19500" cy="22400" r="98.4252" /> 
<circle cx="20500" cy="22400" r="98.4252" /> 
<circle cx="21500" cy="22400" r="98.4252" /> 
<circle cx="22500" cy="22400" r="98.4252" /> 
<circle cx="23500" cy="22400" r="98.4252" /> 
<circle cx="24500" cy="22400" r="98.4252" /> 
<circle cx="19500" cy="19800" r="98.4252" /> 
</g> 
</svg>
