G04 (created by PCBNEW (2013-may-18)-stable) date lun 04 jui 2016 15:07:43 CEST*
%MOIN*%
G04 Gerber Fmt 3.4, Leading zero omitted, Abs format*
%FSLAX34Y34*%
G01*
G70*
G90*
G04 APERTURE LIST*
%ADD10C,0.00590551*%
%ADD11C,0.0590551*%
%ADD12R,0.1X0.1*%
%ADD13C,0.1*%
%ADD14R,0.06X0.06*%
%ADD15C,0.06*%
%ADD16C,0.07*%
%ADD17R,0.07X0.07*%
%ADD18C,0.189*%
%ADD19R,0.189X0.189*%
%ADD20R,0.08X0.06*%
%ADD21R,0.0709X0.0629*%
%ADD22R,0.06X0.08*%
%ADD23R,0.025X0.045*%
%ADD24C,0.023622*%
%ADD25C,0.01*%
G04 APERTURE END LIST*
G54D10*
G54D11*
X16700Y-19700D03*
X16700Y-20700D03*
X16700Y-21700D03*
X16700Y-22700D03*
X16700Y-23700D03*
X16700Y-25700D03*
X16700Y-26700D03*
X19300Y-26700D03*
X19300Y-25700D03*
X19300Y-24700D03*
X19300Y-23700D03*
X19300Y-22700D03*
X19300Y-21700D03*
X19300Y-20700D03*
X19300Y-19700D03*
X16700Y-24700D03*
G54D12*
X34000Y-24100D03*
G54D13*
X34000Y-22100D03*
G54D14*
X15400Y-26600D03*
G54D15*
X14400Y-26600D03*
X15400Y-25600D03*
X14400Y-25600D03*
X15400Y-24600D03*
X14400Y-24600D03*
X15400Y-23600D03*
X14400Y-23600D03*
X15400Y-22600D03*
X14400Y-22600D03*
G54D12*
X34000Y-17400D03*
G54D13*
X34000Y-15400D03*
G54D11*
X23700Y-19300D03*
X23700Y-18300D03*
X23700Y-22300D03*
X23700Y-23300D03*
X23700Y-24300D03*
X20700Y-24300D03*
X20700Y-23300D03*
X20700Y-21300D03*
X20700Y-20300D03*
X20700Y-19300D03*
X20700Y-18300D03*
G54D14*
X23800Y-26200D03*
G54D15*
X22800Y-26200D03*
G54D16*
X20900Y-15400D03*
G54D17*
X21900Y-15400D03*
G54D16*
X22900Y-15400D03*
G54D18*
X14800Y-15400D03*
G54D19*
X17200Y-15400D03*
G54D18*
X15700Y-17400D03*
G54D20*
X34300Y-20350D03*
X34300Y-19050D03*
X34300Y-27050D03*
X34300Y-25750D03*
X15600Y-20150D03*
X15600Y-21450D03*
G54D21*
X33100Y-19141D03*
X33100Y-20259D03*
X33100Y-25841D03*
X33100Y-26959D03*
X14400Y-21359D03*
X14400Y-20241D03*
G54D22*
X20350Y-26200D03*
X21650Y-26200D03*
G54D23*
X20500Y-16800D03*
X21100Y-16800D03*
X23300Y-16800D03*
X22700Y-16800D03*
G54D11*
X25052Y-17448D03*
X30761Y-19948D03*
X25958Y-19948D03*
X25958Y-14909D03*
X30761Y-14909D03*
X25152Y-24148D03*
X30861Y-26648D03*
X26058Y-26648D03*
X26058Y-21609D03*
X30861Y-21609D03*
G54D24*
X20900Y-15400D02*
X17200Y-15400D01*
X34000Y-15400D02*
X35200Y-16600D01*
X34500Y-22100D02*
X34000Y-22100D01*
X35200Y-21400D02*
X34500Y-22100D01*
X35200Y-16600D02*
X35200Y-21400D01*
X20900Y-15400D02*
X20900Y-14800D01*
X32900Y-14300D02*
X34000Y-15400D01*
X21400Y-14300D02*
X32900Y-14300D01*
X20900Y-14800D02*
X21400Y-14300D01*
X20500Y-16800D02*
X20500Y-15800D01*
X20500Y-15800D02*
X20900Y-15400D01*
G54D25*
X19300Y-19700D02*
X19500Y-19700D01*
X20000Y-23600D02*
X20700Y-24300D01*
X20000Y-20200D02*
X20000Y-23600D01*
X19500Y-19700D02*
X20000Y-20200D01*
X23300Y-16800D02*
X23600Y-16800D01*
X24200Y-21800D02*
X23700Y-22300D01*
X24200Y-17400D02*
X24200Y-21800D01*
X23600Y-16800D02*
X24200Y-17400D01*
X23700Y-22300D02*
X22100Y-22300D01*
X21200Y-23800D02*
X20700Y-24300D01*
X21200Y-23200D02*
X21200Y-23800D01*
X22100Y-22300D02*
X21200Y-23200D01*
X20350Y-26200D02*
X20350Y-24650D01*
X20350Y-24650D02*
X20700Y-24300D01*
X14400Y-21359D02*
X14400Y-22600D01*
X23300Y-16800D02*
X23300Y-16000D01*
X22900Y-15600D02*
X22900Y-15400D01*
X23300Y-16000D02*
X22900Y-15600D01*
X33100Y-19141D02*
X26766Y-19141D01*
X26766Y-19141D02*
X25958Y-19948D01*
X33100Y-25841D02*
X26866Y-25841D01*
X26866Y-25841D02*
X26058Y-26648D01*
X19300Y-22700D02*
X18900Y-22700D01*
X23000Y-17600D02*
X23700Y-18300D01*
X20000Y-17600D02*
X23000Y-17600D01*
X18700Y-18900D02*
X20000Y-17600D01*
X18700Y-22500D02*
X18700Y-18900D01*
X18900Y-22700D02*
X18700Y-22500D01*
X34300Y-27050D02*
X33191Y-27050D01*
X33191Y-27050D02*
X33100Y-26959D01*
X14400Y-20241D02*
X15509Y-20241D01*
X15509Y-20241D02*
X15600Y-20150D01*
X34300Y-20350D02*
X33191Y-20350D01*
X33191Y-20350D02*
X33100Y-20259D01*
X22800Y-26200D02*
X21650Y-26200D01*
G54D10*
G36*
X35750Y-28150D02*
X35568Y-28150D01*
X35568Y-21400D01*
X35568Y-21400D01*
X35568Y-21400D01*
X35568Y-16600D01*
X35568Y-16599D01*
X35568Y-16599D01*
X35563Y-16576D01*
X35540Y-16459D01*
X35460Y-16339D01*
X35460Y-16339D01*
X34726Y-15605D01*
X34749Y-15549D01*
X34750Y-15251D01*
X34636Y-14975D01*
X34425Y-14764D01*
X34149Y-14650D01*
X33851Y-14649D01*
X33794Y-14673D01*
X33160Y-14039D01*
X33040Y-13959D01*
X32900Y-13931D01*
X21400Y-13931D01*
X21259Y-13959D01*
X21139Y-14039D01*
X20639Y-14539D01*
X20559Y-14659D01*
X20531Y-14800D01*
X20531Y-14919D01*
X20419Y-15031D01*
X18395Y-15031D01*
X18395Y-14405D01*
X18357Y-14313D01*
X18286Y-14243D01*
X18194Y-14205D01*
X18095Y-14204D01*
X16205Y-14204D01*
X16113Y-14242D01*
X16043Y-14313D01*
X16005Y-14405D01*
X16004Y-14504D01*
X16004Y-16233D01*
X15995Y-16229D01*
X15935Y-16204D01*
X15675Y-16205D01*
X15651Y-16181D01*
X15814Y-16075D01*
X15995Y-15635D01*
X15994Y-15160D01*
X15814Y-14724D01*
X15651Y-14618D01*
X15581Y-14689D01*
X15581Y-14548D01*
X15475Y-14385D01*
X15035Y-14204D01*
X14560Y-14205D01*
X14124Y-14385D01*
X14018Y-14548D01*
X14800Y-15329D01*
X15581Y-14548D01*
X15581Y-14689D01*
X14870Y-15400D01*
X14876Y-15405D01*
X14805Y-15476D01*
X14800Y-15470D01*
X14729Y-15541D01*
X14729Y-15400D01*
X13948Y-14618D01*
X13785Y-14724D01*
X13604Y-15164D01*
X13605Y-15639D01*
X13785Y-16075D01*
X13948Y-16181D01*
X14729Y-15400D01*
X14729Y-15541D01*
X14018Y-16251D01*
X14124Y-16414D01*
X14564Y-16595D01*
X14824Y-16594D01*
X14848Y-16618D01*
X14685Y-16724D01*
X14504Y-17164D01*
X14505Y-17639D01*
X14685Y-18075D01*
X14848Y-18181D01*
X15629Y-17400D01*
X15623Y-17394D01*
X15694Y-17323D01*
X15700Y-17329D01*
X15705Y-17323D01*
X15776Y-17394D01*
X15770Y-17400D01*
X16551Y-18181D01*
X16714Y-18075D01*
X16895Y-17635D01*
X16894Y-17160D01*
X16714Y-16724D01*
X16551Y-16618D01*
X16575Y-16595D01*
X18194Y-16595D01*
X18286Y-16557D01*
X18356Y-16486D01*
X18394Y-16394D01*
X18395Y-16295D01*
X18395Y-15768D01*
X20138Y-15768D01*
X20131Y-15800D01*
X20131Y-16508D01*
X20125Y-16525D01*
X20124Y-16624D01*
X20124Y-17074D01*
X20162Y-17166D01*
X20233Y-17236D01*
X20325Y-17274D01*
X20424Y-17275D01*
X20674Y-17275D01*
X20766Y-17237D01*
X20800Y-17203D01*
X20833Y-17237D01*
X20925Y-17275D01*
X20987Y-17275D01*
X21050Y-17212D01*
X21050Y-16850D01*
X21042Y-16850D01*
X21042Y-16750D01*
X21050Y-16750D01*
X21050Y-16387D01*
X20987Y-16325D01*
X20925Y-16324D01*
X20868Y-16348D01*
X20868Y-15999D01*
X21018Y-16000D01*
X21239Y-15908D01*
X21314Y-15834D01*
X21337Y-15891D01*
X21408Y-15961D01*
X21500Y-15999D01*
X21599Y-16000D01*
X21787Y-16000D01*
X21850Y-15937D01*
X21850Y-15450D01*
X21842Y-15450D01*
X21842Y-15350D01*
X21850Y-15350D01*
X21850Y-14862D01*
X21787Y-14800D01*
X21599Y-14799D01*
X21500Y-14800D01*
X21408Y-14838D01*
X21337Y-14908D01*
X21314Y-14965D01*
X21284Y-14935D01*
X21552Y-14668D01*
X25465Y-14668D01*
X25408Y-14828D01*
X25419Y-15045D01*
X25480Y-15194D01*
X25575Y-15221D01*
X25887Y-14909D01*
X25881Y-14903D01*
X25952Y-14833D01*
X25958Y-14838D01*
X25963Y-14833D01*
X26034Y-14903D01*
X26028Y-14909D01*
X26340Y-15221D01*
X26435Y-15194D01*
X26508Y-14990D01*
X26497Y-14773D01*
X26453Y-14668D01*
X30268Y-14668D01*
X30211Y-14828D01*
X30222Y-15045D01*
X30284Y-15194D01*
X30378Y-15221D01*
X30690Y-14909D01*
X30685Y-14903D01*
X30755Y-14833D01*
X30761Y-14838D01*
X30766Y-14833D01*
X30837Y-14903D01*
X30832Y-14909D01*
X31143Y-15221D01*
X31238Y-15194D01*
X31311Y-14990D01*
X31300Y-14773D01*
X31256Y-14668D01*
X32747Y-14668D01*
X33273Y-15194D01*
X33250Y-15250D01*
X33249Y-15548D01*
X33363Y-15824D01*
X33574Y-16035D01*
X33850Y-16149D01*
X34148Y-16150D01*
X34205Y-16126D01*
X34831Y-16752D01*
X34831Y-18534D01*
X34750Y-18500D01*
X34750Y-17850D01*
X34750Y-16850D01*
X34712Y-16758D01*
X34641Y-16688D01*
X34549Y-16650D01*
X34450Y-16649D01*
X33450Y-16649D01*
X33358Y-16687D01*
X33288Y-16758D01*
X33250Y-16850D01*
X33249Y-16949D01*
X33249Y-17949D01*
X33287Y-18041D01*
X33358Y-18111D01*
X33450Y-18149D01*
X33549Y-18150D01*
X34549Y-18150D01*
X34641Y-18112D01*
X34711Y-18041D01*
X34749Y-17949D01*
X34750Y-17850D01*
X34750Y-18500D01*
X34749Y-18500D01*
X34650Y-18499D01*
X34412Y-18500D01*
X34350Y-18562D01*
X34350Y-19000D01*
X34357Y-19000D01*
X34357Y-19100D01*
X34350Y-19100D01*
X34350Y-19537D01*
X34412Y-19600D01*
X34650Y-19600D01*
X34749Y-19599D01*
X34831Y-19565D01*
X34831Y-19834D01*
X34749Y-19800D01*
X34650Y-19799D01*
X33850Y-19799D01*
X33758Y-19837D01*
X33703Y-19892D01*
X33666Y-19803D01*
X33596Y-19732D01*
X33517Y-19699D01*
X33595Y-19667D01*
X33666Y-19597D01*
X33703Y-19507D01*
X33758Y-19561D01*
X33850Y-19599D01*
X33949Y-19600D01*
X34187Y-19600D01*
X34250Y-19537D01*
X34250Y-19100D01*
X34242Y-19100D01*
X34242Y-19000D01*
X34250Y-19000D01*
X34250Y-18562D01*
X34187Y-18500D01*
X33949Y-18499D01*
X33850Y-18500D01*
X33758Y-18538D01*
X33687Y-18608D01*
X33659Y-18677D01*
X33596Y-18614D01*
X33504Y-18576D01*
X33404Y-18576D01*
X32695Y-18576D01*
X32604Y-18614D01*
X32533Y-18684D01*
X32495Y-18776D01*
X32495Y-18841D01*
X31073Y-18841D01*
X31073Y-15291D01*
X30761Y-14980D01*
X30449Y-15291D01*
X30476Y-15386D01*
X30680Y-15459D01*
X30897Y-15448D01*
X31046Y-15386D01*
X31073Y-15291D01*
X31073Y-18841D01*
X26766Y-18841D01*
X26651Y-18863D01*
X26553Y-18928D01*
X26270Y-19212D01*
X26270Y-15291D01*
X25958Y-14980D01*
X25646Y-15291D01*
X25673Y-15386D01*
X25877Y-15459D01*
X26094Y-15448D01*
X26243Y-15386D01*
X26270Y-15291D01*
X26270Y-19212D01*
X26075Y-19407D01*
X26067Y-19403D01*
X25850Y-19403D01*
X25649Y-19486D01*
X25602Y-19533D01*
X25602Y-17529D01*
X25591Y-17312D01*
X25530Y-17163D01*
X25435Y-17137D01*
X25364Y-17207D01*
X25364Y-17066D01*
X25337Y-16971D01*
X25133Y-16898D01*
X24916Y-16909D01*
X24767Y-16971D01*
X24740Y-17066D01*
X25052Y-17378D01*
X25364Y-17066D01*
X25364Y-17207D01*
X25123Y-17448D01*
X25435Y-17760D01*
X25530Y-17733D01*
X25602Y-17529D01*
X25602Y-19533D01*
X25496Y-19639D01*
X25413Y-19839D01*
X25412Y-20056D01*
X25495Y-20257D01*
X25648Y-20410D01*
X25849Y-20493D01*
X26066Y-20494D01*
X26266Y-20411D01*
X26420Y-20258D01*
X26503Y-20057D01*
X26503Y-19840D01*
X26499Y-19831D01*
X26890Y-19441D01*
X30562Y-19441D01*
X30452Y-19486D01*
X30299Y-19639D01*
X30216Y-19839D01*
X30216Y-20056D01*
X30298Y-20257D01*
X30452Y-20410D01*
X30652Y-20493D01*
X30869Y-20494D01*
X31069Y-20411D01*
X31223Y-20258D01*
X31306Y-20057D01*
X31306Y-19840D01*
X31223Y-19640D01*
X31070Y-19486D01*
X30960Y-19441D01*
X32495Y-19441D01*
X32495Y-19505D01*
X32533Y-19596D01*
X32603Y-19667D01*
X32682Y-19700D01*
X32604Y-19732D01*
X32533Y-19802D01*
X32495Y-19894D01*
X32495Y-19994D01*
X32495Y-20623D01*
X32533Y-20714D01*
X32603Y-20785D01*
X32695Y-20823D01*
X32795Y-20823D01*
X33504Y-20823D01*
X33595Y-20785D01*
X33659Y-20722D01*
X33687Y-20791D01*
X33758Y-20861D01*
X33850Y-20899D01*
X33949Y-20900D01*
X34749Y-20900D01*
X34831Y-20866D01*
X34831Y-21247D01*
X34520Y-21559D01*
X34425Y-21464D01*
X34149Y-21350D01*
X33851Y-21349D01*
X33575Y-21463D01*
X33364Y-21674D01*
X33250Y-21950D01*
X33249Y-22248D01*
X33363Y-22524D01*
X33574Y-22735D01*
X33850Y-22849D01*
X34148Y-22850D01*
X34424Y-22736D01*
X34635Y-22525D01*
X34682Y-22412D01*
X34760Y-22360D01*
X35460Y-21660D01*
X35460Y-21660D01*
X35460Y-21660D01*
X35540Y-21540D01*
X35568Y-21400D01*
X35568Y-28150D01*
X34950Y-28150D01*
X34950Y-27300D01*
X34950Y-26700D01*
X34950Y-26099D01*
X34950Y-25400D01*
X34912Y-25308D01*
X34841Y-25238D01*
X34750Y-25200D01*
X34750Y-24550D01*
X34750Y-23550D01*
X34712Y-23458D01*
X34641Y-23388D01*
X34549Y-23350D01*
X34450Y-23349D01*
X33450Y-23349D01*
X33358Y-23387D01*
X33288Y-23458D01*
X33250Y-23550D01*
X33249Y-23649D01*
X33249Y-24649D01*
X33287Y-24741D01*
X33358Y-24811D01*
X33450Y-24849D01*
X33549Y-24850D01*
X34549Y-24850D01*
X34641Y-24812D01*
X34711Y-24741D01*
X34749Y-24649D01*
X34750Y-24550D01*
X34750Y-25200D01*
X34749Y-25200D01*
X34650Y-25199D01*
X34412Y-25200D01*
X34350Y-25262D01*
X34350Y-25700D01*
X34887Y-25700D01*
X34950Y-25637D01*
X34950Y-25400D01*
X34950Y-26099D01*
X34950Y-25862D01*
X34887Y-25800D01*
X34350Y-25800D01*
X34350Y-26237D01*
X34412Y-26300D01*
X34650Y-26300D01*
X34749Y-26299D01*
X34841Y-26261D01*
X34912Y-26191D01*
X34950Y-26099D01*
X34950Y-26700D01*
X34912Y-26608D01*
X34841Y-26538D01*
X34749Y-26500D01*
X34650Y-26499D01*
X33850Y-26499D01*
X33758Y-26537D01*
X33703Y-26592D01*
X33666Y-26503D01*
X33596Y-26432D01*
X33517Y-26399D01*
X33595Y-26367D01*
X33666Y-26297D01*
X33703Y-26207D01*
X33758Y-26261D01*
X33850Y-26299D01*
X33949Y-26300D01*
X34187Y-26300D01*
X34250Y-26237D01*
X34250Y-25800D01*
X34242Y-25800D01*
X34242Y-25700D01*
X34250Y-25700D01*
X34250Y-25262D01*
X34187Y-25200D01*
X33949Y-25199D01*
X33850Y-25200D01*
X33758Y-25238D01*
X33687Y-25308D01*
X33659Y-25377D01*
X33596Y-25314D01*
X33504Y-25276D01*
X33404Y-25276D01*
X32695Y-25276D01*
X32604Y-25314D01*
X32533Y-25384D01*
X32495Y-25476D01*
X32495Y-25541D01*
X31411Y-25541D01*
X31411Y-21690D01*
X31400Y-21473D01*
X31338Y-21324D01*
X31243Y-21297D01*
X31173Y-21368D01*
X31173Y-21226D01*
X31146Y-21132D01*
X30942Y-21059D01*
X30725Y-21070D01*
X30576Y-21132D01*
X30549Y-21226D01*
X30861Y-21538D01*
X31173Y-21226D01*
X31173Y-21368D01*
X30932Y-21609D01*
X31243Y-21921D01*
X31338Y-21894D01*
X31411Y-21690D01*
X31411Y-25541D01*
X31173Y-25541D01*
X31173Y-21991D01*
X30861Y-21680D01*
X30790Y-21750D01*
X30790Y-21609D01*
X30478Y-21297D01*
X30384Y-21324D01*
X30311Y-21528D01*
X30322Y-21745D01*
X30384Y-21894D01*
X30478Y-21921D01*
X30790Y-21609D01*
X30790Y-21750D01*
X30549Y-21991D01*
X30576Y-22086D01*
X30780Y-22159D01*
X30997Y-22148D01*
X31146Y-22086D01*
X31173Y-21991D01*
X31173Y-25541D01*
X26866Y-25541D01*
X26751Y-25563D01*
X26653Y-25628D01*
X26608Y-25674D01*
X26608Y-21690D01*
X26597Y-21473D01*
X26535Y-21324D01*
X26440Y-21297D01*
X26370Y-21368D01*
X26370Y-21226D01*
X26343Y-21132D01*
X26138Y-21059D01*
X25922Y-21070D01*
X25773Y-21132D01*
X25746Y-21226D01*
X26058Y-21538D01*
X26370Y-21226D01*
X26370Y-21368D01*
X26128Y-21609D01*
X26440Y-21921D01*
X26535Y-21894D01*
X26608Y-21690D01*
X26608Y-25674D01*
X26370Y-25912D01*
X26370Y-21991D01*
X26058Y-21680D01*
X25987Y-21750D01*
X25987Y-21609D01*
X25675Y-21297D01*
X25580Y-21324D01*
X25508Y-21528D01*
X25519Y-21745D01*
X25580Y-21894D01*
X25675Y-21921D01*
X25987Y-21609D01*
X25987Y-21750D01*
X25746Y-21991D01*
X25773Y-22086D01*
X25977Y-22159D01*
X26194Y-22148D01*
X26343Y-22086D01*
X26370Y-21991D01*
X26370Y-25912D01*
X26175Y-26107D01*
X26167Y-26103D01*
X25950Y-26103D01*
X25749Y-26186D01*
X25702Y-26233D01*
X25702Y-24229D01*
X25691Y-24012D01*
X25630Y-23863D01*
X25535Y-23837D01*
X25464Y-23907D01*
X25464Y-23766D01*
X25437Y-23671D01*
X25364Y-23645D01*
X25364Y-17831D01*
X25052Y-17519D01*
X24982Y-17590D01*
X24982Y-17448D01*
X24670Y-17137D01*
X24575Y-17163D01*
X24502Y-17368D01*
X24513Y-17584D01*
X24575Y-17733D01*
X24670Y-17760D01*
X24982Y-17448D01*
X24982Y-17590D01*
X24740Y-17831D01*
X24767Y-17926D01*
X24972Y-17998D01*
X25188Y-17987D01*
X25337Y-17926D01*
X25364Y-17831D01*
X25364Y-23645D01*
X25233Y-23598D01*
X25016Y-23609D01*
X24867Y-23671D01*
X24840Y-23766D01*
X25152Y-24078D01*
X25464Y-23766D01*
X25464Y-23907D01*
X25223Y-24148D01*
X25535Y-24460D01*
X25630Y-24433D01*
X25702Y-24229D01*
X25702Y-26233D01*
X25596Y-26339D01*
X25513Y-26539D01*
X25512Y-26756D01*
X25595Y-26957D01*
X25748Y-27110D01*
X25949Y-27193D01*
X26166Y-27194D01*
X26366Y-27111D01*
X26520Y-26958D01*
X26603Y-26757D01*
X26603Y-26540D01*
X26599Y-26531D01*
X26990Y-26141D01*
X30662Y-26141D01*
X30552Y-26186D01*
X30399Y-26339D01*
X30316Y-26539D01*
X30316Y-26756D01*
X30398Y-26957D01*
X30552Y-27110D01*
X30752Y-27193D01*
X30969Y-27194D01*
X31169Y-27111D01*
X31323Y-26958D01*
X31406Y-26757D01*
X31406Y-26540D01*
X31323Y-26340D01*
X31170Y-26186D01*
X31060Y-26141D01*
X32495Y-26141D01*
X32495Y-26205D01*
X32533Y-26296D01*
X32603Y-26367D01*
X32682Y-26400D01*
X32604Y-26432D01*
X32533Y-26502D01*
X32495Y-26594D01*
X32495Y-26694D01*
X32495Y-27323D01*
X32533Y-27414D01*
X32603Y-27485D01*
X32695Y-27523D01*
X32795Y-27523D01*
X33504Y-27523D01*
X33595Y-27485D01*
X33659Y-27422D01*
X33687Y-27491D01*
X33758Y-27561D01*
X33850Y-27599D01*
X33949Y-27600D01*
X34749Y-27600D01*
X34841Y-27562D01*
X34911Y-27491D01*
X34949Y-27399D01*
X34950Y-27300D01*
X34950Y-28150D01*
X25464Y-28150D01*
X25464Y-24531D01*
X25152Y-24219D01*
X25082Y-24290D01*
X25082Y-24148D01*
X24770Y-23837D01*
X24675Y-23863D01*
X24602Y-24068D01*
X24613Y-24284D01*
X24675Y-24433D01*
X24770Y-24460D01*
X25082Y-24148D01*
X25082Y-24290D01*
X24840Y-24531D01*
X24867Y-24626D01*
X25072Y-24698D01*
X25288Y-24687D01*
X25437Y-24626D01*
X25464Y-24531D01*
X25464Y-28150D01*
X24500Y-28150D01*
X24500Y-21800D01*
X24500Y-17400D01*
X24477Y-17285D01*
X24412Y-17187D01*
X24412Y-17187D01*
X23812Y-16587D01*
X23714Y-16522D01*
X23670Y-16513D01*
X23637Y-16433D01*
X23600Y-16396D01*
X23600Y-16000D01*
X23599Y-15999D01*
X23577Y-15885D01*
X23512Y-15787D01*
X23512Y-15787D01*
X23424Y-15700D01*
X23499Y-15519D01*
X23500Y-15281D01*
X23408Y-15060D01*
X23240Y-14891D01*
X23019Y-14800D01*
X22781Y-14799D01*
X22560Y-14891D01*
X22485Y-14965D01*
X22462Y-14908D01*
X22391Y-14838D01*
X22299Y-14800D01*
X22200Y-14799D01*
X22012Y-14800D01*
X21950Y-14862D01*
X21950Y-15350D01*
X21957Y-15350D01*
X21957Y-15450D01*
X21950Y-15450D01*
X21950Y-15937D01*
X22012Y-16000D01*
X22200Y-16000D01*
X22299Y-15999D01*
X22391Y-15961D01*
X22462Y-15891D01*
X22485Y-15834D01*
X22559Y-15908D01*
X22780Y-15999D01*
X22875Y-15999D01*
X23000Y-16124D01*
X23000Y-16396D01*
X22966Y-16362D01*
X22874Y-16324D01*
X22812Y-16325D01*
X22750Y-16387D01*
X22750Y-16750D01*
X22757Y-16750D01*
X22757Y-16850D01*
X22750Y-16850D01*
X22750Y-17212D01*
X22812Y-17275D01*
X22874Y-17275D01*
X22966Y-17237D01*
X22999Y-17203D01*
X23033Y-17236D01*
X23125Y-17274D01*
X23224Y-17275D01*
X23474Y-17275D01*
X23566Y-17237D01*
X23589Y-17213D01*
X23900Y-17524D01*
X23900Y-17792D01*
X23808Y-17754D01*
X23592Y-17754D01*
X23582Y-17758D01*
X23212Y-17387D01*
X23114Y-17322D01*
X23000Y-17300D01*
X22650Y-17300D01*
X22650Y-17212D01*
X22650Y-16850D01*
X22650Y-16750D01*
X22650Y-16387D01*
X22587Y-16325D01*
X22525Y-16324D01*
X22433Y-16362D01*
X22363Y-16433D01*
X22325Y-16525D01*
X22324Y-16624D01*
X22325Y-16687D01*
X22387Y-16750D01*
X22650Y-16750D01*
X22650Y-16850D01*
X22387Y-16850D01*
X22325Y-16912D01*
X22324Y-16975D01*
X22325Y-17074D01*
X22363Y-17166D01*
X22433Y-17237D01*
X22525Y-17275D01*
X22587Y-17275D01*
X22650Y-17212D01*
X22650Y-17300D01*
X21475Y-17300D01*
X21475Y-16975D01*
X21475Y-16624D01*
X21474Y-16525D01*
X21436Y-16433D01*
X21366Y-16362D01*
X21274Y-16324D01*
X21212Y-16325D01*
X21150Y-16387D01*
X21150Y-16750D01*
X21412Y-16750D01*
X21475Y-16687D01*
X21475Y-16624D01*
X21475Y-16975D01*
X21475Y-16912D01*
X21412Y-16850D01*
X21150Y-16850D01*
X21150Y-17212D01*
X21212Y-17275D01*
X21274Y-17275D01*
X21366Y-17237D01*
X21436Y-17166D01*
X21474Y-17074D01*
X21475Y-16975D01*
X21475Y-17300D01*
X20000Y-17300D01*
X19885Y-17322D01*
X19787Y-17387D01*
X18487Y-18687D01*
X18422Y-18785D01*
X18400Y-18900D01*
X18400Y-22500D01*
X18422Y-22614D01*
X18487Y-22712D01*
X18687Y-22912D01*
X18687Y-22912D01*
X18785Y-22977D01*
X18828Y-22985D01*
X18837Y-23008D01*
X18990Y-23161D01*
X19082Y-23199D01*
X18991Y-23237D01*
X18838Y-23390D01*
X18754Y-23591D01*
X18754Y-23807D01*
X18837Y-24008D01*
X18990Y-24161D01*
X19082Y-24199D01*
X18991Y-24237D01*
X18838Y-24390D01*
X18754Y-24591D01*
X18754Y-24807D01*
X18837Y-25008D01*
X18990Y-25161D01*
X19082Y-25199D01*
X18991Y-25237D01*
X18838Y-25390D01*
X18754Y-25591D01*
X18754Y-25807D01*
X18837Y-26008D01*
X18990Y-26161D01*
X19082Y-26199D01*
X18991Y-26237D01*
X18838Y-26390D01*
X18754Y-26591D01*
X18754Y-26807D01*
X18837Y-27008D01*
X18990Y-27161D01*
X19191Y-27245D01*
X19407Y-27245D01*
X19608Y-27162D01*
X19761Y-27009D01*
X19845Y-26808D01*
X19845Y-26748D01*
X19908Y-26811D01*
X20000Y-26849D01*
X20099Y-26850D01*
X20699Y-26850D01*
X20791Y-26812D01*
X20861Y-26741D01*
X20899Y-26649D01*
X20900Y-26550D01*
X20900Y-25750D01*
X20862Y-25658D01*
X20791Y-25588D01*
X20699Y-25550D01*
X20650Y-25550D01*
X20650Y-24845D01*
X20807Y-24845D01*
X21008Y-24762D01*
X21161Y-24609D01*
X21245Y-24408D01*
X21245Y-24192D01*
X21241Y-24182D01*
X21412Y-24012D01*
X21412Y-24012D01*
X21477Y-23914D01*
X21499Y-23800D01*
X21500Y-23800D01*
X21500Y-23324D01*
X22224Y-22600D01*
X23233Y-22600D01*
X23237Y-22608D01*
X23390Y-22761D01*
X23482Y-22799D01*
X23391Y-22837D01*
X23238Y-22990D01*
X23154Y-23191D01*
X23154Y-23407D01*
X23237Y-23608D01*
X23390Y-23761D01*
X23482Y-23799D01*
X23391Y-23837D01*
X23238Y-23990D01*
X23154Y-24191D01*
X23154Y-24407D01*
X23237Y-24608D01*
X23390Y-24761D01*
X23591Y-24845D01*
X23807Y-24845D01*
X24008Y-24762D01*
X24161Y-24609D01*
X24245Y-24408D01*
X24245Y-24192D01*
X24162Y-23991D01*
X24009Y-23838D01*
X23917Y-23800D01*
X24008Y-23762D01*
X24161Y-23609D01*
X24245Y-23408D01*
X24245Y-23192D01*
X24162Y-22991D01*
X24009Y-22838D01*
X23917Y-22800D01*
X24008Y-22762D01*
X24161Y-22609D01*
X24245Y-22408D01*
X24245Y-22192D01*
X24241Y-22182D01*
X24412Y-22012D01*
X24412Y-22012D01*
X24477Y-21914D01*
X24499Y-21800D01*
X24500Y-21800D01*
X24500Y-28150D01*
X24350Y-28150D01*
X24350Y-26450D01*
X24350Y-25949D01*
X24349Y-25850D01*
X24311Y-25758D01*
X24241Y-25687D01*
X24149Y-25649D01*
X23912Y-25650D01*
X23850Y-25712D01*
X23850Y-26150D01*
X24287Y-26150D01*
X24350Y-26087D01*
X24350Y-25949D01*
X24350Y-26450D01*
X24350Y-26312D01*
X24287Y-26250D01*
X23850Y-26250D01*
X23850Y-26687D01*
X23912Y-26750D01*
X24149Y-26750D01*
X24241Y-26712D01*
X24311Y-26641D01*
X24349Y-26549D01*
X24350Y-26450D01*
X24350Y-28150D01*
X23750Y-28150D01*
X23750Y-26687D01*
X23750Y-26250D01*
X23742Y-26250D01*
X23742Y-26150D01*
X23750Y-26150D01*
X23750Y-25712D01*
X23687Y-25650D01*
X23450Y-25649D01*
X23358Y-25687D01*
X23288Y-25758D01*
X23250Y-25850D01*
X23250Y-25872D01*
X23111Y-25734D01*
X22909Y-25650D01*
X22691Y-25649D01*
X22488Y-25733D01*
X22334Y-25888D01*
X22329Y-25900D01*
X22200Y-25900D01*
X22200Y-25750D01*
X22162Y-25658D01*
X22091Y-25588D01*
X21999Y-25550D01*
X21900Y-25549D01*
X21300Y-25549D01*
X21208Y-25587D01*
X21138Y-25658D01*
X21100Y-25750D01*
X21099Y-25849D01*
X21099Y-26649D01*
X21137Y-26741D01*
X21208Y-26811D01*
X21300Y-26849D01*
X21399Y-26850D01*
X21999Y-26850D01*
X22091Y-26812D01*
X22161Y-26741D01*
X22199Y-26649D01*
X22200Y-26550D01*
X22200Y-26500D01*
X22328Y-26500D01*
X22333Y-26511D01*
X22488Y-26665D01*
X22690Y-26749D01*
X22908Y-26750D01*
X23111Y-26666D01*
X23250Y-26527D01*
X23250Y-26549D01*
X23288Y-26641D01*
X23358Y-26712D01*
X23450Y-26750D01*
X23687Y-26750D01*
X23750Y-26687D01*
X23750Y-28150D01*
X17250Y-28150D01*
X17250Y-26780D01*
X17250Y-25780D01*
X17245Y-25688D01*
X17245Y-24592D01*
X17162Y-24391D01*
X17009Y-24238D01*
X16917Y-24200D01*
X17008Y-24162D01*
X17161Y-24009D01*
X17245Y-23808D01*
X17245Y-23592D01*
X17162Y-23391D01*
X17009Y-23238D01*
X16917Y-23200D01*
X17008Y-23162D01*
X17161Y-23009D01*
X17245Y-22808D01*
X17245Y-22592D01*
X17162Y-22391D01*
X17009Y-22238D01*
X16917Y-22200D01*
X17008Y-22162D01*
X17161Y-22009D01*
X17245Y-21808D01*
X17245Y-21592D01*
X17162Y-21391D01*
X17009Y-21238D01*
X16917Y-21200D01*
X17008Y-21162D01*
X17161Y-21009D01*
X17245Y-20808D01*
X17245Y-20592D01*
X17162Y-20391D01*
X17009Y-20238D01*
X16917Y-20200D01*
X17008Y-20162D01*
X17161Y-20009D01*
X17245Y-19808D01*
X17245Y-19592D01*
X17162Y-19391D01*
X17009Y-19238D01*
X16895Y-19190D01*
X16808Y-19154D01*
X16592Y-19154D01*
X16481Y-19200D01*
X16481Y-18251D01*
X15700Y-17470D01*
X15629Y-17541D01*
X14918Y-18251D01*
X15024Y-18414D01*
X15464Y-18595D01*
X15939Y-18594D01*
X16375Y-18414D01*
X16481Y-18251D01*
X16481Y-19200D01*
X16391Y-19237D01*
X16238Y-19390D01*
X16154Y-19591D01*
X16154Y-19651D01*
X16141Y-19638D01*
X16049Y-19600D01*
X15950Y-19599D01*
X15150Y-19599D01*
X15058Y-19637D01*
X14988Y-19708D01*
X14959Y-19777D01*
X14896Y-19714D01*
X14804Y-19676D01*
X14704Y-19676D01*
X13995Y-19676D01*
X13904Y-19714D01*
X13833Y-19784D01*
X13795Y-19876D01*
X13795Y-19976D01*
X13795Y-20605D01*
X13833Y-20696D01*
X13903Y-20767D01*
X13982Y-20800D01*
X13904Y-20832D01*
X13833Y-20902D01*
X13795Y-20994D01*
X13795Y-21094D01*
X13795Y-21723D01*
X13833Y-21814D01*
X13903Y-21885D01*
X13995Y-21923D01*
X14095Y-21923D01*
X14100Y-21923D01*
X14100Y-22128D01*
X14088Y-22133D01*
X13934Y-22288D01*
X13850Y-22490D01*
X13849Y-22708D01*
X13933Y-22911D01*
X14088Y-23065D01*
X14163Y-23097D01*
X14112Y-23118D01*
X14084Y-23214D01*
X14400Y-23529D01*
X14715Y-23214D01*
X14687Y-23118D01*
X14632Y-23099D01*
X14711Y-23066D01*
X14865Y-22911D01*
X14899Y-22830D01*
X14933Y-22911D01*
X15088Y-23065D01*
X15169Y-23099D01*
X15088Y-23133D01*
X14934Y-23288D01*
X14902Y-23363D01*
X14881Y-23312D01*
X14785Y-23284D01*
X14470Y-23600D01*
X14785Y-23915D01*
X14881Y-23887D01*
X14900Y-23832D01*
X14933Y-23911D01*
X15088Y-24065D01*
X15169Y-24099D01*
X15088Y-24133D01*
X14934Y-24288D01*
X14900Y-24369D01*
X14866Y-24288D01*
X14711Y-24134D01*
X14636Y-24102D01*
X14687Y-24081D01*
X14715Y-23985D01*
X14400Y-23670D01*
X14329Y-23741D01*
X14329Y-23600D01*
X14014Y-23284D01*
X13918Y-23312D01*
X13845Y-23518D01*
X13856Y-23736D01*
X13918Y-23887D01*
X14014Y-23915D01*
X14329Y-23600D01*
X14329Y-23741D01*
X14084Y-23985D01*
X14112Y-24081D01*
X14167Y-24100D01*
X14088Y-24133D01*
X13934Y-24288D01*
X13850Y-24490D01*
X13849Y-24708D01*
X13933Y-24911D01*
X14088Y-25065D01*
X14169Y-25099D01*
X14088Y-25133D01*
X13934Y-25288D01*
X13850Y-25490D01*
X13849Y-25708D01*
X13933Y-25911D01*
X14088Y-26065D01*
X14169Y-26099D01*
X14088Y-26133D01*
X13934Y-26288D01*
X13850Y-26490D01*
X13849Y-26708D01*
X13933Y-26911D01*
X14088Y-27065D01*
X14290Y-27149D01*
X14508Y-27150D01*
X14711Y-27066D01*
X14849Y-26927D01*
X14849Y-26949D01*
X14887Y-27041D01*
X14958Y-27111D01*
X15050Y-27149D01*
X15149Y-27150D01*
X15749Y-27150D01*
X15841Y-27112D01*
X15911Y-27041D01*
X15949Y-26949D01*
X15950Y-26850D01*
X15950Y-26250D01*
X15912Y-26158D01*
X15841Y-26088D01*
X15749Y-26050D01*
X15727Y-26050D01*
X15865Y-25911D01*
X15949Y-25709D01*
X15950Y-25491D01*
X15866Y-25288D01*
X15711Y-25134D01*
X15630Y-25100D01*
X15711Y-25066D01*
X15865Y-24911D01*
X15949Y-24709D01*
X15950Y-24491D01*
X15866Y-24288D01*
X15711Y-24134D01*
X15630Y-24100D01*
X15711Y-24066D01*
X15865Y-23911D01*
X15949Y-23709D01*
X15950Y-23491D01*
X15866Y-23288D01*
X15711Y-23134D01*
X15630Y-23100D01*
X15711Y-23066D01*
X15865Y-22911D01*
X15949Y-22709D01*
X15950Y-22491D01*
X15866Y-22288D01*
X15711Y-22134D01*
X15509Y-22050D01*
X15291Y-22049D01*
X15088Y-22133D01*
X14934Y-22288D01*
X14900Y-22369D01*
X14866Y-22288D01*
X14711Y-22134D01*
X14700Y-22129D01*
X14700Y-21923D01*
X14804Y-21923D01*
X14895Y-21885D01*
X14959Y-21822D01*
X14987Y-21891D01*
X15058Y-21961D01*
X15150Y-21999D01*
X15249Y-22000D01*
X15487Y-22000D01*
X15550Y-21937D01*
X15550Y-21500D01*
X15542Y-21500D01*
X15542Y-21400D01*
X15550Y-21400D01*
X15550Y-20962D01*
X15487Y-20900D01*
X15249Y-20899D01*
X15150Y-20900D01*
X15058Y-20938D01*
X15003Y-20992D01*
X14966Y-20903D01*
X14896Y-20832D01*
X14817Y-20799D01*
X14895Y-20767D01*
X14966Y-20697D01*
X15003Y-20607D01*
X15058Y-20661D01*
X15150Y-20699D01*
X15249Y-20700D01*
X16049Y-20700D01*
X16141Y-20662D01*
X16154Y-20648D01*
X16154Y-20807D01*
X16237Y-21008D01*
X16390Y-21161D01*
X16482Y-21199D01*
X16391Y-21237D01*
X16250Y-21378D01*
X16238Y-21390D01*
X16234Y-21399D01*
X16187Y-21399D01*
X16250Y-21337D01*
X16250Y-21100D01*
X16212Y-21008D01*
X16141Y-20938D01*
X16049Y-20900D01*
X15950Y-20899D01*
X15712Y-20900D01*
X15650Y-20962D01*
X15650Y-21400D01*
X15657Y-21400D01*
X15657Y-21500D01*
X15650Y-21500D01*
X15650Y-21937D01*
X15712Y-22000D01*
X15950Y-22000D01*
X16049Y-21999D01*
X16141Y-21961D01*
X16195Y-21907D01*
X16237Y-22008D01*
X16390Y-22161D01*
X16482Y-22199D01*
X16391Y-22237D01*
X16238Y-22390D01*
X16154Y-22591D01*
X16154Y-22807D01*
X16237Y-23008D01*
X16390Y-23161D01*
X16482Y-23199D01*
X16391Y-23237D01*
X16238Y-23390D01*
X16154Y-23591D01*
X16154Y-23807D01*
X16237Y-24008D01*
X16390Y-24161D01*
X16482Y-24199D01*
X16391Y-24237D01*
X16238Y-24390D01*
X16154Y-24591D01*
X16154Y-24807D01*
X16237Y-25008D01*
X16390Y-25161D01*
X16475Y-25197D01*
X16414Y-25222D01*
X16388Y-25317D01*
X16700Y-25629D01*
X17011Y-25317D01*
X16985Y-25222D01*
X16919Y-25199D01*
X17008Y-25162D01*
X17161Y-25009D01*
X17245Y-24808D01*
X17245Y-24592D01*
X17245Y-25688D01*
X17239Y-25563D01*
X17177Y-25414D01*
X17082Y-25388D01*
X16770Y-25700D01*
X17082Y-26011D01*
X17177Y-25985D01*
X17250Y-25780D01*
X17250Y-26780D01*
X17239Y-26563D01*
X17177Y-26414D01*
X17082Y-26388D01*
X17011Y-26458D01*
X17011Y-26317D01*
X16985Y-26222D01*
X16926Y-26201D01*
X16985Y-26177D01*
X17011Y-26082D01*
X16700Y-25770D01*
X16629Y-25841D01*
X16629Y-25700D01*
X16317Y-25388D01*
X16222Y-25414D01*
X16149Y-25619D01*
X16160Y-25836D01*
X16222Y-25985D01*
X16317Y-26011D01*
X16629Y-25700D01*
X16629Y-25841D01*
X16388Y-26082D01*
X16414Y-26177D01*
X16473Y-26198D01*
X16414Y-26222D01*
X16388Y-26317D01*
X16700Y-26629D01*
X17011Y-26317D01*
X17011Y-26458D01*
X16770Y-26700D01*
X17082Y-27011D01*
X17177Y-26985D01*
X17250Y-26780D01*
X17250Y-28150D01*
X17011Y-28150D01*
X17011Y-27082D01*
X16700Y-26770D01*
X16629Y-26841D01*
X16629Y-26700D01*
X16317Y-26388D01*
X16222Y-26414D01*
X16149Y-26619D01*
X16160Y-26836D01*
X16222Y-26985D01*
X16317Y-27011D01*
X16629Y-26700D01*
X16629Y-26841D01*
X16388Y-27082D01*
X16414Y-27177D01*
X16619Y-27250D01*
X16836Y-27239D01*
X16985Y-27177D01*
X17011Y-27082D01*
X17011Y-28150D01*
X13450Y-28150D01*
X13450Y-13850D01*
X35750Y-13850D01*
X35750Y-28150D01*
X35750Y-28150D01*
G37*
G54D25*
X35750Y-28150D02*
X35568Y-28150D01*
X35568Y-21400D01*
X35568Y-21400D01*
X35568Y-21400D01*
X35568Y-16600D01*
X35568Y-16599D01*
X35568Y-16599D01*
X35563Y-16576D01*
X35540Y-16459D01*
X35460Y-16339D01*
X35460Y-16339D01*
X34726Y-15605D01*
X34749Y-15549D01*
X34750Y-15251D01*
X34636Y-14975D01*
X34425Y-14764D01*
X34149Y-14650D01*
X33851Y-14649D01*
X33794Y-14673D01*
X33160Y-14039D01*
X33040Y-13959D01*
X32900Y-13931D01*
X21400Y-13931D01*
X21259Y-13959D01*
X21139Y-14039D01*
X20639Y-14539D01*
X20559Y-14659D01*
X20531Y-14800D01*
X20531Y-14919D01*
X20419Y-15031D01*
X18395Y-15031D01*
X18395Y-14405D01*
X18357Y-14313D01*
X18286Y-14243D01*
X18194Y-14205D01*
X18095Y-14204D01*
X16205Y-14204D01*
X16113Y-14242D01*
X16043Y-14313D01*
X16005Y-14405D01*
X16004Y-14504D01*
X16004Y-16233D01*
X15995Y-16229D01*
X15935Y-16204D01*
X15675Y-16205D01*
X15651Y-16181D01*
X15814Y-16075D01*
X15995Y-15635D01*
X15994Y-15160D01*
X15814Y-14724D01*
X15651Y-14618D01*
X15581Y-14689D01*
X15581Y-14548D01*
X15475Y-14385D01*
X15035Y-14204D01*
X14560Y-14205D01*
X14124Y-14385D01*
X14018Y-14548D01*
X14800Y-15329D01*
X15581Y-14548D01*
X15581Y-14689D01*
X14870Y-15400D01*
X14876Y-15405D01*
X14805Y-15476D01*
X14800Y-15470D01*
X14729Y-15541D01*
X14729Y-15400D01*
X13948Y-14618D01*
X13785Y-14724D01*
X13604Y-15164D01*
X13605Y-15639D01*
X13785Y-16075D01*
X13948Y-16181D01*
X14729Y-15400D01*
X14729Y-15541D01*
X14018Y-16251D01*
X14124Y-16414D01*
X14564Y-16595D01*
X14824Y-16594D01*
X14848Y-16618D01*
X14685Y-16724D01*
X14504Y-17164D01*
X14505Y-17639D01*
X14685Y-18075D01*
X14848Y-18181D01*
X15629Y-17400D01*
X15623Y-17394D01*
X15694Y-17323D01*
X15700Y-17329D01*
X15705Y-17323D01*
X15776Y-17394D01*
X15770Y-17400D01*
X16551Y-18181D01*
X16714Y-18075D01*
X16895Y-17635D01*
X16894Y-17160D01*
X16714Y-16724D01*
X16551Y-16618D01*
X16575Y-16595D01*
X18194Y-16595D01*
X18286Y-16557D01*
X18356Y-16486D01*
X18394Y-16394D01*
X18395Y-16295D01*
X18395Y-15768D01*
X20138Y-15768D01*
X20131Y-15800D01*
X20131Y-16508D01*
X20125Y-16525D01*
X20124Y-16624D01*
X20124Y-17074D01*
X20162Y-17166D01*
X20233Y-17236D01*
X20325Y-17274D01*
X20424Y-17275D01*
X20674Y-17275D01*
X20766Y-17237D01*
X20800Y-17203D01*
X20833Y-17237D01*
X20925Y-17275D01*
X20987Y-17275D01*
X21050Y-17212D01*
X21050Y-16850D01*
X21042Y-16850D01*
X21042Y-16750D01*
X21050Y-16750D01*
X21050Y-16387D01*
X20987Y-16325D01*
X20925Y-16324D01*
X20868Y-16348D01*
X20868Y-15999D01*
X21018Y-16000D01*
X21239Y-15908D01*
X21314Y-15834D01*
X21337Y-15891D01*
X21408Y-15961D01*
X21500Y-15999D01*
X21599Y-16000D01*
X21787Y-16000D01*
X21850Y-15937D01*
X21850Y-15450D01*
X21842Y-15450D01*
X21842Y-15350D01*
X21850Y-15350D01*
X21850Y-14862D01*
X21787Y-14800D01*
X21599Y-14799D01*
X21500Y-14800D01*
X21408Y-14838D01*
X21337Y-14908D01*
X21314Y-14965D01*
X21284Y-14935D01*
X21552Y-14668D01*
X25465Y-14668D01*
X25408Y-14828D01*
X25419Y-15045D01*
X25480Y-15194D01*
X25575Y-15221D01*
X25887Y-14909D01*
X25881Y-14903D01*
X25952Y-14833D01*
X25958Y-14838D01*
X25963Y-14833D01*
X26034Y-14903D01*
X26028Y-14909D01*
X26340Y-15221D01*
X26435Y-15194D01*
X26508Y-14990D01*
X26497Y-14773D01*
X26453Y-14668D01*
X30268Y-14668D01*
X30211Y-14828D01*
X30222Y-15045D01*
X30284Y-15194D01*
X30378Y-15221D01*
X30690Y-14909D01*
X30685Y-14903D01*
X30755Y-14833D01*
X30761Y-14838D01*
X30766Y-14833D01*
X30837Y-14903D01*
X30832Y-14909D01*
X31143Y-15221D01*
X31238Y-15194D01*
X31311Y-14990D01*
X31300Y-14773D01*
X31256Y-14668D01*
X32747Y-14668D01*
X33273Y-15194D01*
X33250Y-15250D01*
X33249Y-15548D01*
X33363Y-15824D01*
X33574Y-16035D01*
X33850Y-16149D01*
X34148Y-16150D01*
X34205Y-16126D01*
X34831Y-16752D01*
X34831Y-18534D01*
X34750Y-18500D01*
X34750Y-17850D01*
X34750Y-16850D01*
X34712Y-16758D01*
X34641Y-16688D01*
X34549Y-16650D01*
X34450Y-16649D01*
X33450Y-16649D01*
X33358Y-16687D01*
X33288Y-16758D01*
X33250Y-16850D01*
X33249Y-16949D01*
X33249Y-17949D01*
X33287Y-18041D01*
X33358Y-18111D01*
X33450Y-18149D01*
X33549Y-18150D01*
X34549Y-18150D01*
X34641Y-18112D01*
X34711Y-18041D01*
X34749Y-17949D01*
X34750Y-17850D01*
X34750Y-18500D01*
X34749Y-18500D01*
X34650Y-18499D01*
X34412Y-18500D01*
X34350Y-18562D01*
X34350Y-19000D01*
X34357Y-19000D01*
X34357Y-19100D01*
X34350Y-19100D01*
X34350Y-19537D01*
X34412Y-19600D01*
X34650Y-19600D01*
X34749Y-19599D01*
X34831Y-19565D01*
X34831Y-19834D01*
X34749Y-19800D01*
X34650Y-19799D01*
X33850Y-19799D01*
X33758Y-19837D01*
X33703Y-19892D01*
X33666Y-19803D01*
X33596Y-19732D01*
X33517Y-19699D01*
X33595Y-19667D01*
X33666Y-19597D01*
X33703Y-19507D01*
X33758Y-19561D01*
X33850Y-19599D01*
X33949Y-19600D01*
X34187Y-19600D01*
X34250Y-19537D01*
X34250Y-19100D01*
X34242Y-19100D01*
X34242Y-19000D01*
X34250Y-19000D01*
X34250Y-18562D01*
X34187Y-18500D01*
X33949Y-18499D01*
X33850Y-18500D01*
X33758Y-18538D01*
X33687Y-18608D01*
X33659Y-18677D01*
X33596Y-18614D01*
X33504Y-18576D01*
X33404Y-18576D01*
X32695Y-18576D01*
X32604Y-18614D01*
X32533Y-18684D01*
X32495Y-18776D01*
X32495Y-18841D01*
X31073Y-18841D01*
X31073Y-15291D01*
X30761Y-14980D01*
X30449Y-15291D01*
X30476Y-15386D01*
X30680Y-15459D01*
X30897Y-15448D01*
X31046Y-15386D01*
X31073Y-15291D01*
X31073Y-18841D01*
X26766Y-18841D01*
X26651Y-18863D01*
X26553Y-18928D01*
X26270Y-19212D01*
X26270Y-15291D01*
X25958Y-14980D01*
X25646Y-15291D01*
X25673Y-15386D01*
X25877Y-15459D01*
X26094Y-15448D01*
X26243Y-15386D01*
X26270Y-15291D01*
X26270Y-19212D01*
X26075Y-19407D01*
X26067Y-19403D01*
X25850Y-19403D01*
X25649Y-19486D01*
X25602Y-19533D01*
X25602Y-17529D01*
X25591Y-17312D01*
X25530Y-17163D01*
X25435Y-17137D01*
X25364Y-17207D01*
X25364Y-17066D01*
X25337Y-16971D01*
X25133Y-16898D01*
X24916Y-16909D01*
X24767Y-16971D01*
X24740Y-17066D01*
X25052Y-17378D01*
X25364Y-17066D01*
X25364Y-17207D01*
X25123Y-17448D01*
X25435Y-17760D01*
X25530Y-17733D01*
X25602Y-17529D01*
X25602Y-19533D01*
X25496Y-19639D01*
X25413Y-19839D01*
X25412Y-20056D01*
X25495Y-20257D01*
X25648Y-20410D01*
X25849Y-20493D01*
X26066Y-20494D01*
X26266Y-20411D01*
X26420Y-20258D01*
X26503Y-20057D01*
X26503Y-19840D01*
X26499Y-19831D01*
X26890Y-19441D01*
X30562Y-19441D01*
X30452Y-19486D01*
X30299Y-19639D01*
X30216Y-19839D01*
X30216Y-20056D01*
X30298Y-20257D01*
X30452Y-20410D01*
X30652Y-20493D01*
X30869Y-20494D01*
X31069Y-20411D01*
X31223Y-20258D01*
X31306Y-20057D01*
X31306Y-19840D01*
X31223Y-19640D01*
X31070Y-19486D01*
X30960Y-19441D01*
X32495Y-19441D01*
X32495Y-19505D01*
X32533Y-19596D01*
X32603Y-19667D01*
X32682Y-19700D01*
X32604Y-19732D01*
X32533Y-19802D01*
X32495Y-19894D01*
X32495Y-19994D01*
X32495Y-20623D01*
X32533Y-20714D01*
X32603Y-20785D01*
X32695Y-20823D01*
X32795Y-20823D01*
X33504Y-20823D01*
X33595Y-20785D01*
X33659Y-20722D01*
X33687Y-20791D01*
X33758Y-20861D01*
X33850Y-20899D01*
X33949Y-20900D01*
X34749Y-20900D01*
X34831Y-20866D01*
X34831Y-21247D01*
X34520Y-21559D01*
X34425Y-21464D01*
X34149Y-21350D01*
X33851Y-21349D01*
X33575Y-21463D01*
X33364Y-21674D01*
X33250Y-21950D01*
X33249Y-22248D01*
X33363Y-22524D01*
X33574Y-22735D01*
X33850Y-22849D01*
X34148Y-22850D01*
X34424Y-22736D01*
X34635Y-22525D01*
X34682Y-22412D01*
X34760Y-22360D01*
X35460Y-21660D01*
X35460Y-21660D01*
X35460Y-21660D01*
X35540Y-21540D01*
X35568Y-21400D01*
X35568Y-28150D01*
X34950Y-28150D01*
X34950Y-27300D01*
X34950Y-26700D01*
X34950Y-26099D01*
X34950Y-25400D01*
X34912Y-25308D01*
X34841Y-25238D01*
X34750Y-25200D01*
X34750Y-24550D01*
X34750Y-23550D01*
X34712Y-23458D01*
X34641Y-23388D01*
X34549Y-23350D01*
X34450Y-23349D01*
X33450Y-23349D01*
X33358Y-23387D01*
X33288Y-23458D01*
X33250Y-23550D01*
X33249Y-23649D01*
X33249Y-24649D01*
X33287Y-24741D01*
X33358Y-24811D01*
X33450Y-24849D01*
X33549Y-24850D01*
X34549Y-24850D01*
X34641Y-24812D01*
X34711Y-24741D01*
X34749Y-24649D01*
X34750Y-24550D01*
X34750Y-25200D01*
X34749Y-25200D01*
X34650Y-25199D01*
X34412Y-25200D01*
X34350Y-25262D01*
X34350Y-25700D01*
X34887Y-25700D01*
X34950Y-25637D01*
X34950Y-25400D01*
X34950Y-26099D01*
X34950Y-25862D01*
X34887Y-25800D01*
X34350Y-25800D01*
X34350Y-26237D01*
X34412Y-26300D01*
X34650Y-26300D01*
X34749Y-26299D01*
X34841Y-26261D01*
X34912Y-26191D01*
X34950Y-26099D01*
X34950Y-26700D01*
X34912Y-26608D01*
X34841Y-26538D01*
X34749Y-26500D01*
X34650Y-26499D01*
X33850Y-26499D01*
X33758Y-26537D01*
X33703Y-26592D01*
X33666Y-26503D01*
X33596Y-26432D01*
X33517Y-26399D01*
X33595Y-26367D01*
X33666Y-26297D01*
X33703Y-26207D01*
X33758Y-26261D01*
X33850Y-26299D01*
X33949Y-26300D01*
X34187Y-26300D01*
X34250Y-26237D01*
X34250Y-25800D01*
X34242Y-25800D01*
X34242Y-25700D01*
X34250Y-25700D01*
X34250Y-25262D01*
X34187Y-25200D01*
X33949Y-25199D01*
X33850Y-25200D01*
X33758Y-25238D01*
X33687Y-25308D01*
X33659Y-25377D01*
X33596Y-25314D01*
X33504Y-25276D01*
X33404Y-25276D01*
X32695Y-25276D01*
X32604Y-25314D01*
X32533Y-25384D01*
X32495Y-25476D01*
X32495Y-25541D01*
X31411Y-25541D01*
X31411Y-21690D01*
X31400Y-21473D01*
X31338Y-21324D01*
X31243Y-21297D01*
X31173Y-21368D01*
X31173Y-21226D01*
X31146Y-21132D01*
X30942Y-21059D01*
X30725Y-21070D01*
X30576Y-21132D01*
X30549Y-21226D01*
X30861Y-21538D01*
X31173Y-21226D01*
X31173Y-21368D01*
X30932Y-21609D01*
X31243Y-21921D01*
X31338Y-21894D01*
X31411Y-21690D01*
X31411Y-25541D01*
X31173Y-25541D01*
X31173Y-21991D01*
X30861Y-21680D01*
X30790Y-21750D01*
X30790Y-21609D01*
X30478Y-21297D01*
X30384Y-21324D01*
X30311Y-21528D01*
X30322Y-21745D01*
X30384Y-21894D01*
X30478Y-21921D01*
X30790Y-21609D01*
X30790Y-21750D01*
X30549Y-21991D01*
X30576Y-22086D01*
X30780Y-22159D01*
X30997Y-22148D01*
X31146Y-22086D01*
X31173Y-21991D01*
X31173Y-25541D01*
X26866Y-25541D01*
X26751Y-25563D01*
X26653Y-25628D01*
X26608Y-25674D01*
X26608Y-21690D01*
X26597Y-21473D01*
X26535Y-21324D01*
X26440Y-21297D01*
X26370Y-21368D01*
X26370Y-21226D01*
X26343Y-21132D01*
X26138Y-21059D01*
X25922Y-21070D01*
X25773Y-21132D01*
X25746Y-21226D01*
X26058Y-21538D01*
X26370Y-21226D01*
X26370Y-21368D01*
X26128Y-21609D01*
X26440Y-21921D01*
X26535Y-21894D01*
X26608Y-21690D01*
X26608Y-25674D01*
X26370Y-25912D01*
X26370Y-21991D01*
X26058Y-21680D01*
X25987Y-21750D01*
X25987Y-21609D01*
X25675Y-21297D01*
X25580Y-21324D01*
X25508Y-21528D01*
X25519Y-21745D01*
X25580Y-21894D01*
X25675Y-21921D01*
X25987Y-21609D01*
X25987Y-21750D01*
X25746Y-21991D01*
X25773Y-22086D01*
X25977Y-22159D01*
X26194Y-22148D01*
X26343Y-22086D01*
X26370Y-21991D01*
X26370Y-25912D01*
X26175Y-26107D01*
X26167Y-26103D01*
X25950Y-26103D01*
X25749Y-26186D01*
X25702Y-26233D01*
X25702Y-24229D01*
X25691Y-24012D01*
X25630Y-23863D01*
X25535Y-23837D01*
X25464Y-23907D01*
X25464Y-23766D01*
X25437Y-23671D01*
X25364Y-23645D01*
X25364Y-17831D01*
X25052Y-17519D01*
X24982Y-17590D01*
X24982Y-17448D01*
X24670Y-17137D01*
X24575Y-17163D01*
X24502Y-17368D01*
X24513Y-17584D01*
X24575Y-17733D01*
X24670Y-17760D01*
X24982Y-17448D01*
X24982Y-17590D01*
X24740Y-17831D01*
X24767Y-17926D01*
X24972Y-17998D01*
X25188Y-17987D01*
X25337Y-17926D01*
X25364Y-17831D01*
X25364Y-23645D01*
X25233Y-23598D01*
X25016Y-23609D01*
X24867Y-23671D01*
X24840Y-23766D01*
X25152Y-24078D01*
X25464Y-23766D01*
X25464Y-23907D01*
X25223Y-24148D01*
X25535Y-24460D01*
X25630Y-24433D01*
X25702Y-24229D01*
X25702Y-26233D01*
X25596Y-26339D01*
X25513Y-26539D01*
X25512Y-26756D01*
X25595Y-26957D01*
X25748Y-27110D01*
X25949Y-27193D01*
X26166Y-27194D01*
X26366Y-27111D01*
X26520Y-26958D01*
X26603Y-26757D01*
X26603Y-26540D01*
X26599Y-26531D01*
X26990Y-26141D01*
X30662Y-26141D01*
X30552Y-26186D01*
X30399Y-26339D01*
X30316Y-26539D01*
X30316Y-26756D01*
X30398Y-26957D01*
X30552Y-27110D01*
X30752Y-27193D01*
X30969Y-27194D01*
X31169Y-27111D01*
X31323Y-26958D01*
X31406Y-26757D01*
X31406Y-26540D01*
X31323Y-26340D01*
X31170Y-26186D01*
X31060Y-26141D01*
X32495Y-26141D01*
X32495Y-26205D01*
X32533Y-26296D01*
X32603Y-26367D01*
X32682Y-26400D01*
X32604Y-26432D01*
X32533Y-26502D01*
X32495Y-26594D01*
X32495Y-26694D01*
X32495Y-27323D01*
X32533Y-27414D01*
X32603Y-27485D01*
X32695Y-27523D01*
X32795Y-27523D01*
X33504Y-27523D01*
X33595Y-27485D01*
X33659Y-27422D01*
X33687Y-27491D01*
X33758Y-27561D01*
X33850Y-27599D01*
X33949Y-27600D01*
X34749Y-27600D01*
X34841Y-27562D01*
X34911Y-27491D01*
X34949Y-27399D01*
X34950Y-27300D01*
X34950Y-28150D01*
X25464Y-28150D01*
X25464Y-24531D01*
X25152Y-24219D01*
X25082Y-24290D01*
X25082Y-24148D01*
X24770Y-23837D01*
X24675Y-23863D01*
X24602Y-24068D01*
X24613Y-24284D01*
X24675Y-24433D01*
X24770Y-24460D01*
X25082Y-24148D01*
X25082Y-24290D01*
X24840Y-24531D01*
X24867Y-24626D01*
X25072Y-24698D01*
X25288Y-24687D01*
X25437Y-24626D01*
X25464Y-24531D01*
X25464Y-28150D01*
X24500Y-28150D01*
X24500Y-21800D01*
X24500Y-17400D01*
X24477Y-17285D01*
X24412Y-17187D01*
X24412Y-17187D01*
X23812Y-16587D01*
X23714Y-16522D01*
X23670Y-16513D01*
X23637Y-16433D01*
X23600Y-16396D01*
X23600Y-16000D01*
X23599Y-15999D01*
X23577Y-15885D01*
X23512Y-15787D01*
X23512Y-15787D01*
X23424Y-15700D01*
X23499Y-15519D01*
X23500Y-15281D01*
X23408Y-15060D01*
X23240Y-14891D01*
X23019Y-14800D01*
X22781Y-14799D01*
X22560Y-14891D01*
X22485Y-14965D01*
X22462Y-14908D01*
X22391Y-14838D01*
X22299Y-14800D01*
X22200Y-14799D01*
X22012Y-14800D01*
X21950Y-14862D01*
X21950Y-15350D01*
X21957Y-15350D01*
X21957Y-15450D01*
X21950Y-15450D01*
X21950Y-15937D01*
X22012Y-16000D01*
X22200Y-16000D01*
X22299Y-15999D01*
X22391Y-15961D01*
X22462Y-15891D01*
X22485Y-15834D01*
X22559Y-15908D01*
X22780Y-15999D01*
X22875Y-15999D01*
X23000Y-16124D01*
X23000Y-16396D01*
X22966Y-16362D01*
X22874Y-16324D01*
X22812Y-16325D01*
X22750Y-16387D01*
X22750Y-16750D01*
X22757Y-16750D01*
X22757Y-16850D01*
X22750Y-16850D01*
X22750Y-17212D01*
X22812Y-17275D01*
X22874Y-17275D01*
X22966Y-17237D01*
X22999Y-17203D01*
X23033Y-17236D01*
X23125Y-17274D01*
X23224Y-17275D01*
X23474Y-17275D01*
X23566Y-17237D01*
X23589Y-17213D01*
X23900Y-17524D01*
X23900Y-17792D01*
X23808Y-17754D01*
X23592Y-17754D01*
X23582Y-17758D01*
X23212Y-17387D01*
X23114Y-17322D01*
X23000Y-17300D01*
X22650Y-17300D01*
X22650Y-17212D01*
X22650Y-16850D01*
X22650Y-16750D01*
X22650Y-16387D01*
X22587Y-16325D01*
X22525Y-16324D01*
X22433Y-16362D01*
X22363Y-16433D01*
X22325Y-16525D01*
X22324Y-16624D01*
X22325Y-16687D01*
X22387Y-16750D01*
X22650Y-16750D01*
X22650Y-16850D01*
X22387Y-16850D01*
X22325Y-16912D01*
X22324Y-16975D01*
X22325Y-17074D01*
X22363Y-17166D01*
X22433Y-17237D01*
X22525Y-17275D01*
X22587Y-17275D01*
X22650Y-17212D01*
X22650Y-17300D01*
X21475Y-17300D01*
X21475Y-16975D01*
X21475Y-16624D01*
X21474Y-16525D01*
X21436Y-16433D01*
X21366Y-16362D01*
X21274Y-16324D01*
X21212Y-16325D01*
X21150Y-16387D01*
X21150Y-16750D01*
X21412Y-16750D01*
X21475Y-16687D01*
X21475Y-16624D01*
X21475Y-16975D01*
X21475Y-16912D01*
X21412Y-16850D01*
X21150Y-16850D01*
X21150Y-17212D01*
X21212Y-17275D01*
X21274Y-17275D01*
X21366Y-17237D01*
X21436Y-17166D01*
X21474Y-17074D01*
X21475Y-16975D01*
X21475Y-17300D01*
X20000Y-17300D01*
X19885Y-17322D01*
X19787Y-17387D01*
X18487Y-18687D01*
X18422Y-18785D01*
X18400Y-18900D01*
X18400Y-22500D01*
X18422Y-22614D01*
X18487Y-22712D01*
X18687Y-22912D01*
X18687Y-22912D01*
X18785Y-22977D01*
X18828Y-22985D01*
X18837Y-23008D01*
X18990Y-23161D01*
X19082Y-23199D01*
X18991Y-23237D01*
X18838Y-23390D01*
X18754Y-23591D01*
X18754Y-23807D01*
X18837Y-24008D01*
X18990Y-24161D01*
X19082Y-24199D01*
X18991Y-24237D01*
X18838Y-24390D01*
X18754Y-24591D01*
X18754Y-24807D01*
X18837Y-25008D01*
X18990Y-25161D01*
X19082Y-25199D01*
X18991Y-25237D01*
X18838Y-25390D01*
X18754Y-25591D01*
X18754Y-25807D01*
X18837Y-26008D01*
X18990Y-26161D01*
X19082Y-26199D01*
X18991Y-26237D01*
X18838Y-26390D01*
X18754Y-26591D01*
X18754Y-26807D01*
X18837Y-27008D01*
X18990Y-27161D01*
X19191Y-27245D01*
X19407Y-27245D01*
X19608Y-27162D01*
X19761Y-27009D01*
X19845Y-26808D01*
X19845Y-26748D01*
X19908Y-26811D01*
X20000Y-26849D01*
X20099Y-26850D01*
X20699Y-26850D01*
X20791Y-26812D01*
X20861Y-26741D01*
X20899Y-26649D01*
X20900Y-26550D01*
X20900Y-25750D01*
X20862Y-25658D01*
X20791Y-25588D01*
X20699Y-25550D01*
X20650Y-25550D01*
X20650Y-24845D01*
X20807Y-24845D01*
X21008Y-24762D01*
X21161Y-24609D01*
X21245Y-24408D01*
X21245Y-24192D01*
X21241Y-24182D01*
X21412Y-24012D01*
X21412Y-24012D01*
X21477Y-23914D01*
X21499Y-23800D01*
X21500Y-23800D01*
X21500Y-23324D01*
X22224Y-22600D01*
X23233Y-22600D01*
X23237Y-22608D01*
X23390Y-22761D01*
X23482Y-22799D01*
X23391Y-22837D01*
X23238Y-22990D01*
X23154Y-23191D01*
X23154Y-23407D01*
X23237Y-23608D01*
X23390Y-23761D01*
X23482Y-23799D01*
X23391Y-23837D01*
X23238Y-23990D01*
X23154Y-24191D01*
X23154Y-24407D01*
X23237Y-24608D01*
X23390Y-24761D01*
X23591Y-24845D01*
X23807Y-24845D01*
X24008Y-24762D01*
X24161Y-24609D01*
X24245Y-24408D01*
X24245Y-24192D01*
X24162Y-23991D01*
X24009Y-23838D01*
X23917Y-23800D01*
X24008Y-23762D01*
X24161Y-23609D01*
X24245Y-23408D01*
X24245Y-23192D01*
X24162Y-22991D01*
X24009Y-22838D01*
X23917Y-22800D01*
X24008Y-22762D01*
X24161Y-22609D01*
X24245Y-22408D01*
X24245Y-22192D01*
X24241Y-22182D01*
X24412Y-22012D01*
X24412Y-22012D01*
X24477Y-21914D01*
X24499Y-21800D01*
X24500Y-21800D01*
X24500Y-28150D01*
X24350Y-28150D01*
X24350Y-26450D01*
X24350Y-25949D01*
X24349Y-25850D01*
X24311Y-25758D01*
X24241Y-25687D01*
X24149Y-25649D01*
X23912Y-25650D01*
X23850Y-25712D01*
X23850Y-26150D01*
X24287Y-26150D01*
X24350Y-26087D01*
X24350Y-25949D01*
X24350Y-26450D01*
X24350Y-26312D01*
X24287Y-26250D01*
X23850Y-26250D01*
X23850Y-26687D01*
X23912Y-26750D01*
X24149Y-26750D01*
X24241Y-26712D01*
X24311Y-26641D01*
X24349Y-26549D01*
X24350Y-26450D01*
X24350Y-28150D01*
X23750Y-28150D01*
X23750Y-26687D01*
X23750Y-26250D01*
X23742Y-26250D01*
X23742Y-26150D01*
X23750Y-26150D01*
X23750Y-25712D01*
X23687Y-25650D01*
X23450Y-25649D01*
X23358Y-25687D01*
X23288Y-25758D01*
X23250Y-25850D01*
X23250Y-25872D01*
X23111Y-25734D01*
X22909Y-25650D01*
X22691Y-25649D01*
X22488Y-25733D01*
X22334Y-25888D01*
X22329Y-25900D01*
X22200Y-25900D01*
X22200Y-25750D01*
X22162Y-25658D01*
X22091Y-25588D01*
X21999Y-25550D01*
X21900Y-25549D01*
X21300Y-25549D01*
X21208Y-25587D01*
X21138Y-25658D01*
X21100Y-25750D01*
X21099Y-25849D01*
X21099Y-26649D01*
X21137Y-26741D01*
X21208Y-26811D01*
X21300Y-26849D01*
X21399Y-26850D01*
X21999Y-26850D01*
X22091Y-26812D01*
X22161Y-26741D01*
X22199Y-26649D01*
X22200Y-26550D01*
X22200Y-26500D01*
X22328Y-26500D01*
X22333Y-26511D01*
X22488Y-26665D01*
X22690Y-26749D01*
X22908Y-26750D01*
X23111Y-26666D01*
X23250Y-26527D01*
X23250Y-26549D01*
X23288Y-26641D01*
X23358Y-26712D01*
X23450Y-26750D01*
X23687Y-26750D01*
X23750Y-26687D01*
X23750Y-28150D01*
X17250Y-28150D01*
X17250Y-26780D01*
X17250Y-25780D01*
X17245Y-25688D01*
X17245Y-24592D01*
X17162Y-24391D01*
X17009Y-24238D01*
X16917Y-24200D01*
X17008Y-24162D01*
X17161Y-24009D01*
X17245Y-23808D01*
X17245Y-23592D01*
X17162Y-23391D01*
X17009Y-23238D01*
X16917Y-23200D01*
X17008Y-23162D01*
X17161Y-23009D01*
X17245Y-22808D01*
X17245Y-22592D01*
X17162Y-22391D01*
X17009Y-22238D01*
X16917Y-22200D01*
X17008Y-22162D01*
X17161Y-22009D01*
X17245Y-21808D01*
X17245Y-21592D01*
X17162Y-21391D01*
X17009Y-21238D01*
X16917Y-21200D01*
X17008Y-21162D01*
X17161Y-21009D01*
X17245Y-20808D01*
X17245Y-20592D01*
X17162Y-20391D01*
X17009Y-20238D01*
X16917Y-20200D01*
X17008Y-20162D01*
X17161Y-20009D01*
X17245Y-19808D01*
X17245Y-19592D01*
X17162Y-19391D01*
X17009Y-19238D01*
X16895Y-19190D01*
X16808Y-19154D01*
X16592Y-19154D01*
X16481Y-19200D01*
X16481Y-18251D01*
X15700Y-17470D01*
X15629Y-17541D01*
X14918Y-18251D01*
X15024Y-18414D01*
X15464Y-18595D01*
X15939Y-18594D01*
X16375Y-18414D01*
X16481Y-18251D01*
X16481Y-19200D01*
X16391Y-19237D01*
X16238Y-19390D01*
X16154Y-19591D01*
X16154Y-19651D01*
X16141Y-19638D01*
X16049Y-19600D01*
X15950Y-19599D01*
X15150Y-19599D01*
X15058Y-19637D01*
X14988Y-19708D01*
X14959Y-19777D01*
X14896Y-19714D01*
X14804Y-19676D01*
X14704Y-19676D01*
X13995Y-19676D01*
X13904Y-19714D01*
X13833Y-19784D01*
X13795Y-19876D01*
X13795Y-19976D01*
X13795Y-20605D01*
X13833Y-20696D01*
X13903Y-20767D01*
X13982Y-20800D01*
X13904Y-20832D01*
X13833Y-20902D01*
X13795Y-20994D01*
X13795Y-21094D01*
X13795Y-21723D01*
X13833Y-21814D01*
X13903Y-21885D01*
X13995Y-21923D01*
X14095Y-21923D01*
X14100Y-21923D01*
X14100Y-22128D01*
X14088Y-22133D01*
X13934Y-22288D01*
X13850Y-22490D01*
X13849Y-22708D01*
X13933Y-22911D01*
X14088Y-23065D01*
X14163Y-23097D01*
X14112Y-23118D01*
X14084Y-23214D01*
X14400Y-23529D01*
X14715Y-23214D01*
X14687Y-23118D01*
X14632Y-23099D01*
X14711Y-23066D01*
X14865Y-22911D01*
X14899Y-22830D01*
X14933Y-22911D01*
X15088Y-23065D01*
X15169Y-23099D01*
X15088Y-23133D01*
X14934Y-23288D01*
X14902Y-23363D01*
X14881Y-23312D01*
X14785Y-23284D01*
X14470Y-23600D01*
X14785Y-23915D01*
X14881Y-23887D01*
X14900Y-23832D01*
X14933Y-23911D01*
X15088Y-24065D01*
X15169Y-24099D01*
X15088Y-24133D01*
X14934Y-24288D01*
X14900Y-24369D01*
X14866Y-24288D01*
X14711Y-24134D01*
X14636Y-24102D01*
X14687Y-24081D01*
X14715Y-23985D01*
X14400Y-23670D01*
X14329Y-23741D01*
X14329Y-23600D01*
X14014Y-23284D01*
X13918Y-23312D01*
X13845Y-23518D01*
X13856Y-23736D01*
X13918Y-23887D01*
X14014Y-23915D01*
X14329Y-23600D01*
X14329Y-23741D01*
X14084Y-23985D01*
X14112Y-24081D01*
X14167Y-24100D01*
X14088Y-24133D01*
X13934Y-24288D01*
X13850Y-24490D01*
X13849Y-24708D01*
X13933Y-24911D01*
X14088Y-25065D01*
X14169Y-25099D01*
X14088Y-25133D01*
X13934Y-25288D01*
X13850Y-25490D01*
X13849Y-25708D01*
X13933Y-25911D01*
X14088Y-26065D01*
X14169Y-26099D01*
X14088Y-26133D01*
X13934Y-26288D01*
X13850Y-26490D01*
X13849Y-26708D01*
X13933Y-26911D01*
X14088Y-27065D01*
X14290Y-27149D01*
X14508Y-27150D01*
X14711Y-27066D01*
X14849Y-26927D01*
X14849Y-26949D01*
X14887Y-27041D01*
X14958Y-27111D01*
X15050Y-27149D01*
X15149Y-27150D01*
X15749Y-27150D01*
X15841Y-27112D01*
X15911Y-27041D01*
X15949Y-26949D01*
X15950Y-26850D01*
X15950Y-26250D01*
X15912Y-26158D01*
X15841Y-26088D01*
X15749Y-26050D01*
X15727Y-26050D01*
X15865Y-25911D01*
X15949Y-25709D01*
X15950Y-25491D01*
X15866Y-25288D01*
X15711Y-25134D01*
X15630Y-25100D01*
X15711Y-25066D01*
X15865Y-24911D01*
X15949Y-24709D01*
X15950Y-24491D01*
X15866Y-24288D01*
X15711Y-24134D01*
X15630Y-24100D01*
X15711Y-24066D01*
X15865Y-23911D01*
X15949Y-23709D01*
X15950Y-23491D01*
X15866Y-23288D01*
X15711Y-23134D01*
X15630Y-23100D01*
X15711Y-23066D01*
X15865Y-22911D01*
X15949Y-22709D01*
X15950Y-22491D01*
X15866Y-22288D01*
X15711Y-22134D01*
X15509Y-22050D01*
X15291Y-22049D01*
X15088Y-22133D01*
X14934Y-22288D01*
X14900Y-22369D01*
X14866Y-22288D01*
X14711Y-22134D01*
X14700Y-22129D01*
X14700Y-21923D01*
X14804Y-21923D01*
X14895Y-21885D01*
X14959Y-21822D01*
X14987Y-21891D01*
X15058Y-21961D01*
X15150Y-21999D01*
X15249Y-22000D01*
X15487Y-22000D01*
X15550Y-21937D01*
X15550Y-21500D01*
X15542Y-21500D01*
X15542Y-21400D01*
X15550Y-21400D01*
X15550Y-20962D01*
X15487Y-20900D01*
X15249Y-20899D01*
X15150Y-20900D01*
X15058Y-20938D01*
X15003Y-20992D01*
X14966Y-20903D01*
X14896Y-20832D01*
X14817Y-20799D01*
X14895Y-20767D01*
X14966Y-20697D01*
X15003Y-20607D01*
X15058Y-20661D01*
X15150Y-20699D01*
X15249Y-20700D01*
X16049Y-20700D01*
X16141Y-20662D01*
X16154Y-20648D01*
X16154Y-20807D01*
X16237Y-21008D01*
X16390Y-21161D01*
X16482Y-21199D01*
X16391Y-21237D01*
X16250Y-21378D01*
X16238Y-21390D01*
X16234Y-21399D01*
X16187Y-21399D01*
X16250Y-21337D01*
X16250Y-21100D01*
X16212Y-21008D01*
X16141Y-20938D01*
X16049Y-20900D01*
X15950Y-20899D01*
X15712Y-20900D01*
X15650Y-20962D01*
X15650Y-21400D01*
X15657Y-21400D01*
X15657Y-21500D01*
X15650Y-21500D01*
X15650Y-21937D01*
X15712Y-22000D01*
X15950Y-22000D01*
X16049Y-21999D01*
X16141Y-21961D01*
X16195Y-21907D01*
X16237Y-22008D01*
X16390Y-22161D01*
X16482Y-22199D01*
X16391Y-22237D01*
X16238Y-22390D01*
X16154Y-22591D01*
X16154Y-22807D01*
X16237Y-23008D01*
X16390Y-23161D01*
X16482Y-23199D01*
X16391Y-23237D01*
X16238Y-23390D01*
X16154Y-23591D01*
X16154Y-23807D01*
X16237Y-24008D01*
X16390Y-24161D01*
X16482Y-24199D01*
X16391Y-24237D01*
X16238Y-24390D01*
X16154Y-24591D01*
X16154Y-24807D01*
X16237Y-25008D01*
X16390Y-25161D01*
X16475Y-25197D01*
X16414Y-25222D01*
X16388Y-25317D01*
X16700Y-25629D01*
X17011Y-25317D01*
X16985Y-25222D01*
X16919Y-25199D01*
X17008Y-25162D01*
X17161Y-25009D01*
X17245Y-24808D01*
X17245Y-24592D01*
X17245Y-25688D01*
X17239Y-25563D01*
X17177Y-25414D01*
X17082Y-25388D01*
X16770Y-25700D01*
X17082Y-26011D01*
X17177Y-25985D01*
X17250Y-25780D01*
X17250Y-26780D01*
X17239Y-26563D01*
X17177Y-26414D01*
X17082Y-26388D01*
X17011Y-26458D01*
X17011Y-26317D01*
X16985Y-26222D01*
X16926Y-26201D01*
X16985Y-26177D01*
X17011Y-26082D01*
X16700Y-25770D01*
X16629Y-25841D01*
X16629Y-25700D01*
X16317Y-25388D01*
X16222Y-25414D01*
X16149Y-25619D01*
X16160Y-25836D01*
X16222Y-25985D01*
X16317Y-26011D01*
X16629Y-25700D01*
X16629Y-25841D01*
X16388Y-26082D01*
X16414Y-26177D01*
X16473Y-26198D01*
X16414Y-26222D01*
X16388Y-26317D01*
X16700Y-26629D01*
X17011Y-26317D01*
X17011Y-26458D01*
X16770Y-26700D01*
X17082Y-27011D01*
X17177Y-26985D01*
X17250Y-26780D01*
X17250Y-28150D01*
X17011Y-28150D01*
X17011Y-27082D01*
X16700Y-26770D01*
X16629Y-26841D01*
X16629Y-26700D01*
X16317Y-26388D01*
X16222Y-26414D01*
X16149Y-26619D01*
X16160Y-26836D01*
X16222Y-26985D01*
X16317Y-27011D01*
X16629Y-26700D01*
X16629Y-26841D01*
X16388Y-27082D01*
X16414Y-27177D01*
X16619Y-27250D01*
X16836Y-27239D01*
X16985Y-27177D01*
X17011Y-27082D01*
X17011Y-28150D01*
X13450Y-28150D01*
X13450Y-13850D01*
X35750Y-13850D01*
X35750Y-28150D01*
M02*
