M48
;DRILL file {Pcbnew (2013-may-18)-stable} date lun 04 jui 2016 15:07:46 CEST
;FORMAT={-:-/ absolute / inch / decimal}
FMAT,2
INCH,TZ
T1C0.024
T2C0.040
T3C0.043
T4C0.045
T5C0.060
%
G90
G05
M72
T1
X1.67Y-1.97
X1.67Y-2.07
X1.67Y-2.17
X1.67Y-2.27
X1.67Y-2.37
X1.67Y-2.47
X1.67Y-2.57
X1.67Y-2.67
X1.93Y-1.97
X1.93Y-2.07
X1.93Y-2.17
X1.93Y-2.27
X1.93Y-2.37
X1.93Y-2.47
X1.93Y-2.57
X1.93Y-2.67
X2.07Y-1.83
X2.07Y-1.93
X2.07Y-2.03
X2.07Y-2.13
X2.07Y-2.33
X2.07Y-2.43
X2.37Y-1.83
X2.37Y-1.93
X2.37Y-2.23
X2.37Y-2.33
X2.37Y-2.43
T2
X1.44Y-2.26
X1.44Y-2.36
X1.44Y-2.46
X1.44Y-2.56
X1.44Y-2.66
X1.54Y-2.26
X1.54Y-2.36
X1.54Y-2.46
X1.54Y-2.56
X1.54Y-2.66
X2.28Y-2.62
X2.38Y-2.62
T3
X2.5053Y-1.7449
X2.5153Y-2.4149
X2.5958Y-1.4909
X2.5958Y-1.9949
X2.6058Y-2.1609
X2.6058Y-2.6649
X3.0761Y-1.4909
X3.0761Y-1.9949
X3.0861Y-2.1609
X3.0861Y-2.6649
T4
X2.09Y-1.54
X2.19Y-1.54
X2.29Y-1.54
T5
X3.4Y-1.54
X3.4Y-1.74
X3.4Y-2.21
X3.4Y-2.41
T2
X1.48Y-1.51G85X1.48Y-1.57
G05
X1.54Y-1.74G85X1.6Y-1.74
G05
X1.72Y-1.51G85X1.72Y-1.57
G05
T0
M30
